<?xml version="1.0" encoding="UTF-8"?>
<svg id="Layer_2" data-name="Layer 2" xmlns="http://www.w3.org/2000/svg" viewBox="0 0 99.18 88.36">
  <g id="Layer_1-2" data-name="Layer 1">
    <g id="Laag_2" data-name="Laag 2">
      <g id="Layer_1-3" data-name="Layer 1">
        <g id="layer1">
          <g id="g6206">
            <path id="path5903" d="M49.6,0C22.2,0,0,18.37,0,41.03c0,14.42,9.07,27.19,22.73,34.48l.34.41.25.43.2.43v1.84l-.21.72-.34.79-.43.7-.79,1.16-1.13,1.52-.97,1.18-1.25,1.29-.52.57-.48.63-.16.29v.41l.14.3.18.18h1.18l.64-.16,1.02-.27,1.38-.39,1.79-.61,2.13-.79,1.13-.5,1.5-.73,1.79-1.06,1.34-.82.93-.66.82-.64.68-.45.52-.29.39-.16.48-.16.72-.21h0c4.43,1.03,8.97,1.54,13.52,1.54,27.38.05,49.65-18.32,49.65-40.96S76.91,0,49.6,0Z" fill="#fff" stroke-width="0"/>
          </g>
        </g>
      </g>
    </g>
  </g>
</svg>