<?xml version="1.0" encoding="UTF-8"?>
<svg id="Layer_2" data-name="Layer 2" xmlns="http://www.w3.org/2000/svg" viewBox="0 0 205.56 194.45">
  <g id="Layer_2-2" data-name="Layer 2">
    <g id="Laag_1" data-name="Laag 1">
      <path d="M71.97,194.44h0c-11.13,0-28.62-4.82-39.12-13.76-10.34-8.8-15.23-15.7-18.68-26.36C7.47,133.68.68,68.28.61,67.62c0-.11-1.91-15.7,1.02-31.81C5.54,14.29,15.71,2.37,31.87.39c2.07-.26,4.28-.39,6.57-.39,40.21,0,93.03,39,98.92,43.45,24.65,18.62,66.26,53.42,68.05,77.34,1.09,14.59-4.12,26.69-15.49,35.97-9.54,7.79-21.62,12.33-31.31,15.97-1.77.67-3.42,1.29-4.96,1.89-18.86,7.38-59.37,18.77-79.94,19.79-.56.03-1.13.04-1.73.04h0ZM38.44,4.59c-2.1,0-4.12.12-6.01.35-13.94,1.71-22.78,12.37-26.28,31.69-2.77,15.29-.99,30.32-.97,30.47.07.7,6.81,65.62,13.35,85.81,3.16,9.75,7.68,16.1,17.29,24.28,9.67,8.22,25.84,12.66,36.15,12.66h0c.52,0,1.02,0,1.5-.04,20.11-1,59.92-12.2,78.5-19.48,1.56-.61,3.23-1.24,4.97-1.89,18.4-6.91,46.12-17.34,43.89-47.32-1.76-23.58-51.14-62.61-66.24-74.01-5.76-4.35-57.44-42.52-96.15-42.52h0ZM32.69,96.08v-23.65h5.2v18.92h11.79v4.73h-16.99ZM56.13,96.08v-23.65h5.2v23.65h-5.2ZM81.75,96.25h-4.59l-9.56-23.82h5.74l6.18,16.65,6.18-16.65h5.61s-9.56,23.82-9.56,23.82ZM97.53,96.08v-23.65h17.84v4.63h-12.67v4.8h11.15v4.63h-11.15v4.97h12.84v4.63h-18.01,0ZM43.09,132.78c-6.96,0-12.13-5.37-12.13-12.16v-.07c0-6.72,5.07-12.23,12.33-12.23,4.46,0,7.13,1.49,9.32,3.65l-3.31,3.82c-1.82-1.66-3.68-2.67-6.05-2.67-3.99,0-6.86,3.31-6.86,7.37v.07c0,4.05,2.8,7.43,6.86,7.43,2.7,0,4.36-1.08,6.21-2.77l3.31,3.34c-2.43,2.6-5.14,4.22-9.7,4.22h.02ZM73.79,132.37l-5.07-7.57h-4.09v7.57h-5.2v-23.65h10.81c5.57,0,8.92,2.94,8.92,7.8v.07c0,3.82-2.06,6.22-5.07,7.33l5.78,8.44h-6.08ZM73.89,116.8c0-2.23-1.55-3.38-4.09-3.38h-5.17v6.79h5.27c2.53,0,3.99-1.35,3.99-3.34v-.07ZM97.83,132.78c-7.3,0-12.54-5.44-12.54-12.16v-.07c0-6.72,5.3-12.23,12.6-12.23s12.53,5.44,12.53,12.16v.07c0,6.72-5.3,12.23-12.6,12.23h.01ZM104.99,120.55c0-4.05-2.97-7.43-7.16-7.43s-7.1,3.31-7.1,7.37v.07c0,4.05,2.97,7.43,7.16,7.43s7.09-3.31,7.09-7.37v-.07h.01ZM142.55,132.54h-4.53l-5.34-15.47-5.34,15.47h-4.53l-8.07-23.82h5.57l4.9,16.01,5.3-16.08h4.46l5.3,16.08,4.9-16.01h5.44l-8.07,23.82h0ZM166.2,132.37h-9.22v-23.65h9.22c7.43,0,12.57,5.1,12.57,11.76v.07c0,6.65-5.13,11.82-12.57,11.82h0ZM173.33,120.55c0-4.19-2.87-7.13-7.13-7.13h-4.02v14.26h4.02c4.26,0,7.13-2.87,7.13-7.06v-.07Z" fill="#fff" stroke-width="0"/>
    </g>
  </g>
</svg>