<?xml version="1.0" encoding="UTF-8"?>
<svg id="Laag_1" data-name="Laag 1" xmlns="http://www.w3.org/2000/svg" xmlns:xlink="http://www.w3.org/1999/xlink" version="1.1" viewBox="0 0 283.5 283.5">
  <defs>
    <style>
      .cls-1 {
        fill: url(#linear-gradient);
        filter: url(#drop-shadow-1);
      }

      .cls-1, .cls-2 {
        stroke-width: 0px;
      }

      .cls-2 {
        fill: #fff;
      }
    </style>
    <linearGradient id="linear-gradient" x1="141.8" y1="49.4" x2="141.8" y2="239.2" gradientTransform="translate(0 286) scale(1 -1)" gradientUnits="userSpaceOnUse">
      <stop offset="0" stop-color="#33bfc4"/>
      <stop offset="1" stop-color="#312869"/>
    </linearGradient>
    <filter id="drop-shadow-1" filterUnits="userSpaceOnUse">
      <feOffset dx="3" dy="5"/>
      <feGaussianBlur result="blur" stdDeviation="3"/>
      <feFlood flood-color="#0a1e54" flood-opacity=".7"/>
      <feComposite in2="blur" operator="in"/>
      <feComposite in="SourceGraphic"/>
    </filter>
  </defs>
  <path class="cls-2" d="M212.3,165.2h0c0,4.3-2.8,7.2-7.1,7.2h-4v-14.3h4c4.2,0,7.1,2.9,7.1,7.1Z"/>
  <path class="cls-2" d="M108.8,158.1h-5.2v6.8h5.3c2.5,0,4-1.3,4-3.3h0c-.1-2.4-1.6-3.5-4.1-3.5ZM136.7,157.7c-4.2,0-7.1,3.3-7.1,7.4h0c0,4.1,3,7.5,7.2,7.5s7.1-3.3,7.1-7.4-2.9-7.4-7.2-7.5ZM136.7,157.7c-4.2,0-7.1,3.3-7.1,7.4h0c0,4.1,3,7.5,7.2,7.5s7.1-3.3,7.1-7.4-2.9-7.4-7.2-7.5ZM108.8,158.1h-5.2v6.8h5.3c2.5,0,4-1.3,4-3.3h0c-.1-2.4-1.6-3.5-4.1-3.5ZM108.8,158.1h-5.2v6.8h5.3c2.5,0,4-1.3,4-3.3h0c-.1-2.4-1.6-3.5-4.1-3.5ZM136.7,157.7c-4.2,0-7.1,3.3-7.1,7.4h0c0,4.1,3,7.5,7.2,7.5s7.1-3.3,7.1-7.4-2.9-7.4-7.2-7.5ZM136.7,157.7c-4.2,0-7.1,3.3-7.1,7.4h0c0,4.1,3,7.5,7.2,7.5s7.1-3.3,7.1-7.4-2.9-7.4-7.2-7.5ZM108.8,158.1h-5.2v6.8h5.3c2.5,0,4-1.3,4-3.3h0c-.1-2.4-1.6-3.5-4.1-3.5ZM108.8,158.1h-5.2v6.8h5.3c2.5,0,4-1.3,4-3.3h0c-.1-2.4-1.6-3.5-4.1-3.5ZM136.7,157.7c-4.2,0-7.1,3.3-7.1,7.4h0c0,4.1,3,7.5,7.2,7.5s7.1-3.3,7.1-7.4-2.9-7.4-7.2-7.5ZM136.7,157.7c-4.2,0-7.1,3.3-7.1,7.4h0c0,4.1,3,7.5,7.2,7.5s7.1-3.3,7.1-7.4-2.9-7.4-7.2-7.5ZM108.8,158.1h-5.2v6.8h5.3c2.5,0,4-1.3,4-3.3h0c-.1-2.4-1.6-3.5-4.1-3.5ZM218.4,142.1c-8.6-10-20.4-15.3-30.4-23.8l-128.2-11.6v86.6h165.5l-6.9-51.3ZM136.6,117.1h17.8v4.6h-12.7v4.8h11.1v4.6h-11.1v5h12.8v4.6h-17.9v-23.6ZM71.6,117.1h5.2v18.9h11.8v4.7h-17v-23.6ZM82,177.6c-6.9,0-12.1-5.4-12.1-12.2h0c0-6.8,5-12.3,12.3-12.3s7.1,1.4,9.3,3.6l-3.3,3.8c-1.8-1.7-3.6-2.7-6-2.7-4,0-6.9,3.3-6.9,7.4h0c0,4.1,2.8,7.5,6.9,7.5s4.3-1.1,6.2-2.8l3.3,3.3c-2.4,2.6-5.1,4.2-9.7,4.4ZM95.1,117.1h5.2v23.6h-5.2v-23.6ZM112.8,177l-5.1-7.6h-4.1v7.6h-5.2v-23.6h10.8c5.6,0,8.9,2.9,8.9,7.8h0c0,3.9-2.1,6.3-5.1,7.4l5.8,8.4h-6ZM116.2,140.9l-9.6-23.8h5.7l6.2,16.7,6.2-16.7h5.6l-9.6,23.8h-4.5ZM136.8,177.4c-7.3,0-12.5-5.5-12.5-12.2h0c0-6.8,5.3-12.3,12.6-12.3s12.5,5.5,12.5,12.2-5.3,12.3-12.6,12.3ZM181.4,177.2h-4.5l-5.3-15.5-5.3,15.5h-4.5l-8.1-23.8h5.6l4.9,16,5.3-16.1h4.5l5.3,16.1,4.9-16h5.4l-8.2,23.8ZM205.1,177h-9.2v-23.7h9.2c7.5,0,12.6,5.1,12.6,11.8s-5.1,11.9-12.6,11.9ZM136.7,157.7c-4.2,0-7.1,3.3-7.1,7.4h0c0,4.1,3,7.5,7.2,7.5s7.1-3.3,7.1-7.4-2.9-7.4-7.2-7.5ZM108.8,158.1h-5.2v6.8h5.3c2.5,0,4-1.3,4-3.3h0c-.1-2.4-1.6-3.5-4.1-3.5ZM108.8,158.1h-5.2v6.8h5.3c2.5,0,4-1.3,4-3.3h0c-.1-2.4-1.6-3.5-4.1-3.5ZM136.7,157.7c-4.2,0-7.1,3.3-7.1,7.4h0c0,4.1,3,7.5,7.2,7.5s7.1-3.3,7.1-7.4-2.9-7.4-7.2-7.5ZM136.7,157.7c-4.2,0-7.1,3.3-7.1,7.4h0c0,4.1,3,7.5,7.2,7.5s7.1-3.3,7.1-7.4-2.9-7.4-7.2-7.5ZM108.8,158.1h-5.2v6.8h5.3c2.5,0,4-1.3,4-3.3h0c-.1-2.4-1.6-3.5-4.1-3.5ZM108.8,158.1h-5.2v6.8h5.3c2.5,0,4-1.3,4-3.3h0c-.1-2.4-1.6-3.5-4.1-3.5ZM136.7,157.7c-4.2,0-7.1,3.3-7.1,7.4h0c0,4.1,3,7.5,7.2,7.5s7.1-3.3,7.1-7.4-2.9-7.4-7.2-7.5ZM136.7,157.7c-4.2,0-7.1,3.3-7.1,7.4h0c0,4.1,3,7.5,7.2,7.5s7.1-3.3,7.1-7.4-2.9-7.4-7.2-7.5ZM108.8,158.1h-5.2v6.8h5.3c2.5,0,4-1.3,4-3.3h0c-.1-2.4-1.6-3.5-4.1-3.5ZM136.7,157.7c-4.2,0-7.1,3.3-7.1,7.4h0c0,4.1,3,7.5,7.2,7.5s7.1-3.3,7.1-7.4-2.9-7.4-7.2-7.5ZM136.7,157.7c-4.2,0-7.1,3.3-7.1,7.4h0c0,4.1,3,7.5,7.2,7.5s7.1-3.3,7.1-7.4-2.9-7.4-7.2-7.5Z"/>
  <path class="cls-1" d="M136.7,157.7c-4.2,0-7.1,3.3-7.1,7.4h0c0,4.1,3,7.5,7.2,7.5s7.1-3.3,7.1-7.4-2.9-7.4-7.2-7.5ZM108.8,158.1h-5.2v6.8h5.3c2.5,0,4-1.3,4-3.3h0c-.1-2.4-1.6-3.5-4.1-3.5ZM205.2,158.1h-4v14.3h4c4.3,0,7.1-2.9,7.1-7.1h0c0-4.3-2.9-7.2-7.1-7.2ZM108.8,158.1h-5.2v6.8h5.3c2.5,0,4-1.3,4-3.3h0c-.1-2.4-1.6-3.5-4.1-3.5ZM136.7,157.7c-4.2,0-7.1,3.3-7.1,7.4h0c0,4.1,3,7.5,7.2,7.5s7.1-3.3,7.1-7.4-2.9-7.4-7.2-7.5ZM205.2,158.1h-4v14.3h4c4.3,0,7.1-2.9,7.1-7.1h0c0-4.3-2.9-7.2-7.1-7.2ZM108.8,158.1h-5.2v6.8h5.3c2.5,0,4-1.3,4-3.3h0c-.1-2.4-1.6-3.5-4.1-3.5ZM136.7,157.7c-4.2,0-7.1,3.3-7.1,7.4h0c0,4.1,3,7.5,7.2,7.5s7.1-3.3,7.1-7.4-2.9-7.4-7.2-7.5ZM205.2,158.1h-4v14.3h4c4.3,0,7.1-2.9,7.1-7.1h0c0-4.3-2.9-7.2-7.1-7.2ZM108.8,158.1h-5.2v6.8h5.3c2.5,0,4-1.3,4-3.3h0c-.1-2.4-1.6-3.5-4.1-3.5ZM136.7,157.7c-4.2,0-7.1,3.3-7.1,7.4h0c0,4.1,3,7.5,7.2,7.5s7.1-3.3,7.1-7.4-2.9-7.4-7.2-7.5ZM205.2,158.1h-4v14.3h4c4.3,0,7.1-2.9,7.1-7.1h0c0-4.3-2.9-7.2-7.1-7.2ZM136.7,157.7c-4.2,0-7.1,3.3-7.1,7.4h0c0,4.1,3,7.5,7.2,7.5s7.1-3.3,7.1-7.4-2.9-7.4-7.2-7.5ZM108.8,158.1h-5.2v6.8h5.3c2.5,0,4-1.3,4-3.3h0c-.1-2.4-1.6-3.5-4.1-3.5ZM205.2,158.1h-4v14.3h4c4.3,0,7.1-2.9,7.1-7.1h0c0-4.3-2.9-7.2-7.1-7.2ZM108.8,158.1h-5.2v6.8h5.3c2.5,0,4-1.3,4-3.3h0c-.1-2.4-1.6-3.5-4.1-3.5ZM136.7,157.7c-4.2,0-7.1,3.3-7.1,7.4h0c0,4.1,3,7.5,7.2,7.5s7.1-3.3,7.1-7.4-2.9-7.4-7.2-7.5ZM205.2,158.1h-4v14.3h4c4.3,0,7.1-2.9,7.1-7.1h0c0-4.3-2.9-7.2-7.1-7.2ZM136.7,157.7c-4.2,0-7.1,3.3-7.1,7.4h0c0,4.1,3,7.5,7.2,7.5s7.1-3.3,7.1-7.4-2.9-7.4-7.2-7.5ZM108.8,158.1h-5.2v6.8h5.3c2.5,0,4-1.3,4-3.3h0c-.1-2.4-1.6-3.5-4.1-3.5ZM205.2,158.1h-4v14.3h4c4.3,0,7.1-2.9,7.1-7.1h0c0-4.3-2.9-7.2-7.1-7.2ZM108.8,158.1h-5.2v6.8h5.3c2.5,0,4-1.3,4-3.3h0c-.1-2.4-1.6-3.5-4.1-3.5ZM136.7,157.7c-4.2,0-7.1,3.3-7.1,7.4h0c0,4.1,3,7.5,7.2,7.5s7.1-3.3,7.1-7.4-2.9-7.4-7.2-7.5ZM205.2,158.1h-4v14.3h4c4.3,0,7.1-2.9,7.1-7.1h0c0-4.3-2.9-7.2-7.1-7.2ZM136.7,157.7c-4.2,0-7.1,3.3-7.1,7.4h0c0,4.1,3,7.5,7.2,7.5s7.1-3.3,7.1-7.4-2.9-7.4-7.2-7.5ZM108.8,158.1h-5.2v6.8h5.3c2.5,0,4-1.3,4-3.3h0c-.1-2.4-1.6-3.5-4.1-3.5ZM205.2,158.1h-4v14.3h4c4.3,0,7.1-2.9,7.1-7.1h0c0-4.3-2.9-7.2-7.1-7.2ZM108.8,158.1h-5.2v6.8h5.3c2.5,0,4-1.3,4-3.3h0c-.1-2.4-1.6-3.5-4.1-3.5ZM136.7,157.7c-4.2,0-7.1,3.3-7.1,7.4h0c0,4.1,3,7.5,7.2,7.5s7.1-3.3,7.1-7.4-2.9-7.4-7.2-7.5ZM205.2,158.1h-4v14.3h4c4.3,0,7.1-2.9,7.1-7.1h0c0-4.3-2.9-7.2-7.1-7.2ZM136.7,157.7c-4.2,0-7.1,3.3-7.1,7.4h0c0,4.1,3,7.5,7.2,7.5s7.1-3.3,7.1-7.4-2.9-7.4-7.2-7.5ZM108.8,158.1h-5.2v6.8h5.3c2.5,0,4-1.3,4-3.3h0c-.1-2.4-1.6-3.5-4.1-3.5ZM205.2,158.1h-4v14.3h4c4.3,0,7.1-2.9,7.1-7.1h0c0-4.3-2.9-7.2-7.1-7.2ZM242,165.5c-.6-8.9-7.4-19.6-16.6-30.3-8.6-10-19.3-19.9-29.3-28.4-8.1-6.9-15.7-12.8-21.2-17-5.8-4.4-58-43-97.5-43s-4.3.2-6.3.4c-15,1.8-24.6,13.1-28.1,33.5-2.9,15.7-1,31-1,31.2,0,.7,6.8,65.8,13.4,86.2,3.3,10.2,8,16.8,18,25.3,5,4.3,11.7,7.6,18.5,9.8,6.8,2.2,13.7,3.4,19.1,3.4h1.6c20.3-1,60.5-12.3,79.2-19.6,1.6-.6,3.2-1.2,5-1.9,18.9-7.2,47.6-17.9,45.2-49.6ZM217.7,165.1c0,6.7-5.1,11.9-12.6,11.9h-9.2v-23.7h9.2c7.5,0,12.6,5.1,12.6,11.8ZM98.4,153.4h10.8c5.6,0,8.9,2.9,8.9,7.8h0c0,3.9-2.1,6.3-5.1,7.4l5.8,8.4h-6l-5.1-7.6h-4.1v7.6h-5.2v-23.6ZM95.1,140.7v-23.6h5.2v23.6h-5.2ZM116.2,140.9l-9.6-23.8h5.7l6.2,16.7,6.2-16.7h5.6l-9.6,23.8h-4.5ZM124.3,165.1c0-6.7,5.3-12.2,12.6-12.2s12.5,5.5,12.5,12.2-5.3,12.3-12.6,12.3-12.5-5.5-12.5-12.2h0ZM136.6,140.7v-23.6h17.8v4.6h-12.7v4.8h11.1v4.6h-11.1v5h12.8v4.6h-17.9ZM159.3,153.4l4.9,16,5.3-16.1h4.5l5.3,16.1,4.9-16h5.4l-8.2,23.8h-4.5l-5.3-15.5-5.3,15.5h-4.5l-8.1-23.8h5.6ZM88.6,136v4.7h-17v-23.6h5.2v18.9h11.8ZM69.9,165.3c0-6.7,5-12.2,12.3-12.2s7.1,1.4,9.3,3.6l-3.3,3.8c-1.8-1.7-3.6-2.7-6-2.7-4,0-6.9,3.3-6.9,7.4h0c0,4.1,2.8,7.5,6.9,7.5s4.3-1.1,6.2-2.8l3.3,3.3c-2.4,2.6-5.1,4.2-9.7,4.4-6.9,0-12.1-5.4-12.1-12.2h0ZM212.3,165.3h0c0-4.3-2.9-7.2-7.1-7.2h-4v14.3h4c4.3,0,7.1-2.9,7.1-7.1ZM136.8,172.6c4.2,0,7.1-3.3,7.1-7.4s-2.9-7.4-7.2-7.5c-4.2,0-7.1,3.3-7.1,7.4h0c0,4.1,3,7.5,7.2,7.5ZM112.9,161.6h0c-.1-2.4-1.6-3.5-4.1-3.5h-5.2v6.8h5.3c2.5,0,4-1.3,4-3.3ZM205.2,158.1h-4v14.3h4c4.3,0,7.1-2.9,7.1-7.1h0c0-4.3-2.9-7.2-7.1-7.2ZM108.8,158.1h-5.2v6.8h5.3c2.5,0,4-1.3,4-3.3h0c-.1-2.4-1.6-3.5-4.1-3.5ZM136.7,157.7c-4.2,0-7.1,3.3-7.1,7.4h0c0,4.1,3,7.5,7.2,7.5s7.1-3.3,7.1-7.4-2.9-7.4-7.2-7.5ZM205.2,158.1h-4v14.3h4c4.3,0,7.1-2.9,7.1-7.1h0c0-4.3-2.9-7.2-7.1-7.2ZM136.7,157.7c-4.2,0-7.1,3.3-7.1,7.4h0c0,4.1,3,7.5,7.2,7.5s7.1-3.3,7.1-7.4-2.9-7.4-7.2-7.5ZM108.8,158.1h-5.2v6.8h5.3c2.5,0,4-1.3,4-3.3h0c-.1-2.4-1.6-3.5-4.1-3.5ZM205.2,158.1h-4v14.3h4c4.3,0,7.1-2.9,7.1-7.1h0c0-4.3-2.9-7.2-7.1-7.2ZM108.8,158.1h-5.2v6.8h5.3c2.5,0,4-1.3,4-3.3h0c-.1-2.4-1.6-3.5-4.1-3.5ZM136.7,157.7c-4.2,0-7.1,3.3-7.1,7.4h0c0,4.1,3,7.5,7.2,7.5s7.1-3.3,7.1-7.4-2.9-7.4-7.2-7.5ZM205.2,158.1h-4v14.3h4c4.3,0,7.1-2.9,7.1-7.1h0c0-4.3-2.9-7.2-7.1-7.2ZM136.7,157.7c-4.2,0-7.1,3.3-7.1,7.4h0c0,4.1,3,7.5,7.2,7.5s7.1-3.3,7.1-7.4-2.9-7.4-7.2-7.5ZM108.8,158.1h-5.2v6.8h5.3c2.5,0,4-1.3,4-3.3h0c-.1-2.4-1.6-3.5-4.1-3.5ZM205.2,158.1h-4v14.3h4c4.3,0,7.1-2.9,7.1-7.1h0c0-4.3-2.9-7.2-7.1-7.2ZM108.8,158.1h-5.2v6.8h5.3c2.5,0,4-1.3,4-3.3h0c-.1-2.4-1.6-3.5-4.1-3.5ZM136.7,157.7c-4.2,0-7.1,3.3-7.1,7.4h0c0,4.1,3,7.5,7.2,7.5s7.1-3.3,7.1-7.4-2.9-7.4-7.2-7.5ZM205.2,158.1h-4v14.3h4c4.3,0,7.1-2.9,7.1-7.1h0c0-4.3-2.9-7.2-7.1-7.2ZM136.7,157.7c-4.2,0-7.1,3.3-7.1,7.4h0c0,4.1,3,7.5,7.2,7.5s7.1-3.3,7.1-7.4-2.9-7.4-7.2-7.5ZM108.8,158.1h-5.2v6.8h5.3c2.5,0,4-1.3,4-3.3h0c-.1-2.4-1.6-3.5-4.1-3.5ZM205.2,158.1h-4v14.3h4c4.3,0,7.1-2.9,7.1-7.1h0c0-4.3-2.9-7.2-7.1-7.2ZM108.8,158.1h-5.2v6.8h5.3c2.5,0,4-1.3,4-3.3h0c-.1-2.4-1.6-3.5-4.1-3.5ZM136.7,157.7c-4.2,0-7.1,3.3-7.1,7.4h0c0,4.1,3,7.5,7.2,7.5s7.1-3.3,7.1-7.4-2.9-7.4-7.2-7.5ZM205.2,158.1h-4v14.3h4c4.3,0,7.1-2.9,7.1-7.1h0c0-4.3-2.9-7.2-7.1-7.2ZM136.7,157.7c-4.2,0-7.1,3.3-7.1,7.4h0c0,4.1,3,7.5,7.2,7.5s7.1-3.3,7.1-7.4-2.9-7.4-7.2-7.5ZM108.8,158.1h-5.2v6.8h5.3c2.5,0,4-1.3,4-3.3h0c-.1-2.4-1.6-3.5-4.1-3.5ZM108.8,158.1h-5.2v6.8h5.3c2.5,0,4-1.3,4-3.3h0c-.1-2.4-1.6-3.5-4.1-3.5ZM136.7,157.7c-4.2,0-7.1,3.3-7.1,7.4h0c0,4.1,3,7.5,7.2,7.5s7.1-3.3,7.1-7.4-2.9-7.4-7.2-7.5ZM205.2,158.1h-4v14.3h4c4.3,0,7.1-2.9,7.1-7.1h0c0-4.3-2.9-7.2-7.1-7.2Z"/>
  <polygon class="cls-2" points="154.5 136.1 154.5 140.7 136.6 140.7 136.6 117.1 154.4 117.1 154.4 121.7 141.7 121.7 141.7 126.5 152.8 126.5 152.8 131.1 141.7 131.1 141.7 136.1 154.5 136.1"/>
  <polygon class="cls-2" points="130.3 117.1 120.7 140.9 116.2 140.9 106.6 117.1 112.3 117.1 118.5 133.8 124.7 117.1 130.3 117.1"/>
  <rect class="cls-2" x="95.1" y="117.1" width="5.2" height="23.6"/>
  <polygon class="cls-2" points="88.6 136 88.6 140.7 71.6 140.7 71.6 117.1 76.8 117.1 76.8 136 88.6 136"/>
  <path class="cls-2" d="M91.7,173.2c-2.4,2.6-5.1,4.2-9.7,4.4-6.9,0-12.1-5.4-12.1-12.2h0c0-6.8,5-12.3,12.3-12.3s7.1,1.4,9.3,3.6l-3.3,3.8c-1.8-1.7-3.6-2.7-6-2.7-4,0-6.9,3.3-6.9,7.4h0c0,4.1,2.8,7.5,6.9,7.5s4.3-1.1,6.2-2.8l3.3,3.3Z"/>
  <path class="cls-2" d="M113,168.6c3-1.1,5.1-3.5,5.1-7.3h0c0-5-3.3-7.9-8.9-7.9h-10.8v23.6h5.2v-7.6h4.1l5.1,7.6h6l-5.8-8.4ZM112.9,161.6c0,2-1.5,3.3-4,3.3h-5.3v-6.8h5.2c2.5,0,4,1.1,4.1,3.4h0Z"/>
  <path class="cls-2" d="M136.9,152.9c-7.3,0-12.6,5.5-12.6,12.2h0c0,6.8,5.2,12.3,12.5,12.3s12.6-5.5,12.6-12.3-5.2-12.2-12.5-12.2ZM136.8,172.6c-4.2,0-7.2-3.4-7.2-7.4h0c0-4.2,2.9-7.5,7.1-7.5,4.3,0,7.2,3.4,7.2,7.5s-2.9,7.4-7.1,7.4Z"/>
  <polygon class="cls-2" points="189.6 153.4 181.4 177.2 176.9 177.2 171.6 161.7 166.3 177.2 161.8 177.2 153.7 153.4 159.3 153.4 164.2 169.4 169.5 153.3 174 153.3 179.3 169.4 184.2 153.4 189.6 153.4"/>
  <path class="cls-2" d="M205.1,153.3h-9.2v23.7h9.2c7.5,0,12.6-5.2,12.6-11.9s-5.1-11.8-12.6-11.8ZM212.3,165.3c0,4.2-2.8,7.1-7.1,7.1h-4v-14.3h4c4.2,0,7.1,2.9,7.1,7.1h0Z"/>
</svg>