<?xml version="1.0" encoding="UTF-8"?>
<svg id="Layer_2" data-name="Layer 2" xmlns="http://www.w3.org/2000/svg" viewBox="0 0 654.8 619.08">
  <g id="Layer_1-2" data-name="Layer 1">
    <path d="M506.91,548.95c-5.87,2.28-11.09,4.24-16.31,6.2-60.99,23.81-192.12,60.67-258.33,63.93h-5.22c-17.45,0-39.96-3.75-62.17-10.99-22.21-7.27-44.16-18.04-60.47-32.06-32.62-27.72-47.95-49.25-58.71-82.52C24.17,426.96,1.99,214.62,1.99,212.34c0-.65-6.2-50.56,3.26-101.77C16.67,44.03,47.98,7.18,96.91,1.3c6.52-.65,13.37-1.3,20.55-1.3,128.84,0,299.1,125.9,318.02,140.25,63.93,48.27,213.32,168.96,218.86,246.91,7.83,103.4-85.78,138.3-147.43,161.78Z" fill="#302a69" stroke-width="0"/>
  </g>
</svg>