<?xml version="1.0" encoding="UTF-8"?>
<svg id="Layer_2" data-name="Layer 2" xmlns="http://www.w3.org/2000/svg" viewBox="0 0 490.98 480.56">
  <g id="Layer_1-2" data-name="Layer 1">
    <polygon points="490.98 0 490.98 349.65 483.18 337.61 483.06 337.41 439.07 371.11 439.01 371 416.85 337.31 373.3 370.91 351.21 337.31 351.17 337.35 351.14 337.31 307.28 370.91 285.57 337.41 241.59 371.11 241.52 371 219.37 337.31 175.56 371.11 153.72 337.41 109.74 371.11 109.67 371 87.52 337.31 43.71 371.11 21.81 337.31 0 354.02 0 0 490.98 0" fill="#e9332a" stroke-width="0"/>
    <polygon points="490.98 349.65 490.98 480.56 0 480.56 0 354.02 21.81 337.31 43.71 371.11 87.52 337.31 109.67 371 109.74 371.11 153.72 337.41 175.56 371.11 219.37 337.31 241.52 371 241.59 371.11 285.57 337.41 307.28 370.91 351.14 337.31 351.17 337.35 351.21 337.31 373.3 370.91 416.85 337.31 439.01 371 439.07 371.11 483.06 337.41 483.18 337.61 490.98 349.65" fill="#fff" stroke-width="0"/>
  </g>
</svg>