<?xml version="1.0" encoding="utf-8"?>
<!-- Generator: Adobe Illustrator 28.1.0, SVG Export Plug-In . SVG Version: 6.00 Build 0)  -->
<svg version="1.1" id="Laag_1" xmlns="http://www.w3.org/2000/svg" xmlns:xlink="http://www.w3.org/1999/xlink" x="0px" y="0px"
	 viewBox="0 0 200.8 189.8" style="enable-background:new 0 0 200.8 189.8;" xml:space="preserve">
<style type="text/css">
	.st0{fill:#FFFFFF;}
</style>
<path class="st0" d="M102.5,118.4L102.5,118.4c0,4.1-2.9,7.4-7.1,7.4c-4.2,0-7.2-3.4-7.2-7.4v-0.1c0-4.1,2.9-7.4,7.1-7.4
	C99.6,111,102.5,114.3,102.5,118.4z M67.4,111.3h-5.2v6.8h5.3c2.5,0,4-1.3,4-3.3v-0.1C71.4,112.4,69.9,111.3,67.4,111.3z
	 M163.8,111.3h-4v14.3h4c4.3,0,7.1-2.9,7.1-7.1v-0.1C170.9,114.2,168,111.3,163.8,111.3z M155.4,168.3c-1.8,0.7-3.4,1.3-5,1.9
	c-18.7,7.3-58.9,18.6-79.2,19.6c-0.5,0-1.1,0-1.6,0l0,0c-10.7,0-27.6-4.6-37.6-13.2c-10-8.5-14.7-15.1-18-25.3
	C7.4,130.9,0.6,65.8,0.6,65.1c0-0.2-1.9-15.5,1-31.2C5.1,13.5,14.7,2.2,29.7,0.4C31.7,0.2,33.8,0,36,0c39.5,0,91.7,38.6,97.5,43
	c19.6,14.8,65.4,51.8,67.1,75.7C203,150.4,174.3,161.1,155.4,168.3z M95.1,93.9h18v-4.6h-12.8v-5h11.1v-4.6h-11.1v-4.8H113v-4.6
	H95.2L95.1,93.9L95.1,93.9z M30.2,93.9h17v-4.7H35.4V70.3h-5.2C30.2,70.3,30.2,93.9,30.2,93.9z M50.3,126.4l-3.3-3.3
	c-1.9,1.7-3.5,2.8-6.2,2.8c-4.1,0-6.9-3.4-6.9-7.4v-0.1c0-4.1,2.9-7.4,6.9-7.4c2.4,0,4.2,1,6,2.7l3.3-3.8c-2.2-2.2-4.9-3.6-9.3-3.6
	c-7.3,0-12.3,5.5-12.3,12.2v0.1c0,6.8,5.2,12.2,12.1,12.2C45.2,130.6,47.9,129,50.3,126.4z M53.7,93.9h5.2V70.3h-5.2V93.9z
	 M77.4,130.2l-5.8-8.4c3-1.1,5.1-3.5,5.1-7.3v-0.1c0-4.9-3.3-7.8-8.9-7.8H57v23.6h5.2v-7.6h4.1l5.1,7.6H77.4z M79.3,94.1l9.6-23.8
	h-5.6L77.1,87l-6.2-16.7h-5.7l9.6,23.8H79.3z M108,118.3c0-6.7-5.2-12.2-12.5-12.2s-12.6,5.5-12.6,12.2v0.1
	c0,6.7,5.2,12.2,12.5,12.2C102.7,130.6,108,125.1,108,118.3L108,118.3z M148.2,106.6h-5.4l-4.9,16l-5.3-16.1h-4.5l-5.3,16.1l-4.9-16
	h-5.6l8.1,23.8h4.5l5.3-15.5l5.3,15.5h4.5L148.2,106.6z M176.3,118.3c0-6.7-5.1-11.8-12.6-11.8h-9.2v23.7h9.2
	C171.2,130.2,176.3,125,176.3,118.3L176.3,118.3z"/>
</svg>
