<svg xmlns="http://www.w3.org/2000/svg" width="16" height="16" viewBox="0 0 16 16">
    <g fill="none" fill-rule="evenodd">
        <path d="M0 0h16v16H0z"/>
        <path fill="#9D9D9D" d="M2.45 12.083a.548.548 0 0 0-.182-.41.603.603 0 0 0-.43-.173.599.599 0 0 0-.436.173.555.555 0 0 0-.177.41.55.55 0 0 0 .177.415.607.607 0 0 0 .435.169c.166 0 .31-.057.431-.169a.543.543 0 0 0 .182-.415zm1.531-4.666v5.833c0 .158-.06.295-.182.41a.603.603 0 0 1-.43.173H.613a.603.603 0 0 1-.431-.173.548.548 0 0 1-.182-.41V7.417c0-.158.06-.295.182-.41a.603.603 0 0 1 .43-.174H3.37c.166 0 .31.058.43.174a.548.548 0 0 1 .182.41zm11.332 0c0 .522-.176.975-.527 1.358.096.267.144.498.144.692.019.462-.118.878-.412 1.25.109.34.109.695 0 1.066a1.757 1.757 0 0 1-.517.856c.058.68-.099 1.23-.469 1.65-.408.462-1.036.699-1.885.711h-1.235c-.42 0-.88-.047-1.378-.141a12.598 12.598 0 0 1-1.162-.265 54.138 54.138 0 0 1-1.154-.36c-.784-.26-1.288-.395-1.512-.4a.649.649 0 0 1-.43-.178.534.534 0 0 1-.182-.406V7.408c0-.152.057-.285.172-.397a.64.64 0 0 1 .412-.187c.153-.012.395-.191.727-.538.332-.346.654-.714.966-1.102.434-.53.757-.894.967-1.094.115-.11.214-.255.297-.438.083-.182.139-.33.167-.442.029-.112.072-.296.13-.551.044-.237.084-.422.12-.556a2.63 2.63 0 0 1 .186-.474c.089-.182.197-.334.325-.456A.603.603 0 0 1 9.493 1c.294 0 .557.032.79.096.233.064.425.142.575.237.15.094.277.217.382.369.106.152.182.288.23.41.048.122.086.273.115.456.029.182.045.319.048.41.003.091.005.21.005.355 0 .231-.03.462-.091.693-.061.23-.122.413-.182.547a7.336 7.336 0 0 1-.36.674 1.509 1.509 0 0 0-.181.42h2.651c.498 0 .928.173 1.292.52.364.346.546.756.546 1.23z"/>
    </g>
</svg>
