<svg xmlns="http://www.w3.org/2000/svg" width="16" height="16" viewBox="0 0 16 16">
    <g fill="none" fill-rule="evenodd">
        <path d="M0 0h16v16H0z"/>
        <path fill="#EE525F" d="M3.4 3.917a.549.549 0 0 0-.178-.415.593.593 0 0 0-.422-.169.588.588 0 0 0-.6.584.56.56 0 0 0 .173.41.58.58 0 0 0 .427.173.585.585 0 0 0 .422-.173.553.553 0 0 0 .178-.41zm1.5 4.666c0 .158-.06.295-.178.41a.585.585 0 0 1-.422.174H1.6a.585.585 0 0 1-.422-.174.553.553 0 0 1-.178-.41V2.75c0-.158.06-.295.178-.41a.585.585 0 0 1 .422-.173h2.7c.163 0 .303.057.422.173a.553.553 0 0 1 .178.41v5.833zm10.584-1.358c.344.37.516.824.516 1.358a1.7 1.7 0 0 1-.54 1.23c-.352.347-.772.52-1.26.52h-2.597a1.52 1.52 0 0 0 .178.42c.044.073.075.127.094.164.113.224.197.398.253.52.056.12.116.298.178.532.063.234.094.467.094.698a3.81 3.81 0 0 1-.052.766 2.23 2.23 0 0 1-.112.455 2.093 2.093 0 0 1-.225.41 1.298 1.298 0 0 1-.375.37 2.084 2.084 0 0 1-.563.236A2.874 2.874 0 0 1 10.3 15a.585.585 0 0 1-.422-.173 1.583 1.583 0 0 1-.319-.456 2.664 2.664 0 0 1-.182-.474 8.71 8.71 0 0 1-.118-.556 22.674 22.674 0 0 0-.126-.551 2.86 2.86 0 0 0-.164-.442 1.393 1.393 0 0 0-.29-.438c-.207-.2-.523-.565-.948-1.094a16.801 16.801 0 0 0-.947-1.102c-.325-.347-.562-.526-.712-.538a.622.622 0 0 1-.403-.187.542.542 0 0 1-.169-.397V2.75c0-.158.06-.293.178-.406a.63.63 0 0 1 .422-.177c.219-.006.712-.14 1.481-.401.482-.158.858-.278 1.13-.36.272-.082.651-.17 1.139-.265A7.153 7.153 0 0 1 11.2 1h1.21c.83.012 1.446.25 1.846.71.363.42.516.97.46 1.65.243.226.412.511.506.857.106.371.106.727 0 1.067.287.37.422.787.403 1.249 0 .194-.047.425-.14.692z"/>
    </g>
</svg>
