<svg id="Layer_2" data-name="Layer 2" xmlns="http://www.w3.org/2000/svg" xmlns:xlink="http://www.w3.org/1999/xlink" viewBox="0 0 69.6 69.6">
  <defs>
    <filter id="outer-glow-1" filterUnits="userSpaceOnUse">
      <feOffset dx="0" dy="0"/>
      <feGaussianBlur result="blur" stdDeviation="4"/>
      <feFlood flood-color="#ef160c" flood-opacity=".85"/>
      <feComposite in2="blur" operator="in"/>
      <feComposite in="SourceGraphic"/>
    </filter>
    <filter id="outer-glow-2" filterUnits="userSpaceOnUse">
      <feOffset dx="0" dy="0"/>
      <feGaussianBlur result="blur-2" stdDeviation="4"/>
      <feFlood flood-color="#ef160c" flood-opacity=".85"/>
      <feComposite in2="blur-2" operator="in"/>
      <feComposite in="SourceGraphic"/>
    </filter>
    <filter id="outer-glow-3" filterUnits="userSpaceOnUse">
      <feOffset dx="0" dy="0"/>
      <feGaussianBlur result="blur-3" stdDeviation="4"/>
      <feFlood flood-color="#ef160c" flood-opacity=".85"/>
      <feComposite in2="blur-3" operator="in"/>
      <feComposite in="SourceGraphic"/>
    </filter>
  </defs>
  <g id="Layer_1-2" data-name="Layer 1">
    <g>
      <g filter="url(#outer-glow-1)">
        <path d="m34.8,69.6c-14.7,0-27.88-9.3-32.8-23.14-.32-.91.15-1.9,1.06-2.22.91-.33,1.9.15,2.22,1.06,4.43,12.46,16.29,20.82,29.52,20.82,1.34,0,2.69-.09,4.01-.25.96-.12,1.83.55,1.95,1.51.12.95-.55,1.82-1.51,1.95-1.47.19-2.97.28-4.45.28Zm14.91-3.55c-.64,0-1.25-.35-1.55-.96-.43-.86-.09-1.9.77-2.34,2.37-1.2,4.58-2.7,6.58-4.46.72-.64,1.82-.57,2.46.15.64.72.57,1.82-.15,2.46-2.22,1.96-4.68,3.63-7.31,4.96-.25.13-.52.19-.78.19Zm13.96-13.4c-.29,0-.58-.07-.85-.22-.84-.47-1.14-1.53-.67-2.37,2.6-4.64,3.97-9.92,3.97-15.27v-.15c0-.96.78-1.74,1.74-1.74s1.74.78,1.74,1.74v.15c0,5.94-1.52,11.81-4.41,16.97-.32.57-.91.89-1.52.89ZM1.74,36.58c-.96,0-1.74-.74-1.74-1.7,0-.03,0-.13,0-.16,0-5.83,1.51-11.68,4.37-16.82.47-.84,1.52-1.14,2.37-.67.84.47,1.14,1.53.67,2.37-2.57,4.62-3.93,9.88-3.93,15.21,0,.96-.78,1.78-1.74,1.78Zm64.2-11.18c-.71,0-1.38-.44-1.64-1.15C59.85,11.82,48,3.48,34.8,3.48c-1.37,0-2.74.09-4.08.26-.95.13-1.83-.55-1.95-1.5s.55-1.83,1.5-1.95c1.49-.19,3.01-.29,4.53-.29,14.66,0,27.83,9.27,32.77,23.07.32.91-.15,1.9-1.05,2.22-.19.07-.39.1-.59.1ZM12.89,11.78c-.48,0-.96-.2-1.3-.59-.64-.72-.57-1.82.15-2.46,2.21-1.96,4.67-3.63,7.3-4.97.85-.43,1.91-.1,2.34.76.44.86.1,1.9-.76,2.34-2.37,1.21-4.58,2.71-6.57,4.48-.33.29-.74.44-1.15.44Z" fill="#fff"/>
      </g>
      <g filter="url(#outer-glow-2)">
        <path d="m35.38,52.78c-1.28,0-2.32-1.04-2.32-2.32V17.98c0-1.28,1.04-2.32,2.32-2.32s2.32,1.04,2.32,2.32v32.48c0,1.28-1.04,2.32-2.32,2.32Z" fill="#fff"/>
      </g>
      <g filter="url(#outer-glow-3)">
        <path d="m51.62,36.54H19.14c-1.28,0-2.32-1.04-2.32-2.32s1.04-2.32,2.32-2.32h32.48c1.28,0,2.32,1.04,2.32,2.32s-1.04,2.32-2.32,2.32Z" fill="#fff"/>
      </g>
    </g>
  </g>
</svg>