<?xml version="1.0" encoding="UTF-8"?>
<svg id="Layer_2" data-name="Layer 2" xmlns="http://www.w3.org/2000/svg" viewBox="0 0 28.32 46.07">
  <g id="Layer_1-2" data-name="Layer 1">
    <g>
      <polyline points="0 5.43 0 13.58 7.09 8.15 10.61 13.58 17.7 8.15 21.23 13.58 28.32 8.15 28.32 0 21.23 5.43 17.65 0 10.61 5.43 7.09 0 0 5.43" fill="#e9332a" stroke-width="0"/>
      <polyline points="0 21.68 0 29.83 7.09 24.39 10.61 29.83 17.7 24.39 21.23 29.83 28.32 24.39 28.32 16.25 21.23 21.68 17.7 16.25 10.61 21.68 7.09 16.25 0 21.68" fill="#e9332a" stroke-width="0"/>
      <polyline points="0 37.92 0 46.07 7.09 40.64 10.61 46.07 17.7 40.64 21.23 46.07 28.32 40.64 28.32 32.54 21.23 37.92 17.7 32.49 10.61 37.92 7.09 32.49 0 37.92" fill="#e9332a" stroke-width="0"/>
    </g>
  </g>
</svg>