<svg
    xmlns="http://www.w3.org/2000/svg"
    xmlSpace="preserve"
    viewBox="0 0 330 330"
    fill="white"
    >
    <path d="M125 270c8.284 0 15-6.716 15-15v-70.5h32.25c34.325 0 62.25-27.925 62.25-62.25S206.575 60 172.25 60c-.148 0-.294.002-.44.006h-46.79l-.02-.001c-8.284 0-15 6.716-15 15V255c0 8.284 6.716 15 15 15zm47.25-179.994c.122 0 .242-.001.364-.004 17.615.196 31.886 14.587 31.886 32.248 0 17.783-14.468 32.25-32.25 32.25H140V90.006h32.25z" />
    <path d="M325.606 4.393A15 15 0 0 0 314.999 0l-300 .016C6.715.017 0 6.732 0 15.016V315c0 8.284 6.716 15 15 15h300c8.284 0 15-6.716 15-15V15c0-3.979-1.58-7.794-4.394-10.607zM300 300H30V30.015l270-.014V300z" />
</svg>