<?xml version="1.0" encoding="UTF-8"?>
<svg id="Layer_2" data-name="Layer 2" xmlns="http://www.w3.org/2000/svg" viewBox="0 0 147.56 131.46">
  <g id="Layer_1-2" data-name="Layer 1">
    <g id="Laag_2" data-name="Laag 2">
      <g id="Layer_1-3" data-name="Layer 1">
        <g id="layer1">
          <g id="g6206">
            <path id="path5903" d="M73.79,0C33.02,0,0,27.33,0,61.05c0,21.45,13.49,40.45,33.82,51.31l.51.61.37.64.29.64v2.74l-.32,1.06-.51,1.17-.64,1.04-1.17,1.73-1.68,2.26-1.44,1.76-1.86,1.92-.77.85-.72.93-.24.43v.61l.21.45.27.27h1.76l.96-.24,1.52-.4,2.05-.59,2.66-.9,3.17-1.17,1.68-.75,2.24-1.09,2.66-1.57,2-1.22,1.38-.98,1.22-.96,1.01-.67.77-.43.59-.24.72-.24,1.06-.32h0c6.6,1.53,13.35,2.3,20.12,2.29,40.74.08,73.87-27.25,73.87-60.94S114.43,0,73.79,0Z" fill="#fff" stroke-width="0"/>
          </g>
        </g>
      </g>
    </g>
  </g>
</svg>