<?xml version="1.0" encoding="utf-8"?>
<!-- Generator: Adobe Illustrator 28.3.0, SVG Export Plug-In . SVG Version: 6.00 Build 0)  -->
<svg version="1.1" id="Laag_1" xmlns="http://www.w3.org/2000/svg" xmlns:xlink="http://www.w3.org/1999/xlink" x="0px" y="0px"
	 viewBox="0 0 867.2 867.2" style="enable-background:new 0 0 867.2 867.2;" xml:space="preserve">
<style type="text/css">
	.st0{fill:#FFFFFF;}
	.st1{fill:#ED1C24;}
	.st2{fill:#BB9753;}
</style>
<g>
	<g>
		<path class="st0" d="M433.5,731.3c-204,0-369.9-115.7-369.9-258c0-142.2,166-258,369.9-258c204.1,0,370.1,115.7,370.1,258
			C803.6,615.6,637.6,731.3,433.5,731.3z"/>
		<path class="st1" d="M433.6,283c-63.4,0-122.3,12.2-171,33.1h342.1C556,295.3,497.1,283,433.6,283z M433.6,663.6
			c64.6,0,124.4-12.7,173.6-34.2H260.1C309.3,651,369.1,663.6,433.6,663.6z M187.7,584.6h5.2l0.9,1.7l2.4-1.7h483.6
			c15.7-13.7,28.6-28.7,38.2-44.7H149.5C159,556,171.9,571,187.7,584.6z M734.8,450.4H132.6c-1.4,7.5-2.2,15.2-2.2,22.9
			c0,7.4,0.7,14.6,2,21.8H735c1.3-7.1,2-14.4,2-21.8C737,465.6,736.2,457.9,734.8,450.4z M678.4,360.9H189
			c-15.9,13.6-29.1,28.7-38.8,44.7h567C707.5,389.6,694.4,374.6,678.4,360.9z"/>
		<g>
			<path class="st2" d="M74.7,473.4c0-136.4,160.7-247,358.9-247c198.2,0,359.1,110.6,359.1,247c0,136.3-160.8,247-359.1,247
				C235.4,720.3,74.7,609.7,74.7,473.4 M433.6,663.6c167.1,0,302.3-85.2,302.3-190.3c0-105.1-135.2-190.3-302.3-190.3
				c-166.9,0-302.3,85.2-302.3,190.3C131.3,578.4,266.7,663.6,433.6,663.6z"/>
		</g>
		<path class="st0" d="M194.2,587.5c43.7-31.2,73.8-76.8,87.2-143c13.8-67.9,6.5-133.3,2.5-159.4l499.8,175.7L196.4,587.1"/>
		<path class="st0" d="M754.6,420.6c-3.2,1.2-5.8,3.5-7.4,6.6c-1.5,2.8-1.8,6-1,9.3l1.1,3.9c0.6,1.8,1,4.1,1.5,6.6
			c0.1,0.7,0.3,1.3,0.4,2c0.1,0.6,0.2,1.2,0.3,1.8c0.2,1,0.4,1.9,0.5,2.9l0.9,8.1c0.3,2,2,3.4,4,3.4c0.1,0,0.2,0,0.3,0
			c1.1-0.1,2.3-0.6,3-1.5c0.6-0.8,0.9-1.7,0.8-2.7l-0.5-4.2c-0.1-1.1-0.3-2.4-0.4-3.7l-0.1-0.6c-0.1-1-0.4-2.1-0.6-3.1
			c-0.1-0.6-0.2-1.2-0.3-1.8l-0.4-2c-0.5-2.7-1-5.2-1.6-7.1l-1.1-4.1c-0.3-1.2-0.1-2.5,0.5-3.7c0.6-1.1,1.6-2,2.8-2.4
			c1.2-0.4,2.6-0.3,3.8,0.3c1.1,0.6,1.9,1.7,2.3,3l1.2,4.4c0.7,2.1,1.2,4.8,1.7,7.7l0.4,2c0.1,0.6,0.2,1.3,0.4,1.9
			c0.2,1.2,0.4,2.3,0.6,3.3l1.1,9.2c0.3,2.3,2.2,4,4.3,3.8c1.1-0.1,2.1-0.6,2.8-1.5c0.7-0.9,1-2,0.9-3.1l-1.1-9.6
			c-0.2-1.2-0.4-2.4-0.6-3.6c-0.1-0.6-0.3-1.3-0.4-2l-0.4-1.9c-0.6-3.1-1.2-6.1-1.9-8.4l-1.2-4.6c-0.9-3.5-3.2-6.5-6.6-8.2
			C761.5,419.5,757.9,419.3,754.6,420.6z M339.1,268.7l-0.6,0.1c0,0-1.8,0.3-4.3,0.9l-9.3,2.1c-2.9,0.6-5.8,1.4-8.1,2l-5.4,1.4
			c-0.4,0.1-0.8,0.2-1.2,0.2c-2.2,0-4.2-1.5-4.8-3.6c-0.4-1.2-0.2-2.5,0.4-3.6c0.7-1.1,1.7-2,3-2.3l5.6-1.5c2.3-0.6,5.2-1.4,8.2-2
			c3.5-0.8,6.9-1.6,9.6-2.1c2.5-0.6,4.3-0.9,4.3-0.9c2.2-0.4,3.7-2.5,3.2-4.7c-0.4-1.9-2.1-3.3-4-3.3c-0.3,0-0.5,0-0.8,0.1
			c0,0-1.8,0.3-4.4,0.9l-9.7,2.2c-3,0.6-6,1.4-8.4,2.1l-5.6,1.5c-3.4,0.8-6.2,3-8,6.1c-1.7,3.1-2.1,6.7-1.1,10
			c1.7,5.6,6.8,9.4,12.6,9.4c0,0,0,0,0,0c1.1,0,2.1-0.1,3.2-0.4l5.4-1.4c2.2-0.6,5-1.3,7.8-1.9l9.2-2.1c2.4-0.6,4.1-0.8,4.2-0.9
			c2.1-0.4,3.5-2.5,3.1-4.7C342.9,270,341.1,268.6,339.1,268.7z M141.4,553.8l-2.2-3.5c-1.5-2.2-3.2-5.3-4.6-7.7
			c-1.3-2.2-2.5-4.6-3.4-6.5l-2-4c-0.3-0.6-0.4-0.9-0.4-1c-0.6-1.3-2-2.2-3.5-2.2c-0.6,0-1.1,0.1-1.7,0.3c-2,0.9-3,3.2-2.2,5.2
			c0,0,0.2,0.4,0.5,1.1l2,4.1c1,2,2.2,4.6,3.7,7c1.4,2.6,3.3,5.8,4.8,8.1l2.3,3.6c1.4,2.3,0.9,5.2-1.3,6.7c-0.8,0.6-1.8,0.9-2.8,0.9
			c-1.7,0-3.2-0.8-4.1-2.2l-2.4-3.8c-1.7-2.5-3.7-6-5.1-8.5c-1.5-2.6-2.9-5.3-3.9-7.5l-0.7-1.3c-0.6-1.2-2.6-5.1-2.6-5.1
			c-1.2-1.8-3.2-1.8-4.7-1.1c-1,0.4-1.8,1.2-2.1,2.3c-0.4,1-0.3,2.2,0.1,3.2c0,0,0.2,0.5,0.6,1.2l2.2,4.5c1.1,2.3,2.5,5.1,4.1,7.8
			c2.2,4.1,3.9,6.9,5.3,8.9l2.5,4c2.5,3.7,6.6,6,10.9,6c2.7,0,5.3-0.9,7.4-2.5C143.6,567.2,145.1,559.2,141.4,553.8z M110.8,520.8
			c3.1-1,5.8-3.3,7.6-6.3c1.6-2.7,2.1-5.9,1.4-9.2l-0.9-3.9c-0.4-1.7-0.8-3.8-1.1-6c-0.1-0.9-0.3-1.8-0.4-2.7
			c-0.4-2-0.6-4.1-0.7-5.9c-0.1-1-0.2-2-0.3-2.9c-0.3-2.3-0.3-3.9-0.3-3.9l0-0.5c-0.3-1.8-2-3.1-4.1-3.1h0c-1.1,0-2.1,0.5-2.9,1.2
			c-0.7,0.8-1.1,1.7-1.1,2.7c0,0.1,0,1.8,0.3,4.3c0.1,0.9,0.2,1.9,0.3,2.9c0.2,2,0.4,4.2,0.8,6.3c0.2,0.9,0.3,1.8,0.4,2.7
			c0.4,2.4,0.7,4.7,1.2,6.5l0.9,4.1c0.5,2.7-0.9,5.2-3.5,5.9c-0.4,0.1-0.8,0.2-1.3,0.2c-2.3,0-4.3-1.6-4.7-3.7l-1-4.5
			c-0.5-2-0.9-4.5-1.3-7.1c-0.1-0.9-0.3-1.8-0.4-2.7c-0.4-2.3-0.6-4.7-0.8-6.8c-0.1-1.1-0.2-2.2-0.3-3.1c-0.3-2.6-0.3-4.5-0.3-4.5
			c-0.1-2.3-1.9-4.1-4.2-4.1h0c-1,0-2,0.5-2.7,1.2c-0.8,0.8-1.2,2-1.2,3.2c0,0.1,0,2,0.3,4.8c0.1,0.9,0.2,2,0.3,3.1
			c0.2,2.2,0.4,4.8,0.9,7.3c0.2,0.9,0.3,1.8,0.4,2.7c0.5,2.8,0.9,5.5,1.4,7.6l1.1,4.6c0.7,3.4,3,6.5,6.3,8.4c1.8,1.1,3.8,1.6,6,1.6
			C108.2,521.5,109.5,521.3,110.8,520.8z M272.3,650.5c-0.1,0-6.4-2.4-12.6-5.1c-3.2-1.3-6.4-2.8-8.5-3.8l-3.9-1.8
			c-0.5-0.2-1.1-0.3-1.6-0.3c-1.5,0-3,0.9-3.7,2.3c-0.5,1-0.6,2.1-0.2,3.1c0.3,0.8,0.8,1.4,1.4,1.9l0,0l4.6,2.1
			c2.1,1,5.4,2.5,8.7,3.9c6.3,2.7,12.8,5.2,12.9,5.2c2.5,1,3.7,3.8,2.8,6.3c-0.7,1.9-2.5,3.1-4.5,3.1c-0.6,0-1.2-0.1-1.8-0.3
			c-0.1,0-6.7-2.5-13.2-5.4c-3.4-1.4-6.7-2.9-8.9-4l-4.1-1.9c-0.6-0.2-1.1-0.4-1.7-0.4c-1.6,0-3,0.9-3.7,2.3c-0.5,1-0.5,2.1-0.2,3.1
			c0.4,1,1.1,1.9,2.2,2.3l4.1,1.9c3.5,1.6,6.5,3,9.1,4.1c6.6,2.9,13.4,5.4,13.5,5.5c1.5,0.6,3.1,0.9,4.8,0.9
			c5.5,0,10.3-3.4,12.1-8.6C282.1,660.3,278.8,653.1,272.3,650.5z M325.7,667l-13.2-3.4l-9-2.6c-2.4-0.7-4.1-1.2-4.1-1.2
			c-0.4-0.1-0.8-0.2-1.1-0.2c-1.7,0-3.3,1.1-3.8,2.8c-0.5,1.5-0.5,3.9,1,4.5l1.6,0.5c0,0,1.7,0.6,4.2,1.2l9.2,2.6
			c6.7,1.7,13.5,3.4,13.5,3.4c2.6,0.6,4.2,3.2,3.6,5.8c-0.5,2.2-2.5,3.8-4.8,3.8c-0.4,0-0.7,0-1.1-0.1l-13.8-3.5l-9.4-2.7
			c-2.5-0.7-4.2-1.3-4.2-1.3l-0.6-0.2v0.1c-0.2,0-0.4,0-0.6,0c-1.8,0-3.3,1.1-3.9,2.8c-0.7,2.1,0.6,4.4,2.7,5.1c0,0,1.8,0.6,4.4,1.3
			c2.6,0.7,6.1,1.7,9.6,2.7l14,3.6c1,0.2,2,0.3,3,0.3c6.2,0,11.5-4.3,12.7-10.2C336.8,675.4,332.5,668.5,325.7,667z M222,626.5
			l-3.6-2.2c-2.2-1.2-5-3-7.9-4.9c-2.8-1.7-5.6-3.6-7.7-5.1l-3.5-2.4c-0.7-0.4-1.4-0.7-2.2-0.7c-1.3,0-2.5,0.6-3.3,1.7
			c-0.7,0.9-0.9,2-0.7,3.1c0.1,0.6,0.3,1.1,0.7,1.6l0.9,0.9c0,0,1.4,1,3.5,2.5c2.1,1.5,5,3.4,7.9,5.3c2.8,1.8,5.8,3.7,8.1,5l3.7,2.2
			c2.3,1.4,3.1,4.4,1.8,6.7c-0.8,1.5-2.5,2.5-4.2,2.5c-0.9,0-1.7-0.2-2.5-0.7l-3.9-2.3c-2.4-1.3-5.5-3.4-8.3-5.2
			c-3-1.9-6-3.9-8.2-5.4l-3.8-2.6h0c-0.7-0.4-1.5-0.7-2.3-0.7c-1.3,0-2.5,0.6-3.3,1.6c-0.6,0.9-0.9,1.9-0.7,3
			c0.2,1.1,0.8,2.1,1.7,2.7l3.8,2.6c2.3,1.6,5.4,3.7,8.4,5.6c3,1.9,6.1,3.9,8.6,5.3c2.4,1.4,3.9,2.3,3.9,2.3c2,1.2,4.3,1.8,6.6,1.8
			c4.8,0,9.1-2.6,11.3-6.7C230.1,637.7,228,630.1,222,626.5z M720.8,379.4c-0.5,3.1,0.2,6.3,2.1,9.2l4.7,6.9l2.5,4.1
			c1.6,2.6,3.3,5.5,4.4,7.8l1.9,3.6c0.6,1.3,2,2,3.5,2c0.6,0,1.3-0.1,1.8-0.4c1-0.5,1.7-1.3,2.1-2.3c0.3-1,0.3-2-0.2-3l-1.9-3.8
			c-1.1-2.3-2.8-5.2-4.6-8.2l-2.6-4.3l-4.9-7.1c-1.5-2.2-1-5.2,1.1-6.8c0.8-0.6,1.8-1,2.9-1c1.6,0,3.1,0.8,3.9,2.1l5.1,7.5l2.7,4.6
			c1.8,3,3.7,6.2,4.9,8.6l3,5.2c0.9,1.4,3.1,1.5,4.6,0.8c0.9-0.4,1.6-1.2,2-2.2c0.4-1.1,0.3-2.3-0.3-3.4l-2.1-4.2
			c-1.3-2.6-3.2-5.9-5.1-9.1c-1-1.6-1.9-3.2-2.8-4.7l-5.3-7.8c-1.9-2.9-5.1-4.9-8.8-5.5c-3.4-0.5-6.9,0.4-9.6,2.6
			C723.1,373,721.4,376,720.8,379.4z M204.6,328.7c2.4,0,4.8-0.7,6.9-1.9l3.6-2.3c2.2-1.5,5.4-3.3,8-4.7c5.7-3.4,11.8-6.5,11.8-6.5
			l0.3-0.1v0c1.7-1.1,2.3-3.4,1.4-5.2c-0.7-1.4-2.1-2.2-3.6-2.2c-0.6,0-1.2,0.1-1.8,0.4c-0.1,0-6.3,3.2-12.1,6.7
			c-2.6,1.5-5.9,3.3-8.2,4.9l-3.7,2.3c-0.8,0.5-1.6,0.7-2.6,0.7c-1.7,0-3.3-0.8-4.2-2.2c-0.7-1.1-1-2.3-0.7-3.6
			c0.3-1.3,1.1-2.4,2.2-3.1l3.8-2.4c2.5-1.6,6-3.6,8.4-5c6.1-3.6,12.4-6.8,12.5-6.9l0.3-0.2c1.8-1.1,2.5-3.4,1.5-5.3
			c-0.7-1.3-2.1-2.2-3.6-2.2c-0.7,0-1.3,0.2-1.9,0.5c-0.1,0-6.6,3.3-12.8,7c-2.7,1.5-6.2,3.5-8.6,5.1l-3.9,2.4
			c-3,1.9-5.1,4.8-5.8,8.3c-0.7,3.4,0,7,2,9.8C196.2,326.6,200.2,328.7,204.6,328.7z M103.3,463.9c0.2,0,0.5,0,0.7,0
			c6.9,0,12.8-4.8,13.4-10.9l0.8-3.9c0.2-0.8,0.3-1.7,0.5-2.6c0.3-1.9,0.7-4,1.4-6c0.3-1.2,0.6-2.4,0.9-3.5c0.5-1.9,0.9-3.6,1.5-5
			l1.5-4.5c0.5-1.8-0.8-3.6-2.7-4.3c-0.5-0.2-1-0.3-1.5-0.3c-1.6,0-3.1,1-3.6,2.5l-1.4,4c-0.6,1.5-1.1,3.5-1.6,5.5
			c-0.3,1.2-0.6,2.4-1,3.5c-0.7,2.2-1.1,4.5-1.5,6.5c-0.2,1-0.3,1.8-0.5,2.7l-0.8,4.2c-0.3,2.5-2.7,4.4-5.4,4.1
			c-1.3-0.1-2.4-0.8-3.2-1.8c-0.9-1.1-1.2-2.4-1.1-3.8l0.8-4.5c0.2-0.9,0.4-1.8,0.5-2.8c0.4-2.1,0.8-4.6,1.6-6.9
			c0.3-1.2,0.7-2.4,1-3.6c0.6-2.2,1.1-4.3,1.7-6l1.5-4.3c0.7-2.2-0.3-4.5-2.4-5.3c-0.4-0.2-0.9-0.2-1.3-0.2c-1.7,0-3.3,1.2-3.9,2.9
			l-1.6,4.5c-0.6,1.8-1.2,4-1.8,6.4c-0.3,1.2-0.7,2.5-1,3.7c-0.8,2.5-1.2,5.1-1.7,7.4c-0.2,1-0.4,2-0.6,2.9l-0.9,4.7
			c-0.5,4,0.6,7.8,3,10.6C97,462.3,100,463.8,103.3,463.9z M150.2,360.8c2.5,2.3,5.8,3.5,9.2,3.5c3.5,0,6.6-1.3,8.9-3.6
			c0,0,4.9-4.6,9.8-9.1l7.1-5.9c1.9-1.6,3.2-2.6,3.2-2.6c1.7-1.3,2-3.8,0.6-5.6c-0.8-1-2-1.6-3.2-1.6c-0.9,0-1.7,0.3-2.4,0.8
			c-0.1,0-1.5,1-3.4,2.7l-7.3,6.1c-5,4.6-10,9.3-10.1,9.4c-1.8,1.8-4.9,1.8-6.8,0c-0.9-0.9-1.4-2.1-1.5-3.4c0-1.4,0.5-2.6,1.4-3.6
			c0.1,0,5.3-5,10.5-9.7l7.6-6.4c2-1.7,3.4-2.8,3.5-2.8l0.2-0.1v0c1.6-1.4,1.9-3.8,0.6-5.5c-0.8-1-1.9-1.5-3.2-1.5
			c-0.9,0-1.8,0.3-2.6,0.9c-0.1,0-1.5,1.1-3.6,2.9l-7.8,6.5c-5.4,4.9-10.8,10-10.9,10.1c-2.7,2.8-4.1,6.3-3.9,9.9
			C146.2,355.5,147.7,358.5,150.2,360.8z M117.8,408.4c1.9,0.9,3.9,1.3,5.9,1.3h0c4.8,0,9.2-2.5,11.3-6.4l2.6-4.4
			c1.2-2,2.6-4.4,4.3-6.8c3.5-5.4,8.2-11.4,8.2-11.4c1-1.7,0.2-3.6-1.3-4.8c-0.7-0.6-1.6-0.9-2.5-0.9c-1.2,0-2.3,0.5-3,1.5
			c0,0.1-4.4,5.4-8,11.1c-1.8,2.5-3.3,5.1-4.6,7.2l-2.7,4.4c-1.3,2.2-4.3,3.1-6.6,1.9c-1.2-0.6-2-1.7-2.4-3
			c-0.4-1.3-0.2-2.6,0.5-3.7l2.8-4.6c1.3-2.2,3-5,4.9-7.6c3.9-6,8.4-11.6,8.4-11.7l0.3-0.3l0,0c1.1-1.8,0.7-4.1-0.9-5.4
			c-0.7-0.6-1.5-0.9-2.4-0.9c-1.3,0-2.5,0.6-3.3,1.7c0,0.1-4.7,5.9-8.8,12.1c-2,2.8-3.7,5.7-5.1,8.1l-2.8,4.7
			c-1.8,3.3-2.2,7.2-1.1,10.7C112.5,404.4,114.8,407,117.8,408.4z M174.1,591.6c-1.2-1.1-2.5-2.4-4-3.8c-0.9-0.8-1.8-1.7-2.6-2.6
			c-1.6-1.5-3.1-3.1-4.4-4.5c-0.7-0.7-1.4-1.4-2-2.1c-1.7-1.7-2.8-3-2.8-3c-1.3-1.5-3.9-1.6-5.6-0.3c-1.7,1.5-1.9,4-0.5,5.6
			c0,0.1,1.1,1.4,2.9,3.2c0.6,0.6,1.3,1.4,2,2.1c1.4,1.5,2.9,3.1,4.5,4.7c0.9,0.9,1.8,1.8,2.7,2.6c1.5,1.5,2.9,2.8,4.1,3.9l3.2,2.9
			c2,1.7,2.2,4.8,0.4,6.9c-0.9,1.1-2.2,1.7-3.6,1.7c-1.2,0-2.4-0.4-3.3-1.3l-3.4-3c-1.3-1.2-2.8-2.7-4.5-4.2
			c-0.9-0.8-1.8-1.7-2.7-2.6c-1.7-1.6-3.3-3.4-4.8-4.9c-0.8-0.8-1.5-1.6-2.1-2.2c-1.8-1.9-3-3.3-3-3.3c-0.8-0.9-1.9-1.4-3.1-1.4
			c-1,0-1.9,0.3-2.6,1c-0.8,0.7-1.3,1.6-1.3,2.7c-0.1,1.1,0.3,2.1,0.9,3l0.1,0.1c0,0,1.2,1.5,3.2,3.5c0.7,0.7,1.4,1.4,2.1,2.2
			c1.5,1.6,3.2,3.4,5,5.1c0.9,0.9,1.8,1.7,2.7,2.6c1.7,1.6,3.3,3.2,4.7,4.4l3.4,3.1c2.4,2.2,5.5,3.4,8.6,3.4c3.9,0,7.5-1.7,9.9-4.7
			c4.3-5.5,3.8-13.4-1.3-18.1L174.1,591.6z M686,348.8l3.2,2.7c1.2,1,2.6,2.3,4.1,3.7c0.9,0.8,1.8,1.7,2.7,2.5
			c2.2,2,4.3,4.1,5.9,5.8l3.5,3.6c0.7,0.7,1.7,1.1,2.8,1.1c1,0,2-0.4,2.8-1.1c0.8-0.8,1.3-1.8,1.4-2.9c0-1-0.4-2-1.1-2.7l-3.5-3.6
			c-1.7-1.8-3.9-4.1-6.3-6.2c-0.9-0.9-1.9-1.7-2.8-2.6c-1.5-1.4-3-2.8-4.2-3.8l-3.3-2.8c-2-1.7-2.3-4.8-0.6-6.9
			c0.9-1.1,2.2-1.8,3.7-1.8c1.2,0,2.3,0.4,3.2,1.2l3.4,2.9c1.3,1.1,2.8,2.5,4.5,4.1c0.9,0.9,1.9,1.7,2.8,2.6
			c2.4,2.2,4.7,4.5,6.5,6.4l4.5,4.4c1.5,0.9,3.6,0.8,4.9-0.4c0.8-0.7,1.3-1.7,1.3-2.8c0-1.1-0.4-2.2-1.2-3l-3.7-3.8
			c-1.9-2-4.2-4.4-6.8-6.7c-0.9-0.9-1.9-1.7-2.8-2.6c-1.7-1.6-3.3-3.1-4.7-4.3l-3.5-3c-2.4-2.1-5.4-3.2-8.5-3.2c-4,0-7.6,1.8-10,4.9
			C680.1,336.4,680.8,344.3,686,348.8z M667.4,615c-2.5,0-4.9,0.7-6.9,2.1l-3.5,2.3c-0.7,0.4-1.4,0.9-2.1,1.4
			c-1.7,1.1-3.7,2.4-5.7,3.5c-1.1,0.7-2.2,1.3-3.3,2c-1.7,1-3.3,2-4.7,2.7l-3.7,2c-1.9,1-2.6,3.5-1.5,5.4c0.7,1.3,2.1,2.1,3.5,2.1
			c0.6,0,1.3-0.2,1.9-0.5l3.8-2.1c1.5-0.8,3.2-1.8,5-2.9c1-0.6,2.1-1.3,3.2-1.9c2.1-1.2,4.2-2.5,6-3.7c0.8-0.5,1.5-1,2.1-1.4
			l3.6-2.3c0.8-0.5,1.7-0.8,2.7-0.8c1.6,0,3.1,0.8,4,2.1c0.7,1.1,1,2.4,0.8,3.6c-0.2,1.3-1,2.4-2.1,3.2c0,0-1.5,1-3.8,2.4
			c-0.7,0.4-1.4,0.9-2.2,1.4c-1.8,1.2-3.9,2.5-6.1,3.8c-1.1,0.6-2.1,1.3-3.2,1.9c-1.9,1.1-3.8,2.2-5.3,3.1l-4.2,2.3v0
			c-1.8,1.1-2.4,3.5-1.4,5.4c0.7,1.3,2,2.1,3.5,2.1c0.7,0,1.4-0.2,2-0.5l4-2.2c1.6-0.9,3.5-2,5.4-3.2c1.1-0.6,2.1-1.3,3.2-1.9
			c2.3-1.3,4.5-2.7,6.4-3.9c0.8-0.5,1.5-1,2.2-1.4l3.9-2.5c3.1-2.1,5.1-5.2,5.7-8.8c0.6-3.3-0.2-6.7-2.2-9.4
			C675.8,617,671.7,615,667.4,615z M640.6,317.6l3.7,2.1c0.5,0.3,1,0.6,1.6,0.9c2,1.1,4.2,2.4,6.4,3.8c2.9,1.8,5.7,3.6,7.8,4.9
			l3.5,2.4c0.6,0.4,1.4,0.7,2.2,0.7c1.3,0,2.6-0.7,3.3-1.8c0.6-0.9,0.9-2,0.7-3c-0.2-1-0.8-1.9-1.6-2.5l-3.6-2.5l-8-5.1
			c-2.3-1.5-4.6-2.8-6.6-4l-5.3-3c-2.3-1.4-3.2-4.3-1.9-6.6c0.8-1.6,2.5-2.6,4.2-2.6c0.8,0,1.7,0.2,2.4,0.7l5.5,3.2
			c2.1,1.2,4.5,2.5,6.8,4.1l8.3,5.2l3.8,2.6h0c0.7,0.4,1.4,0.6,2.2,0.6c1.3,0,2.6-0.6,3.3-1.7c0.6-0.9,0.8-1.9,0.6-3
			c-0.2-1.1-0.8-2.1-1.8-2.7l-3.8-2.6l-8.5-5.4c-2.5-1.6-5-3.1-7.1-4.3l-5.5-3.2c-2-1.1-4.2-1.7-6.4-1.7c-4.8,0-9.3,2.7-11.4,6.9
			C632.3,306.4,634.5,314.1,640.6,317.6z M616.8,642.5c-1.8,0-3.5,0.4-5.1,1.1c0,0-6.3,2.6-12.5,5.3l-8.7,3.4c-2.3,0.9-4,1.4-4,1.4
			c-2,0.7-3.1,3-2.4,5.1c0.6,1.8,2.6,3,4.4,2.7v0l0.6-0.2c0,0,1.7-0.5,4.1-1.5l8-3.1L615,651c0.6-0.3,1.3-0.4,2-0.4
			c1.9,0,3.6,1.1,4.4,2.9c0.5,1.2,0.6,2.5,0.1,3.7c-0.5,1.3-1.4,2.3-2.6,2.8c-0.1,0-6.6,2.9-13.1,5.5l-9.1,3.5
			c-2.4,0.9-4.1,1.5-4.2,1.5c-2.1,0.7-3.2,3.1-2.5,5.2c0.6,1.6,2.1,2.7,3.8,2.7c0.5,0,0.9-0.1,1.4-0.2c0,0,1.8-0.6,4.3-1.5l9.3-3.6
			c6.6-2.7,13.3-5.6,13.4-5.6c3.4-1.6,5.9-4.3,7.1-7.6c1.1-3.2,0.9-6.6-0.5-9.7C626.5,645.4,621.8,642.5,616.8,642.5z M764.3,477.1
			l-0.4,0c-3.2,0-6.4,1.2-8.9,3.3c-1.9,1.7-4.2,4.4-4.5,8.2c0,0-0.1,1.6-0.5,3.9c-0.2,0.8-0.3,1.8-0.5,2.8c-0.3,1.8-0.6,3.9-1.1,5.9
			c-0.2,0.8-0.4,1.6-0.6,2.4c-0.5,2.3-1,4.4-1.6,6.1l-1.3,4.5h0.1c-0.2,1.8,1,3.6,2.8,4.2c0.4,0.1,0.9,0.2,1.3,0.2
			c1.8,0,3.3-1.1,3.7-2.7l1.2-4.1c0.6-1.8,1.1-4.2,1.7-6.6c0.2-0.8,0.4-1.6,0.6-2.5c0.6-2.2,0.9-4.4,1.2-6.3c0.2-1,0.3-2,0.5-2.9
			c0.5-2.5,0.5-4.2,0.6-4.2c0.2-2.5,2.7-4.5,5.3-4.3c1.3,0.1,2.4,0.7,3.2,1.6c0.9,1,1.3,2.4,1.1,3.8c0,0-0.1,1.8-0.6,4.5
			c-0.2,0.9-0.3,2-0.5,3.1c-0.3,2.1-0.7,4.5-1.3,6.8c-0.2,0.8-0.4,1.5-0.5,2.3c-0.6,2.8-1.2,5.3-1.9,7.4l-1.3,4.4
			c-0.6,2.3,0.5,4.5,2.6,5.2c0.4,0.1,0.8,0.2,1.2,0.2c1.8,0,3.4-1.3,3.9-3l1.3-4.5c0.7-2.2,1.3-4.9,2-7.9c0.2-0.8,0.4-1.6,0.5-2.3
			c0.6-2.5,1-5,1.3-7.2c0.2-1.1,0.3-2.2,0.5-3.1c0.5-2.8,0.6-4.7,0.6-4.8c0.3-4-0.7-7.6-3-10.1C771,478.8,767.8,477.2,764.3,477.1z
			 M720.9,581.7c-2.5-2.1-5.6-3.3-8.8-3.3c-3.5,0-6.8,1.3-9.2,3.8c0,0-1.1,1.3-2.9,2.9l-6.3,6l-7.2,6.4l-3.2,2.7
			c-1.6,1.3-1.9,3.9-0.5,5.6c0.8,1,1.9,1.5,3.1,1.5c0.9,0,1.8-0.3,2.5-0.9l3.3-2.7l7.1-6.3l6.8-6.5c1.9-1.8,3-3,3-3.1
			c0.9-0.9,2.1-1.5,3.5-1.5c1.3,0,2.5,0.5,3.4,1.3c0.9,0.9,1.5,2,1.5,3.3c0,1.3-0.5,2.6-1.4,3.6c0,0-1.2,1.4-3.1,3.2l-7.1,6.8
			l-7.4,6.5l-3.5,2.8c-1.7,1.4-2,4-0.7,5.7c0.7,0.9,1.9,1.5,3.1,1.5c1,0,1.9-0.3,2.7-1l3.6-2.9l7.6-6.7l7.3-7c2-1.9,3.3-3.3,3.3-3.3
			c2.6-2.6,3.9-6.1,3.8-9.7C725.1,587.1,723.6,583.9,720.9,581.7z M751.8,533.2c-3.1-1.3-6.7-1.4-9.8-0.3c-3.3,1.1-5.8,3.2-7.2,6.1
			c0,0-0.2,0.4-0.5,1l-1.5,2.6c-0.3,0.5-0.6,1.1-1,1.7c-1,1.9-2.2,4-3.6,6l-0.3,0.5c-1.7,2.6-3.2,5.1-4.6,7l-2.8,4.1
			c-1,1.8-0.1,3.6,1.4,4.7c0.7,0.5,1.6,0.9,2.5,0.9c1.3,0,2.4-0.6,3.1-1.6l2.5-3.5c1.5-1.9,3.1-4.5,4.8-7.3l0.4-0.6
			c1.5-2.2,2.7-4.4,3.8-6.4c0.4-0.6,0.7-1.2,1-1.8l1.5-2.7c0.4-0.7,0.5-1.1,0.5-1.1c0.8-1.6,2.4-2.6,4.3-2.6c0.8,0,1.5,0.2,2.2,0.5
			c1.1,0.5,2,1.5,2.4,2.7c0.4,1.3,0.3,2.7-0.3,3.9c0,0-0.2,0.4-0.5,1.1l-1.6,2.9c-0.3,0.6-0.7,1.2-1,1.8c-1.2,2.1-2.5,4.4-4,6.7
			c-1.9,3-3.9,6.1-5.5,8.3l-2.6,3.7c-1.3,1.9-1,4.4,0.8,5.7c0.7,0.5,1.5,0.8,2.4,0.8c1.3,0,2.6-0.7,3.4-1.8l2.7-3.8
			c1.7-2.2,3.7-5.4,5.6-8.5l0.1-0.1c1.6-2.4,3.1-5,4.3-7.2c0.3-0.6,0.7-1.2,1-1.7l1.7-3c0.4-0.7,0.6-1.2,0.6-1.2
			c1.6-3.3,2-7.1,0.9-10.4C757.5,537.1,755,534.5,751.8,533.2z M395.1,260.9l-4.3,0.4c-0.9,0.1-1.9,0.2-3,0.2
			c-2,0.2-4.3,0.3-6.6,0.6l-13.8,1.6c-2.6,0.4-5.1-1.5-5.5-4.1c-0.4-2.7,1.5-5.2,4.2-5.6l14.1-1.7c2.3-0.3,4.6-0.5,6.6-0.6
			c1.1-0.1,2.2-0.2,3.1-0.3l4.4-0.4c2.2-0.2,3.9-2.2,3.8-4.4c-0.2-2.2-2.1-3.9-4.4-3.7l-4.5,0.4c-0.9,0.1-1.9,0.2-3,0.3
			c-2.1,0.2-4.5,0.4-6.9,0.7l-14.3,1.7c-3.6,0.5-6.7,2.4-8.8,5.3c-2,2.8-2.8,6.1-2.2,9.5c1.1,6.3,6.5,11,12.7,11h0
			c0.6,0,1.2,0,1.8-0.1l13.6-1.6c2.2-0.3,4.4-0.5,6.4-0.6c1.1-0.1,2.1-0.2,3-0.3l4.7-0.4v0c1.9-0.4,3.3-2.2,3.2-4.3
			C399.3,262.4,397.3,260.7,395.1,260.9z M424.3,249.8l4.4-0.1c2.7-0.1,6.2-0.1,9.8,0l9.8,0.2c2.6,0,4.4,0.1,4.4,0.1l0.2,0
			c2.2,0,4-1.7,4.1-3.8c0.1-2.2-1.7-4.1-3.9-4.2c0,0-1.8-0.1-4.5-0.1l-9.9-0.2c-3.6-0.1-7.2-0.1-9.9,0l-4.5,0.1
			c-3.5,0-6.8,1.4-9.2,4c-2.4,2.5-3.7,5.9-3.5,9.4c0.3,7,6.1,12.6,13.2,12.6l4.3-0.1c2.6-0.1,6-0.1,9.4,0l9.4,0.2
			c2.5,0,4.2,0.1,4.3,0.1l0.2,0c2.1,0,3.8-1.7,3.9-3.8c0.1-2.2-1.6-4.1-3.8-4.2c0,0-1.8-0.1-4.4-0.1l-9.6-0.2c-3.5-0.1-7-0.1-9.6,0
			l-4.4,0.1c-2.6,0-4.8-2.2-4.9-4.8c0-1.3,0.4-2.5,1.3-3.4C421.7,250.3,422.9,249.8,424.3,249.8z M589.9,294.4l4,1.5
			c0.8,0.3,1.7,0.7,2.7,1c1.9,0.7,4,1.5,6,2.4l8.6,3.7c2.3,0.9,3.8,1.7,3.9,1.7c0.5,0.2,1.1,0.4,1.6,0.4c1.5,0,3-0.9,3.6-2.4
			c0.7-1.5,0.4-3.3-0.7-4.4l-1.2-0.9c0,0-1.6-0.8-4-1.8l-8.8-3.7c-2.1-0.9-4.3-1.7-6.2-2.4c-1-0.4-1.9-0.7-2.7-1l-4-1.5
			c-2.5-1-3.8-3.7-2.9-6.3c0.7-1.9,2.5-3.2,4.5-3.2c0.6,0,1.2,0.1,1.7,0.3l4.2,1.6c0.8,0.3,1.8,0.7,2.8,1.1c2,0.7,4.2,1.6,6.4,2.5
			l9,3.8c2.4,1,4,1.8,4,1.8c0.6,0.3,1.1,0.4,1.7,0.4c1.6,0,3-0.9,3.7-2.3c0.9-2,0-4.4-2-5.4c0,0-1.7-0.8-4.2-1.9l-9.2-3.9
			c-2.2-1-4.5-1.8-6.5-2.6c-1-0.4-2-0.7-2.8-1.1l-4.2-1.6c-1.5-0.6-3-0.8-4.6-0.8c-5.6,0-10.4,3.5-12.2,8.7
			C580,284.6,583.4,291.9,589.9,294.4z M512,247.6l-4.6-0.7c-2.6-0.4-6.2-1-9.7-1.3l-9.8-1.2c-2.7-0.3-4.5-0.5-4.5-0.5
			c-7.3-0.6-13.7,4.8-14.2,11.8c-0.5,7.1,4.8,13.4,11.7,14c0,0,1.7,0.1,4.2,0.4l9.4,1.1c3.3,0.3,6.5,0.8,9,1.2l4.5,0.7
			c0.2,0,0.4,0,0.6,0c1.9,0,3.6-1.5,4-3.4c0.2-1.1-0.1-2.1-0.7-3c-0.5-0.7-1.3-1.3-2.2-1.5l-4.7-0.7c-2.5-0.4-6-0.9-9.5-1.3
			l-9.5-1.1c-2.6-0.3-4.3-0.4-4.3-0.4c-1.3-0.1-2.4-0.7-3.3-1.7c-0.8-1-1.2-2.3-1.1-3.6c0.2-2.5,2.4-4.5,4.9-4.5c0.1,0,0.3,0,0.4,0
			c0,0,1.8,0.1,4.4,0.5l9.7,1.2c3.4,0.4,6.9,0.9,9.5,1.3l4.6,0.7c2.3,0.3,4.3-1.2,4.7-3.4c0.2-1-0.1-2.1-0.7-3
			C514,248.4,513.1,247.8,512,247.6z M562.5,661.9c-1.1,0-2.3,0.2-3.4,0.5l-4.1,1.2c-1.5,0.4-3.4,0.9-5.4,1.4
			c-1.2,0.3-2.5,0.6-3.7,0.9c-2.7,0.7-5.7,1.4-9.1,2.2l-4.2,0.9c-2.1,0.5-3.5,2.6-3,4.8c0.4,2.1,2.6,3.6,4.7,3.1l4.2-0.9
			c3.6-0.8,6.6-1.5,9.3-2.2c1.2-0.3,2.3-0.6,3.5-0.9c2.1-0.5,4.1-1,5.8-1.5l4.2-1.2c0.4-0.1,0.9-0.2,1.3-0.2c2.2,0,4.1,1.5,4.7,3.6
			c0.4,1.2,0.2,2.5-0.4,3.7c-0.6,1.2-1.7,2-3,2.4l-4.3,1.2c-1.7,0.5-3.7,1-5.9,1.5c-1.2,0.3-2.4,0.6-3.6,0.9c-2.8,0.7-6,1.5-9.5,2.2
			l-4.3,1c-2.2,0.5-3.6,2.7-3.2,4.8c0.4,1.8,2,3.2,4,3.2c0.3,0,0.6,0,0.9-0.1l4.4-1c3.7-0.8,6.8-1.5,9.7-2.3
			c1.3-0.3,2.5-0.6,3.7-0.9c2.2-0.5,4.2-1.1,5.9-1.5c2.6-0.7,4.4-1.2,4.3-1.2c3.4-0.9,6.3-3.2,8-6.3c1.7-3.1,2-6.6,1-9.9
			C573.3,665.6,568.3,661.9,562.5,661.9z M536.2,278.6l4.2,0.9c2.2,0.5,5.4,1.2,9.1,2.2l9.1,2.4c0,0,5,1.3,5.2,1.4
			c1.7,0.5,3.3-1.2,3.8-2.9c0.6-2-0.4-4.1-2.3-4.9l-4.5-1.4l-9.2-2.4c-3.9-1-7-1.8-9.3-2.3l-4.2-1c-2.6-0.6-4.3-3.2-3.7-5.8
			c0.5-2.2,2.4-3.8,4.7-3.8c0.4,0,0.7,0,1.1,0.1l4.4,1c2.3,0.5,5.5,1.3,9.5,2.3c3.4,0.9,6.9,1.8,9.5,2.5l4.3,1.3
			c2.1,0.6,4.4-0.6,5.1-2.7c0.6-2.1-0.6-4.4-2.8-5.1l-4.4-1.3l-9.6-2.5c-2.7-0.7-6.6-1.7-9.7-2.4l-4.4-1c-1-0.2-2-0.3-3-0.3
			c-6.1,0-11.4,4.4-12.5,10.4C525,270.3,529.4,277,536.2,278.6z M279,266.5c-0.5,0-0.9,0.1-1.3,0.2c-0.1,0-7,2.3-13.6,5
			c-6.8,2.5-13.4,5.4-13.5,5.4c-3.3,1.4-5.8,3.9-7.1,7.2c-1.3,3.2-1.1,6.9,0.3,10c2.2,4.6,6.9,7.6,12,7.6h0c1.7,0,3.3-0.3,4.9-1
			c0.1,0,6.3-2.8,12.6-5.1c1.4-0.5,2.7-1.1,4.1-1.6v-8.6c-2.1,0.8-4.6,1.7-7,2.6c-6.5,2.3-12.8,5.2-12.9,5.2
			c-0.6,0.3-1.2,0.4-1.9,0.4c-2,0-3.7-1.2-4.5-3c-0.5-1.2-0.5-2.5-0.1-3.7c0.5-1.2,1.4-2.2,2.7-2.7c0.1,0,6.6-2.9,13.2-5.3
			c6.5-2.6,13.3-4.8,13.4-4.9l0.3-0.1v0c1.9-0.8,2.9-3,2.2-5C282.3,267.6,280.8,266.5,279,266.5z"/>
		<path class="st0" d="M269.5,265.6l22.9,7.6c0.8-1.6,1.2-3.5,1.2-5.2c0-6.7-5.5-12.1-12.2-12.1C275.6,255.9,270.7,260,269.5,265.6"
			/>
		<polyline class="st0" points="169,630.5 179.1,633.6 286,272.4 275.6,269.2 169,630.5 		"/>
		<g>
			<path class="st0" d="M355.8,670.9l18.7,2.8l-0.9,5.8l-12.5-1.8l-0.9,6.3l11.8,1.7l-0.8,5.4l-11.8-1.7l-1,6.6l12.5,1.8l-0.9,5.8
				l-18.7-2.8L355.8,670.9z"/>
			<path class="st0" d="M376.6,703.7l0.6-6c1.6,0.9,4.9,1.7,7.5,2c3.7,0.3,5.7-0.5,5.9-2.7c0.2-1.7-0.9-2.8-3.1-3.7l-3.3-1.3
				c-5-2-5.9-5.4-5.6-8.6c0.7-7.2,6.6-9.1,12.7-8.5c2,0.2,4.9,0.7,6.8,1.6l-0.6,6c-1.6-1-4.4-1.7-6.6-1.9c-3.6-0.3-5.6,0.6-5.8,2.7
				c-0.2,1.7,0.9,2.8,3.1,3.7l3.3,1.3c5,2,5.9,5.3,5.6,8.7c-0.7,7.3-6.5,9.1-12.7,8.5C382.2,705.3,378.8,704.7,376.6,703.7z"/>
			<path class="st0" d="M401.2,676.3l21.3,1l-0.3,5.8l-7.5-0.3l-1.1,24.2l-6.3-0.3l1.1-24.2l-7.5-0.3L401.2,676.3z"/>
			<path class="st0" d="M440.3,683l-5.5,0.1l-0.1-5.8l11.8-0.2l0.5,30.1l-6.3,0.1L440.3,683z"/>
			<path class="st0" d="M456.1,706.4l-0.4-6.1c1.8,0.8,3.7,1.2,5.9,1.1c3.7-0.2,6.6-1.8,6.4-7.9c-1.3,1.4-3.1,2.3-5.3,2.4
				c-5.2,0.3-8.8-3.4-9.2-9.4c-0.4-6.7,3.6-10.3,9.1-10.6c8.5-0.5,11.3,7.2,11.7,15c0.7,11.3-3.9,15.7-11.8,16.2
				C460.4,707.2,457.8,707,456.1,706.4z M467.7,688.5c-0.6-4.6-2-7.1-4.6-6.9c-1.4,0.1-3.3,0.9-3.1,4.5c0.1,2.4,1.1,4.2,3.9,4
				C465.3,690.1,466.7,689.5,467.7,688.5z"/>
			<path class="st0" d="M482.8,680.6l-5.5,0.6l-0.6-5.8l11.8-1.2l3.2,29.9l-6.2,0.7L482.8,680.6z"/>
			<path class="st0" d="M499.1,702.7l-0.9-5.9c1.6,0.5,4.4,0.6,7,0.2c1.8-0.3,4.8-1,4.4-3.9c-0.3-2.3-2.3-3.7-8.8-2.8l-0.8-5.1
				l5.2-7.5l-9.6,1.4l-0.9-5.8l17.3-2.6l0.9,6l-5.8,8c4.9,0.3,8.2,2.5,9,7.3c0.8,5.7-2.6,9.5-9.8,10.6
				C504.3,702.9,501.2,703.1,499.1,702.7z"/>
		</g>
		<path d="M283.9,283.8l3.2-11l5.9,1.9l0.3-0.5c1.1-1.9,1.6-4.1,1.6-6.3c0-0.4-0.1-1.4-0.1-1.5c0-0.4-0.2-1.2-0.2-1.2
			c-0.9-4.3-3.9-7.9-8-9.6l0,0c-1.6-0.7-3.3-1-5.2-1c-6.7,0-12.2,4.8-13.3,11.3l-0.1,0.5l6.4,2.1l-107,362.7l12.5,3.8l13.6-46.2
			l594.5-127.9L283.9,283.8 M269.5,265.6c1.2-5.7,6.1-9.7,12-9.7c0.4,0,0.8,0,1.2,0.1l0.5,0.7c3,3.8,2.1,8.1-0.1,13.5L269.5,265.6z
			 M275.6,269.2l4.5,1.4L172.9,631.7l-3.9-1.2L275.6,269.2z M282.9,287.2c6.2,41.3,27.6,217.5-88.2,298.3L282.9,287.2z M194.2,587.5
			c43.7-31.2,73.8-76.8,87.2-143c13.8-67.9,6.5-133.3,2.5-159.4l499.8,175.7L194.2,587.5z"/>
		<g>
			<polygon points="517.9,402.3 511.7,424.1 524,424.1 501.2,467.8 499.9,467.8 498.4,402.3 472.9,402.3 478.4,495.2 510.5,495.2 
				562.4,402.3 			"/>
			<path d="M401.3,432.8c0,11.1,4.5,18.4,17.5,23.4l7,2.7c4.9,1.9,8.4,3.7,8.4,8.8c0,7.3-7.4,8.9-15.3,8.9
				c-11.1,0-20.2-3.2-26.9-6.6l-6.1,21c7.3,4.2,19.4,6.5,31.1,6.5c24.2,0,42.2-9.8,42.2-32.5c0-10.9-4.1-18.4-17.5-23.5l-7-2.7
				c-4.5-1.7-8.4-3.6-8.4-8.8c0-7.2,7.3-8.9,14.6-8.9c9,0,16.3,2.7,21.6,5.6l6.1-21c-6.6-2.7-14.7-5.4-26.4-5.4
				C420.3,400.2,401.3,409.7,401.3,432.8z"/>
			<path d="M358.9,402.3h-38.3l-6.2,21.8h11.9L306,495.2h24.4l7.4-26h7.3c26.4,0,49.8-14.1,49.8-39.1
				C394.9,408.7,377.8,402.3,358.9,402.3z M348.1,448.2h-4.2l7.1-24.9h4.3c10.2,0,14.7,2.7,14.7,9.6
				C370,443.3,359.7,448.2,348.1,448.2z"/>
		</g>
	</g>
	<path class="st2" d="M391,155.3l-9-27.7l-9,27.7h-29.1l23.6,17.1l-9,27.7L382,183l23.6,17.1l-9-27.7l23.6-17.1H391z M523.4,155.3
		h-29.1l-9-27.7l-9,27.7h-29.1l23.6,17.1l-9,27.7l23.6-17.1l23.6,17.1l-9-27.7L523.4,155.3z"/>
</g>
</svg>
