<?xml version="1.0" encoding="UTF-8"?>
<svg id="Layer_2" data-name="Layer 2" xmlns="http://www.w3.org/2000/svg" viewBox="0 0 183.93 150.05">
  <g id="Layer_1-2" data-name="Layer 1">
    <g>
      <g>
        <path d="M91.94,150.05C41.23,150.05,0,121.29,0,85.92S41.26,21.8,91.94,21.8s91.99,28.76,91.99,64.13-41.26,64.13-91.99,64.13Z" fill="#fff" stroke-width="0"/>
        <path d="M91.96,38.62c-15.76,0-30.4,3.03-42.5,8.23h85.03c-12.1-5.17-26.74-8.23-42.53-8.23ZM91.96,133.22c16.06,0,30.92-3.16,43.15-8.5H48.84c12.23,5.37,27.09,8.5,43.12,8.5ZM30.84,113.59h1.29l.22.42.6-.42h120.2c3.9-3.41,7.11-7.13,9.49-11.11H21.35c2.36,4,5.57,7.73,9.49,11.11ZM166.83,80.23H17.15c-.35,1.86-.55,3.78-.55,5.69s.17,3.63.5,5.42h149.77c.32-1.76.5-3.58.5-5.42s-.2-3.83-.55-5.69ZM152.81,57.99H31.17c-3.95,3.38-7.23,7.13-9.64,11.11h140.93c-2.41-3.98-5.67-7.7-9.64-11.11Z" fill="#e9212d" stroke-width="0"/>
        <path d="M2.76,85.95c0-33.9,39.94-61.39,89.2-61.39s89.25,27.49,89.25,61.39-39.97,61.39-89.25,61.39c-49.26-.02-89.2-27.51-89.2-61.39M91.96,133.22c41.53,0,75.14-21.18,75.14-47.3s-33.6-47.3-75.14-47.3S16.83,59.8,16.83,85.92c0,26.12,33.65,47.3,75.14,47.3Z" fill="#b99558" stroke-width="0"/>
        <path d="M32.46,114.31c10.86-7.75,18.34-19.09,21.67-35.54,3.43-16.88,1.62-33.13.62-39.62l124.22,43.67-145.97,31.39" fill="#fff" stroke-width="0"/>
        <path d="M171.75,72.82c-.8.3-1.44.87-1.84,1.64-.37.7-.45,1.49-.25,2.31l.27.97c.15.45.25,1.02.37,1.64.02.17.07.32.1.5.02.15.05.3.07.45.05.25.1.47.12.72l.22,2.01c.07.5.5.85.99.85h.07c.27-.02.57-.15.75-.37.15-.2.22-.42.2-.67l-.12-1.04c-.02-.27-.07-.6-.1-.92l-.02-.15c-.02-.25-.1-.52-.15-.77-.02-.15-.05-.3-.07-.45l-.1-.5c-.12-.67-.25-1.29-.4-1.76l-.27-1.02c-.07-.3-.02-.62.12-.92.15-.27.4-.5.7-.6s.65-.07.94.07c.27.15.47.42.57.75l.3,1.09c.17.52.3,1.19.42,1.91l.1.5c.02.15.05.32.1.47.05.3.1.57.15.82l.27,2.29c.07.57.55.99,1.07.94.27-.02.52-.15.7-.37s.25-.5.22-.77l-.27-2.39c-.05-.3-.1-.6-.15-.89-.02-.15-.07-.32-.1-.5l-.1-.47c-.15-.77-.3-1.52-.47-2.09l-.3-1.14c-.22-.87-.8-1.62-1.64-2.04-.77-.37-1.67-.42-2.49-.1ZM68.47,35.07l-.15.02s-.45.07-1.07.22l-2.31.52c-.72.15-1.44.35-2.01.5l-1.34.35c-.1.02-.2.05-.3.05-.55,0-1.04-.37-1.19-.89-.1-.3-.05-.62.1-.89.17-.27.42-.5.75-.57l1.39-.37c.57-.15,1.29-.35,2.04-.5.87-.2,1.71-.4,2.39-.52.62-.15,1.07-.22,1.07-.22.55-.1.92-.62.8-1.17-.1-.47-.52-.82-.99-.82-.07,0-.12,0-.2.02,0,0-.45.07-1.09.22l-2.41.55c-.75.15-1.49.35-2.09.52l-1.39.37c-.85.2-1.54.75-1.99,1.52-.42.77-.52,1.67-.27,2.49.42,1.39,1.69,2.34,3.13,2.34h0c.27,0,.52-.02.8-.1l1.34-.35c.55-.15,1.24-.32,1.94-.47l2.29-.52c.6-.15,1.02-.2,1.04-.22.52-.1.87-.62.77-1.17-.07-.57-.52-.92-1.02-.89ZM19.34,105.93l-.55-.87c-.37-.55-.8-1.32-1.14-1.91-.32-.55-.62-1.14-.85-1.62l-.5-.99c-.07-.15-.1-.22-.1-.25-.15-.32-.5-.55-.87-.55-.15,0-.27.02-.42.07-.5.22-.75.8-.55,1.29,0,0,.05.1.12.27l.5,1.02c.25.5.55,1.14.92,1.74.35.65.82,1.44,1.19,2.01l.57.89c.35.57.22,1.29-.32,1.67-.2.15-.45.22-.7.22-.42,0-.8-.2-1.02-.55l-.6-.94c-.42-.62-.92-1.49-1.27-2.11-.37-.65-.72-1.32-.97-1.86l-.17-.32c-.15-.3-.65-1.27-.65-1.27-.3-.45-.8-.45-1.17-.27-.25.1-.45.3-.52.57-.1.25-.07.55.02.8,0,0,.05.12.15.3l.55,1.12c.27.57.62,1.27,1.02,1.94.55,1.02.97,1.71,1.32,2.21l.62.99c.62.92,1.64,1.49,2.71,1.49.67,0,1.32-.22,1.84-.62,1.37-1.14,1.74-3.13.82-4.47ZM11.73,97.73c.77-.25,1.44-.82,1.89-1.57.4-.67.52-1.47.35-2.29l-.22-.97c-.1-.42-.2-.94-.27-1.49-.02-.22-.07-.45-.1-.67-.1-.5-.15-1.02-.17-1.47-.02-.25-.05-.5-.07-.72-.07-.57-.07-.97-.07-.97v-.12c-.07-.45-.5-.77-1.02-.77h0c-.27,0-.52.12-.72.3-.17.2-.27.42-.27.67,0,.02,0,.45.07,1.07.02.22.05.47.07.72.05.5.1,1.04.2,1.57.05.22.07.45.1.67.1.6.17,1.17.3,1.62l.22,1.02c.12.67-.22,1.29-.87,1.47-.1.02-.2.05-.32.05-.57,0-1.07-.4-1.17-.92l-.25-1.12c-.12-.5-.22-1.12-.32-1.76-.02-.22-.07-.45-.1-.67-.1-.57-.15-1.17-.2-1.69-.02-.27-.05-.55-.07-.77-.07-.65-.07-1.12-.07-1.12-.02-.57-.47-1.02-1.04-1.02h0c-.25,0-.5.12-.67.3-.2.2-.3.5-.3.8,0,.02,0,.5.07,1.19.02.22.05.5.07.77.05.55.1,1.19.22,1.81.05.22.07.45.1.67.12.7.22,1.37.35,1.89l.27,1.14c.17.85.75,1.62,1.57,2.09.45.27.94.4,1.49.4.32.07.65.02.97-.1ZM51.87,129.97s-1.59-.6-3.13-1.27c-.8-.32-1.59-.7-2.11-.94l-.97-.45c-.12-.05-.27-.07-.4-.07-.37,0-.75.22-.92.57-.12.25-.15.52-.05.77.07.2.2.35.35.47h0l1.14.52c.52.25,1.34.62,2.16.97,1.57.67,3.18,1.29,3.21,1.29.62.25.92.94.7,1.57-.17.47-.62.77-1.12.77-.15,0-.3-.02-.45-.07-.02,0-1.67-.62-3.28-1.34-.85-.35-1.67-.72-2.21-.99l-1.02-.47c-.15-.05-.27-.1-.42-.1-.4,0-.75.22-.92.57-.12.25-.12.52-.05.77.1.25.27.47.55.57l1.02.47c.87.4,1.62.75,2.26,1.02,1.64.72,3.33,1.34,3.36,1.37.37.15.77.22,1.19.22,1.37,0,2.56-.85,3.01-2.14.55-1.64-.27-3.43-1.89-4.08ZM65.14,134.07l-3.28-.85-2.24-.65c-.6-.17-1.02-.3-1.02-.3-.1-.02-.2-.05-.27-.05-.42,0-.82.27-.94.7-.12.37-.12.97.25,1.12l.4.12s.42.15,1.04.3l2.29.65c1.67.42,3.36.85,3.36.85.65.15,1.04.8.89,1.44-.12.55-.62.94-1.19.94-.1,0-.17,0-.27-.02l-3.43-.87-2.34-.67c-.62-.17-1.04-.32-1.04-.32l-.15-.05v.02h-.15c-.45,0-.82.27-.97.7-.17.52.15,1.09.67,1.27,0,0,.45.15,1.09.32s1.52.42,2.39.67l3.48.89c.25.05.5.07.75.07,1.54,0,2.86-1.07,3.16-2.54.3-1.67-.77-3.38-2.46-3.75ZM39.37,124l-.89-.55c-.55-.3-1.24-.75-1.96-1.22-.7-.42-1.39-.89-1.91-1.27l-.87-.6c-.17-.1-.35-.17-.55-.17-.32,0-.62.15-.82.42-.17.22-.22.5-.17.77.02.15.07.27.17.4l.22.22s.35.25.87.62,1.24.85,1.96,1.32c.7.45,1.44.92,2.01,1.24l.92.55c.57.35.77,1.09.45,1.67-.2.37-.62.62-1.04.62-.22,0-.42-.05-.62-.17l-.97-.57c-.6-.32-1.37-.85-2.06-1.29-.75-.47-1.49-.97-2.04-1.34l-.94-.65h0c-.17-.1-.37-.17-.57-.17-.32,0-.62.15-.82.4-.15.22-.22.47-.17.75s.2.52.42.67l.94.65c.57.4,1.34.92,2.09,1.39.75.47,1.52.97,2.14,1.32.6.35.97.57.97.57.5.3,1.07.45,1.64.45,1.19,0,2.26-.65,2.81-1.67.82-1.57.3-3.45-1.19-4.35ZM163.35,62.58c-.12.77.05,1.57.52,2.29l1.17,1.71.62,1.02c.4.65.82,1.37,1.09,1.94l.47.89c.15.32.5.5.87.5.15,0,.32-.02.45-.1.25-.12.42-.32.52-.57.07-.25.07-.5-.05-.75l-.47-.94c-.27-.57-.7-1.29-1.14-2.04l-.65-1.07-1.22-1.76c-.37-.55-.25-1.29.27-1.69.2-.15.45-.25.72-.25.4,0,.77.2.97.52l1.27,1.86.67,1.14c.45.75.92,1.54,1.22,2.14l.75,1.29c.22.35.77.37,1.14.2.22-.1.4-.3.5-.55.1-.27.07-.57-.07-.85l-.52-1.04c-.32-.65-.8-1.47-1.27-2.26-.25-.4-.47-.8-.7-1.17l-1.32-1.94c-.47-.72-1.27-1.22-2.19-1.37-.85-.12-1.71.1-2.39.65-.67.6-1.09,1.34-1.24,2.19ZM35.05,49.98c.6,0,1.19-.17,1.71-.47l.89-.57c.55-.37,1.34-.82,1.99-1.17,1.42-.85,2.93-1.62,2.93-1.62l.07-.02h0c.42-.27.57-.85.35-1.29-.17-.35-.52-.55-.89-.55-.15,0-.3.02-.45.1-.02,0-1.57.8-3.01,1.67-.65.37-1.47.82-2.04,1.22l-.92.57c-.2.12-.4.17-.65.17-.42,0-.82-.2-1.04-.55-.17-.27-.25-.57-.17-.89.07-.32.27-.6.55-.77l.94-.6c.62-.4,1.49-.89,2.09-1.24,1.52-.89,3.08-1.69,3.11-1.71l.07-.05c.45-.27.62-.85.37-1.32-.17-.32-.52-.55-.89-.55-.17,0-.32.05-.47.12-.02,0-1.64.82-3.18,1.74-.67.37-1.54.87-2.14,1.27l-.97.6c-.75.47-1.27,1.19-1.44,2.06-.17.85,0,1.74.5,2.44.6.89,1.59,1.42,2.68,1.42ZM9.87,83.59h.17c1.71,0,3.18-1.19,3.33-2.71l.2-.97c.05-.2.07-.42.12-.65.07-.47.17-.99.35-1.49.07-.3.15-.6.22-.87.12-.47.22-.89.37-1.24l.37-1.12c.12-.45-.2-.89-.67-1.07-.12-.05-.25-.07-.37-.07-.4,0-.77.25-.89.62l-.35.99c-.15.37-.27.87-.4,1.37-.07.3-.15.6-.25.87-.17.55-.27,1.12-.37,1.62-.05.25-.07.45-.12.67l-.2,1.04c-.07.62-.67,1.09-1.34,1.02-.32-.02-.6-.2-.8-.45-.22-.27-.3-.6-.27-.94l.2-1.12c.05-.22.1-.45.12-.7.1-.52.2-1.14.4-1.71.07-.3.17-.6.25-.89.15-.55.27-1.07.42-1.49l.37-1.07c.17-.55-.07-1.12-.6-1.32-.1-.05-.22-.05-.32-.05-.42,0-.82.3-.97.72l-.4,1.12c-.15.45-.3.99-.45,1.59-.07.3-.17.62-.25.92-.2.62-.3,1.27-.42,1.84-.05.25-.1.5-.15.72l-.22,1.17c-.12.99.15,1.94.75,2.63.6.62,1.34.99,2.16,1.02ZM21.52,57.96c.62.57,1.44.87,2.29.87s1.64-.32,2.21-.89c0,0,1.22-1.14,2.44-2.26l1.76-1.47c.47-.4.8-.65.8-.65.42-.32.5-.94.15-1.39-.2-.25-.5-.4-.8-.4-.22,0-.42.07-.6.2-.02,0-.37.25-.85.67l-1.81,1.52c-1.24,1.14-2.49,2.31-2.51,2.34-.45.45-1.22.45-1.69,0-.22-.22-.35-.52-.37-.85,0-.35.12-.65.35-.89.02,0,1.32-1.24,2.61-2.41l1.89-1.59c.5-.42.85-.7.87-.7l.05-.02h0c.4-.35.47-.94.15-1.37-.2-.25-.47-.37-.8-.37-.22,0-.45.07-.65.22-.02,0-.37.27-.89.72l-1.94,1.62c-1.34,1.22-2.68,2.49-2.71,2.51-.67.7-1.02,1.57-.97,2.46.02.82.4,1.57,1.02,2.14ZM13.47,69.79c.47.22.97.32,1.47.32h0c1.19,0,2.29-.62,2.81-1.59l.65-1.09c.3-.5.65-1.09,1.07-1.69.87-1.34,2.04-2.83,2.04-2.83.25-.42.05-.89-.32-1.19-.17-.15-.4-.22-.62-.22-.3,0-.57.12-.75.37,0,.02-1.09,1.34-1.99,2.76-.45.62-.82,1.27-1.14,1.79l-.67,1.09c-.32.55-1.07.77-1.64.47-.3-.15-.5-.42-.6-.75s-.05-.65.12-.92l.7-1.14c.32-.55.75-1.24,1.22-1.89.97-1.49,2.09-2.88,2.09-2.91l.07-.07h0c.27-.45.17-1.02-.22-1.34-.17-.15-.37-.22-.6-.22-.32,0-.62.15-.82.42,0,.02-1.17,1.47-2.19,3.01-.5.7-.92,1.42-1.27,2.01l-.7,1.17c-.45.82-.55,1.79-.27,2.66.25.8.82,1.44,1.57,1.79ZM27.46,115.33c-.3-.27-.62-.6-.99-.94-.22-.2-.45-.42-.65-.65-.4-.37-.77-.77-1.09-1.12-.17-.17-.35-.35-.5-.52-.42-.42-.7-.75-.7-.75-.32-.37-.97-.4-1.39-.07-.42.37-.47.99-.12,1.39,0,.02.27.35.72.8.15.15.32.35.5.52.35.37.72.77,1.12,1.17.22.22.45.45.67.65.37.37.72.7,1.02.97l.8.72c.5.42.55,1.19.1,1.71-.22.27-.55.42-.89.42-.3,0-.6-.1-.82-.32l-.85-.75c-.32-.3-.7-.67-1.12-1.04-.22-.2-.45-.42-.67-.65-.42-.4-.82-.85-1.19-1.22-.2-.2-.37-.4-.52-.55-.45-.47-.75-.82-.75-.82-.2-.22-.47-.35-.77-.35-.25,0-.47.07-.65.25-.2.17-.32.4-.32.67-.02.27.07.52.22.75l.02.02s.3.37.8.87c.17.17.35.35.52.55.37.4.8.85,1.24,1.27.22.22.45.42.67.65.42.4.82.8,1.17,1.09l.85.77c.6.55,1.37.85,2.14.85.97,0,1.86-.42,2.46-1.17,1.07-1.37.94-3.33-.32-4.5l-.7-.67ZM154.7,54.98l.8.67c.3.25.65.57,1.02.92.22.2.45.42.67.62.55.5,1.07,1.02,1.47,1.44l.87.89c.17.17.42.27.7.27.25,0,.5-.1.7-.27.2-.2.32-.45.35-.72,0-.25-.1-.5-.27-.67l-.87-.89c-.42-.45-.97-1.02-1.57-1.54-.22-.22-.47-.42-.7-.65-.37-.35-.75-.7-1.04-.94l-.82-.7c-.5-.42-.57-1.19-.15-1.71.22-.27.55-.45.92-.45.3,0,.57.1.8.3l.85.72c.32.27.7.62,1.12,1.02.22.22.47.42.7.65.6.55,1.17,1.12,1.62,1.59l1.12,1.09c.37.22.89.2,1.22-.1.2-.17.32-.42.32-.7s-.1-.55-.3-.75l-.92-.94c-.47-.5-1.04-1.09-1.69-1.67-.22-.22-.47-.42-.7-.65-.42-.4-.82-.77-1.17-1.07l-.87-.75c-.6-.52-1.34-.8-2.11-.8-.99,0-1.89.45-2.49,1.22-1.02,1.47-.85,3.43.45,4.55ZM150.07,121.14c-.62,0-1.22.17-1.71.52l-.87.57c-.17.1-.35.22-.52.35-.42.27-.92.6-1.42.87-.27.17-.55.32-.82.5-.42.25-.82.5-1.17.67l-.92.5c-.47.25-.65.87-.37,1.34.17.32.52.52.87.52.15,0,.32-.05.47-.12l.94-.52c.37-.2.8-.45,1.24-.72.25-.15.52-.32.8-.47.52-.3,1.04-.62,1.49-.92.2-.12.37-.25.52-.35l.89-.57c.2-.12.42-.2.67-.2.4,0,.77.2.99.52.17.27.25.6.2.89-.05.32-.25.6-.52.8,0,0-.37.25-.94.6-.17.1-.35.22-.55.35-.45.3-.97.62-1.52.94-.27.15-.52.32-.8.47-.47.27-.94.55-1.32.77l-1.04.57h0c-.45.27-.6.87-.35,1.34.17.32.5.52.87.52.17,0,.35-.05.5-.12l.99-.55c.4-.22.87-.5,1.34-.8.27-.15.52-.32.8-.47.57-.32,1.12-.67,1.59-.97.2-.12.37-.25.55-.35l.97-.62c.77-.52,1.27-1.29,1.42-2.19.15-.82-.05-1.67-.55-2.34-.65-.85-1.67-1.34-2.73-1.34ZM143.41,47.22l.92.52c.12.07.25.15.4.22.5.27,1.04.6,1.59.94.72.45,1.42.89,1.94,1.22l.87.6c.15.1.35.17.55.17.32,0,.65-.17.82-.45.15-.22.22-.5.17-.75s-.2-.47-.4-.62l-.89-.62-1.99-1.27c-.57-.37-1.14-.7-1.64-.99l-1.32-.75c-.57-.35-.8-1.07-.47-1.64.2-.4.62-.65,1.04-.65.2,0,.42.05.6.17l1.37.8c.52.3,1.12.62,1.69,1.02l2.06,1.29.94.65h0c.17.1.35.15.55.15.32,0,.65-.15.82-.42.15-.22.2-.47.15-.75s-.2-.52-.45-.67l-.94-.65-2.11-1.34c-.62-.4-1.24-.77-1.76-1.07l-1.37-.8c-.5-.27-1.04-.42-1.59-.42-1.19,0-2.31.67-2.83,1.71-.77,1.59-.22,3.5,1.29,4.37ZM137.5,127.98c-.45,0-.87.1-1.27.27,0,0-1.57.65-3.11,1.32l-2.16.85c-.57.22-.99.35-.99.35-.5.17-.77.75-.6,1.27.15.45.65.75,1.09.67h0l.15-.05s.42-.12,1.02-.37l1.99-.77,3.43-1.42c.15-.07.32-.1.5-.1.47,0,.89.27,1.09.72.12.3.15.62.02.92-.12.32-.35.57-.65.7-.02,0-1.64.72-3.26,1.37l-2.26.87c-.6.22-1.02.37-1.04.37-.52.17-.8.77-.62,1.29.15.4.52.67.94.67.12,0,.22-.02.35-.05,0,0,.45-.15,1.07-.37l2.31-.89c1.64-.67,3.31-1.39,3.33-1.39.85-.4,1.47-1.07,1.76-1.89.27-.8.22-1.64-.12-2.41-.57-1.19-1.74-1.91-2.98-1.91ZM174.16,86.87h-.1c-.8,0-1.59.3-2.21.82-.47.42-1.04,1.09-1.12,2.04,0,0-.02.4-.12.97-.05.2-.07.45-.12.7-.07.45-.15.97-.27,1.47-.05.2-.1.4-.15.6-.12.57-.25,1.09-.4,1.52l-.32,1.12h.02c-.05.45.25.89.7,1.04.1.02.22.05.32.05.45,0,.82-.27.92-.67l.3-1.02c.15-.45.27-1.04.42-1.64.05-.2.1-.4.15-.62.15-.55.22-1.09.3-1.57.05-.25.07-.5.12-.72.12-.62.12-1.04.15-1.04.05-.62.67-1.12,1.32-1.07.32.02.6.17.8.4.22.25.32.6.27.94,0,0-.02.45-.15,1.12-.05.22-.07.5-.12.77-.07.52-.17,1.12-.32,1.69-.05.2-.1.37-.12.57-.15.7-.3,1.32-.47,1.84l-.32,1.09c-.15.57.12,1.12.65,1.29.1.02.2.05.3.05.45,0,.85-.32.97-.75l.32-1.12c.17-.55.32-1.22.5-1.96.05-.2.1-.4.12-.57.15-.62.25-1.24.32-1.79.05-.27.07-.55.12-.77.12-.7.15-1.17.15-1.19.07-.99-.17-1.89-.75-2.51-.5-.65-1.29-1.04-2.16-1.07ZM163.37,112.87c-.62-.52-1.39-.82-2.19-.82-.87,0-1.69.32-2.29.94,0,0-.27.32-.72.72l-1.57,1.49-1.79,1.59-.8.67c-.4.32-.47.97-.12,1.39.2.25.47.37.77.37.22,0,.45-.07.62-.22l.82-.67,1.76-1.57,1.69-1.62c.47-.45.75-.75.75-.77.22-.22.52-.37.87-.37.32,0,.62.12.85.32.22.22.37.5.37.82s-.12.65-.35.89c0,0-.3.35-.77.8l-1.76,1.69-1.84,1.62-.87.7c-.42.35-.5.99-.17,1.42.17.22.47.37.77.37.25,0,.47-.07.67-.25l.89-.72,1.89-1.67,1.81-1.74c.5-.47.82-.82.82-.82.65-.65.97-1.52.94-2.41-.02-.82-.4-1.62-1.07-2.16ZM171.05,100.81c-.77-.32-1.67-.35-2.44-.07-.82.27-1.44.8-1.79,1.52l-.12.25-.37.65c-.07.12-.15.27-.25.42-.25.47-.55.99-.89,1.49l-.07.12c-.42.65-.8,1.27-1.14,1.74l-.7,1.02c-.25.45-.02.89.35,1.17.17.12.4.22.62.22.32,0,.6-.15.77-.4l.62-.87c.37-.47.77-1.12,1.19-1.81l.1-.15c.37-.55.67-1.09.94-1.59.1-.15.17-.3.25-.45l.37-.67c.1-.17.12-.27.12-.27.2-.4.6-.65,1.07-.65.2,0,.37.05.55.12.27.12.5.37.6.67.1.32.07.67-.07.97,0,0-.05.1-.12.27l-.4.72c-.07.15-.17.3-.25.45-.3.52-.62,1.09-.99,1.67-.47.75-.97,1.52-1.37,2.06l-.65.92c-.32.47-.25,1.09.2,1.42.17.12.37.2.6.2.32,0,.65-.17.85-.45l.67-.94c.42-.55.92-1.34,1.39-2.11l.02-.02c.4-.6.77-1.24,1.07-1.79.07-.15.17-.3.25-.42l.42-.75c.1-.17.15-.3.15-.3.4-.82.5-1.76.22-2.58-.35-.8-.97-1.44-1.76-1.76ZM82.39,33.13l-1.07.1c-.22.02-.47.05-.75.05-.5.05-1.07.07-1.64.15l-3.43.4c-.65.1-1.27-.37-1.37-1.02-.1-.67.37-1.29,1.04-1.39l3.5-.42c.57-.07,1.14-.12,1.64-.15.27-.02.55-.05.77-.07l1.09-.1c.55-.05.97-.55.94-1.09-.05-.55-.52-.97-1.09-.92l-1.12.1c-.22.02-.47.05-.75.07-.52.05-1.12.1-1.71.17l-3.55.42c-.89.12-1.67.6-2.19,1.32-.5.7-.7,1.52-.55,2.36.27,1.57,1.62,2.73,3.16,2.73h0c.15,0,.3,0,.45-.02l3.38-.4c.55-.07,1.09-.12,1.59-.15.27-.02.52-.05.75-.07l1.17-.1h0c.47-.1.82-.55.8-1.07-.02-.52-.52-.94-1.07-.89ZM89.65,30.37l1.09-.02c.67-.02,1.54-.02,2.44,0l2.44.05c.65,0,1.09.02,1.09.02h.05c.55,0,.99-.42,1.02-.94.02-.55-.42-1.02-.97-1.04,0,0-.45-.02-1.12-.02l-2.46-.05c-.89-.02-1.79-.02-2.46,0l-1.12.02c-.87,0-1.69.35-2.29.99-.6.62-.92,1.47-.87,2.34.07,1.74,1.52,3.13,3.28,3.13l1.07-.02c.65-.02,1.49-.02,2.34,0l2.34.05c.62,0,1.04.02,1.07.02h.05c.52,0,.94-.42.97-.94.02-.55-.4-1.02-.94-1.04,0,0-.45-.02-1.09-.02l-2.39-.05c-.87-.02-1.74-.02-2.39,0l-1.09.02c-.65,0-1.19-.55-1.22-1.19,0-.32.1-.62.32-.85.2-.32.5-.45.85-.45ZM130.81,41.46l.99.37c.2.07.42.17.67.25.47.17.99.37,1.49.6l2.14.92c.57.22.94.42.97.42.12.05.27.1.4.1.37,0,.75-.22.89-.6.17-.37.1-.82-.17-1.09l-.3-.22s-.4-.2-.99-.45l-2.19-.92c-.52-.22-1.07-.42-1.54-.6-.25-.1-.47-.17-.67-.25l-.99-.37c-.62-.25-.94-.92-.72-1.57.17-.47.62-.8,1.12-.8.15,0,.3.02.42.07l1.04.4c.2.07.45.17.7.27.5.17,1.04.4,1.59.62l2.24.94c.6.25.99.45.99.45.15.07.27.1.42.1.4,0,.75-.22.92-.57.22-.5,0-1.09-.5-1.34,0,0-.42-.2-1.04-.47l-2.29-.97c-.55-.25-1.12-.45-1.62-.65-.25-.1-.5-.17-.7-.27l-1.04-.4c-.37-.15-.75-.2-1.14-.2-1.39,0-2.58.87-3.03,2.16-.52,1.62.32,3.43,1.94,4.05ZM111.45,29.83l-1.14-.17c-.65-.1-1.54-.25-2.41-.32l-2.44-.3c-.67-.07-1.12-.12-1.12-.12-1.81-.15-3.41,1.19-3.53,2.93-.12,1.76,1.19,3.33,2.91,3.48,0,0,.42.02,1.04.1l2.34.27c.82.07,1.62.2,2.24.3l1.12.17h.15c.47,0,.89-.37.99-.85.05-.27-.02-.52-.17-.75-.12-.17-.32-.32-.55-.37l-1.17-.17c-.62-.1-1.49-.22-2.36-.32l-2.36-.27c-.65-.07-1.07-.1-1.07-.1-.32-.02-.6-.17-.82-.42-.2-.25-.3-.57-.27-.89.05-.62.6-1.12,1.22-1.12h.1s.45.02,1.09.12l2.41.3c.85.1,1.71.22,2.36.32l1.14.17c.57.07,1.07-.3,1.17-.85.05-.25-.02-.52-.17-.75-.2-.2-.42-.35-.7-.4ZM124,132.8c-.27,0-.57.05-.85.12l-1.02.3c-.37.1-.85.22-1.34.35-.3.07-.62.15-.92.22-.67.17-1.42.35-2.26.55l-1.04.22c-.52.12-.87.65-.75,1.19.1.52.65.89,1.17.77l1.04-.22c.89-.2,1.64-.37,2.31-.55.3-.07.57-.15.87-.22.52-.12,1.02-.25,1.44-.37l1.04-.3c.1-.02.22-.05.32-.05.55,0,1.02.37,1.17.89.1.3.05.62-.1.92-.15.3-.42.5-.75.6l-1.07.3c-.42.12-.92.25-1.47.37-.3.07-.6.15-.89.22-.7.17-1.49.37-2.36.55l-1.07.25c-.55.12-.89.67-.8,1.19.1.45.5.8.99.8.07,0,.15,0,.22-.02l1.09-.25c.92-.2,1.69-.37,2.41-.57.32-.07.62-.15.92-.22.55-.12,1.04-.27,1.47-.37.65-.17,1.09-.3,1.07-.3.85-.22,1.57-.8,1.99-1.57s.5-1.64.25-2.46c-.42-1.42-1.67-2.34-3.11-2.34ZM117.46,37.53l1.04.22c.55.12,1.34.3,2.26.55l2.26.6s1.24.32,1.29.35c.42.12.82-.3.94-.72.15-.5-.1-1.02-.57-1.22l-1.12-.35-2.29-.6c-.97-.25-1.74-.45-2.31-.57l-1.04-.25c-.65-.15-1.07-.8-.92-1.44.12-.55.6-.94,1.17-.94.1,0,.17,0,.27.02l1.09.25c.57.12,1.37.32,2.36.57.85.22,1.71.45,2.36.62l1.07.32c.52.15,1.09-.15,1.27-.67.15-.52-.15-1.09-.7-1.27l-1.09-.32-2.39-.62c-.67-.17-1.64-.42-2.41-.6l-1.09-.25c-.25-.05-.5-.07-.75-.07-1.52,0-2.83,1.09-3.11,2.58-.4,1.74.7,3.41,2.39,3.8ZM53.54,34.52c-.12,0-.22.02-.32.05-.02,0-1.74.57-3.38,1.24-1.69.62-3.33,1.34-3.36,1.34-.82.35-1.44.97-1.76,1.79-.32.8-.27,1.71.07,2.49.55,1.14,1.71,1.89,2.98,1.89h0c.42,0,.82-.07,1.22-.25.02,0,1.57-.7,3.13-1.27.35-.12.67-.27,1.02-.4v-2.14c-.52.2-1.14.42-1.74.65-1.62.57-3.18,1.29-3.21,1.29-.15.07-.3.1-.47.1-.5,0-.92-.3-1.12-.75-.12-.3-.12-.62-.02-.92.12-.3.35-.55.67-.67.02,0,1.64-.72,3.28-1.32,1.62-.65,3.31-1.19,3.33-1.22l.07-.02h0c.47-.2.72-.75.55-1.24-.12-.37-.5-.65-.94-.65Z" fill="#fff" stroke-width="0"/>
        <path d="M51.18,34.3l5.69,1.89c.2-.4.3-.87.3-1.29,0-1.67-1.37-3.01-3.03-3.01-1.44,0-2.66,1.02-2.96,2.41" fill="#fff" stroke-width="0"/>
        <polyline points="26.2 124.99 28.71 125.77 55.28 35.99 52.69 35.19 26.2 124.99" fill="#fff" stroke-width="0"/>
        <g>
          <path d="M72.63,135.04l4.65.7-.22,1.44-3.11-.45-.22,1.57,2.93.42-.2,1.34-2.93-.42-.25,1.64,3.11.45-.22,1.44-4.65-.7,1.12-7.43Z" fill="#fff" stroke-width="0"/>
          <path d="M77.8,143.19l.15-1.49c.4.22,1.22.42,1.86.5.92.07,1.42-.12,1.47-.67.05-.42-.22-.7-.77-.92l-.82-.32c-1.24-.5-1.47-1.34-1.39-2.14.17-1.79,1.64-2.26,3.16-2.11.5.05,1.22.17,1.69.4l-.15,1.49c-.4-.25-1.09-.42-1.64-.47-.89-.07-1.39.15-1.44.67-.05.42.22.7.77.92l.82.32c1.24.5,1.47,1.32,1.39,2.16-.17,1.81-1.62,2.26-3.16,2.11-.55-.05-1.39-.2-1.94-.45Z" fill="#fff" stroke-width="0"/>
          <path d="M83.91,136.38l5.29.25-.07,1.44-1.86-.07-.27,6.01-1.57-.07.27-6.01-1.86-.07.07-1.47Z" fill="#fff" stroke-width="0"/>
          <path d="M93.63,138.04l-1.37.02-.02-1.44,2.93-.05.12,7.48-1.57.02-.1-6.04Z" fill="#fff" stroke-width="0"/>
          <path d="M97.56,143.86l-.1-1.52c.45.2.92.3,1.47.27.92-.05,1.64-.45,1.59-1.96-.32.35-.77.57-1.32.6-1.29.07-2.19-.85-2.29-2.34-.1-1.67.89-2.56,2.26-2.63,2.11-.12,2.81,1.79,2.91,3.73.17,2.81-.97,3.9-2.93,4.03-.52.02-1.17-.02-1.59-.17ZM100.44,139.41c-.15-1.14-.5-1.76-1.14-1.71-.35.02-.82.22-.77,1.12.02.6.27,1.04.97.99.35,0,.7-.15.94-.4Z" fill="#fff" stroke-width="0"/>
          <path d="M104.19,137.45l-1.37.15-.15-1.44,2.93-.3.8,7.43-1.54.17-.67-6.01Z" fill="#fff" stroke-width="0"/>
          <path d="M108.24,142.94l-.22-1.47c.4.12,1.09.15,1.74.05.45-.07,1.19-.25,1.09-.97-.07-.57-.57-.92-2.19-.7l-.2-1.27,1.29-1.86-2.39.35-.22-1.44,4.3-.65.22,1.49-1.44,1.99c1.22.07,2.04.62,2.24,1.81.2,1.42-.65,2.36-2.44,2.63-.5.07-1.27.12-1.79.02Z" fill="#fff" stroke-width="0"/>
        </g>
        <path d="M54.76,38.82l.8-2.73,1.47.47.07-.12c.27-.47.4-1.02.4-1.57,0-.1-.02-.35-.02-.37,0-.1-.05-.3-.05-.3-.22-1.07-.97-1.96-1.99-2.39h0c-.4-.17-.82-.25-1.29-.25-1.67,0-3.03,1.19-3.31,2.81l-.02.12,1.59.52-26.59,90.15,3.11.94,3.38-11.48,147.76-31.79L54.76,38.82M51.18,34.3c.3-1.42,1.52-2.41,2.98-2.41.1,0,.2,0,.3.02l.12.17c.75.94.52,2.01-.02,3.36l-3.38-1.14ZM52.69,35.19l1.12.35-26.64,89.75-.97-.3,26.5-89.8ZM54.51,39.67c1.54,10.27,6.86,54.06-21.92,74.14l21.92-74.14ZM32.46,114.31c10.86-7.75,18.34-19.09,21.67-35.54,3.43-16.88,1.62-33.13.62-39.62l124.22,43.67-146.52,31.49Z" fill="#000" stroke-width="0"/>
        <g>
          <polygon points="112.92 68.28 111.37 73.69 114.43 73.69 108.76 84.56 108.44 84.56 108.07 68.28 101.73 68.28 103.1 91.37 111.08 91.37 123.98 68.28 112.92 68.28" fill="#000" stroke-width="0"/>
          <path d="M83.93,75.86c0,2.76,1.12,4.57,4.35,5.82l1.74.67c1.22.47,2.09.92,2.09,2.19,0,1.81-1.84,2.21-3.8,2.21-2.76,0-5.02-.8-6.69-1.64l-1.52,5.22c1.81,1.04,4.82,1.62,7.73,1.62,6.01,0,10.49-2.44,10.49-8.08,0-2.71-1.02-4.57-4.35-5.84l-1.74-.67c-1.12-.42-2.09-.89-2.09-2.19,0-1.79,1.81-2.21,3.63-2.21,2.24,0,4.05.67,5.37,1.39l1.52-5.22c-1.64-.67-3.65-1.34-6.56-1.34-5.44-.02-10.17,2.34-10.17,8.08Z" fill="#000" stroke-width="0"/>
          <path d="M73.4,68.28h-9.52l-1.54,5.42h2.96l-5.05,17.67h6.06l1.84-6.46h1.81c6.56,0,12.38-3.5,12.38-9.72,0-5.32-4.25-6.91-8.95-6.91ZM70.71,79.68h-1.04l1.76-6.19h1.07c2.54,0,3.65.67,3.65,2.39,0,2.58-2.56,3.8-5.44,3.8Z" fill="#000" stroke-width="0"/>
        </g>
      </g>
      <path d="M81.37,6.88l-2.24-6.88-2.24,6.88h-7.23l5.87,4.25-2.24,6.88,5.84-4.25,5.87,4.25-2.24-6.88,5.87-4.25h-7.26ZM114.28,6.88h-7.23l-2.24-6.88-2.24,6.88h-7.23l5.87,4.25-2.24,6.88,5.87-4.25,5.87,4.25-2.24-6.88,5.82-4.25Z" fill="#b99558" stroke-width="0"/>
    </g>
  </g>
</svg>