<?xml version="1.0" encoding="UTF-8"?>
<svg id="Layer_1" data-name="Layer 1" xmlns="http://www.w3.org/2000/svg" version="1.1" viewBox="0 0 566.9 566.9">
  <defs>
    <style>
      .cls-1 {
        fill: #fff;
        stroke-width: 0px;
      }
    </style>
  </defs>
  <path class="cls-1" d="M95.2,250l-.7,3.3-4-.8,1.6-8,12.4,2.4-10.8-10.4,1-5.3,11.7,11.3,15.5-6.3-1.1,5.5-14.2,5.6,12.6,2.5-.9,4.7-23.1-4.5ZM102.2,221.2l-1,2.9-3.9-1.4,3.5-9.9,28.4,2.6-1.7,4.8-5.3-.5-2.5,7.3,4.5,2.9-1.6,4.7-20.3-13.3ZM118,219.1l-8.5-1-5.4-.7,4.7,2.8,7.3,4.5,1.9-5.6ZM110.5,199.2l-1.6,3-3.6-2,4.6-8.4,16.8,2.9-11.6-12.5,2.8-5.2,24.3,13.2-2.2,4-8.7-4.7-8.8-5,5,5.3,5.2,5.8-2.1,4-7.7-1.2-7.2-1.3,9,4.6,8.7,4.7-2.2,4-20.7-11.2ZM128.3,169.3l-2.1,2.7-3.3-2.5,7.7-10c2.7-3.4,5.6-3.8,8.4-1.6l4.8,3.7c2.8,2.2,3.2,5.1.6,8.6l-2.8,3.6,8.1,6.3-2.9,3.8-18.6-14.4ZM140.8,168.2c.9-1.2.8-2.4-.3-3.3l-3.7-2.9c-1.2-.9-2.3-.7-3.2.5l-2.3,3,7.3,5.6,2.3-3ZM156.6,165.3l2.4-2.4-13.9-13.6-2.4,2.4-2.9-2.9,8.1-8.3,2.9,2.9-2.4,2.4,13.9,13.6,2.4-2.4,2.9,2.9-8.1,8.3-2.9-2.9ZM167.9,151.7l-10.3-12.6c-2.3-2.8-2-5.7,1.4-8.5l2.8-2.3c3.4-2.7,6.3-2.4,8.6.4l10.3,12.6c2.3,2.8,2,5.7-1.4,8.5l-2.8,2.3c-3.4,2.7-6.3,2.4-8.6-.4ZM176,147.2c1.7-1.3,1.6-2.2.4-3.7l-8.9-11c-1.2-1.5-2-1.8-3.7-.4l-1.4,1.1c-1.7,1.3-1.6,2.2-.4,3.7l8.9,11c1.2,1.5,2,1.8,3.7.4l1.4-1.1ZM178.5,121.2l-2.9,1.8-2.1-3.5,14.6-8.9,2.1,3.5-7.6,4.6,3.7,6.1,6.9-4.2,2.1,3.5-6.9,4.2,4.3,7,7.6-4.6,2.1,3.5-11.7,7.1-12.3-20.1ZM199.7,109.2l-3.1,1.3-1.6-3.8,7.3-3.2,12.9,8.6-3.5-7.6-1.8-4.2,4.2-1.8,10.9,25.4-4.2,1.8-2.9-6.6-12.9-8.6,3.5,7.6,4.7,10.9-4.2,1.8-9.3-21.6ZM232.5,92.6l4.9-1,5.8,12.9,3.5,8v-8.8c0,0,0-9.9,0-9.9l-3.3.7-.8-4,9-1.9-1,28.5-5.8,1.2-12.4-25.7ZM263.1,91.4l-3,.2-.3-4.1,10.5-.8,9,27-5,.4-1.7-5.1-7.7.6-.9,5.3-5,.4,4-23.9ZM271.3,105.1l-2.4-8.2-1.5-5.2-.7,5.4-1.2,8.5,5.9-.5ZM286.2,90.4l-3.4-.2.3-4.1,8,.5,7.5,13.5.3-8.4.3-4.6,4.6.3-1.8,27.6-4.6-.3.5-7.2-7.5-13.5-.3,8.4-.8,11.8-4.6-.3,1.5-23.5ZM325.8,95.5l-3.3-.9,1.1-4,7.7,2.2,4.5,14.8,2.1-8.1,1.3-4.4,4.4,1.3-7.6,26.6-4.4-1.3,2-7-4.5-14.8-2.1,8.1-3.2,11.4-4.4-1.3,6.4-22.7ZM353.2,104.3l-3.1-1.4,1.7-3.8,15.6,6.9-1.7,3.8-8.2-3.6-2.9,6.5,7.4,3.3-1.7,3.8-7.4-3.3-3.3,7.5,8.2,3.6-1.7,3.8-12.5-5.6,9.6-21.5ZM375.1,114.9l-2.9-1.8,2.2-3.5,11.1,6.9c3.7,2.3,4.4,5.2,2.5,8.2l-8.6,13.8c-1.9,3.1-4.8,3.7-8.5,1.4l-8.2-5.1,12.4-20ZM372.3,136c1.8,1.1,2.6.8,3.6-.9l7.5-12c1-1.7,1-2.5-.8-3.6l-3.4-2.1-10.2,16.5,3.4,2.1ZM397.6,130l-2.6-2.2,2.6-3.2,13.2,10.9-2.6,3.2-6.9-5.7-4.6,5.5,6.2,5.2-2.6,3.2-6.2-5.2-5.2,6.3,6.9,5.7-2.6,3.2-10.5-8.7,15-18.1ZM415.8,146l-2.3-2.5,3-2.8,8.8,9.5c2.9,3.2,2.8,6.2.2,8.6l-2.9,2.7c-2,1.8-4.2,2.2-6.4.9l-6,12.1-3.5-3.8,6.1-11.6-2-2.2-9,8.3-3.2-3.5,17.3-16ZM416.5,157.2c1.4,1.6,2.3,1.5,3.7.1l1.4-1.3c1.5-1.3,1.6-2.1.2-3.7l-2.7-2.9-5.3,4.8,2.7,2.9ZM433.5,166.5l-2-2.8,3.4-2.4,4.7,6.6-19.2,13.6,5.2,7.4-3.4,2.4-7.9-11.2,19.2-13.6ZM446.8,187l-1.4-2.7,3.6-1.9,4.9,9.3-21.1,19.1-2.4-4.5,4-3.6-3.6-6.8-5.2,1.3-2.3-4.4,23.5-5.9ZM437.6,200l6.5-5.5,4.2-3.5-5.2,1.5-8.2,2.3,2.8,5.2ZM457,207.9l-1.1-3.2,3.9-1.4,2.7,7.5-9.4,12.3,7.8-3.1,4.4-1.6,1.5,4.3-26,9.3-1.5-4.3,6.8-2.4,9.4-12.3-7.8,3.1-11.2,4-1.5-4.3,22.2-7.9ZM465.9,235.5l-.7-3.3,4-.8,2.5,12.8c.8,4.3-.8,6.7-4.3,7.4l-16,3.1c-3.5.7-6-1-6.8-5.2l-1.9-9.5,23.1-4.5ZM448.5,247.8c.4,2.1,1.2,2.4,3.1,2l13.9-2.7c1.9-.4,2.5-1,2.1-3.1l-.8-3.9-19.1,3.8.8,3.9ZM283.5,54.9c-126.2,0-228.6,102.3-228.6,228.6s102.3,228.6,228.6,228.6,228.6-102.3,228.6-228.6S409.7,54.9,283.5,54.9M437.8,435.3c-41.6,41.6-97,64.6-155.8,64.6s-114.2-22.9-155.8-64.6c-41.6-41.6-64.6-97-64.6-155.8s22.9-114.2,64.6-155.8c41.6-41.6,97-64.6,155.8-64.6s114.2,22.9,155.8,64.6c41.6,41.6,64.5,97,64.5,155.8s-22.9,114.2-64.5,155.8M433.4,128c-40.5-40.5-94.2-62.7-151.5-62.7s-111,22.3-151.4,62.7c-40.5,40.5-62.7,94.2-62.7,151.4s22.3,111,62.7,151.4c40.5,40.5,94.2,62.7,151.4,62.7s111-22.3,151.5-62.7c40.5-40.5,62.7-94.2,62.7-151.4s-22.3-111-62.7-151.4M282,487.9c-115.1,0-208.5-93.3-208.5-208.4s93.3-208.5,208.5-208.5,208.5,93.3,208.5,208.5-93.3,208.4-208.5,208.4M282,129.4c-82.9,0-150.1,67.2-150.1,150.1s67.2,150.1,150.1,150.1,150.1-67.2,150.1-150.1-67.2-150.1-150.1-150.1M282.5,156c69.8,0,126.3,56.6,126.3,126.3s-56.6,126.3-126.3,126.3-126.4-56.6-126.4-126.3,56.6-126.3,126.4-126.3M383.1,382.4c-56,56-146.8,56-202.8,0-12.7-12.7-22.4-27.3-29.3-42.8,6.3,11.3,14.1,21.9,23.7,31.5,56,56,147.8,60.7,203.8,4.7,43.3-43.3,51.9-112,28.3-164.7,30.5,54.6,22.7,124.9-23.7,171.3M469.4,309.1h-9.1l-2.8-8.7-2.8,8.7h-9.1l7.4,5.4-2.8,8.7,7.4-5.4,7.4,5.4-2.8-8.7,7.4-5.4ZM119,309.2h-8.9l-2.8-8.5-2.8,8.5h-8.9l7.2,5.2-2.8,8.5,7.2-5.2,7.2,5.2-2.8-8.5,7.2-5.2ZM126.9,380.5l9.8-6.8c2.2-1.5,4.3-1.1,6.1,1.5l3.9,5.6-5.8,4-1.8-2.7,3.3-2.3-1.7-2.4c-.9-1.3-1.5-1.3-2.7-.5l-8.5,5.9c-1.2.8-1.4,1.4-.5,2.7l3.5,5.1-2.5,1.7-3.9-5.6c-1.8-2.6-1.4-4.7.7-6.2ZM147.8,387.1l-1.6-1.9,2.3-2,6.2,7.2c2.1,2.4,1.9,4.6-.1,6.3l-2.2,1.9c-1.5,1.3-3.2,1.5-4.7.5l-4.7,8.7-2.4-2.8,4.7-8.3-1.4-1.6-6.8,5.8-2.2-2.6,13.1-11.2ZM147.9,395.3c1,1.2,1.6,1.1,2.7.2l1-.9c1.1-.9,1.2-1.5.2-2.7l-1.9-2.2-4,3.4,1.9,2.2ZM159.6,400.3l-1.8-1.7,2.1-2.2,9,8.7-2.1,2.2-4.7-4.5-3.6,3.8,4.3,4.1-2.1,2.2-4.3-4.1-4.1,4.3,4.7,4.5-2.1,2.2-7.2-6.9,11.9-12.4ZM172.6,412.2l-1.7-1.4,1.9-2.3,6,4.8-8.6,19-2.9-2.3,1.7-3.6-4.4-3.5-3.1,2.4-2.8-2.3,14.1-10.8ZM170.2,423.6l2.8-5.6,1.8-3.6-3.1,2.5-4.9,3.9,3.4,2.7ZM185.2,421.6l-3.6-2.4,1.7-2.5,10,6.7-1.7,2.5-3.6-2.4-9.6,14.3-2.9-1.9,9.6-14.3ZM186.7,439.5l2.2,1.2,7-12.4-2.2-1.2,1.5-2.6,7.3,4.2-1.5,2.6-2.2-1.2-7,12.4,2.2,1.2-1.5,2.6-7.3-4.2,1.5-2.6ZM205.5,433.7l-2.3-1,1.2-2.7,5.3,2.4,1.7,11.2,2.4-5.6,1.4-3.1,3,1.4-8.4,18.4-3-1.4,2.2-4.8-1.7-11.2-2.4,5.6-3.6,7.9-3-1.4,7.1-15.7ZM217.8,453.2l3.8-11.3c.8-2.5,2.8-3.5,5.8-2.5l7.2,2.4-.9,2.8-6.5-2.2c-1.5-.5-2-.1-2.4,1.2l-3.3,9.8c-.5,1.4-.3,1.9,1.2,2.4l3.2,1.1,1.9-5.7-2.4-.8.9-2.9,5.7,1.9-3.8,11.4-7.2-2.4c-3-1-4-2.9-3.2-5.4ZM242.2,461.5l5.5,1c1.5.3,2-.1,2.2-1.6l.2-.9c.2-.9-.2-1.3-.6-1.7l-3.4-3.4c-1.5-1.5-2.1-2.8-1.7-5l.3-1.4c.5-2.6,2.3-3.8,5.4-3.2l5.7,1.1-.6,3-5.1-.9c-1.5-.3-2,.1-2.2,1.6v.5c-.3.9,0,1.3.5,1.7l3.4,3.4c1.5,1.5,2.1,2.8,1.7,5l-.3,1.7c-.5,2.6-2.3,3.8-5.4,3.2l-6.1-1.1.6-3ZM262.1,450.4l-4.3-.4.3-3,12,1.3-.3,3-4.3-.4-1.8,17.1-3.4-.4,1.8-17.1ZM275.6,451.4h-2.2s0-3,0-3h7.7c0,.1,4.7,20.4,4.7,20.4h-3.7c0,0-.9-3.9-.9-3.9h-5.6c0-.1-1,3.7-1,3.7h-3.6c0,0,4.6-17.2,4.6-17.2ZM280.6,461.9l-1.2-6.1-.7-3.9-.9,3.9-1.5,6.1h4.3ZM290.3,451.4l-2.5.2-.2-3,9.4-.8c3.2-.3,4.8,1.2,5,3.8l.2,2.9c.2,2-.6,3.4-2.4,4.1l4.3,8.9-3.7.3-3.9-8.7-2.1.2.7,9-3.5.3-1.4-17.2ZM297.1,456.1c1.6-.1,1.9-.6,1.7-2.1v-1.4c-.2-1.4-.6-1.9-2.2-1.8l-2.8.2.4,5.2,2.8-.2ZM308.9,463.8l5.5-1c1.5-.3,1.8-.8,1.5-2.2v-.9c-.3-.9-.8-1.1-1.3-1.4l-4.4-2c-1.9-.8-3-1.9-3.3-4l-.2-1.4c-.5-2.6.8-4.4,3.9-4.9l5.7-1,.5,3-5.1.9c-1.5.3-1.8.8-1.5,2.2v.5c.2.9.7,1.1,1.2,1.4l4.4,2c1.9.8,3,1.9,3.3,4l.3,1.7c.5,2.6-.8,4.4-3.9,4.9l-6.1,1.1-.5-3ZM331,444.4l-4.1,1.3-.9-2.9,11.5-3.6.9,2.9-4.1,1.3,5.1,16.4-3.3,1-5.1-16.4ZM346.4,453.1l-4.5-11c-1-2.4-.2-4.4,2.8-5.6l2.5-1c2.9-1.2,4.9-.4,5.9,2.1l4.5,11c1,2.4.2,4.4-2.8,5.6l-2.5,1c-2.9,1.2-4.9.4-5.9-2.1ZM353,451.6c1.4-.6,1.6-1.2,1-2.5l-3.9-9.6c-.5-1.3-1.1-1.7-2.5-1.1l-1.2.5c-1.4.6-1.6,1.2-1,2.5l3.9,9.6c.5,1.3,1.1,1.7,2.5,1.1l1.2-.5ZM363.3,445.8l-5.6-10.5c-1.2-2.3-.6-4.4,2.2-5.9l6.7-3.5,1.4,2.6-6.1,3.2c-1.4.7-1.5,1.3-.8,2.6l4.9,9.1c.7,1.3,1.2,1.5,2.6.8l3-1.6-2.8-5.3-2.2,1.2-1.4-2.7,5.3-2.8,5.6,10.6-6.7,3.5c-2.8,1.5-4.9.9-6.1-1.5ZM373.1,425.4l-2.1,1.4-1.7-2.5,10.4-6.9,1.7,2.5-5.4,3.6,2.9,4.4,4.9-3.3,1.7,2.5-4.9,3.3,3.3,5,5.4-3.6,1.7,2.5-8.3,5.5-9.5-14.3ZM387.4,415.4l-3.4,2.7-1.9-2.4,9.5-7.5,1.9,2.4-3.4,2.7,10.7,13.5-2.7,2.2-10.7-13.5ZM396.5,407.8l-1.8,1.7-2.1-2.2,4.3-4.1,5.7,5.9,3.9-3.7-5.7-5.9,2.5-2.4,14,14.6-2.5,2.4-6.2-6.5-3.9,3.7,6.2,6.5-2.5,2.4-11.9-12.4ZM409.6,394.7l-1.6,1.9-2.3-2,8.1-9.5,2.3,2-4.2,5,4,3.4,3.8-4.5,2.3,2-3.8,4.5,4.5,3.9,4.2-5,2.3,2-6.5,7.6-13.1-11.2ZM419.6,382.7l-1.4,2-2.5-1.7,5.4-7.8c1.8-2.6,4-3,6.1-1.5l2.4,1.7c1.6,1.1,2.3,2.7,1.6,4.5l9.6,2.4-2.1,3.1-9.2-2.5-1.2,1.8,7.4,5.2-2,2.8-14.1-9.9ZM427.5,380.5c.9-1.3.7-1.8-.5-2.7l-1.1-.8c-1.2-.8-1.8-.8-2.7.5l-1.6,2.3,4.3,3,1.6-2.3ZM198.7,287.9h4.7l-2.2,7.8h-4.7l2.2-7.8ZM196.4,312.5h5.7l2.9-10.2h3.3l1.9-6.7h-3.3l2.2-7.8h3.3l1.9-6.7h-3.3l2.9-10.2h-5.7l-2.9,10.2h-4.7l2.9-10.2h-5.7l-2.9,10.2h-3.3l-1.9,6.7h3.3l-2.2,7.8h-3.3l-1.9,6.7h3.3l-2.9,10.2h5.7l2.9-10.2h4.7l-2.9,10.2ZM360.6,203h-67.3v12.1h67.3v-12.1ZM219.8,203h-11.6v55.9h11.6v-55.9ZM262.5,300.2c10.2-16.2,17.2-30.9,17.2-52.2,0-30.4-15.3-45-32.9-45h-25v55.9h11.6v-30.4h7c9,0,12.1,10,12.1,20.6s-3.9,24.6-12.8,38.7l-31.3,50.1v12.1h71.5v-12.1h-41.1l23.9-37.8ZM222.3,338l27.9-44.4c10.4-16.5,14.8-29.9,14.8-45.1s-8.5-31.8-21.6-31.8h-10.2v-1.9h10.2c14.2,0,23.4,13.2,23.4,33.7s-4.5,29-15.1,46.1l-27.3,43.5h-2.2ZM208.2,364h71.5v-12.1h-71.5v12.1ZM333,270.2l-12.3-2.1v-39.2h39.9v-12.1h-67.3v58.7l34.6,5.8c15.1,2.6,24.1,15.6,24.1,34.8s-2.4,18.2-6.5,24.8c-4.5,7.1-10.8,11-17.8,11h-34.3v12h39.4c20.6,0,32-24.4,32-47.8s-10.9-42.5-31.8-45.9ZM308,266.4l-1.9-.3v-37.1h1.9v37.4ZM322.6,338h-29.2v12h34.3c14.6,0,22.5-17.4,22.5-33.9s-8.4-30.4-22.5-32.9l-34.3-6v12l29.2,5.1c8.6,1.4,14.8,8.6,14.8,21.8s-6.3,21.8-14.8,21.8Z"/>
</svg>