<?xml version="1.0" encoding="UTF-8"?>
<svg id="Layer_2" data-name="Layer 2" xmlns="http://www.w3.org/2000/svg" viewBox="0 0 434.44 434.44">
  <g id="Layer_1-2" data-name="Layer 1">
    <rect width="434.44" height="434.44" rx="8.67" ry="8.67" fill="#9c96ff" stroke-width="0"/>
    <g>
      <path d="M26.83,42.91c-1.11-.44-1.99-1.07-2.63-1.9-.64-.82-1-1.82-1.06-2.97v-.21s3.71,0,3.71,0l.03.14c.09.49.31.91.66,1.26.35.35.81.63,1.38.82s1.21.29,1.92.29,1.36-.1,1.89-.29c.53-.2.93-.48,1.22-.84.29-.36.43-.78.43-1.26h0c0-.65-.25-1.15-.75-1.51-.5-.36-1.34-.66-2.5-.9l-1.99-.41c-1.86-.37-3.26-1-4.21-1.89s-1.42-2.05-1.42-3.47h0c0-1.16.32-2.17.94-3.02s1.47-1.52,2.55-2c1.08-.48,2.32-.72,3.71-.72s2.71.23,3.77.69c1.06.46,1.88,1.1,2.48,1.92.59.82.92,1.79.98,2.9v.24s-3.71,0-3.71,0l-.03-.16c-.06-.5-.25-.92-.55-1.27-.31-.35-.71-.62-1.21-.81-.5-.19-1.07-.29-1.73-.29s-1.25.1-1.74.29-.86.46-1.12.8c-.26.34-.39.74-.39,1.18h0c0,.62.25,1.1.76,1.46.51.36,1.3.65,2.38.87l2,.41c1.31.26,2.4.62,3.24,1.08s1.47,1.04,1.88,1.75c.4.7.61,1.54.61,2.53h0c0,1.22-.3,2.27-.91,3.16-.61.88-1.48,1.57-2.62,2.05-1.14.48-2.5.73-4.09.73-1.49,0-2.79-.22-3.9-.66Z" fill="#fff" stroke-width="0"/>
      <path d="M42.13,42.92c-.71-.36-1.27-.86-1.66-1.5s-.59-1.37-.59-2.19v-.03c0-.85.21-1.58.64-2.19.43-.61,1.05-1.08,1.86-1.43.81-.35,1.8-.56,2.96-.64l5.47-.34v2.38l-4.89.33c-.73.04-1.29.21-1.67.51-.38.3-.58.69-.58,1.19v.03c0,.51.2.92.59,1.21.39.29.92.44,1.58.44.57,0,1.07-.11,1.52-.33.45-.22.8-.53,1.06-.92.26-.39.38-.82.38-1.3v-4.26c0-.62-.2-1.11-.59-1.46s-.96-.54-1.71-.54-1.28.15-1.7.44c-.42.29-.68.67-.77,1.12l-.03.12h-3.5v-.16c.09-.86.38-1.63.88-2.3.5-.67,1.2-1.2,2.09-1.58.89-.38,1.96-.57,3.18-.57s2.26.19,3.15.58c.89.39,1.58.94,2.07,1.64s.74,1.53.74,2.47v9.61h-3.82v-2.08h-.08c-.27.47-.61.88-1.02,1.23s-.88.61-1.41.8c-.53.18-1.1.27-1.71.27-.93,0-1.76-.18-2.46-.54Z" fill="#fff" stroke-width="0"/>
      <path d="M53.85,29.22h4.09l2.93,10.64h.08l2.89-10.64h3.99l-4.81,14.02h-4.32l-4.85-14.02Z" fill="#fff" stroke-width="0"/>
      <path d="M71.37,42.65c-1.03-.59-1.82-1.43-2.38-2.52-.56-1.09-.84-2.38-.84-3.87h0c0-1.5.28-2.8.84-3.89.56-1.09,1.34-1.94,2.35-2.54,1.01-.6,2.2-.9,3.56-.9s2.55.29,3.55.87,1.77,1.4,2.31,2.45c.54,1.06.82,2.29.82,3.7v1.19h-11.55v-2.42h9.74l-1.82,2.26v-1.48c0-.82-.12-1.51-.38-2.06-.25-.55-.6-.97-1.05-1.25s-.97-.42-1.56-.42-1.12.14-1.58.43c-.46.29-.81.71-1.07,1.26-.26.55-.38,1.23-.38,2.03v1.49c0,.77.13,1.43.38,1.97.26.55.63.97,1.11,1.26.48.29,1.05.44,1.71.44.52,0,.98-.08,1.36-.25.38-.17.7-.37.94-.63.24-.25.41-.51.5-.77l.03-.08h3.51l-.04.14c-.11.51-.31,1.03-.62,1.56s-.72,1-1.24,1.44c-.52.44-1.15.78-1.9,1.05-.74.26-1.62.39-2.62.39-1.43,0-2.66-.29-3.69-.88Z" fill="#fff" stroke-width="0"/>
      <path d="M90.96,42.55c-.75-.65-1.12-1.73-1.12-3.23v-7.22h-1.95v-2.88h1.95v-3.43h3.86v3.43h2.56v2.88h-2.56v6.8c0,.65.14,1.11.44,1.37.29.26.73.39,1.3.39.17,0,.33,0,.46-.02.13-.01.25-.03.37-.05v2.8c-.21.03-.47.07-.78.1-.31.03-.67.05-1.07.05-1.55,0-2.7-.33-3.45-.98Z" fill="#fff" stroke-width="0"/>
      <path d="M98.45,24.37h3.82v7.27h.08c.37-.87.91-1.54,1.64-2.01.73-.47,1.62-.7,2.66-.7s1.9.22,2.63.67,1.3,1.08,1.69,1.9.6,1.8.6,2.93v8.8h-3.83v-8.02c0-.98-.23-1.74-.69-2.29-.46-.55-1.13-.83-2-.83-.56,0-1.04.13-1.46.4-.41.27-.74.63-.97,1.1s-.35,1-.35,1.62v8.03h-3.82v-18.87Z" fill="#fff" stroke-width="0"/>
      <path d="M116.71,42.65c-1.03-.59-1.82-1.43-2.38-2.52-.56-1.09-.84-2.38-.84-3.87h0c0-1.5.28-2.8.84-3.89.56-1.09,1.34-1.94,2.35-2.54,1.01-.6,2.2-.9,3.56-.9s2.55.29,3.55.87,1.77,1.4,2.31,2.45c.54,1.06.82,2.29.82,3.7v1.19h-11.55v-2.42h9.74l-1.82,2.26v-1.48c0-.82-.12-1.51-.38-2.06-.25-.55-.6-.97-1.05-1.25s-.97-.42-1.56-.42-1.12.14-1.58.43c-.46.29-.81.71-1.07,1.26-.26.55-.38,1.23-.38,2.03v1.49c0,.77.13,1.43.38,1.97.26.55.63.97,1.11,1.26.48.29,1.05.44,1.71.44.52,0,.98-.08,1.36-.25.38-.17.7-.37.94-.63.24-.25.41-.51.5-.77l.03-.08h3.51l-.04.14c-.11.51-.31,1.03-.62,1.56s-.72,1-1.24,1.44c-.52.44-1.15.78-1.9,1.05-.74.26-1.62.39-2.62.39-1.43,0-2.66-.29-3.69-.88Z" fill="#fff" stroke-width="0"/>
      <path d="M136.32,42.65c-.86-.58-1.51-1.42-1.97-2.51-.46-1.09-.69-2.39-.69-3.91h0c0-1.54.23-2.84.69-3.93.46-1.08,1.12-1.92,1.97-2.5.85-.58,1.87-.87,3.03-.87.67,0,1.29.11,1.84.33s1.05.53,1.47.93c.42.41.76.89,1.01,1.46h.08v-7.28h3.82v18.87h-3.82v-2.39h-.08c-.25.56-.59,1.04-1.01,1.44-.42.4-.91.71-1.46.92-.56.21-1.17.32-1.84.32-1.18,0-2.19-.29-3.05-.88ZM142.28,39.86c.47-.34.83-.81,1.09-1.43.26-.62.38-1.35.38-2.2h0c0-.85-.13-1.58-.39-2.2-.26-.62-.62-1.1-1.09-1.43-.46-.33-1.01-.5-1.63-.5s-1.19.17-1.65.5c-.46.33-.82.8-1.07,1.42-.25.62-.38,1.35-.38,2.2h0c0,.86.12,1.59.37,2.21s.61,1.1,1.07,1.43,1.02.5,1.65.5,1.16-.17,1.63-.5Z" fill="#fff" stroke-width="0"/>
      <path d="M151.84,42.92c-.71-.36-1.27-.86-1.66-1.5s-.59-1.37-.59-2.19v-.03c0-.85.21-1.58.64-2.19.43-.61,1.05-1.08,1.86-1.43.81-.35,1.8-.56,2.96-.64l5.47-.34v2.38l-4.89.33c-.73.04-1.29.21-1.67.51-.38.3-.58.69-.58,1.19v.03c0,.51.2.92.59,1.21.39.29.92.44,1.58.44.57,0,1.07-.11,1.52-.33.45-.22.8-.53,1.06-.92.26-.39.38-.82.38-1.3v-4.26c0-.62-.2-1.11-.59-1.46s-.96-.54-1.71-.54-1.28.15-1.7.44c-.42.29-.68.67-.77,1.12l-.03.12h-3.5v-.16c.09-.86.38-1.63.88-2.3.5-.67,1.2-1.2,2.09-1.58.89-.38,1.96-.57,3.18-.57s2.26.19,3.15.58c.89.39,1.58.94,2.07,1.64s.74,1.53.74,2.47v9.61h-3.82v-2.08h-.08c-.27.47-.61.88-1.02,1.23s-.88.61-1.41.8c-.53.18-1.1.27-1.71.27-.93,0-1.76-.18-2.46-.54Z" fill="#fff" stroke-width="0"/>
      <path d="M166.91,42.55c-.75-.65-1.12-1.73-1.12-3.23v-7.22h-1.95v-2.88h1.95v-3.43h3.86v3.43h2.56v2.88h-2.56v6.8c0,.65.14,1.11.44,1.37.29.26.73.39,1.3.39.17,0,.33,0,.46-.02.13-.01.25-.03.37-.05v2.8c-.21.03-.47.07-.78.1-.31.03-.67.05-1.07.05-1.55,0-2.7-.33-3.45-.98Z" fill="#fff" stroke-width="0"/>
      <path d="M176.8,42.65c-1.03-.59-1.82-1.43-2.38-2.52-.56-1.09-.84-2.38-.84-3.87h0c0-1.5.28-2.8.84-3.89.56-1.09,1.34-1.94,2.35-2.54,1.01-.6,2.19-.9,3.56-.9s2.55.29,3.55.87,1.77,1.4,2.31,2.45c.54,1.06.82,2.29.82,3.7v1.19h-11.54v-2.42h9.74l-1.82,2.26v-1.48c0-.82-.13-1.51-.38-2.06-.25-.55-.6-.97-1.05-1.25s-.97-.42-1.56-.42-1.12.14-1.58.43c-.46.29-.82.71-1.07,1.26-.26.55-.39,1.23-.39,2.03v1.49c0,.77.13,1.43.39,1.97.26.55.62.97,1.11,1.26.48.29,1.05.44,1.71.44.52,0,.98-.08,1.36-.25.38-.17.7-.37.94-.63s.41-.51.5-.77l.03-.08h3.5l-.04.14c-.11.51-.31,1.03-.62,1.56-.3.52-.72,1-1.23,1.44-.52.44-1.15.78-1.9,1.05s-1.62.39-2.62.39c-1.43,0-2.66-.29-3.69-.88Z" fill="#fff" stroke-width="0"/>
    </g>
    <g>
      <path d="M23.47,76.9l5.21-5.43c.67-.7,1.18-1.27,1.53-1.73.35-.46.59-.86.73-1.23.13-.36.2-.75.2-1.16v-.02c0-.51-.12-.95-.35-1.34s-.56-.7-.97-.92c-.41-.22-.89-.33-1.43-.33-.62,0-1.17.13-1.65.38-.49.26-.87.6-1.15,1.03-.28.43-.42.91-.42,1.45v.05h-1.78v-.06c0-.85.22-1.62.67-2.29.44-.67,1.04-1.2,1.8-1.59.76-.39,1.59-.58,2.51-.58s1.69.18,2.39.54,1.25.85,1.65,1.48.6,1.32.6,2.09v.02c0,.54-.1,1.06-.3,1.57s-.55,1.08-1.05,1.71c-.5.63-1.2,1.41-2.11,2.34l-4.06,4.16.54-1.14v1.14l-.54-.51h7.77v1.64h-9.76v-1.27Z" fill="#fff" stroke-width="0"/>
      <path d="M39.13,65.33h-.04l-3.92,2.73v-1.86l3.94-2.83h1.8v14.8h-1.79v-12.84Z" fill="#fff" stroke-width="0"/>
      <path d="M48.93,67.5h1.79v1.52h.04c.29-.5.7-.91,1.25-1.24.55-.33,1.22-.49,2.03-.49,1.17,0,2.08.35,2.72,1.06.65.71.97,1.67.97,2.89v6.92h-1.79v-6.6c0-.87-.2-1.53-.61-1.99-.41-.46-1.02-.69-1.84-.69-.56,0-1.05.12-1.46.37-.42.25-.74.6-.97,1.05-.23.45-.34.98-.34,1.59v6.28h-1.79v-10.66Z" fill="#fff" stroke-width="0"/>
      <path d="M61.82,77.7c-.74-.45-1.32-1.09-1.73-1.92-.41-.83-.62-1.81-.62-2.94v-.02c0-1.13.21-2.11.62-2.94.41-.82.99-1.46,1.73-1.91.74-.45,1.6-.67,2.58-.67s1.85.22,2.59.67c.74.45,1.32,1.08,1.73,1.91.41.82.62,1.8.62,2.94v.02c0,1.13-.21,2.12-.62,2.94-.41.83-.99,1.47-1.73,1.92s-1.6.68-2.58.68-1.85-.23-2.59-.68ZM66.06,76.33c.46-.31.82-.76,1.08-1.35.26-.59.38-1.3.38-2.14v-.02c0-.83-.13-1.54-.38-2.13-.26-.59-.62-1.04-1.09-1.34s-1.02-.46-1.64-.46-1.16.16-1.63.47c-.47.31-.83.76-1.09,1.34-.26.58-.39,1.29-.39,2.13v.02c0,.83.13,1.55.39,2.14.26.59.62,1.04,1.09,1.35.47.31,1.02.47,1.65.47s1.17-.16,1.63-.47Z" fill="#fff" stroke-width="0"/>
      <path d="M69.81,67.5h1.88l2.94,8.77h.04l2.95-8.77h1.86l-3.92,10.66h-1.83l-3.93-10.66Z" fill="#fff" stroke-width="0"/>
      <path d="M82.22,77.7c-.73-.45-1.3-1.09-1.69-1.91-.39-.82-.59-1.79-.59-2.91h0c0-1.11.2-2.08.6-2.92.4-.84.95-1.49,1.67-1.96.72-.47,1.56-.7,2.53-.7s1.81.22,2.51.67c.7.45,1.24,1.07,1.62,1.88.38.81.56,1.74.56,2.81v.66h-8.59v-1.39h7.71l-.9,1.29v-.69c0-.83-.12-1.51-.38-2.05-.25-.54-.59-.94-1.03-1.21-.44-.26-.94-.39-1.51-.39s-1.08.14-1.53.42c-.45.28-.81.69-1.07,1.23-.26.54-.39,1.21-.39,2v.69c0,.75.13,1.39.38,1.93s.62.94,1.09,1.23c.47.28,1.03.43,1.67.43.45,0,.85-.07,1.21-.21.35-.14.65-.33.89-.56.24-.24.41-.51.51-.82l.03-.09h1.75l-.02.1c-.09.44-.26.85-.51,1.23s-.57.72-.96,1.01c-.39.29-.83.52-1.33.68-.5.16-1.04.24-1.62.24-1.02,0-1.89-.23-2.63-.68Z" fill="#fff" stroke-width="0"/>
      <path d="M91.22,67.5h1.79v1.56h.04c.24-.53.62-.95,1.13-1.28.51-.33,1.11-.49,1.79-.49.48,0,.92.08,1.32.24.39.16.73.39,1.02.7.29.3.51.67.66,1.11h.04c.2-.43.46-.8.79-1.1.33-.3.71-.54,1.15-.7.43-.16.9-.25,1.4-.25.71,0,1.32.15,1.84.44.52.29.92.7,1.21,1.22.29.52.43,1.14.43,1.85v7.36h-1.78v-6.95c0-.49-.09-.91-.26-1.26-.18-.35-.43-.62-.75-.8s-.73-.28-1.2-.28-.89.11-1.25.32c-.36.21-.65.51-.85.89-.21.38-.31.81-.31,1.3v6.78h-1.79v-7.15c0-.43-.09-.81-.27-1.13s-.43-.57-.76-.75c-.33-.18-.71-.27-1.15-.27-.47,0-.89.11-1.26.34-.37.23-.65.54-.87.93-.21.39-.32.83-.32,1.33v6.69h-1.79v-10.66Z" fill="#fff" stroke-width="0"/>
      <path d="M111.98,78.13c-.43-.16-.81-.39-1.14-.69-.33-.3-.61-.65-.84-1.07h-.04v1.8h-1.79v-14.8h1.79v5.92h.04c.22-.41.51-.76.85-1.06.34-.3.73-.53,1.16-.69.44-.16.9-.24,1.4-.24.89,0,1.68.23,2.35.68.67.46,1.2,1.1,1.58,1.92.38.83.57,1.8.57,2.92h0c0,1.13-.19,2.11-.56,2.94-.38.83-.9,1.47-1.58,1.93-.68.45-1.47.68-2.38.68-.51,0-.97-.08-1.4-.25ZM114.67,76.32c.46-.32.81-.77,1.05-1.37s.37-1.3.37-2.11h0c0-.82-.12-1.52-.37-2.11s-.6-1.04-1.05-1.36c-.46-.32-1-.48-1.63-.48s-1.13.16-1.6.49c-.46.33-.82.79-1.09,1.38-.27.59-.4,1.28-.4,2.08h0c0,.8.13,1.5.39,2.09.26.59.63,1.06,1.09,1.38s1,.49,1.6.49,1.17-.16,1.63-.48Z" fill="#fff" stroke-width="0"/>
      <path d="M121.47,77.7c-.73-.45-1.3-1.09-1.69-1.91-.39-.82-.59-1.79-.59-2.91h0c0-1.11.2-2.08.59-2.92.4-.84.95-1.49,1.67-1.96.72-.47,1.56-.7,2.53-.7s1.81.22,2.51.67c.7.45,1.24,1.07,1.62,1.88.38.81.56,1.74.56,2.81v.66h-8.59v-1.39h7.71l-.9,1.29v-.69c0-.83-.12-1.51-.37-2.05s-.59-.94-1.03-1.21c-.44-.26-.94-.39-1.51-.39s-1.08.14-1.53.42c-.45.28-.81.69-1.07,1.23-.26.54-.39,1.21-.39,2v.69c0,.75.13,1.39.38,1.93.26.53.62.94,1.09,1.23.47.28,1.03.43,1.67.43.45,0,.86-.07,1.21-.21s.65-.33.89-.56c.24-.24.41-.51.51-.82l.03-.09h1.75l-.02.1c-.09.44-.26.85-.51,1.23-.25.38-.57.72-.96,1.01-.39.29-.83.52-1.33.68-.5.16-1.04.24-1.62.24-1.02,0-1.89-.23-2.63-.68Z" fill="#fff" stroke-width="0"/>
      <path d="M130.47,67.5h1.79v1.8h.04c.18-.62.48-1.1.92-1.47s.96-.54,1.56-.54c.16,0,.3,0,.43.03.13.02.22.03.29.05v1.73c-.07-.03-.19-.05-.37-.07s-.37-.03-.59-.03c-.46,0-.86.1-1.21.31-.34.21-.61.5-.8.89-.19.39-.28.85-.28,1.39v6.58h-1.79v-10.66Z" fill="#fff" stroke-width="0"/>
      <path d="M136.1,76.06h1.87l-1.5,5.01h-1.27l.9-5.01Z" fill="#fff" stroke-width="0"/>
      <path d="M147.52,65.33h-.04l-3.92,2.73v-1.86l3.94-2.83h1.8v14.8h-1.79v-12.84Z" fill="#fff" stroke-width="0"/>
      <path d="M155.63,77.87c-.73-.36-1.32-.86-1.77-1.49-.45-.63-.71-1.34-.78-2.14v-.11s1.8,0,1.8,0v.08c.07.49.25.92.54,1.32.29.39.68.7,1.15.93.47.23,1,.34,1.59.34.67,0,1.26-.14,1.77-.43.51-.29.91-.69,1.2-1.19.29-.51.43-1.1.43-1.76v-.02c0-.65-.15-1.23-.44-1.73-.29-.5-.69-.9-1.19-1.18s-1.09-.43-1.74-.43c-.5,0-.96.07-1.39.22-.43.15-.8.37-1.13.67-.13.12-.26.26-.38.4s-.23.3-.32.47h-1.63l.76-8.44h8.47v1.64h-6.95l-.5,4.97h.04c.23-.33.52-.62.86-.84s.72-.4,1.15-.51.88-.17,1.35-.17c.95,0,1.79.21,2.53.64.74.42,1.31,1,1.73,1.74.42.74.63,1.58.63,2.53v.02c0,.98-.23,1.86-.68,2.62s-1.07,1.35-1.87,1.78c-.79.43-1.7.64-2.73.64-.94,0-1.78-.18-2.52-.54Z" fill="#fff" stroke-width="0"/>
      <path d="M165.57,77.97c-.23-.23-.34-.5-.34-.83s.11-.61.34-.83c.22-.23.5-.34.83-.34s.61.11.83.34c.23.23.34.5.34.83s-.11.6-.34.83c-.22.23-.5.34-.83.34s-.61-.11-.83-.34Z" fill="#fff" stroke-width="0"/>
      <path d="M172.1,77.48c-.81-.62-1.43-1.5-1.86-2.65-.43-1.14-.65-2.5-.65-4.06v-.02c0-1.57.21-2.92.65-4.06.43-1.14,1.05-2.02,1.86-2.64.81-.62,1.78-.93,2.92-.93s2.11.31,2.92.93c.81.62,1.44,1.5,1.87,2.64.43,1.14.65,2.5.65,4.06v.02c0,1.57-.22,2.92-.65,4.06-.44,1.14-1.06,2.02-1.87,2.65-.81.62-1.79.93-2.92.93s-2.11-.31-2.92-.93ZM176.95,76.07c.54-.49.95-1.18,1.23-2.09s.43-1.97.43-3.21v-.02c0-1.24-.14-2.3-.43-3.2-.28-.9-.69-1.59-1.23-2.08s-1.18-.73-1.93-.73-1.39.24-1.93.73-.94,1.18-1.22,2.08c-.28.9-.42,1.97-.42,3.2v.02c0,1.24.14,2.31.42,3.21.28.9.69,1.6,1.22,2.09.53.49,1.18.73,1.93.73s1.4-.24,1.93-.73Z" fill="#fff" stroke-width="0"/>
      <path d="M184.83,77.48c-.81-.62-1.43-1.5-1.86-2.65-.43-1.14-.64-2.5-.64-4.06v-.02c0-1.57.21-2.92.64-4.06.43-1.14,1.05-2.02,1.86-2.64.81-.62,1.78-.93,2.92-.93s2.11.31,2.92.93c.81.62,1.44,1.5,1.87,2.64s.65,2.5.65,4.06v.02c0,1.57-.22,2.92-.65,4.06s-1.06,2.02-1.87,2.65c-.81.62-1.79.93-2.92.93s-2.11-.31-2.92-.93ZM189.68,76.07c.54-.49.95-1.18,1.23-2.09.29-.9.43-1.97.43-3.21v-.02c0-1.24-.14-2.3-.43-3.2-.28-.9-.69-1.59-1.23-2.08-.54-.49-1.18-.73-1.93-.73s-1.39.24-1.93.73-.94,1.18-1.22,2.08c-.28.9-.42,1.97-.42,3.2v.02c0,1.24.14,2.31.42,3.21.28.9.69,1.6,1.22,2.09.53.49,1.18.73,1.93.73s1.4-.24,1.93-.73Z" fill="#fff" stroke-width="0"/>
      <path d="M201.24,77.89c-.55-.32-.97-.78-1.26-1.37-.29-.59-.44-1.29-.44-2.1v-6.92h1.79v6.6c0,.87.2,1.53.61,1.99.41.46,1.02.69,1.84.69.42,0,.81-.07,1.14-.22s.63-.35.88-.61c.25-.26.43-.58.56-.95.13-.37.2-.78.2-1.24v-6.28h1.79v10.66h-1.79v-1.52h-.04c-.19.33-.44.62-.74.88-.3.26-.67.46-1.09.62s-.9.23-1.45.23c-.78,0-1.44-.16-1.99-.48Z" fill="#fff" stroke-width="0"/>
      <path d="M212.3,77.89c-.55-.32-.97-.78-1.26-1.37-.29-.59-.44-1.29-.44-2.1v-6.92h1.78v6.6c0,.87.2,1.53.61,1.99.41.46,1.02.69,1.84.69.42,0,.8-.07,1.14-.22.34-.14.63-.35.88-.61.25-.26.43-.58.56-.95.13-.37.2-.78.2-1.24v-6.28h1.78v10.66h-1.78v-1.52h-.04c-.19.33-.44.62-.74.88s-.67.46-1.09.62-.91.23-1.45.23c-.78,0-1.45-.16-1.99-.48Z" fill="#fff" stroke-width="0"/>
      <path d="M221.72,67.5h1.79v1.8h.04c.18-.62.48-1.1.92-1.47s.96-.54,1.56-.54c.16,0,.3,0,.43.03.13.02.22.03.29.05v1.73c-.07-.03-.19-.05-.37-.07s-.37-.03-.59-.03c-.46,0-.86.1-1.21.31-.34.21-.61.5-.8.89-.19.39-.28.85-.28,1.39v6.58h-1.79v-10.66Z" fill="#fff" stroke-width="0"/>
      <path d="M232.56,71.34h6.56v1.66h-6.56v-1.66Z" fill="#fff" stroke-width="0"/>
      <path d="M249.62,65.33h-.04l-3.92,2.73v-1.86l3.94-2.83h1.8v14.8h-1.79v-12.84Z" fill="#fff" stroke-width="0"/>
      <path d="M257.47,77.87c-.81-.36-1.44-.86-1.9-1.5-.46-.64-.69-1.37-.69-2.2v-.02c0-.61.13-1.17.4-1.69.27-.52.64-.96,1.12-1.33.48-.37,1.03-.62,1.66-.76v-.04c-.81-.25-1.45-.67-1.93-1.25s-.72-1.26-.72-2.04v-.02c0-.75.21-1.41.62-1.99.42-.58.99-1.05,1.72-1.38.73-.34,1.56-.51,2.49-.51s1.77.17,2.5.51c.73.34,1.3.8,1.72,1.38.42.58.63,1.25.63,1.99v.02c0,.78-.24,1.46-.71,2.04s-1.12,1-1.93,1.25v.04c.64.14,1.19.4,1.67.76.48.37.85.81,1.11,1.33.27.52.4,1.08.4,1.69v.02c0,.83-.23,1.56-.69,2.2-.46.64-1.09,1.14-1.9,1.5s-1.74.54-2.78.54-1.97-.18-2.78-.54ZM262.06,76.45c.52-.24.94-.56,1.24-.97.3-.41.45-.89.45-1.42v-.02c0-.54-.15-1.02-.45-1.44-.3-.42-.71-.75-1.24-.98-.53-.24-1.13-.36-1.81-.36s-1.29.12-1.82.36c-.53.24-.94.57-1.23.98s-.45.9-.45,1.44v.02c0,.53.15,1.01.45,1.42.3.41.71.74,1.24.97.53.24,1.13.35,1.8.35s1.29-.12,1.81-.35ZM261.82,69.32c.45-.21.8-.5,1.06-.87.25-.37.38-.79.38-1.27v-.02c0-.48-.13-.9-.38-1.27-.25-.37-.61-.66-1.06-.87-.45-.21-.97-.31-1.57-.31s-1.12.1-1.57.31c-.45.21-.8.5-1.05.87-.25.37-.38.79-.38,1.27v.02c0,.48.13.9.38,1.27.25.37.6.66,1.05.87.45.21.97.31,1.57.31s1.12-.1,1.57-.31Z" fill="#fff" stroke-width="0"/>
      <path d="M267.67,77.97c-.23-.23-.34-.5-.34-.83s.11-.61.34-.83c.22-.23.5-.34.83-.34s.61.11.83.34c.23.23.34.5.34.83s-.11.6-.34.83c-.22.23-.5.34-.83.34s-.61-.11-.83-.34Z" fill="#fff" stroke-width="0"/>
      <path d="M274.19,77.48c-.81-.62-1.43-1.5-1.86-2.65-.43-1.14-.64-2.5-.64-4.06v-.02c0-1.57.21-2.92.64-4.06.43-1.14,1.05-2.02,1.86-2.64.81-.62,1.78-.93,2.92-.93s2.11.31,2.92.93c.81.62,1.44,1.5,1.87,2.64s.65,2.5.65,4.06v.02c0,1.57-.22,2.92-.65,4.06s-1.06,2.02-1.87,2.65c-.81.62-1.79.93-2.92.93s-2.11-.31-2.92-.93ZM279.04,76.07c.54-.49.95-1.18,1.23-2.09.29-.9.43-1.97.43-3.21v-.02c0-1.24-.14-2.3-.43-3.2-.28-.9-.69-1.59-1.23-2.08-.54-.49-1.18-.73-1.93-.73s-1.39.24-1.93.73-.94,1.18-1.22,2.08c-.28.9-.42,1.97-.42,3.2v.02c0,1.24.14,2.31.42,3.21.28.9.69,1.6,1.22,2.09.53.49,1.18.73,1.93.73s1.4-.24,1.93-.73Z" fill="#fff" stroke-width="0"/>
      <path d="M286.93,77.48c-.81-.62-1.43-1.5-1.86-2.65-.43-1.14-.65-2.5-.65-4.06v-.02c0-1.57.21-2.92.65-4.06.43-1.14,1.05-2.02,1.86-2.64.81-.62,1.78-.93,2.92-.93s2.11.31,2.92.93c.81.62,1.44,1.5,1.87,2.64.43,1.14.65,2.5.65,4.06v.02c0,1.57-.22,2.92-.65,4.06-.44,1.14-1.06,2.02-1.87,2.65-.81.62-1.79.93-2.92.93s-2.11-.31-2.92-.93ZM291.78,76.07c.54-.49.95-1.18,1.23-2.09s.43-1.97.43-3.21v-.02c0-1.24-.14-2.3-.43-3.2-.28-.9-.69-1.59-1.23-2.08s-1.18-.73-1.93-.73-1.39.24-1.93.73-.94,1.18-1.22,2.08c-.28.9-.42,1.97-.42,3.2v.02c0,1.24.14,2.31.42,3.21.28.9.69,1.6,1.22,2.09.53.49,1.18.73,1.93.73s1.4-.24,1.93-.73Z" fill="#fff" stroke-width="0"/>
      <path d="M303.34,77.89c-.55-.32-.97-.78-1.26-1.37-.29-.59-.44-1.29-.44-2.1v-6.92h1.78v6.6c0,.87.2,1.53.61,1.99.41.46,1.02.69,1.84.69.42,0,.8-.07,1.14-.22.34-.14.63-.35.88-.61.25-.26.43-.58.56-.95.13-.37.2-.78.2-1.24v-6.28h1.78v10.66h-1.78v-1.52h-.04c-.19.33-.44.62-.74.88s-.67.46-1.09.62-.91.23-1.45.23c-.78,0-1.45-.16-1.99-.48Z" fill="#fff" stroke-width="0"/>
      <path d="M314.4,77.89c-.55-.32-.97-.78-1.26-1.37-.29-.59-.44-1.29-.44-2.1v-6.92h1.79v6.6c0,.87.2,1.53.61,1.99.41.46,1.02.69,1.84.69.42,0,.81-.07,1.14-.22s.63-.35.88-.61c.25-.26.43-.58.56-.95.13-.37.2-.78.2-1.24v-6.28h1.79v10.66h-1.79v-1.52h-.04c-.19.33-.44.62-.74.88-.3.26-.67.46-1.09.62s-.9.23-1.45.23c-.78,0-1.44-.16-1.99-.48Z" fill="#fff" stroke-width="0"/>
      <path d="M323.82,67.5h1.79v1.8h.04c.18-.62.48-1.1.92-1.47s.96-.54,1.56-.54c.16,0,.3,0,.43.03.13.02.22.03.29.05v1.73c-.07-.03-.19-.05-.36-.07-.18-.02-.37-.03-.59-.03-.46,0-.86.1-1.21.31s-.61.5-.8.89c-.19.39-.28.85-.28,1.39v6.58h-1.79v-10.66Z" fill="#fff" stroke-width="0"/>
    </g>
  </g>
  <g id="Layer_2-2" data-name="Layer 2">
    <g>
      <path d="M268.75,139.81h-102.69c-14.45,0-26.16,11.71-26.16,26.16v102.69c0,14.45,11.71,26.16,26.16,26.16h102.69c14.45,0,26.16-11.71,26.16-26.16v-102.69c0-14.45-11.71-26.16-26.16-26.16ZM166.07,153.81h102.69c6.7,0,12.16,5.45,12.16,12.16v11.2h-127v-11.2c0-6.7,5.45-12.16,12.16-12.16ZM268.75,280.81h-102.69c-6.7,0-12.16-5.45-12.16-12.16v-77.48h127v77.48c0,6.7-5.45,12.16-12.16,12.16Z" fill="#fff" stroke-width="0"/>
      <rect x="173.25" y="209.81" width="11.11" height="11.11" fill="#fff" stroke-width="0"/>
      <rect x="173.25" y="227.75" width="11.11" height="11.11" fill="#fff" stroke-width="0"/>
      <rect x="173.25" y="245.7" width="11.11" height="11.11" fill="#fff" stroke-width="0"/>
      <rect x="192.05" y="209.81" width="11.11" height="11.11" fill="#fff" stroke-width="0"/>
      <rect x="192.05" y="227.75" width="11.11" height="11.11" fill="#fff" stroke-width="0"/>
      <rect x="192.05" y="245.7" width="11.11" height="11.11" fill="#fff" stroke-width="0"/>
      <rect x="210.85" y="209.81" width="11.11" height="11.11" fill="#fff" stroke-width="0"/>
      <rect x="210.85" y="227.75" width="11.11" height="11.11" fill="#fff" stroke-width="0"/>
      <rect x="210.85" y="245.7" width="11.11" height="11.11" fill="#fff" stroke-width="0"/>
      <rect x="229.65" y="209.81" width="11.11" height="11.11" fill="#fff" stroke-width="0"/>
      <rect x="229.65" y="227.75" width="11.11" height="11.11" fill="#fff" stroke-width="0"/>
      <rect x="229.65" y="245.7" width="11.11" height="11.11" fill="#fff" stroke-width="0"/>
      <rect x="248.45" y="209.81" width="11.11" height="11.11" fill="#fff" stroke-width="0"/>
      <rect x="248.45" y="227.75" width="11.11" height="11.11" fill="#fff" stroke-width="0"/>
      <polygon points="258.35 244.49 254.01 248.83 249.66 244.49 247.24 246.91 251.59 251.25 247.24 255.6 249.66 258.02 254.01 253.67 258.35 258.02 260.77 255.6 256.43 251.25 260.77 246.91 258.35 244.49" fill="#fff" stroke-width="0"/>
    </g>
  </g>
</svg>