<?xml version="1.0" encoding="UTF-8"?>
<svg id="Layer_2" data-name="Layer 2" xmlns="http://www.w3.org/2000/svg" viewBox="0 0 814.42 267.14">
  <g id="Layer_2-2" data-name="Layer 2">
    <g>
      <g>
        <path d="M240.38,256.14h-3.23v-38.8h3.23v15.36c1.04-1.72,2.47-3.03,4.28-3.91,1.81-.88,3.71-1.32,5.69-1.32,2.12,0,3.96.4,5.52,1.21,1.56.81,2.86,1.89,3.88,3.23,1.02,1.35,1.79,2.92,2.29,4.71.5,1.8.75,3.67.75,5.6,0,2.05-.23,3.97-.7,5.77-.47,1.8-1.21,3.35-2.24,4.66-1.02,1.31-2.33,2.34-3.91,3.1-1.58.75-3.5,1.13-5.77,1.13-.9,0-1.81-.13-2.75-.38-.93-.25-1.84-.61-2.72-1.08-.88-.47-1.69-1.05-2.42-1.75-.74-.7-1.34-1.52-1.81-2.45h-.11v4.9ZM240.38,242.08c0,1.69.21,3.26.62,4.72s1.01,2.71,1.81,3.77c.79,1.06,1.78,1.9,2.96,2.51,1.19.61,2.53.92,4.04.92,1.37,0,2.62-.24,3.77-.73,1.15-.49,2.16-1.19,3.02-2.13.86-.93,1.54-2.08,2.02-3.42.49-1.35.73-2.9.73-4.66.07-1.76-.07-3.4-.43-4.93-.36-1.53-.93-2.87-1.72-4.01-.79-1.15-1.81-2.06-3.04-2.72-1.24-.66-2.69-1-4.34-1-1.47,0-2.79.31-3.96.94-1.17.63-2.16,1.47-2.96,2.53-.81,1.06-1.43,2.3-1.86,3.72-.43,1.42-.65,2.92-.65,4.5Z" fill="#fff" stroke-width="0"/>
        <path d="M269.48,263.69c.43.07.87.14,1.32.22.45.07.91.11,1.37.11.9,0,1.63-.29,2.21-.86.57-.58,1.05-1.27,1.43-2.07.38-.81.69-1.65.94-2.53.25-.88.54-1.62.86-2.23l-10.83-28.09h3.61l8.95,23.98,8.95-23.98h3.5l-10.4,27.54c-.65,1.76-1.27,3.34-1.86,4.74s-1.22,2.59-1.89,3.58c-.67.99-1.4,1.74-2.21,2.26-.81.52-1.77.78-2.88.78-.58,0-1.12-.04-1.64-.11-.52-.07-1-.16-1.43-.27v-3.07Z" fill="#fff" stroke-width="0"/>
        <path d="M312.59,243.85c0,1.22.04,2.42.13,3.61.09,1.19.36,2.25.81,3.21s1.15,1.72,2.1,2.29c.95.58,2.27.86,3.96.86,2.51,0,4.28-.72,5.31-2.16,1.02-1.44,1.54-3.52,1.54-6.25v-28.08h3.66v28.19c0,3.77-.88,6.66-2.64,8.65s-4.53,2.99-8.3,2.99c-2.19,0-3.95-.37-5.28-1.11-1.33-.74-2.36-1.72-3.1-2.96-.74-1.24-1.23-2.66-1.48-4.26s-.38-3.26-.38-4.99h3.67Z" fill="#fff" stroke-width="0"/>
        <path d="M366.59,228.6c-.75-3.3-2.16-5.66-4.2-7.06s-4.72-2.1-8.03-2.1c-2.34,0-4.35.47-6.04,1.4-1.69.93-3.08,2.19-4.18,3.77-1.1,1.58-1.91,3.4-2.42,5.47-.52,2.07-.78,4.25-.78,6.55,0,2.16.22,4.28.67,6.36.45,2.08,1.19,3.94,2.24,5.58s2.44,2.96,4.2,3.96c1.76,1.01,3.97,1.51,6.63,1.51,1.65,0,3.16-.27,4.53-.81,1.37-.54,2.56-1.28,3.58-2.24,1.02-.95,1.89-2.08,2.59-3.37.7-1.29,1.23-2.71,1.59-4.26h3.83c-.43,1.87-1.06,3.64-1.89,5.31-.83,1.67-1.91,3.13-3.26,4.39-1.35,1.26-2.98,2.26-4.9,2.99-1.92.74-4.18,1.11-6.76,1.11-2.98,0-5.53-.55-7.65-1.64-2.12-1.09-3.85-2.58-5.2-4.45-1.35-1.87-2.33-4.03-2.94-6.49-.61-2.46-.92-5.07-.92-7.84,0-3.7.46-6.84,1.37-9.43.92-2.59,2.18-4.7,3.8-6.33,1.62-1.63,3.52-2.82,5.71-3.56,2.19-.74,4.58-1.1,7.17-1.1,1.97,0,3.82.26,5.52.78,1.71.52,3.21,1.3,4.53,2.34s2.39,2.33,3.23,3.85c.84,1.53,1.43,3.3,1.75,5.31h-3.77Z" fill="#fff" stroke-width="0"/>
        <path d="M377.96,256.14v-38.8h13.26c1.08,0,2.14.03,3.18.08s2.07.18,3.07.38c1,.2,1.98.5,2.94.89.95.4,1.88.92,2.78,1.56,1.29.93,2.35,2.08,3.18,3.42.83,1.35,1.48,2.77,1.97,4.26.49,1.49.83,3,1.02,4.53.2,1.53.3,2.94.3,4.23s-.08,2.61-.24,3.93c-.16,1.33-.42,2.63-.78,3.91-.36,1.28-.84,2.5-1.43,3.66-.59,1.17-1.34,2.24-2.24,3.21-.9,1.01-1.88,1.81-2.94,2.42-1.06.61-2.17,1.09-3.34,1.43-1.17.34-2.38.58-3.64.7s-2.53.19-3.83.19h-13.26ZM381.63,253.02h8.78c1.65,0,3.21-.1,4.66-.3s2.94-.69,4.45-1.48c1.29-.65,2.35-1.53,3.18-2.64.83-1.11,1.48-2.33,1.97-3.64.48-1.31.83-2.68,1.02-4.12.2-1.44.3-2.82.3-4.15,0-1.4-.09-2.83-.27-4.28-.18-1.46-.52-2.84-1.02-4.15-.5-1.31-1.19-2.51-2.05-3.61s-1.98-2-3.34-2.72c-1.15-.61-2.52-1.01-4.1-1.19-1.58-.18-3.18-.27-4.8-.27h-8.78v32.55Z" fill="#fff" stroke-width="0"/>
        <path d="M418.38,242.94c0,1.51.2,2.94.59,4.28s.98,2.52,1.75,3.5c.77.99,1.75,1.78,2.94,2.37s2.55.89,4.1.89c2.12,0,3.93-.56,5.44-1.67,1.51-1.11,2.51-2.69,3.02-4.74h3.61c-.4,1.33-.92,2.56-1.56,3.69s-1.46,2.12-2.42,2.96c-.97.84-2.12,1.5-3.45,1.97-1.33.47-2.88.7-4.63.7-2.23,0-4.15-.38-5.77-1.13-1.62-.75-2.95-1.79-3.99-3.1-1.04-1.31-1.81-2.86-2.32-4.63-.5-1.78-.75-3.69-.75-5.74s.3-3.97.89-5.77c.59-1.8,1.44-3.37,2.53-4.72,1.1-1.35,2.43-2.41,4.02-3.18,1.58-.77,3.38-1.16,5.39-1.16,3.84,0,6.86,1.32,9.05,3.96s3.27,6.48,3.23,11.51h-21.66ZM436.6,240.24c0-1.37-.19-2.65-.57-3.85-.38-1.2-.93-2.25-1.67-3.13-.74-.88-1.66-1.58-2.78-2.1-1.11-.52-2.39-.78-3.83-.78s-2.7.27-3.8.81c-1.1.54-2.03,1.26-2.8,2.16-.77.9-1.39,1.94-1.86,3.13s-.77,2.44-.92,3.77h18.21Z" fill="#fff" stroke-width="0"/>
        <path d="M466.13,237.01c-.58-2.08-1.56-3.71-2.96-4.88-1.4-1.17-3.18-1.75-5.33-1.75-1.65,0-3.07.34-4.26,1.02-1.19.68-2.16,1.59-2.91,2.72s-1.31,2.41-1.67,3.83c-.36,1.42-.54,2.85-.54,4.28s.17,2.91.51,4.31c.34,1.4.89,2.66,1.64,3.77.75,1.11,1.72,2,2.91,2.67s2.62,1,4.31,1c2.41,0,4.34-.67,5.79-1.99s2.38-3.16,2.78-5.5h3.45c-.29,1.54-.75,2.96-1.38,4.23-.63,1.28-1.44,2.37-2.42,3.29s-2.17,1.63-3.53,2.13c-1.37.5-2.93.75-4.69.75-2.23,0-4.15-.38-5.77-1.13-1.62-.75-2.95-1.79-3.99-3.1s-1.81-2.87-2.32-4.66c-.5-1.8-.75-3.72-.75-5.77,0-1.94.28-3.8.83-5.58.56-1.78,1.37-3.35,2.45-4.72,1.08-1.36,2.42-2.45,4.01-3.26,1.6-.81,3.44-1.21,5.52-1.21,3.23,0,5.85.77,7.84,2.32,1.99,1.54,3.24,3.95,3.75,7.22h-3.29Z" fill="#fff" stroke-width="0"/>
        <path d="M489.14,239.87c.61-.07,1.34-.18,2.18-.32.84-.14,1.54-.34,2.08-.59.54-.25.87-.67,1-1.27.12-.59.19-1.14.19-1.64,0-1.65-.53-3.01-1.59-4.07-1.06-1.06-2.85-1.59-5.36-1.59-1.11,0-2.14.1-3.07.3-.93.2-1.75.54-2.45,1.02-.7.49-1.28,1.13-1.72,1.94-.45.81-.75,1.82-.89,3.04h-3.29c.11-1.65.49-3.06,1.13-4.23.65-1.17,1.48-2.12,2.51-2.86,1.02-.74,2.21-1.28,3.56-1.62,1.35-.34,2.78-.51,4.28-.51,1.4,0,2.72.15,3.96.46,1.24.31,2.32.79,3.23,1.46.92.67,1.63,1.55,2.16,2.67.52,1.11.78,2.48.78,4.1v15.2c0,1.26.22,2.06.67,2.4.45.34,1.36.26,2.72-.24v2.53c-.25.07-.62.18-1.1.32-.49.14-.96.21-1.43.21-.5,0-.99-.05-1.46-.16-.54-.07-.97-.24-1.29-.51s-.58-.59-.78-.97c-.2-.38-.33-.79-.4-1.24-.07-.45-.11-.92-.11-1.43-1.37,1.51-2.93,2.66-4.69,3.45-1.76.79-3.67,1.19-5.71,1.19-1.22,0-2.4-.16-3.53-.49s-2.13-.83-2.99-1.51-1.54-1.52-2.05-2.51c-.5-.99-.75-2.16-.75-3.53,0-4.74,3.25-7.54,9.75-8.41l4.47-.59ZM494.58,241.48c-1.37.58-2.75.95-4.15,1.13-1.4.18-2.8.32-4.2.43-2.48.18-4.41.74-5.79,1.67-1.38.93-2.08,2.35-2.08,4.26,0,.86.17,1.61.51,2.24.34.63.79,1.15,1.35,1.56.56.41,1.2.72,1.94.92.74.2,1.48.3,2.24.3,1.29,0,2.55-.16,3.77-.49,1.22-.32,2.31-.82,3.26-1.48.95-.66,1.72-1.51,2.29-2.53.57-1.02.86-2.24.86-3.64v-4.37Z" fill="#fff" stroke-width="0"/>
        <path d="M525.19,228.23h3.23v27.92h-3.23v-3.88c-.43.5-.92,1.02-1.46,1.56s-1.16,1.03-1.86,1.48-1.52.83-2.45,1.13c-.93.3-2.01.46-3.23.46-1.87,0-3.43-.26-4.69-.78-1.26-.52-2.27-1.25-3.04-2.18-.77-.93-1.33-2.02-1.67-3.26-.34-1.24-.51-2.6-.51-4.07v-18.38h3.23v18.32c0,2.41.56,4.25,1.67,5.52,1.11,1.28,2.95,1.91,5.5,1.91,1.33,0,2.52-.26,3.58-.78,1.06-.52,1.95-1.25,2.67-2.18.72-.93,1.28-2.05,1.67-3.34.39-1.29.59-2.71.59-4.26v-15.2Z" fill="#fff" stroke-width="0"/>
        <path d="M545.94,244.07l-8.68,12.07h-3.93l10.72-14.44-9.86-13.47h3.99l7.71,11.1,7.92-11.1h4.1l-10.08,13.47,10.46,14.44h-3.88l-8.46-12.07Z" fill="#fff" stroke-width="0"/>
        <path d="M590.67,239l-11.26,17.14h-4.15l13.37-19.94-12.83-18.86h4.26l10.62,16.33,10.67-16.33h4.26l-12.72,18.86,13.31,19.94h-4.2l-11.32-17.14Z" fill="#fff" stroke-width="0"/>
        <path d="M654.1,228.6c-.75-3.3-2.16-5.66-4.2-7.06s-4.72-2.1-8.03-2.1c-2.34,0-4.35.47-6.04,1.4-1.69.93-3.08,2.19-4.18,3.77-1.1,1.58-1.91,3.4-2.42,5.47-.52,2.07-.78,4.25-.78,6.55,0,2.16.22,4.28.67,6.36.45,2.08,1.19,3.94,2.24,5.58s2.44,2.96,4.2,3.96c1.76,1.01,3.97,1.51,6.63,1.51,1.65,0,3.16-.27,4.53-.81,1.37-.54,2.56-1.28,3.58-2.24,1.02-.95,1.89-2.08,2.59-3.37.7-1.29,1.23-2.71,1.59-4.26h3.83c-.43,1.87-1.06,3.64-1.89,5.31-.83,1.67-1.91,3.13-3.26,4.39-1.35,1.26-2.98,2.26-4.9,2.99-1.92.74-4.18,1.11-6.76,1.11-2.98,0-5.53-.55-7.65-1.64-2.12-1.09-3.85-2.58-5.2-4.45-1.35-1.87-2.33-4.03-2.94-6.49-.61-2.46-.92-5.07-.92-7.84,0-3.7.46-6.84,1.37-9.43.92-2.59,2.18-4.7,3.8-6.33,1.62-1.63,3.52-2.82,5.71-3.56,2.19-.74,4.58-1.1,7.17-1.1,1.97,0,3.82.26,5.52.78,1.71.52,3.21,1.3,4.53,2.34s2.39,2.33,3.23,3.85c.84,1.53,1.43,3.3,1.75,5.31h-3.77Z" fill="#fff" stroke-width="0"/>
        <path d="M668.38,256.14h-3.23v-27.92h3.23v5.23h.11c.9-2.23,2.06-3.78,3.48-4.66,1.42-.88,3.29-1.32,5.63-1.32v3.5c-1.83-.04-3.34.25-4.53.86-1.19.61-2.13,1.44-2.83,2.48-.7,1.04-1.19,2.27-1.46,3.69s-.4,2.9-.4,4.45v13.69Z" fill="#fff" stroke-width="0"/>
        <path d="M695.75,239.87c.61-.07,1.34-.18,2.18-.32.84-.14,1.54-.34,2.08-.59.54-.25.87-.67,1-1.27.12-.59.19-1.14.19-1.64,0-1.65-.53-3.01-1.59-4.07-1.06-1.06-2.85-1.59-5.36-1.59-1.11,0-2.14.1-3.07.3-.93.2-1.75.54-2.45,1.02-.7.49-1.28,1.13-1.72,1.94-.45.81-.75,1.82-.89,3.04h-3.29c.11-1.65.49-3.06,1.13-4.23.65-1.17,1.48-2.12,2.51-2.86,1.02-.74,2.21-1.28,3.56-1.62,1.35-.34,2.78-.51,4.28-.51,1.4,0,2.72.15,3.96.46,1.24.31,2.32.79,3.23,1.46.92.67,1.63,1.55,2.16,2.67.52,1.11.78,2.48.78,4.1v15.2c0,1.26.22,2.06.67,2.4.45.34,1.36.26,2.72-.24v2.53c-.25.07-.62.18-1.1.32-.49.14-.96.21-1.43.21-.5,0-.99-.05-1.46-.16-.54-.07-.97-.24-1.29-.51s-.58-.59-.78-.97c-.2-.38-.33-.79-.4-1.24-.07-.45-.11-.92-.11-1.43-1.37,1.51-2.93,2.66-4.69,3.45-1.76.79-3.67,1.19-5.71,1.19-1.22,0-2.4-.16-3.53-.49s-2.13-.83-2.99-1.51-1.54-1.52-2.05-2.51c-.5-.99-.75-2.16-.75-3.53,0-4.74,3.25-7.54,9.75-8.41l4.47-.59ZM701.2,241.48c-1.37.58-2.75.95-4.15,1.13-1.4.18-2.8.32-4.2.43-2.48.18-4.41.74-5.79,1.67-1.38.93-2.08,2.35-2.08,4.26,0,.86.17,1.61.51,2.24.34.63.79,1.15,1.35,1.56.56.41,1.2.72,1.94.92.74.2,1.48.3,2.24.3,1.29,0,2.55-.16,3.77-.49,1.22-.32,2.31-.82,3.26-1.48.95-.66,1.72-1.51,2.29-2.53.57-1.02.86-2.24.86-3.64v-4.37Z" fill="#fff" stroke-width="0"/>
        <path d="M710.09,230.92v-2.69h4.15v-4.42c0-2.23.45-3.99,1.35-5.28.9-1.29,2.43-1.94,4.58-1.94.5,0,.97.02,1.4.05.43.04.86.09,1.29.16v2.96c-.72-.18-1.37-.27-1.94-.27-.83,0-1.47.15-1.94.46-.47.31-.81.71-1.02,1.21-.22.5-.35,1.07-.4,1.7-.05.63-.08,1.27-.08,1.91v3.45h5.39v2.69h-5.39v25.22h-3.23v-25.22h-4.15Z" fill="#fff" stroke-width="0"/>
        <path d="M737.68,256.25c-.4.07-.92.2-1.56.38-.65.18-1.37.27-2.16.27-1.62,0-2.85-.4-3.69-1.21-.84-.81-1.27-2.25-1.27-4.34v-20.42h-3.93v-2.69h3.93v-7.76h3.23v7.76h5.23v2.69h-5.23v19.13c0,.68.02,1.28.05,1.78.04.5.14.92.32,1.24.18.32.46.56.84.7s.91.22,1.59.22c.43,0,.87-.04,1.32-.11.45-.07.89-.16,1.32-.27v2.64Z" fill="#fff" stroke-width="0"/>
        <path d="M761.77,228.23h3.23v27.92h-3.23v-3.88c-.43.5-.92,1.02-1.46,1.56s-1.16,1.03-1.86,1.48-1.52.83-2.45,1.13c-.93.3-2.01.46-3.23.46-1.87,0-3.43-.26-4.69-.78-1.26-.52-2.27-1.25-3.04-2.18-.77-.93-1.33-2.02-1.67-3.26-.34-1.24-.51-2.6-.51-4.07v-18.38h3.23v18.32c0,2.41.56,4.25,1.67,5.52,1.11,1.28,2.95,1.91,5.5,1.91,1.33,0,2.52-.26,3.58-.78,1.06-.52,1.95-1.25,2.67-2.18.72-.93,1.28-2.05,1.67-3.34.39-1.29.59-2.71.59-4.26v-15.2Z" fill="#fff" stroke-width="0"/>
        <path d="M776.21,256.14h-3.23v-27.92h3.23v5.23h.11c.9-2.23,2.06-3.78,3.48-4.66,1.42-.88,3.29-1.32,5.63-1.32v3.5c-1.83-.04-3.34.25-4.53.86-1.19.61-2.13,1.44-2.83,2.48-.7,1.04-1.19,2.27-1.46,3.69s-.4,2.9-.4,4.45v13.69Z" fill="#fff" stroke-width="0"/>
        <path d="M792.76,242.94c0,1.51.2,2.94.59,4.28s.98,2.52,1.75,3.5c.77.99,1.75,1.78,2.94,2.37s2.55.89,4.1.89c2.12,0,3.93-.56,5.44-1.67,1.51-1.11,2.51-2.69,3.02-4.74h3.61c-.4,1.33-.92,2.56-1.56,3.69s-1.46,2.12-2.42,2.96c-.97.84-2.12,1.5-3.45,1.97-1.33.47-2.88.7-4.63.7-2.23,0-4.15-.38-5.77-1.13-1.62-.75-2.95-1.79-3.99-3.1-1.04-1.31-1.81-2.86-2.32-4.63-.5-1.78-.75-3.69-.75-5.74s.3-3.97.89-5.77c.59-1.8,1.44-3.37,2.53-4.72,1.1-1.35,2.43-2.41,4.02-3.18,1.58-.77,3.38-1.16,5.39-1.16,3.84,0,6.86,1.32,9.05,3.96s3.27,6.48,3.23,11.51h-21.66ZM810.97,240.24c0-1.37-.19-2.65-.57-3.85-.38-1.2-.93-2.25-1.67-3.13-.74-.88-1.66-1.58-2.78-2.1-1.11-.52-2.39-.78-3.83-.78s-2.7.27-3.8.81c-1.1.54-2.03,1.26-2.8,2.16-.77.9-1.39,1.94-1.86,3.13s-.77,2.44-.92,3.77h18.21Z" fill="#fff" stroke-width="0"/>
      </g>
      <g>
        <path d="M123.6,81.08c9.32-48-92.09-25.91-71.46,29.08,8.85,25.22,54.72,52.93,60.3,84.51,5.55,31.05-32.29,58.98-59.69,61.3-42.27,3.12-74.85-38.79-33.99-82.19,2.13-2.25,5.15.89,3.15,2.6-34.65,36.5-8.53,73.39,23.27,71.14,23.94-1.57,49.98-27.32,45.21-51.93-5.38-31.07-49.53-56.78-59.5-82.98C7.01,48.18,139.17,24.07,127.53,82.05c-.36,2.65-4.24,2.38-3.93-.97" fill="#fff" stroke-width="0"/>
        <path d="M126.23,155.78c6.82-.44,19.73-29.42,23.98-40.53.61-2.03,3.19-.71,2.43.96-4.39,10.87-15.49,42.84-28.35,44.06-20.9,1.99-18.81-36.36-14.87-48.31,2.2-8.23,16.38-8.41,14.38,2.92-2.33,13.84-4.92,40.65,2.43,40.91" fill="#fff" stroke-width="0"/>
        <path d="M179.92,93.77c-17.23,1-22.28,41.66-11.63,40.96,9.91-.65,28.26-41.68,11.63-40.96M171.99,212.15c14.29,3.42,17.47-63.87,17.49-73.08-23.91,16.87-30.88,69.98-17.49,73.08M189.72,135.19c.4-10.98.46-21.44.42-29.65-4.46,15.47-13.39,34.85-26.16,35.69-20.32,1.33-21.35-50.5,12.6-50.73,5.85-.01,11.45,1.86,12.93,7.36l.93-2.92c-.57-10.54,7.71-9.59,11.57-1.88,3.17,6.51,4.87,19.23,4.96,33.9,6.59-3.79,12.42-8.04,15.1-16.42.61-2.03,3.31-.71,2.8.94-3.46,9.94-10.39,14.37-17.97,18.35-.08,36.73-9.61,85.01-29.82,86.34-27.26,1.79-13.51-65.58,12.62-80.98" fill="#fff" stroke-width="0"/>
        <path d="M263.5,83.56c24.02-1.95,5.22,62.51,15.01,61.87,7.11.28,23.01-34.36,25.37-40.24.74-1.92,3.21-.34,2.45,1.33-4.78,10.52-18.75,44.16-31.61,45.5-24.99,2.38-6.33-64.18-15.24-63.47-7.98,1.64-20.28,39.91-22.94,48.68.21,6.95-17.08,14.69-14.38-31.42.45-10.23,15.49-10.48,15.02-.61-.64,7.39-.87,15.24-.89,22.59,5.13-16.64,14.83-43.41,27.22-44.22" fill="#fff" stroke-width="0"/>
        <path d="M331.81,94.77c1.32-2.7,3.64-11.07-1.55-10.35-8.06.53-14.25,17.99-14.75,25.61,6.6-3.67,13.36-8.84,16.3-15.26M352.82,101.97c1-1.81,3.6-.11,2.83,1.43-7.19,11.67-20.63,32.71-35.66,33.2-25.96.83-21.07-55.62,6.48-56.81,10.05-.53,11.49,8.21,7.77,16.05-3.61,7.58-11.3,13.68-19.12,17.68-.11,5.85,1.79,17.8,9.94,16.89,9.53-.75,23.27-20.82,27.75-28.45" fill="#fff" stroke-width="0"/>
        <path d="M426.58,4.55c-10.21,1.79-16.54,64.68-17.57,73.71,23.97-16.01,32.34-74.31,17.57-73.71M382.27,80.51c-17.11,1-22.16,41.65-11.38,40.94,9.66-.63,28.38-41.68,11.38-40.94M417.15,135.97c8.2-.29,22.35-33.08,24.77-39.83.61-2.03,3.44-.72,2.8.94-4.84,11.64-16.36,42.77-30.48,43.81-14.23,1.31-21.16-20.89-21.46-48.12-4.84,15.38-13.43,34.36-26.07,35.19-20.32,1.33-21.72-50.35,12.23-50.71,6.22-.03,11.45,1.86,12.93,7.36l1.3-2.94c1.02-37.66,12.45-79.72,29.87-81.61,26.12-2.09,12.91,65.98-14.3,81.83-.54,8.87-2.53,54.43,8.4,54.09" fill="#fff" stroke-width="0"/>
        <path d="M119.51,75.69c13.84.2,6.57,18.73-3.16,19.19-8.87-.34-8.49-19.89,3.16-19.19" fill="#fff" stroke-width="0"/>
      </g>
    </g>
  </g>
</svg>