<?xml version="1.0" encoding="UTF-8"?>
<svg id="Layer_2" data-name="Layer 2" xmlns="http://www.w3.org/2000/svg" viewBox="0 0 434.44 434.44">
  <g id="Layer_1-2" data-name="Layer 1">
    <g>
      <rect width="434.44" height="434.44" rx="8.67" ry="8.67" fill="#9c96ff" stroke-width="0"/>
      <g>
        <path d="M27.43,42.35c-1.29-.8-2.29-1.93-3-3.39-.71-1.46-1.06-3.18-1.06-5.16h0c0-1.99.35-3.71,1.06-5.16.71-1.46,1.71-2.58,3-3.38,1.29-.8,2.81-1.2,4.56-1.2,1.31,0,2.5.25,3.57.75,1.07.5,1.97,1.19,2.69,2.08.72.89,1.2,1.93,1.43,3.12l.03.13h-2.38l-.09-.29c-.24-.77-.61-1.42-1.09-1.96s-1.07-.95-1.77-1.24c-.7-.29-1.49-.43-2.38-.43-1.26,0-2.35.31-3.28.93-.93.62-1.65,1.5-2.16,2.63-.51,1.13-.76,2.46-.76,4h0c0,1.54.25,2.87.76,4.01.51,1.14,1.23,2.02,2.16,2.65.93.63,2.02.94,3.27.94.88,0,1.67-.14,2.36-.43s1.29-.71,1.79-1.27c.5-.56.88-1.26,1.15-2.09l.04-.12h2.38l-.03.13c-.24,1.2-.71,2.25-1.43,3.14-.71.89-1.61,1.58-2.68,2.07s-2.27.73-3.58.73c-1.74,0-3.26-.4-4.56-1.2Z" fill="#fff" stroke-width="0"/>
        <path d="M44.45,42.64c-.95-.57-1.68-1.39-2.21-2.45s-.79-2.31-.79-3.75v-.03c0-1.45.26-2.7.79-3.75.53-1.05,1.27-1.86,2.21-2.43s2.04-.86,3.29-.86,2.36.29,3.3.86,1.68,1.38,2.21,2.43c.53,1.05.79,2.3.79,3.75v.03c0,1.45-.26,2.7-.79,3.75-.53,1.06-1.26,1.87-2.2,2.45-.94.58-2.04.86-3.3.86s-2.36-.29-3.3-.86ZM49.86,40.89c.59-.4,1.05-.97,1.37-1.73s.49-1.66.49-2.73v-.03c0-1.06-.16-1.97-.49-2.72s-.79-1.32-1.39-1.71c-.6-.39-1.3-.59-2.1-.59s-1.48.2-2.07.59c-.6.4-1.06.97-1.39,1.71-.33.75-.5,1.65-.5,2.71v.03c0,1.06.17,1.97.5,2.73.33.75.8,1.33,1.39,1.73.6.4,1.29.59,2.1.59s1.5-.2,2.09-.59Z" fill="#fff" stroke-width="0"/>
        <path d="M56.33,29.64h2.28v1.94h.05c.37-.64.9-1.16,1.6-1.58s1.56-.62,2.59-.62c1.49,0,2.65.45,3.47,1.35.82.9,1.24,2.13,1.24,3.68v8.83h-2.28v-8.42c0-1.11-.26-1.95-.78-2.54-.52-.59-1.3-.88-2.35-.88-.71,0-1.34.16-1.87.48s-.94.76-1.23,1.34c-.29.58-.44,1.25-.44,2.03v8h-2.28v-13.6Z" fill="#fff" stroke-width="0"/>
        <path d="M72.06,42.61c-.62-.59-.93-1.54-.93-2.84v-8.25h-1.99v-1.88h1.99v-3.67h2.35v3.67h2.59v1.88h-2.59v8.24c0,.72.16,1.21.47,1.47.31.26.78.39,1.39.39.14,0,.27,0,.4-.02s.24-.02.33-.03v1.84c-.14.02-.32.04-.54.06-.22.02-.45.03-.67.03-1.25,0-2.18-.3-2.8-.89Z" fill="#fff" stroke-width="0"/>
        <path d="M79.86,42.99c-.68-.34-1.21-.82-1.59-1.44-.38-.62-.57-1.34-.57-2.16v-.03c0-.78.19-1.45.58-2.01s.95-1.02,1.69-1.35c.74-.33,1.62-.53,2.66-.59l5.04-.29v1.77l-4.77.29c-.91.05-1.61.27-2.11.65-.5.38-.75.89-.75,1.53v.03c0,.65.25,1.17.74,1.56s1.15.58,1.97.58c.71,0,1.36-.15,1.93-.45.57-.3,1.03-.71,1.36-1.24.33-.52.5-1.11.5-1.76v-4.02c0-.83-.26-1.48-.78-1.96-.52-.47-1.25-.71-2.2-.71-.87,0-1.58.19-2.11.57-.54.38-.87.87-1,1.48l-.03.12h-2.2v-.14c.08-.75.34-1.43.78-2.04.44-.61,1.05-1.1,1.82-1.46.78-.36,1.7-.54,2.76-.54s2,.18,2.78.55c.78.37,1.38.88,1.81,1.55s.64,1.45.64,2.36v9.4h-2.28v-2.21h-.05c-.26.5-.61.93-1.05,1.3s-.93.66-1.47.86-1.12.31-1.73.31c-.9,0-1.69-.17-2.37-.51Z" fill="#fff" stroke-width="0"/>
        <path d="M93.99,42.63c-.95-.58-1.68-1.4-2.19-2.46-.51-1.06-.77-2.31-.77-3.75h0c0-1.44.26-2.68.79-3.74.52-1.05,1.26-1.87,2.2-2.45.94-.57,2.04-.86,3.29-.86,1.13,0,2.11.22,2.92.66s1.45,1.01,1.92,1.71c.47.7.75,1.43.84,2.21v.1s-2.21,0-2.21,0l-.03-.1c-.17-.68-.53-1.28-1.09-1.79s-1.35-.77-2.35-.77c-.79,0-1.47.21-2.07.62-.59.41-1.05,1-1.39,1.75-.33.75-.5,1.64-.5,2.67h0c0,1.07.17,1.97.5,2.72.34.75.8,1.33,1.4,1.73.6.4,1.29.6,2.07.6.93,0,1.69-.24,2.27-.71.58-.47.96-1.09,1.16-1.85l.03-.11h2.24v.09c-.13.86-.45,1.64-.96,2.33-.51.69-1.17,1.24-1.97,1.65-.81.41-1.72.61-2.75.61-1.28,0-2.39-.29-3.34-.87Z" fill="#fff" stroke-width="0"/>
        <path d="M106.73,42.61c-.62-.59-.93-1.54-.93-2.84v-8.25h-1.99v-1.88h1.99v-3.67h2.35v3.67h2.59v1.88h-2.59v8.24c0,.72.16,1.21.47,1.47.31.26.78.39,1.38.39.14,0,.27,0,.4-.02.12-.01.24-.02.33-.03v1.84c-.14.02-.32.04-.54.06-.22.02-.45.03-.67.03-1.25,0-2.18-.3-2.8-.89Z" fill="#fff" stroke-width="0"/>
        <path d="M117.49,29.64h2.39l3.75,11.18h.05l3.77-11.18h2.37l-5,13.6h-2.33l-5.01-13.6Z" fill="#fff" stroke-width="0"/>
        <path d="M131.88,26.92c-.28-.28-.42-.62-.42-1.01s.14-.74.42-1.01c.28-.27.62-.41,1.01-.41s.74.14,1.01.41.41.61.41,1.01-.14.73-.41,1.01c-.27.28-.61.42-1.01.42s-.73-.14-1.01-.42ZM131.75,29.64h2.28v13.6h-2.28v-13.6Z" fill="#fff" stroke-width="0"/>
        <path d="M138.73,42.99c-.68-.34-1.21-.82-1.59-1.44-.38-.62-.57-1.34-.57-2.16v-.03c0-.78.19-1.45.58-2.01.39-.57.95-1.02,1.69-1.35.74-.33,1.62-.53,2.66-.59l5.03-.29v1.77l-4.77.29c-.91.05-1.61.27-2.11.65-.5.38-.75.89-.75,1.53v.03c0,.65.25,1.17.74,1.56.49.38,1.15.58,1.97.58.71,0,1.36-.15,1.93-.45.57-.3,1.02-.71,1.36-1.24s.5-1.11.5-1.76v-4.02c0-.83-.26-1.48-.78-1.96-.52-.47-1.25-.71-2.2-.71-.87,0-1.57.19-2.11.57-.54.38-.87.87-1,1.48l-.03.12h-2.2v-.14c.08-.75.34-1.43.78-2.04.44-.61,1.05-1.1,1.82-1.46.78-.36,1.7-.54,2.76-.54s2,.18,2.78.55c.78.37,1.38.88,1.81,1.55.43.67.64,1.45.64,2.36v9.4h-2.28v-2.21h-.05c-.26.5-.61.93-1.05,1.3-.44.37-.93.66-1.47.86s-1.12.31-1.73.31c-.9,0-1.69-.17-2.37-.51Z" fill="#fff" stroke-width="0"/>
      </g>
      <g>
        <path d="M22.97,63.37h5.21l3.79,17.17h.1l4.42-17.17h4.4l4.42,17.17h.1l3.79-17.17h5.21l-6.36,23.96h-4.9l-4.4-16.04h-.1l-4.42,16.04h-4.9l-6.36-23.96Z" fill="#fff" stroke-width="0"/>
        <path d="M56.78,63.37h4.85v9.23h.1c.46-1.11,1.16-1.96,2.08-2.55s2.05-.89,3.38-.89,2.41.29,3.34.86,1.65,1.38,2.15,2.42.76,2.28.76,3.72v11.17h-4.87v-10.18c0-1.24-.29-2.21-.88-2.91-.59-.7-1.43-1.05-2.54-1.05-.71,0-1.32.17-1.85.51-.53.34-.93.8-1.23,1.39-.29.59-.44,1.28-.44,2.05v10.19h-4.85v-23.96Z" fill="#fff" stroke-width="0"/>
        <path d="M78.71,86.92c-.9-.46-1.61-1.1-2.11-1.91-.5-.81-.76-1.74-.76-2.78v-.03c0-1.08.27-2.01.81-2.78.54-.77,1.33-1.38,2.37-1.82,1.04-.44,2.29-.71,3.76-.81l6.94-.43v3.02l-6.21.42c-.93.06-1.64.27-2.12.65-.49.38-.73.88-.73,1.51v.03c0,.65.25,1.17.75,1.54.5.37,1.17.56,2.01.56.72,0,1.37-.14,1.94-.42.57-.28,1.02-.67,1.34-1.16.33-.49.49-1.04.49-1.65v-5.41c0-.79-.25-1.41-.75-1.86s-1.22-.68-2.17-.68-1.63.19-2.16.56-.86.84-.98,1.42l-.03.15h-4.45l.02-.2c.1-1.1.47-2.07,1.1-2.92.64-.85,1.52-1.52,2.66-2,1.13-.48,2.48-.72,4.04-.72s2.87.25,4,.74c1.13.49,2.01,1.19,2.63,2.08.62.9.94,1.94.94,3.14v12.2h-4.85v-2.64h-.1c-.34.6-.78,1.12-1.29,1.56-.52.44-1.12.78-1.79,1.01s-1.39.35-2.17.35c-1.19,0-2.23-.23-3.13-.69Z" fill="#fff" stroke-width="0"/>
        <path d="M97.84,86.45c-.95-.83-1.43-2.2-1.43-4.1v-9.16h-2.47v-3.65h2.47v-4.35h4.9v4.35h3.25v3.65h-3.25v8.63c0,.83.19,1.41.56,1.73.37.33.92.49,1.65.49.22,0,.41,0,.58-.03.17-.02.32-.04.46-.06v3.55c-.27.04-.59.08-.99.12-.39.04-.84.06-1.35.06-1.97,0-3.43-.42-4.38-1.25Z" fill="#fff" stroke-width="0"/>
        <path d="M110.36,86.98c-1.16-.48-2.06-1.14-2.7-1.98-.64-.85-1.03-1.83-1.16-2.95l-.02-.15h4.73l.03.15c.15.7.5,1.24,1.04,1.63.54.39,1.29.58,2.26.58.62,0,1.15-.08,1.58-.22.43-.15.77-.36,1-.64s.36-.61.36-1v-.02c0-.48-.17-.86-.52-1.15-.34-.29-.95-.53-1.83-.71l-3.02-.65c-1.15-.24-2.11-.59-2.89-1.05-.77-.46-1.36-1.03-1.74-1.71-.39-.68-.58-1.46-.58-2.35v-.02c0-1.14.31-2.12.92-2.96.61-.83,1.48-1.47,2.61-1.93,1.12-.46,2.44-.69,3.94-.69s2.91.25,4.01.76,1.95,1.18,2.54,2.03c.59.85.91,1.8.94,2.84v.17h-4.47l-.02-.13c-.08-.63-.38-1.16-.89-1.58-.52-.43-1.22-.64-2.12-.64-.55,0-1.04.08-1.44.23-.41.16-.72.37-.95.65-.22.28-.33.61-.33,1v.02c0,.3.07.57.22.81.15.24.4.45.76.62.35.18.83.33,1.43.46l3.02.65c1.87.39,3.21.97,4.03,1.74.81.77,1.22,1.82,1.22,3.12v.02c0,1.16-.33,2.17-1,3.04s-1.58,1.54-2.75,2.02c-1.17.48-2.52.72-4.04.72-1.64,0-3.04-.24-4.19-.71Z" fill="#fff" stroke-width="0"/>
        <path d="M131.81,63.37h4.43v4.65h-1.53l-5.99,19.31h-5.26l8.35-23.96ZM129.18,77.76h11.17l1.23,3.75h-13.63l1.23-3.75ZM134.81,68.02v-4.65h2.91l8.35,23.96h-5.28l-5.98-19.31Z" fill="#fff" stroke-width="0"/>
        <path d="M148.11,69.53h4.85v3.1h.12c.32-.72.74-1.34,1.27-1.86.53-.52,1.14-.92,1.84-1.2s1.47-.42,2.32-.42c1.5,0,2.8.37,3.88,1.1,1.08.74,1.92,1.8,2.51,3.18.59,1.38.88,3.04.88,4.96v.02c0,1.93-.29,3.58-.87,4.96-.58,1.38-1.41,2.45-2.48,3.19-1.07.74-2.36,1.11-3.85,1.11-.84,0-1.62-.14-2.34-.42-.72-.28-1.34-.67-1.88-1.17-.53-.5-.96-1.11-1.29-1.82h-.1v8.85h-4.85v-23.61ZM159,83.04c.59-.43,1.04-1.03,1.35-1.82.32-.79.47-1.71.47-2.79v-.02c0-1.08-.16-2.02-.48-2.8-.32-.78-.77-1.38-1.36-1.8-.59-.42-1.28-.63-2.07-.63s-1.48.21-2.08.64c-.6.43-1.06,1.03-1.39,1.82-.33.79-.5,1.72-.5,2.79v.02c0,1.06.17,1.99.51,2.77.34.79.8,1.39,1.39,1.82.59.43,1.28.64,2.07.64s1.5-.21,2.09-.64Z" fill="#fff" stroke-width="0"/>
        <path d="M168.28,69.53h4.85v3.1h.12c.32-.72.74-1.34,1.27-1.86s1.14-.92,1.84-1.2c.7-.28,1.47-.42,2.31-.42,1.51,0,2.8.37,3.88,1.1,1.09.74,1.92,1.8,2.51,3.18.59,1.38.88,3.04.88,4.96v.02c0,1.93-.29,3.58-.87,4.96-.58,1.38-1.41,2.45-2.48,3.19-1.07.74-2.36,1.11-3.85,1.11-.84,0-1.62-.14-2.34-.42-.72-.28-1.35-.67-1.88-1.17-.53-.5-.96-1.11-1.29-1.82h-.1v8.85h-4.85v-23.61ZM179.17,83.04c.59-.43,1.04-1.03,1.35-1.82.32-.79.47-1.71.47-2.79v-.02c0-1.08-.16-2.02-.48-2.8-.32-.78-.78-1.38-1.36-1.8-.59-.42-1.28-.63-2.08-.63s-1.48.21-2.07.64c-.6.43-1.06,1.03-1.39,1.82-.33.79-.5,1.72-.5,2.79v.02c0,1.06.17,1.99.51,2.77.34.79.8,1.39,1.39,1.82s1.28.64,2.07.64,1.51-.21,2.09-.64Z" fill="#fff" stroke-width="0"/>
      </g>
    </g>
  </g>
  <g id="Layer_2-2" data-name="Layer 2">
    <path d="M266.58,167.57c-13.1-13.11-30.51-20.34-49.07-20.34-38.24,0-69.36,31.12-69.37,69.37,0,12.23,3.19,24.16,9.26,34.68l-9.84,35.95,36.77-9.65c10.13,5.53,21.54,8.44,33.15,8.44h.03c38.23,0,69.36-31.12,69.37-69.37,0-18.54-7.2-35.96-20.3-49.08h0ZM217.51,274.3h-.02c-10.34,0-20.49-2.78-29.35-8.04l-2.11-1.25-21.82,5.72,5.82-21.28-1.37-2.18c-5.77-9.18-8.82-19.79-8.81-30.68.01-31.79,25.88-57.65,57.68-57.65,15.4,0,29.88,6.01,40.76,16.91,10.89,10.9,16.88,25.39,16.87,40.79-.01,31.79-25.88,57.66-57.66,57.66h0ZM249.14,231.12c-1.73-.87-10.25-5.06-11.84-5.64-1.59-.58-2.74-.87-3.9.87-1.15,1.74-4.48,5.64-5.49,6.8-1.01,1.16-2.02,1.3-3.76.43-1.73-.87-7.32-2.7-13.94-8.6-5.15-4.6-8.63-10.27-9.64-12.01-1.01-1.74-.11-2.67.76-3.54.78-.78,1.73-2.03,2.6-3.04.87-1.01,1.15-1.74,1.73-2.89.58-1.16.29-2.17-.14-3.04-.43-.87-3.9-9.4-5.35-12.87-1.41-3.38-2.84-2.92-3.9-2.98-1.01-.05-2.17-.06-3.32-.06s-3.03.43-4.62,2.17c-1.59,1.74-6.07,5.93-6.07,14.46s6.21,16.77,7.08,17.93c.87,1.16,12.22,18.66,29.61,26.17,4.13,1.79,7.36,2.85,9.88,3.65,4.15,1.32,7.93,1.13,10.92.69,3.33-.5,10.25-4.19,11.7-8.24,1.44-4.05,1.44-7.52,1.01-8.24s-1.59-1.16-3.32-2.03h0Z" fill="#fff" fill-rule="evenodd" stroke-width="0"/>
  </g>
</svg>