<?xml version="1.0" encoding="UTF-8"?>
<svg id="Layer_2" data-name="Layer 2" xmlns="http://www.w3.org/2000/svg" viewBox="0 0 112.85 207.52">
  <g id="Layer_1-2" data-name="Layer 1">
    <g>
      <path d="M90.93,207.52H21.92c-12.09,0-21.92-9.83-21.92-21.92V21.92C0,9.83,9.83,0,21.92,0h69.01c12.09,0,21.92,9.83,21.92,21.92v163.68c0,12.09-9.83,21.92-21.92,21.92ZM21.92,8.16c-7.59,0-13.76,6.17-13.76,13.76v163.68c0,7.59,6.17,13.76,13.76,13.76h69.01c7.59,0,13.76-6.17,13.76-13.76V21.92c0-7.59-6.17-13.76-13.76-13.76H21.92Z" fill="#fff" stroke-width="0"/>
      <rect x="38.55" y="17.67" width="35.24" height="7.05" rx="3.02" ry="3.02" fill="#fff" stroke-width="0"/>
    </g>
  </g>
</svg>