<?xml version="1.0" encoding="utf-8"?>
<!-- Generator: Adobe Illustrator 28.0.0, SVG Export Plug-In . SVG Version: 6.00 Build 0)  -->
<svg version="1.1" id="Layer_1" xmlns="http://www.w3.org/2000/svg" xmlns:xlink="http://www.w3.org/1999/xlink" x="0px" y="0px"
	 viewBox="0 0 1080 627.9" style="enable-background:new 0 0 1080 627.9;" xml:space="preserve">
<style type="text/css">
	.st0{fill:url(#SVGID_1_);}
	.st1{fill:#FFFFFF;}
	.st2{fill:#007BBC;}
	.st3{fill:#FFEFDC;}
	.st4{fill:#904D03;}
</style>
<g>
	<radialGradient id="SVGID_1_" cx="537.0207" cy="86.3866" r="360.7416" gradientUnits="userSpaceOnUse">
		<stop  offset="0" style="stop-color:#D03797"/>
		<stop  offset="0.7473" style="stop-color:#32276C"/>
		<stop  offset="1" style="stop-color:#2E276C"/>
	</radialGradient>
	<path class="st0" d="M1042.5,247.7c-0.3-0.8-0.6-1.7-0.9-2.5c-4.6-13.2-6.6-17.8-7.6-20c-1.5-3.2-3.8-6.4-7.3-9.8
		c-0.5-0.5-1.1-1.1-1.6-1.6c0,0-2.8-1.6-3.1-1.8c-6.7-8.4-13.3-14-20.2-17c6.4-1.4,12.9-2.8,19.3-4.2c1.1-17.9,2.2-35.7,3.3-53.6
		c-0.9-7.9-1.7-15.9-2.6-23.8c-1.7-15.9-13.6-29.2-36.6-41.1c-8.6-4.5-15.7-6.6-22.1-6.6c-4.8-0.3-9.6-0.6-14.4-0.9
		c-5.5,1.3-10.9,2.5-16.4,3.8C907,74.5,890.9,84.4,883,99c-4.5,8.1-9,16.3-13.5,24.5c-3.8-6.1-9-12.5-15.7-19.4
		c-13.3-13.9-24.9-20.6-36.3-20.7c-4.8-0.4-9.6-0.8-14.4-1.2c-10.6,0.3-21.2,0.7-31.7,1c-8.6,2.9-17.1,5.8-25.7,8.6
		c0-1,0-2.1-0.1-3.1c-14.3,0.4-28.7,0.9-43,1.3c-2.7-0.5-7.6-1.3-13.3-1.2c-4.9,0.1-9.6,1-13.9,2.5c-0.3,0-0.6,0.1-0.9,0.1
		c-18.2,1.6-32.6,2.9-42.7,12.9c-2.1,2.1-4,3.9-5.6,5.5c-3.3,3.2-6,5.8-8.2,8.2c-1.5-1.9-3-3.7-4.5-5.3c-6.2-6.8-13-12.4-20.1-16.9
		c-0.5-0.3-1.1-0.7-1.6-1c-6.1-2.3-12.2-4.5-18.4-6.8c-0.7,0.7-1.3,1.5-2,2.2c-1.2-0.2-2.3-0.5-3.5-0.7c-4.3-1.4-8.5-2.8-12.8-4.3
		c-11.4,0.9-22.8,1.7-34.2,2.6c0,0-2.3,0.8-2.4,0.8c-0.9-0.1-1.7-0.2-2.6-0.3c-13.4,6.1-26.8,12.2-40.2,18.3c0.1,2.5,0.3,5,0.4,7.5
		c-6.2-6.5-13.1-11.5-20.6-15c-5.2-2.3-9.5-4.2-12.8-5.7c-0.3-0.1-0.6-0.3-0.8-0.4c-0.3-0.4-0.5-0.9-0.8-1.3
		c-6.1-0.9-12.1-1.7-18.2-2.6c-19.4,0.2-38.8,0.4-58.3,0.5c-12.2,0.1-19.1,5.9-22.8,10.8c-1.4,1.8-2.7,3.6-4.1,5.5
		c-0.2,6.9-0.4,13.9-0.6,20.8c-23.4-22.8-32.9-28.6-38.5-31.1c-6.8-3.1-13.6-6.2-20.4-9.2c-7.5,0-15,0-22.5,0
		c-6.8,0-13.7,2.7-22.3,8.7c-4,2.7-7.7,6.4-11,10.8c-0.9-6.8-1.7-13.6-2.6-20.5c-12.4,0.9-24.8,1.8-37.3,2.6
		c-19.5-0.1-39.1-0.2-58.6-0.4c-19.6,2.5-39.1,4.9-58.7,7.2c0.5,28.8,1,57.6,1.5,86.5c11.6,0.3,23.2,0.6,34.8,0.9
		c0.1,75.2,0.1,150.4,0.2,225.6c-0.4,2.5-0.7,5-1.1,7.5c0.5,6.1,1,12.2,1.4,18.3c-0.1,4.1,0.6,8.2,2,12.2c0.5,1.5,1.1,3,1.6,4.5
		c-2.6,2.6-5.2,5.1-7.9,7.7c0.3,5.8,0.6,11.6,0.9,17.5c1.7,2.2,3.5,4.4,5.2,6.6c0.2,2.9,0.4,5.8,0.6,8.7c0,4.8-0.1,9.6-0.1,14.5
		c0.1,5.3,0.2,10.6,0.3,15.9c0.1,3,0.1,6,0.2,9c-2.7,2.1-5.3,4.1-7.9,6.2c2.5,6.6,5,13.2,7.5,19.8c3.9,4.7,7.8,9.4,11.7,14
		c5.5,1.3,11.1,2.5,16.6,3.7c5.2,0.8,10.4,1.5,15.7,2.3c0.5,0.5,1,1.1,1.6,1.6c5.2,0.4,10.5,0.7,15.7,1.1c5.6,1.6,11.2,3.2,16.8,4.7
		c4.5-4.1,9-8.3,13.5-12.5c0.2-0.8,0.4-1.6,0.6-2.5c3.7,4.6,7.5,9.2,11.2,13.9c3.1,1.8,6.1,3.6,9.2,5.4c4.9,1.3,9.7,2.6,14.6,3.9
		c5.5-5.4,10.9-10.9,16.4-16.3c-0.2-3.7-0.4-7.4-0.7-11.1c0.5,1,1.1,2,1.6,3c4.8,5.7,9.5,11.5,14.3,17.2c6.4,3.7,12.7,7.5,19.1,11.2
		c6.3,1.7,12.6,3.3,19,5c5.3,0.1,10.7,0.2,16,0.3c7.2-1.5,14.4-3,21.6-4.6c0.7-1.5,1.4-2.9,2.1-4.4c4.3,3.1,8.5,6.2,12.8,9.3
		c7,1.8,13.9,3.5,20.9,5.2c6.4-1.2,12.8-2.4,19.2-3.7c3.6-1.9,7.1-3.7,10.7-5.6c2.4,3.9,4.9,7.8,7.3,11.6c6.7-0.7,13.3-1.5,20-2.3
		c5.6,0.4,11.3,0.8,16.9,1.1c4.5-5.4,9-10.7,13.5-16.1c0-0.2,0-0.4,0-0.6c3.1,3.3,6.2,6.5,9.2,9.7c4.1,4.7,8.2,9.5,12.3,14.2
		c5.7-3.3,11.4-6.7,17.1-10c2.5-2.3,5-4.7,7.5-7c0.3,0.3,0.6,0.5,0.9,0.8c6,3.3,11.9,6.7,17.9,10c6.6,0.9,13.2,1.7,19.8,2.6
		c5.1-0.5,10.3-1.1,15.4-1.7c4.5-1.3,9.1-2.5,13.6-3.8c8,0,16-0.1,24-0.2c5.5,0.2,10.9,0.4,16.4,0.5c11,0.7,22,1.4,33,2
		c0.2-1.1,0.4-2.2,0.6-3.3c2.3-0.3,4.6-0.6,6.9-0.9c5.3-0.2,10.5-0.4,15.8-0.7c1.7-1.6,3.3-3.2,5-4.8c1.8,1.7,3.5,3.5,5.3,5.2
		c4.8-0.9,9.7-1.8,14.5-2.8c6,0.8,11.9,1.5,17.9,2.3c1-1.7,2-3.3,2.9-5c0.3,0.2,0.5,0.4,0.8,0.6c6.1-0.6,12.2-1.2,18.3-1.8
		c6.3-0.5,12.6-1,18.9-1.6c3.6-4,7.2-8,10.8-11.9c0,4.5,0,9.1,0.1,13.6c10.9-1.5,21.8-3.1,32.7-4.8c4.3-0.5,8.7-1,13-1.6
		c4.2-0.7,8.4-1.4,12.6-2.1c9.1-0.8,18.3-1.7,27.4-2.7c0.7-2.3,1.3-4.6,2-6.9c7.6,1.8,15.2,3.6,22.8,5.3c2.4-1.6,4.8-3.2,7.3-4.8
		c10.9-1.7,21.8-3.6,32.7-5.5c4.2-1,8.3-2,12.4-3.1c4.4-0.6,8.9-1.2,13.3-1.9c6.4-1.9,12.8-3.9,19.2-5.9c0.1,1.2,0.2,2.4,0.2,3.7
		c9.2-2.3,18.3-4.6,27.5-7c2.8-0.3,5.6-0.6,8.3-1c0.8-0.3,1.7-0.6,2.5-0.9c0.7-0.1,1.3-0.1,2-0.2c6.7-1.9,13.4-3.8,20.1-5.8
		c5.4-1.4,10.8-2.7,16.2-4.2c0.5-14.8,1-29.7,1.5-44.5c-0.9,0.1-1.8,0.3-2.7,0.4c-0.3-8.2-0.5-16.5-0.8-24.7c-3.2,0.7-6.4,1.3-9.7,2
		c-0.3-4.2-0.7-8.4-1-12.6c0.3-4,0.6-8,0.9-12c-0.2-6.2-0.3-12.4-0.5-18.6c-3.6-5.2-7.2-10.5-10.9-15.8c-4,0.7-7.9,1.5-11.9,2.2
		c8.2-8.1,15.8-18.7,22.6-31.7c9.3-17.5,15.4-34.7,18.2-51.2c0.1-0.5,0.2-1,0.3-1.5c0.2-8.8,0.3-17.6,0.5-26.4
		C1044.7,291.6,1043.6,269.6,1042.5,247.7z M694.6,198.4c4.1-0.6,8.3-1.1,12.4-1.7c3.7-0.8,7.3-1.5,11-2.3c0.2,10.7,0.4,21.3,0.6,32
		c-7.8,0.4-15.7,0.7-23.5,1.1C694.9,217.7,694.7,208.1,694.6,198.4z M697.6,330.1c7.6-1.5,15.1-3,22.7-4.5c0.3,14.5,0.5,29,0.8,43.5
		c-5,1.2-9.9,2.3-14.9,3.5c-3.1,0.1-6.3,0.1-9.4,0.2C697,358.5,697.3,344.3,697.6,330.1z M202.9,457.1c-5.6,4.1-11.2,8.2-16.8,12.2
		c-4.4-4.9-8.8-9.7-13.3-14.6c-0.6-0.2-1.1-0.5-1.7-0.7c9.7-1.8,19.4-3.7,29-5.6c0.2-10,0.5-19.9,0.7-29.9c0.4,0.8,0.9,1.5,1.3,2.1
		c1.9,4.6,3.5,8.4,4.7,11.5c0.4,0.9,0.7,1.8,1.1,2.7c0.6,0.8,1.1,1.6,1.7,2.4c6.2,8.7,12.6,16.1,19.2,22.2c-2.9-0.3-5.8-0.6-8.8-0.9
		C214.3,458,208.6,457.6,202.9,457.1z M467.2,474c-4.5,4.3-9,8.6-13.6,12.9c-0.1,1.3-0.3,2.6-0.4,3.9c-5.9-6.5-11.9-13-17.8-19.5
		c-0.5,0-1,0-1.5,0c1.7-4.9,2.5-10.3,2.4-16.3c-1-39.3-2.1-78.5-3.1-117.8c3.2-0.6,4.9-0.8,5.7-0.9c1-0.1,2-0.3,3-0.4
		c0.9-0.5,1.8-0.9,2.7-1.4c6.3-3.2,10.5-5.3,12.5-6.4c0.2-0.1,0.3-0.2,0.5-0.3c4.5-2.5,6.3-3.2,6.6-3.3c1-0.3,2.1-0.7,3.1-1
		c0.9-0.7,1.8-1.4,2.6-2.1c1-0.8,2-1.6,2.9-2.4c-0.9,51.5-1.8,103-2.7,154.5C469.2,473.8,468.2,473.9,467.2,474z M595.5,470.9
		c-7.4,0.6-14.8,1.1-22.2,1.7c-0.6,0.7-1.2,1.4-1.9,2c-1.4-0.2-2.8-0.3-4.2-0.5c0.5-9,1-18,1.5-27c-0.5-34.6-1.1-69.1-1.6-103.7
		c3.4-1.3,6-2.3,7.7-2.9c0.1,0,0.2-0.1,0.3-0.1c9.9-3.8,18.5-8.1,25.9-13c0.3,21,0.6,41.9,0.9,62.9c0.2,0.9,0.5,1.8,0.7,2.7
		c0.6,2.4,1,5.4,1.4,8.6c0.7,5.5,1.5,11.5,3.7,17.5c1.7,17.4,3.5,34.7,5.2,52.1c-0.7,0-1.4,0-2.2,0
		C605.6,471,600.6,470.9,595.5,470.9z"/>
	<g>
		<path class="st1" d="M492.5,211c0.1,6.8,0.2,13.5,0.3,20.3c-1,8.5-2,17-2.9,25.5c-0.9,4.8-3,11.6-6,20.3
			c-3.9,7.7-12.4,16.8-25.3,27c-2.4,0.8-5.7,2.4-9.9,4.7c-2,1-6.1,3.1-12.3,6.2c-2,0.3-5,0.8-9.1,1.5c-4.6,1-9.2,2-13.9,3
			c1.2,44.9,2.4,89.9,3.6,134.9c0.1,4.7-0.8,8.5-2.6,11.4c-1.2,0.7-2.1,1.1-2.7,1.1c-4.7,1.2-9.4,2.3-14.1,3.4
			c-4.7,0.7-9.4,1.5-14.1,2.2c-5-0.2-10.1-0.5-15.1-0.7c-5,0.3-10,0.5-15.1,0.8c-0.6-0.8-1.2-1.6-1.8-2.4
			c-0.6-48.5-1.1-96.9-1.7-145.3c0.6-5.1,1.2-10.1,1.7-15.2c1.8-65.2,3.6-130.5,5.3-195.8c1.6-2.1,4.2-3.1,8-3.2c0.9,0,1.8,0,2.7,0
			c18.1-0.1,36.1-0.2,54.2-0.4c2.6,0.4,5.2,0.7,7.8,1.1c0.6,1.1,2.5,1.6,5.7,1.5c3.4,1.6,7.7,3.5,13,5.8
			c11.3,5.2,20.7,15.7,28.3,31.5c6.8,13.7,11.4,29.3,13.9,46.8C491.1,201.7,491.8,206.4,492.5,211z M426.3,175.5
			c-6.5,1-13,2.1-19.6,3.1c1.9,28,3.8,56.1,5.8,84.2c5,0,10,0.1,15.1,0.1C427.1,233.8,426.7,204.7,426.3,175.5z"/>
		<path class="st1" d="M1026.5,316.2c-0.1,8.2-0.3,16.3-0.4,24.5c-2.4,14.3-7.7,29.1-15.8,44.5c-9.6,18.2-20.1,29.9-31.5,35
			c-1.3,0.6-6.8,3.8-16.5,9.6c-3.1,0.8-6.1,1.6-9.2,2.4c-1,0.2-2.4,0.1-4.3-0.2c-1.9-0.3-3.4-0.4-4.3-0.2c-8.2,0.7-17-1.7-26.5-7.3
			c-9.4-5.6-15.7-12.3-18.9-20c-4-9.4-6-13.9-6-13.5c-0.5-24.9-0.9-49.8-1.4-74.7c2-0.9,4-1.8,6-2.8c1.5-0.6,3-1.1,4.6-1.7
			c4.7-0.5,9.4-1,14.1-1.5c11.5-1.5,23-3.1,34.4-4.8c1.2,17.6,2.4,35.1,3.6,52.7c0.4,1.5,1.2,3.6,2.4,6.2c3-0.9,6.1-1.8,9.1-2.8
			c1.7-0.4,6.9-2.6,15.7-6.4c-3.4-28.6-6.8-57.2-10.2-86c-0.6-2.1-1.6-2.8-2.9-2.1c-19.7,2.5-39.4,4.9-59.1,7.2
			c-4.6,0.4-10-2.3-16.3-8.2c-2.6-3.8-5.8-10.2-9.6-19.3c-2.6-6.1-4.4-35.7-4.4-36.7c-0.2-13-0.5-26-0.7-39
			c2.7-12.8,5.5-25.6,8.2-38.3c4.4-7.9,8.7-15.9,13.1-23.8c5-9.1,17.2-16,36.5-20.6c4.6-1.1,9.2-2.2,13.8-3.3
			c4.1,0.2,8.3,0.4,12.4,0.7c3.3-0.1,7.9,1.4,13.9,4.4c16.7,8.5,25.4,17.1,26.4,26.1c0.8,7.5,1.6,15,2.4,22.4
			c-0.7,12.1-1.5,24.1-2.2,36.2c-7.6,1.6-15.3,3.2-22.9,4.8c-3,0.2-5.9,0.5-8.9,0.7c-5.7,1-11.5,2.1-17.2,3.1
			c-0.3-14.9-0.6-29.8-0.8-44.7c-0.6-1.2-1-2.2-1.2-3.2c-0.4-1.4-0.1-2.9,1.1-4.5c-6.6,0.4-13.2,0.8-19.8,1.1
			c1.2,27.6,2.4,55.2,3.6,82.8c0.4,0.4,0.8,0.7,1.2,1.1c14.9-1.6,29.9-3.2,44.8-4.8c2.3,0.2,5.8,0.9,10.4,2
			c4.8,1.9,10.1,6.8,15.8,14.6c1,0.5,2.3,1.2,4.1,2.2c1.9,1.9,3.2,3.6,3.8,4.8c1.4,3,3.7,9.1,6.9,18.5
			C1024.5,274.3,1025.5,295.3,1026.5,316.2z"/>
		<path class="st1" d="M210,161.9c0,0.8-0.3,1.5-1,2.3c-1.1,0.5-2.1,0.9-3.2,1.4c-3.8-0.1-7.7-0.2-11.5-0.3
			c-4.4,0.8-8.7,1.7-13.1,2.5c-0.9,0.2-1.6,0.2-2.1,0.2c-1.3,0-2.5-0.3-3.8-0.7c0.2,11.6,0.3,23.3,0.5,35c3,22.2,6.1,44.4,9.1,66.8
			c-1.2,54-2.5,108-3.7,161.9c-19.8,3.9-39.6,7.5-59.3,10.7c-0.6-1.6-0.8-3.3-0.6-5.1c-0.5-5.8-0.9-11.6-1.4-17.5
			c0.3-2.3,0.6-4.6,1-6.8c0-79.8-0.1-159.5-0.1-239.3c-0.2-2.4-0.4-4.2-0.6-5.3c-0.6-2.1-1.4-3.7-2.5-4.8c-10.7-0.1-21.4-0.3-32-0.5
			c-0.3-16.7-0.6-33.4-0.8-50c13.6-1.5,27.1-3.1,40.7-4.7c19.3,0.3,38.6,0.6,57.9,0.8c6.5-0.4,13-0.8,19.6-1.2
			C205.3,125.3,207.6,143.6,210,161.9z"/>
		<path class="st1" d="M350,371c-0.8,4.5-2.4,12.2-4.6,22.9c-0.2,1-0.4,2.6-0.7,5c-3.8,10.9-7.2,19.4-10,25.5c-0.9,0.7-2,2-3.2,3.7
			c-1.9,4.8-5.8,10.1-11.5,15.7c-5.7,5.6-10.9,8.9-15.4,9.7c-2.9,0.6-4.8,1.2-5.7,1.9c-3.1,2.3-7.2,3.7-12.5,4
			c-2.5,0.2-5.1,0.4-7.6,0.6c-3.9-0.5-7.8-1-11.7-1.6c-14.4-2-28.5-13-42.6-32.6c-1.5-3.8-3.5-8.6-5.9-14.4
			c-1.7-1.9-4.4-7.6-8.1-17.1c-1.7-4.4-3.1-10.1-4.3-17.3c-0.5-3.2-1-6.4-1.5-9.6c-1.1-50.9-2.2-101.8-3.3-152.6
			c1.2-10.6,2.4-21.3,3.6-32c0.5-4.8,3-12.1,7.6-22.2c1-2.8,3.2-8.2,6.6-16c5.2-6.8,10.8-14.7,16.8-23.7c2.5-3.8,5.2-6.7,8-8.6
			c5.2-3.6,9.2-5.5,11.9-5.4c6.2,0,12.3,0,18.5,0.1c5.6,2.5,11.1,5.1,16.7,7.7c6,2.8,17.1,11.9,33.1,27.5c1.3,2.6,3.3,6,5.9,10.4
			c6.5,10.9,11.9,27.7,16.2,50.4C347.6,259,348.8,315,350,371z M289.1,406.1c-1.1-77.4-2.2-154.7-3.2-232
			c-5.2-0.1-10.3-0.2-15.5-0.3c-4,0.6-8,1.2-11.9,1.8c0.7,0.6,1,1.5,0.7,2.6c-0.3,1.2-2.7,4.1-2.8,4.8
			c3.7,73.3,7.5,146.8,11.2,220.5C274.7,404.5,281.9,405.3,289.1,406.1z"/>
		<path class="st1" d="M628.3,251c-0.1,1.6-1.6,6.6-4.7,14.9c-3,8.4-4.9,13-5.7,13.8c-3.8,5.6-7.7,11-12,16.3
			c-7.9,9.5-20.3,17.6-37.3,24.1c-3.4,1.3-10.2,3.9-20.4,7.8c-0.2,4.5-0.5,9.1-0.7,13.6c0.5,35,1.1,70.1,1.6,105.1
			c-0.2,4.4-0.5,8.8-0.7,13.2c-19.2,6.2-38.4,12.2-57.6,17.9c-0.5-0.7-0.9-1.1-1.2-1.2c1.1-64.3,2.2-128.7,3.3-193.1
			c1.3-47,2.6-94,3.9-141.1c-0.4-7.3-0.7-14.6-1.1-21.9c7.7-3.5,15.4-7,23-10.5c1,0.1,2.9-0.3,5.5-1.1c9.5-0.7,19-1.4,28.5-2.1
			c3.5,1.2,6.9,2.3,10.4,3.5c4.3,0.9,8.7,1.8,13,2.7c1,0.3,1.8,0.2,2.3-0.4c1.7,0.6,3.4,1.2,5.1,1.9c5.7,3.5,11,8.1,16.1,13.6
			c13.2,14,22.4,39.1,27.7,75.3c0.3,1.6,1.1,7,2.5,16.2C629.4,229.9,628.8,240.4,628.3,251z M569.4,258.7
			c-1.9-27.4-3.8-54.8-5.6-82.2c-0.1-1.8-0.5-5.1-1.3-9.7c-0.5-1.2-1.1-1.8-2-1.9c-3.7,0.9-7.3,1.7-11,2.6c-1.2-0.1-2.4-0.2-3.6-0.4
			c-0.2,3.7-0.4,7.5-0.6,11.2c1,16.7,2,33.4,3,50.2c-0.1,12.4-0.1,24.8-0.2,37.2c1,0.1,1.9,0.3,2.9,0.4
			C557.1,263.7,563.3,261.2,569.4,258.7z"/>
		<path class="st1" d="M735,447.1c-4.9,2.5-9.8,5-14.8,7.5c-8.2,2.3-16.5,4.7-24.7,6.9c-0.2,0-0.5,0.2-0.8,0.7
			c-0.4,0.4-0.8,0.7-1.4,0.7c-5.4,0.2-10.9,0.3-16.3,0.5c-3.3-0.4-6.7-1.1-17.4-1.9c-8.9-0.7-22.2-0.2-28.3-2.3
			c-1.5-15.4-3.1-30.9-4.6-46.3c-3.4-6.9-3.1-16.9-5.5-26.1c-0.3-22.7-0.7-45.4-1-68.1c0-2.8-0.1-5.7-0.1-8.5
			c-0.7-5-1.5-10.1-2.2-15.1c0.2-10.7,0.4-21.5,0.6-32.2c0.4-5.7,0.7-11.4,1.1-17c0.9-31.1,1.8-62.2,2.6-93.2
			c4.5-16.3,1.8-12.3,22.4-32.4c5.6-5.6,17.8-6.3,34.7-7.9c9.6-4.3,20.6-1,21.9-1c8.4-0.3,16.9-0.5,25.3-0.8
			c0.4,20.1,0.7,40.3,1.1,60.4c-7.8,1.6-15.5,3.2-23.3,4.8c-6.1,0.8-12.3,1.7-18.4,2.5c-0.6,0-3.9,1.6-10.1,4.6
			c-0.1,0.1-0.2,0.2-0.3,0.3c-0.2,0.6-0.3,1.6-0.5,3c0.3,20.4,0.6,40.9,1,61.3c1.7,0.6,3.3,1.3,5,1.9c11.7-0.5,23.3-1,35-1.6
			c0.2,0.4,0.6,1,1.1,1.8c0,1.8,0.1,3.6,0.1,5.4c1.9,13.6,3.8,27.1,5.7,40.6c0,2.7,0.1,5.4,0.1,8.1c-12,2.4-24,4.8-36,7.1
			c-1.8,0.7-3.8,1.2-6,1.5c-0.8,0.6-1.6,1.3-2.4,1.9c-0.5,25.6-1,51.1-1.5,76.7c0,0.6,0.4,1.7,1.2,3.3c0.2,0.2,0.6,0.3,1.4,0.2
			c9.4-0.1,18.8-0.3,28.1-0.5c6.6-1.5,13.2-3.1,19.8-4.7c1.1,5.6,2.2,11.3,3.3,16.9C732.2,419.7,733.6,433.4,735,447.1z"/>
		<path class="st1" d="M891.1,438.2c-1.5,3.3-2.9,5.2-4.1,5.6c-5.4,1.2-10.8,2.4-16.2,3.6c-0.3-0.1-0.5-0.1-0.8-0.2
			c-8.9,2.7-17.7,5.5-26.6,8.1c-7.6,3-15.1,6-22.7,8.9c-1.8-4.1-3.7-8.2-5.5-12.3c-0.9-46.1-1.7-92.3-2.6-138.5
			c-3.1,0.4-6.1,0.9-9.2,1.3c-1.7,0.1-3.5,0.3-5.2,0.4c-2.5,0.4-5.1,0.8-7.6,1.2c2,41.1,4,82.2,5.9,123.2c-6.4,3.5-12.9,7-19.3,10.4
			c-5.4,0.8-10.9,1.6-16.3,2.4c-2.1,0.2-4.2,0.4-6.3,0.6c-4.2,0.7-8.4,1.3-12.6,2c-2-112.5-4-225-6-337.7c12.8-4.3,25.5-8.7,38.3-13
			c9.3-0.3,18.7-0.7,28-1c4.7,0.4,9.4,0.8,14.2,1.2c6.1-0.2,14,4.7,23.6,14.8c8.6,8.8,14.1,16.3,16.7,22.7
			c3.3,8.2,6.6,62.7,8.1,70.8c0.3,3.8,0.7,7.6,1,11.4c-1.1,13.8-10.5,28.8-28,45.2c3.1-0.1,6.3-0.1,9.4-0.2c1.9,0,4.9,0.6,8.9,1.8
			c7.4,4.6,13.9,14.4,19.4,29.5c2.9,8.1,6.8,22.2,11.5,42.4C888.5,374.5,889.8,406.4,891.1,438.2z M803.4,148
			c-6.7,1.3-13.4,2.7-20.1,4c0.6,34,1.2,67.9,1.9,101.9c6.7-2.7,13.4-5.4,20.1-8.1C804.6,213.2,804,180.6,803.4,148z"/>
		<g>
			<path class="st2" d="M220.3,46.3c0.4,6.8,0.7,13.5,1.1,20.3c-2.3-0.1-4.6-0.1-6.9-0.2c0.1-4.9,0.2-9.8,0.3-14.7
				c-2.8,0.2-5.6,0.3-8.4,0.5c0.6,4.4,1.1,8.9,1.7,13.3c-2.6,0.6-5.2,1.3-7.8,1.9c0-5.8,0-11.5,0-17.3c-0.4-8.9-0.7-17.8-1.1-26.6
				c2.5-0.3,5-0.5,7.5-0.8c-0.2,8.3-0.4,16.6-0.6,24.9c2.9,0.1,5.9,0.2,8.8,0.2c0-0.2,0-0.4,0.1-0.6c-0.4-8.2-0.8-16.4-1.3-24.5
				c2.3-0.1,4.6-0.1,6.9-0.2C220.4,30.4,220.4,38.3,220.3,46.3z"/>
			<path class="st2" d="M238,22.6c2.8-0.3,5.6-0.6,8.4-0.9c0,2.2,0,4.4-0.1,6.6c-2.3-0.5-4.6-1-7-1.4c-1.6,0.1-3.2,0.1-4.8,0.2
				c0.1,3,0.1,6.1,0.2,9.1c0,1.7,0,3.4,0.1,5.1c2.2-0.2,4.3-0.3,6.5-0.5c0,1.9,0,3.8,0,5.8c-1.9-0.2-3.9-0.3-5.8-0.5
				c0,1.4,0.1,2.8,0.1,4.2c0,4.2,0,8.3,0,12.5c3.7-0.8,7.5-1.5,11.2-2.3c0.1,2.1,0.1,4.2,0.2,6.3c-2.4,0-4.8,0.1-7.1,0.1
				c-3.9,0.2-7.8,0.4-11.7,0.6c0.4-6.4,0.8-12.8,1.2-19.3c-0.7-8.6-1.3-17.3-2-25.9C230.9,22.3,234.5,22.4,238,22.6z"/>
			<path class="st2" d="M264.3,27.3c-0.1,6.5-0.2,12.9-0.2,19.4c0.4,6.7,0.8,13.3,1.3,20c-2.3,0.2-4.7,0.3-7,0.5
				c0.2-6,0.5-12,0.7-18c-0.2-7.2-0.3-14.4-0.5-21.6c-2.9,0.3-5.8,0.7-8.7,1c0-2-0.1-4.1-0.1-6.1c3.2,0,6.3-0.1,9.5-0.1
				c4.5-0.7,9-1.3,13.4-2c0.1,2.3,0.1,4.6,0.2,6.9C270,27.4,267.2,27.3,264.3,27.3z"/>
			<path class="st2" d="M317.8,20.6c-0.4,8.4-0.9,16.8-1.3,25.2c0.6,6.9,1.1,13.9,1.7,20.8c-1.8,0.5-3.7,1-5.5,1.5
				c0-7.6,0-15.2,0-22.8c0-1.5,0-2.9,0-4.4c-0.9,2.3-1.7,4.5-2.6,6.8c-1,2.6-2,5.3-3,7.9c0.4,1.2,0.8,2.5,1.3,3.7
				c-2.3-0.2-4.7-0.4-7-0.6c-0.1-2.4-0.2-4.8-0.2-7.2c-1.4-3.1-2.7-6.1-4.1-9.2c0,1.9,0,3.8,0.1,5.6c0.7,5.9,1.3,11.8,2,17.7
				c-2.4,0.4-4.9,0.9-7.3,1.3c0.2-5.6,0.3-11.1,0.5-16.7c-0.9-10-1.7-20-2.6-29.9c2.4,0.4,4.8,0.8,7.3,1.2c0,2,0,3.9,0,5.9
				c2.7,7.6,5.5,15.3,8.2,22.9c1.3-3.6,2.6-7.2,3.9-10.7c1.1-6.4,2.3-12.8,3.4-19.2c1.7,0,3.4-0.1,5.2-0.1
				C317.8,20.5,317.8,20.5,317.8,20.6C317.8,20.6,317.8,20.6,317.8,20.6z"/>
			<path class="st2" d="M333,20.9c2.8-0.3,5.6-0.6,8.4-0.9c0,2.2,0,4.5-0.1,6.7c-2.3-0.5-4.6-1-7-1.5c-1.6,0.1-3.2,0.1-4.8,0.2
				c0.1,2.8,0.1,5.6,0.2,8.4c0,1.7,0,3.4,0.1,5.1c2.2-0.2,4.3-0.3,6.5-0.5c0,2,0,3.9,0,5.9c-1.9-0.2-3.9-0.3-5.8-0.5
				c0,1.4,0.1,2.8,0.1,4.2c0,4.7,0,9.3,0,14c3.7-0.8,7.5-1.6,11.2-2.4c0.1,2.1,0.1,4.3,0.2,6.4c-2.4,0-4.8,0.1-7.2,0.1
				c-3.9,0.2-7.8,0.5-11.7,0.7c0.4-7,0.8-13.9,1.2-20.9c-0.7-8.5-1.3-17.1-2-25.6C325.8,20.7,329.4,20.8,333,20.9z"/>
			<path class="st2" d="M358.2,20.6c3.7,0,7.4,0,11.2,0c-0.1,2-0.2,4-0.2,6.1c-3.2-0.6-6.4-1.1-9.6-1.7c-1.6,0.1-3.2,0.1-4.8,0.2
				c0.2,2.7,0.5,5.4,0.7,8.1c0,1.7,0,3.4,0.1,5.2c2.2-0.2,4.3-0.3,6.5-0.5c0,2,0,3.9,0,5.9c-1.9-0.2-3.9-0.3-5.8-0.5
				c0,1.4,0.1,2.8,0.1,4.3c0,4.7,0,9.4,0,14c3.7-0.8,7.5-1.6,11.2-2.4c0.1,2.1,0.1,4.3,0.2,6.4c-2.4,0.1-4.8,0.1-7.2,0.2
				c-3.9,0.2-7.8,0.5-11.7,0.7c0.4-7,0.8-14,1.2-21c-0.8-8.4-1.7-16.9-2.5-25.3C351.1,20.3,354.7,20.4,358.2,20.6z"/>
			<path class="st2" d="M404.1,65c-7.7,0.6-15.3,1.2-23,1.8c-3,0.1-6,0.1-9.1,0.2c4.3-8.6,8.5-17.2,12.8-25.9
				c2.3-5.1,4.7-10.2,7-15.3c-1.8-0.1-3.6-0.3-5.4-0.4c-3.6,0.9-7.1,1.8-10.7,2.7c0.2-2.4,0.3-4.7,0.5-7.1
				c6.1-0.3,12.1-0.6,18.2-0.9c2.3-0.1,4.7-0.1,7-0.2c-4.3,7.8-8.6,15.7-12.9,23.5c-1.8,5.8-3.6,11.6-5.3,17.3c2,0,3.9,0,5.9,0
				c3.9-1.2,7.8-2.5,11.7-3.8C401.9,59.7,403,62.3,404.1,65z"/>
			<path class="st2" d="M413.7,20.1c-0.2,8.6-0.3,17.1-0.5,25.7c0.3,6.5,0.6,13,0.8,19.6c-2.1,0.6-4.1,1.1-6.2,1.7
				c0-8.3,0.1-16.5,0.1-24.8c-0.4-7.6-0.9-15.2-1.3-22.8C409,19.6,411.3,19.8,413.7,20.1z"/>
			<path class="st2" d="M442.3,50.3c0,1,0,1.9,0.1,2.9c0,1,0.1,9,0.2,9.8c0,0.8,0.1,1.5,0.1,2c0,0.6,0,0.9,0,1.1c-1.8,0-3.7,0-5.5,0
				c-0.5,0.1-0.9,0.1-1.4,0.2c-1.7-7.3-3.5-14.5-5.2-21.8c-1.1-2.4-2.2-4.9-3.3-7.3c-0.2,4.6-0.3,9.3-0.5,13.9
				c0.6,4.4,1.3,8.7,1.9,13.1c-2.4,1.3-4.9,2.6-7.3,3.9c0.3-8,0.6-16,0.9-24c-0.3-8.1-0.5-16.1-0.8-24.2c2.1-0.2,4.2-0.4,6.3-0.6
				c0,0.4,0,0.8,0,1.3c1.7,6.3,3.5,12.6,5.2,19c1.6,3.5,3.1,6.9,4.7,10.4c0.1-1.3,0.2-2.6,0.2-3.9c-0.7-8.4-1.3-16.7-2-25.1
				c2.6-1.1,5.1-2.3,7.7-3.4c-0.4,8.4-0.8,16.7-1.3,25.1C442.2,45.5,442.2,48,442.3,50.3z"/>
			<path class="st2" d="M463,46.4c1.7,0,3.3-0.1,5-0.1c0.1,3.8,0.2,7.5,0.3,11.3c0,0.1,0,0.1,0,0.2c0,0.1,0,0.3-0.1,0.5
				c-0.1,0.9-0.2,1.8-0.2,2.7c0,3.8,0,7.6,0.1,11.4c-2.3-1.1-4.6-2.1-6.9-3.2c0.6-1.4,1.2-2.8,1.8-4.2c-0.6,0.2-1.3,0.4-2,0.6
				c-0.7,0.2-1.5,0.3-2.4,0.3c-2.3,0.1-4.1-0.4-5.4-1.5c-1.4-1-2.4-2.2-3.1-3.5c-0.9-1.5-1.5-3.3-1.8-5.2c-0.1-2.7-0.1-5.5-0.2-8.2
				c0-1.3,0-6,0-7.4c0-1.2,0-2.6,0-4.2c0-1.5,0-3.1,0-4.6c0-1.5,0.3-3.1,1-4.6c0.7-1.5,1.5-2.8,2.6-4c1.1-1.2,2.2-2.2,3.5-2.9
				c1.3-0.7,2.5-1.1,3.6-1.2c1.1,0,2.2,0.1,3.1,0.5c1,0.4,1.8,0.8,2.5,1.3c0.8,0.6,1.5,1.2,2.2,1.9c0.6,3.3,1.1,6.5,1.7,9.8
				c-2.2,0.1-4.5,0.3-6.7,0.4c0.1-1.3,0.1-2.7,0.2-4c-0.2-0.8-0.4-1.6-0.6-2.2c-0.3-0.6-0.6-1.1-1-1.5c-0.4-0.5-0.9-0.7-1.6-0.6
				c-0.7,0-1.3,0.2-1.7,0.4c-0.5,0.3-0.8,0.6-1.1,1c-0.3,0.4-0.6,0.9-0.8,1.3c-0.4,6.8-0.8,13.6-1.2,20.4c0.5,3,0.9,6,1.4,9
				c0,0.7,0.1,1.3,0.3,2c0.2,0.7,0.4,1.3,0.7,1.8c0.3,0.6,0.7,1,1.2,1.4c0.5,0.3,1,0.5,1.7,0.5c0.7,0,1.3-0.2,1.8-0.4
				c0.5-0.3,1-0.5,1.5-0.9c0.5-0.4,0.9-0.8,1.4-1.2c-0.1-2.8-0.3-5.6-0.4-8.3c-1.4,0.4-2.7,0.9-4.1,1.3c-0.1-2.1-0.2-4.1-0.3-6.2
				C460,46.1,461.5,46.2,463,46.4z"/>
			<path class="st2" d="M480.8,24.4c0,3.2,0,6.4,0,9.7c1.9-0.2,3.8-0.4,5.7-0.6c0.1,2.3,0.1,4.5,0.2,6.8c-1.9-0.5-3.7-1-5.6-1.4
				c0.6,9.1,1.2,18.2,1.9,27.3c-2.7-0.7-5.4-1.3-8.1-2c0.2-4.8,0.3-9.5,0.5-14.3c-0.5-10.2-0.9-20.3-1.4-30.5c2.3,0,4.6,0,6.9,0
				c1.9,0,3.9,0,5.8,0c2.6-0.2,5.1-0.5,7.7-0.7c-0.4,2.2-0.9,4.5-1.3,6.7c-3.4-0.4-6.8-0.8-10.1-1.2
				C482.3,24.2,481.6,24.3,480.8,24.4z"/>
			<path class="st2" d="M504.6,19c2.8-0.3,5.6-0.6,8.4-0.9c0,2.3,0,4.6,0,6.8c-2.3-0.5-4.6-1-7-1.5c-1.6,0.1-3.2,0.1-4.8,0.2
				c0.1,1.9,0.1,3.8,0.2,5.7c0,1.7,0,3.5,0.1,5.2c2.2-0.2,4.3-0.3,6.5-0.5c0,2,0,4,0,6c-1.9-0.2-3.9-0.3-5.8-0.5
				c0,1.4,0.1,2.9,0.1,4.3c0,5.8,0,11.5,0,17.3c3.7-0.8,7.5-1.7,11.2-2.5c0.1,2.2,0.1,4.3,0.2,6.5c-2.4,0.1-4.8,0.1-7.2,0.2
				c-3.9,0.3-7.8,0.5-11.7,0.8c0.4-8.1,0.8-16.2,1.2-24.3c-0.7-7.7-1.3-15.4-2-23.1C497.5,18.8,501,18.9,504.6,19z"/>
			<path class="st2" d="M530.4,18.3c2.8-0.3,5.6-0.6,8.4-1c0,2.3,0,4.6,0,6.8c-2.3-0.5-4.7-1-7-1.5c-1.6,0.1-3.2,0.2-4.8,0.3
				c0,1.9,0.1,3.8,0.1,5.6c0.1,3,0.2,5.9,0.2,8.9c2.2-0.2,4.3-0.3,6.5-0.5c0,2,0,4-0.1,6c-1.9-0.1-3.8-0.3-5.8-0.4
				c0,1.4,0.1,2.8,0.1,4.2c0,4.6,0,9.1,0,13.7c3.7-0.8,7.5-1.6,11.2-2.4c0.1,2.2,0.1,4.3,0.2,6.5c-2.4,0.1-4.8,0.1-7.2,0.2
				c-3.9,0.3-7.8,0.5-11.7,0.8c0.4-6.9,0.8-13.9,1.2-20.8c-0.7-8.9-1.4-17.9-2.1-26.8C523.2,18,526.8,18.2,530.4,18.3z"/>
			<path class="st2" d="M566.5,58.5c-0.4,0.8-0.8,1.6-1.2,2.3c-0.4,0.7-1,1.4-1.8,2.1c-1,0.9-2.1,1.6-3.4,2.2
				c-1.3,0.6-2.7,0.8-4.2,0.8c-1.4,0-2.6-0.3-3.6-0.7c-1-0.4-1.8-0.9-2.5-1.5c-0.8-0.6-1.5-1.3-2-2.1c-1.2-4.5-2.4-9-3.6-13.5
				c3,0.8,6,1.6,9,2.5c-0.1,2.6-0.2,5.2-0.2,7.7c0.2,0.4,0.5,0.7,0.8,1c0.3,0.2,0.7,0.5,1.2,0.7c0.5,0.2,1.1,0.3,1.7,0.4
				c0.7,0,1.3,0,1.7-0.1c0.4-0.1,0.8-0.2,1-0.4c0.3-0.2,0.5-0.4,0.7-0.5c0.4-1.1,0.9-2.1,1.3-3.2c-1.5-4.6-2.9-9.2-4.4-13.8
				c-1.3-1.4-2.7-2.9-4-4.5c-1.4-1.6-2.6-3.1-3.8-4.4c-1.3-1.6-2.6-3.1-3.9-4.7c0.4-1.4,0.8-2.7,1.1-4.1c0.4-1.4,1.1-2.6,2-3.5
				c0.9-0.9,1.9-1.6,3-2.1c1-0.5,2.1-0.9,3-1.2c1-0.2,1.7-0.4,2.2-0.5c0.5-0.1,1.1-0.1,1.8-0.1c0.7,0,1.5,0.1,2.3,0.3
				c0.8,0.2,1.5,0.4,2.2,0.7c0.7,0.3,1.2,0.6,1.7,1.1c0.4,0.4,0.7,1.1,1,2c0.2,0.9,0.5,1.8,0.6,2.8c0.2,1.1,0.4,2.3,0.5,3.5
				c-2.3,0.3-4.6,0.6-6.8,1c0.1-1.4,0.3-2.8,0.4-4.1c-0.4-0.6-0.8-1.1-1.3-1.5c-0.4-0.3-0.9-0.6-1.5-0.8c-0.6-0.2-1.3-0.1-2,0.1
				c-0.7,0.2-1.3,0.7-1.6,1.3c-0.3,0.6-0.6,1.3-0.7,2c-0.2,0.8-0.2,1.6-0.2,2.5c4.1,5.2,8.2,10.5,12.3,15.7
				c0.9,3.7,1.7,7.5,2.6,11.2c0.1,0.1,0.1,0.3-0.1,0.5c-0.1,0.3-0.2,0.4-0.3,0.5c-0.1,0.5-0.3,0.9-0.4,1.3
				C566.9,57.7,566.7,58.1,566.5,58.5z"/>
			<path class="st2" d="M583.7,22.9c-0.1,5.6-0.1,11.2-0.2,16.8c0.4,8.2,0.9,16.4,1.3,24.5c-2.3,0.2-4.7,0.4-7,0.6
				c0.2-7.5,0.4-15.1,0.6-22.6c-0.2-6.3-0.3-12.6-0.5-19c-2.9,0.4-5.8,0.7-8.7,1.1c-0.1-2-0.1-4-0.2-6.1c3.2,0,6.3-0.1,9.5-0.1
				c4.5-0.7,9-1.3,13.4-2c0.1,2.3,0.1,4.5,0.2,6.8C589.4,22.9,586.6,22.9,583.7,22.9z"/>
			<path class="st2" d="M631,15.3c-1.4,7-2.9,14.1-4.3,21.1c-1.3,8.7-2.5,17.5-3.8,26.2c-2.7,0.5-5.4,1-8.1,1.4c0.3-1,0.6-2,1-3
				c-1.6-5.8-3.2-11.5-4.8-17.3c-1.7-8.8-3.5-17.5-5.2-26.3c2.4-0.1,4.8-0.1,7.2-0.2c0.5,6.5,1.1,13,1.6,19.4
				c1.4,5,2.8,10.1,4.2,15.1c0.9-4.1,1.7-8.3,2.6-12.4c0.8-7.3,1.6-14.6,2.4-21.9C626.2,16.8,628.6,16.1,631,15.3z"/>
			<path class="st2" d="M651.2,64.1c-0.7-6.8-1.4-13.5-2.1-20.3c-1.8,0-3.6,0-5.5,0c-0.6,0.1-1.1,0.3-1.7,0.4
				c-0.1,6.6-0.2,13.3-0.3,19.9c-2.9,0.1-5.8,0.2-8.7,0.3c1.5-9.2,3.1-18.4,4.6-27.5c1.1-6.7,2.1-13.4,3.2-20.2
				c2.3-0.1,4.7-0.1,7-0.2c-0.2,0.9-0.5,1.8-0.7,2.7c2.7,8.6,5.4,17.2,8.2,25.8c2,6.1,4,12.2,6,18.3
				C657.9,63.6,654.5,63.9,651.2,64.1z M645.9,40.6c0.9-0.3,1.8-0.6,2.6-0.9c-1.2-4.2-2.4-8.4-3.6-12.5c-1,3.7-2,7.4-2.9,11
				c0,0.7-0.1,1.5-0.1,2.2C643.3,40.5,644.6,40.6,645.9,40.6z M648.7,40c0,0.1,0,0.1,0,0.2c0,0.1,0.1,0.2,0.1,0.2
				C648.7,40.3,648.7,40.1,648.7,40z"/>
			<path class="st2" d="M686.9,53.7c0,1,0.1,1.9,0.1,2.9c0,1,0.1,1.9,0.1,2.6c0,0.8,0.1,2.2,0.1,2.8c0,0.6,0,0.9,0,1.1
				c-1.8,0-3.7,0-5.5,0c-0.5,0.1-0.9,0.1-1.4,0.2c-1.8-8.6-3.5-17.1-5.3-25.7c-1.1-2.4-2.2-4.9-3.4-7.3c-0.1,4.7-0.3,9.3-0.4,14
				c0.7,6.2,1.4,12.4,2.1,18.7c-2.4,0.5-4.9,0.9-7.3,1.4c0.2-9,0.5-18.1,0.7-27.1c-0.3-6.6-0.6-13.3-0.8-19.9
				c2.1-0.2,4.2-0.4,6.3-0.6c0,0.4,0,0.8,0,1.3c1.7,4.9,3.5,9.8,5.2,14.7c1.6,6.9,3.2,13.8,4.8,20.7c0.1-1.8,0.1-3.7,0.2-5.5
				c-0.7-10.1-1.4-20.3-2.1-30.4c2.5-1.2,5.1-2.3,7.6-3.5c-0.4,10.7-0.8,21.4-1.1,32.1C686.7,48.9,686.8,51.5,686.9,53.7z"/>
			<path class="st2" d="M722.4,61.7c0-7.6,0-15.3,0-22.9c-2.8,0.2-5.5,0.4-8.3,0.7c0.5,7.5,1.1,15,1.6,22.5c-2.6,0.7-5.2,1.4-7.8,2
				c0-8.9,0-17.8-0.1-26.7c-0.3-6.9-0.6-13.8-0.9-20.7c2.5-0.3,5-0.5,7.5-0.8c-0.3,6.3-0.5,12.6-0.8,18.9c2.9,0,5.9,0.1,8.8,0.1
				c0-0.2,0-0.4,0-0.7c-0.5-6.3-1-12.7-1.5-19c2.4,0.3,4.7,0.7,7.1,1c0,5.7,0,11.4-0.1,17.2c0.9,9.9,1.9,19.9,2.8,29.8
				C728,62.6,725.2,62.2,722.4,61.7z"/>
			<path class="st2" d="M745.9,16.4c2.8-0.3,5.6-0.6,8.4-0.9c0,2.3,0,4.5,0,6.8c-2.4-0.4-4.8-0.8-7.2-1.2c-1.5,0-3,0-4.6,0
				c0.1,2.3,0.1,4.6,0.2,6.8c0,1.7,0,3.5,0.1,5.2c2.2-0.2,4.3-0.3,6.5-0.5c0,2,0,3.9,0,5.9c-1.9-0.2-3.9-0.3-5.8-0.5
				c0,1.4,0.1,2.9,0.1,4.3c0,5.3,0,10.5,0.1,15.8c3.7-0.8,7.5-1.7,11.2-2.5c0.1,2.1,0.1,4.3,0.2,6.4c-2.4,0.1-4.8,0.2-7.1,0.2
				c-3.9,0.3-7.8,0.6-11.7,0.9c0.4-7.6,0.8-15.2,1.1-22.8c-0.7-8.1-1.4-16.1-2.1-24.2C738.7,16.2,742.3,16.3,745.9,16.4z"/>
			<path class="st2" d="M772.2,21.1c-0.1,4-0.2,7.9-0.2,11.9c0.5,9.7,1,19.4,1.4,29.1c-2.3,0.2-4.7,0.4-7,0.6
				c0.2-9.1,0.4-18.1,0.5-27.2c-0.2-4.7-0.3-9.4-0.5-14.1c-2.9,0.4-5.8,0.7-8.7,1.1c-0.1-2.1-0.1-4.2-0.2-6.2c3.2,0,6.3-0.6,9.5-0.7
				c4.5-0.7,9-0.8,13.5-1.5c0.1,2.3,0.1,4.7,0.2,7C777.9,21.2,775,21.1,772.2,21.1z"/>
			<path class="st2" d="M812.6,29.1c0.2,7.6,0.4,15.1,0.6,22.7c0,1.9-0.2,3.6-0.5,5.1c-0.3,1.3-0.8,2.4-1.6,3.5
				c-0.7,1.1-1.8,1.6-3.2,1.7c-1.4,0-2.7,0-3.7-0.2c-1-0.2-1.9-0.4-2.6-0.6c-0.8-0.3-1.5-0.6-2-1c-0.1-2.5-0.1-5.1-0.2-7.6
				c2.7,1.5,5.5,3.1,8.2,4.6c0.3-7.4,0.6-14.8,0.8-22.1c-0.6-6.4-1.1-12.7-1.7-19.1c2.3-0.5,4.7-1.1,7-1.6
				C813.5,19.3,813,24.2,812.6,29.1z"/>
			<path class="st2" d="M835.4,62.2c-0.7-6.2-1.4-12.4-2.2-18.6c-1.8,0-3.6,0-5.5,0c-0.6,0.1-1.1,0.3-1.7,0.4
				c-0.1,5.7-0.2,11.4-0.2,17.1c-2.9,0.1-5.8,0.2-8.7,0.3c1.5-8.4,3.1-16.8,4.6-25.1c1.1-7,2.1-14,3.2-21c1.9-0.1,3.8-0.1,5.7-0.2
				c0.2,0.9,0.4,1.9,0.6,2.8c2.7,9,5.5,17.9,8.2,26.9c1.8,4.9,3.6,9.7,5.4,14.6C841.7,60.3,838.5,61.3,835.4,62.2z M830.1,40.3
				c0.9-0.3,1.8-0.6,2.6-0.9c-1.2-4.4-2.4-8.7-3.6-13.1c-1,3.8-1.9,7.7-2.9,11.5c0,0.8-0.1,1.5-0.1,2.3
				C827.4,40.1,828.8,40.2,830.1,40.3z M832.8,39.6c0,0.1,0,0.1,0,0.2c0,0.1,0.1,0.2,0.1,0.3C832.8,39.9,832.8,39.7,832.8,39.6z"/>
			<path class="st2" d="M867.6,60.3c-2.6,0.1-5.3,0.2-7.9,0.3c-1.7-6-3.3-12.1-5-18.1c-1.8,0-3.7,0-5.5,0.1
				c-0.7,0.2-1.4,0.3-2.1,0.5c-0.5,5.4-1,10.7-1.5,16.1c-2.9,0.8-5.8,1.7-8.7,2.5c2.1-8.8,4.1-17.5,6.2-26.3c1-7,2.1-14.1,3.1-21.1
				c2.3-0.1,4.7-0.1,7-0.2c-0.2,1-0.4,1.9-0.7,2.9c2.7,9,5.4,17.9,8.2,26.8C863,49.3,865.3,54.8,867.6,60.3z M847.4,39
				c1.6,0.1,3.2,0.2,4.7,0.4c0.7-0.4,1.3-0.7,2-1.1c-1.2-4.4-2.4-8.7-3.6-13.1c-1,3.8-1.9,7.6-2.9,11.5
				C847.5,37.4,847.5,38.2,847.4,39z M854.2,38.5c0,0.2,0.1,0.3,0.1,0.5c0-0.1,0-0.2,0-0.3C854.3,38.6,854.2,38.5,854.2,38.5z"/>
			<path class="st2" d="M895.8,59.4c-2.9,0.2-5.9,0.4-8.8,0.6c-3.3-5-6.6-10-9.9-15c-0.9-1.8-1.7-3.6-2.6-5.4c-0.2,0-0.3,0-0.5,0
				c0.5,6.4,1,12.8,1.5,19.2c-2.5,0.8-4.9,1.5-7.4,2.3c0-9.1,0-18.1,0-27.2c-0.7-6.5-1.3-13.1-2-19.6c2.3,0.1,4.7,0.1,7,0.2
				c2.2,0.2,4.2,0.6,6,1.2c0.7,0.2,1.5,0.5,2.2,0.9c0.8,0.4,1.4,0.8,2,1.2c0.6,0.5,1.1,1,1.4,1.6c0.4,0.6,0.6,1.3,0.7,2.1
				c0.1,1.6,0.2,3.2,0.1,4.8c-0.1,1.6-0.2,3.1-0.3,4.4c-0.2,1.4-0.4,2.5-0.7,3.5c-0.3,0.9-0.7,1.6-1.1,1.8c-0.5,0.4-1.2,0.8-2,1.3
				c-0.8,0.5-1.5,1-2.1,1.3c1.4,0.9,2.7,1.8,4.1,2.7C887.5,47.4,891.7,53.4,895.8,59.4z M873.7,35.2c0.2-0.1,0.6-0.1,1.1-0.2
				c0.5-0.1,1-0.2,1.5-0.4c0.6-0.2,1.1-0.4,1.7-0.6c0.6-0.2,1.1-0.5,1.5-0.8c0.5-0.4,0.9-1.1,1-2.2c0.1-1.1,0.1-2.2,0-3.5
				c-0.1-1.3-0.3-2.4-0.5-3.6c-0.2-1.1-0.4-1.9-0.6-2.3c-0.2-0.3-0.5-0.6-1-0.7c-0.5-0.2-1.1-0.3-1.7-0.3c-0.6,0-1.2-0.1-1.9,0
				c-0.6,0-1.2,0.1-1.5,0.1C873.4,25.5,873.6,30.4,873.7,35.2z"/>
		</g>
	</g>
	<path class="st3" d="M140.7,468.5c-3.3-0.2-6.6-0.4-9.9-0.6c-3.2-1.1-6.4-2.2-9.6-3.4c-1.3,1.3-2.6,2.6-4,3.9c0,0.7,0.1,1.4,0.1,2
		c1.3,1.7,2.7,3.4,4,5.1c0.4,0.8,0.8,1.7,1.1,2.5c0.3,5.2,0.7,10.3,1,15.5c0,5.1-0.1,10.2-0.1,15.3c0.1,5.1,0.2,10.3,0.3,15.4
		c0.1,5.1,0.2,10.3,0.3,15.5c0,0.8-0.1,1.7-0.1,2.5c-0.1,0.1-0.2,0.2-0.3,0.3c-1.4,1.1-2.7,2.1-4.1,3.2c0.3,0.7,0.6,1.5,0.8,2.2
		c1.1,1.3,2.2,2.7,3.4,4c2.8,0.6,5.6,1.2,8.4,1.8c3,0.4,5.9,0.8,8.9,1.3c1.1-0.9,2.3-1.8,3.4-2.8c-0.2-0.7-0.5-1.5-0.7-2.2
		c-1-1.4-1.9-2.7-2.9-4.1c-0.2-1.1-0.4-2.2-0.5-3.4c-0.1-5.2-0.3-10.4-0.4-15.5c-0.2-5.2-0.4-10.4-0.6-15.6
		c0.2-5.1,0.4-10.3,0.6-15.4c-0.1-5.2-0.1-10.3-0.2-15.5c0.4-1,0.7-2,1.1-3.1c1.4-1,2.8-2,4.2-3.1c-0.2-0.7-0.3-1.4-0.5-2.1
		C143.2,471.2,142,469.9,140.7,468.5z"/>
	<path class="st3" d="M229.6,480c-3.1-0.3-6.1-0.6-9.2-1c-3.4-0.3-6.8-0.6-10.2-0.9c-1.2,0.9-2.4,1.7-3.6,2.6
		c0.3,0.7,0.6,1.5,0.8,2.2c1.9,2.3,3.8,4.7,5.8,7c0.7,5.8,1.3,11.7,2,17.5c-0.2,4.8-0.5,9.5-0.7,14.3c0.4,4.9,0.7,9.9,1.1,14.8
		c-3.2-4.3-6.4-8.7-9.6-13c-3.3-4.2-6.6-8.3-9.9-12.5c-3.2-4.2-6.5-8.4-9.7-12.6c-3.3-4.1-6.6-8.3-9.9-12.4
		c-4.4-4.9-8.8-9.8-13.2-14.6c-0.8-0.3-1.5-0.7-2.3-1c-1,1.4-2,2.7-3,4.1c0.1,4.6,0.3,9.3,0.4,13.9c-0.3,4.6-0.6,9.1-0.9,13.7
		c0.2,4.6,0.5,9.3,0.7,13.9c0,4.6,0.1,9.2,0.1,13.9c-0.1,4.6-0.1,9.2-0.2,13.8c-1.2,1.6-2.3,3.1-3.5,4.7c-0.9,1.1-1.8,2.2-2.8,3.2
		c-0.2,0.7-0.3,1.3-0.5,2c1.4,1.5,2.9,3,4.3,4.5c3.2,0.2,6.4,0.4,9.6,0.6c3.2,0.9,6.4,1.8,9.6,2.6c1.2-1.1,2.4-2.2,3.6-3.3
		c0.2-0.7,0.3-1.3,0.5-2c-1.1-1.5-2.2-3.1-3.4-4.6c-1.5-4-3.1-7.9-4.6-11.9c0-5.7,0-11.5,0-17.2c-0.1-5.5-0.2-11-0.3-16.6
		c3,3.9,6,7.9,9,11.8c3.4,3.9,6.8,7.9,10.2,11.8c3.3,4,6.7,8,10,12.1c2.9,4.4,5.8,8.8,8.7,13.2c3.3,4.1,6.6,8.1,10,12.2
		c1,0.6,2,1.1,3,1.7c0.8,0.2,1.5,0.4,2.3,0.6c1.4-1.4,2.7-2.7,4.1-4.1c-0.3-4.7-0.6-9.5-0.9-14.2c0.1-4.7,0.2-9.4,0.3-14.1
		c0-4.7-0.1-9.4-0.1-14.1c0-4.7-0.1-9.4-0.1-14.2c-0.2-4.7-0.4-9.5-0.6-14.2c2.3-2.8,4.5-5.6,6.8-8.4c0.1-0.7,0.2-1.4,0.4-2.1
		C232.3,482.5,230.9,481.2,229.6,480z"/>
	<path class="st3" d="M325.3,559.5c-3.7,2.2-7.4,4.5-11,6.7c-4.3,0.3-8.6,0.5-13,0.8c-5-2.2-10.1-4.3-15.1-6.5
		c-3.5-4.8-6.9-9.6-10.4-14.4c-1.1-5.7-2.1-11.3-3.2-17c0.9-5.6,1.8-11.2,2.7-16.8c3.2-4.2,6.4-8.4,9.6-12.6
		c5.1-1.2,10.3-2.3,15.4-3.5c4.2,1.6,8.4,3.3,12.6,4.9c3.4,3.4,6.7,6.8,10.1,10.2c0.6-0.3,1.3-0.6,1.9-0.8c1-3.3,2.1-6.7,3.1-10
		c-1.7-3.5-3.4-6.9-5.1-10.4c-3.8-0.7-7.6-1.5-11.5-2.3c-3.7-1-7.5-2.1-11.2-3.2c-4.6,0.5-9.2,1-13.8,1.5c-4.4,1.3-8.8,2.7-13.1,4
		c-3.2,3.3-6.3,6.7-9.5,10c-2.4,4-4.8,8.1-7.2,12.1c-0.4,5-0.8,10-1.2,15c0.4,5.1,0.9,10.2,1.3,15.4c2.5,4.6,5,9.3,7.5,13.9
		c3.3,4,6.7,8,10,12c4.4,2.5,8.8,5.1,13.2,7.6c4.7,1.2,9.5,2.5,14.2,3.7c4,0.1,8,0.1,12,0.2c3.8-0.8,7.7-1.6,11.5-2.4
		c2.2-4.6,4.4-9.2,6.5-13.9C329.4,562.3,327.3,560.9,325.3,559.5z"/>
	<path class="st3" d="M372.1,488.5c-4.5,0.5-9,1-13.5,1.5c-3.9,2.3-7.8,4.5-11.7,6.7c-2.8,3.6-5.5,7.2-8.3,10.8
		c-2.2,4.1-4.4,8.1-6.7,12.2c-0.1,4.9-0.2,9.8-0.4,14.6c0.5,4.9,0.9,9.7,1.4,14.6c2,4.5,4.1,9,6.1,13.6c3.2,3.6,6.4,7.3,9.6,10.9
		c3.9,2.8,7.7,5.6,11.6,8.3c4.5,1.1,8.9,2.2,13.4,3.3c4.3-0.8,8.7-1.6,13-2.5c3.9-2,7.7-4,11.6-6.1c3.3-3.1,6.5-6.3,9.8-9.4
		c1.9-4.4,3.8-8.8,5.7-13.2c0.5-4.9,0.9-9.8,1.4-14.7c-0.8-4.9-1.6-9.8-2.4-14.7c-1.8-4.6-3.6-9.2-5.4-13.9
		c-3.1-3.8-6.2-7.6-9.4-11.3c-4.1-2.2-8.3-4.3-12.4-6.5C380.9,491.3,376.5,489.9,372.1,488.5z M373.3,572.1c-4.7-2-9.3-3.9-14-5.9
		c-2.9-4.7-5.7-9.3-8.6-14c-1-5.6-2.1-11.2-3.1-16.8c1-5.4,2.1-10.8,3.1-16.2c2.3-4.8,4.6-9.5,6.9-14.3c0,0,4.7-4.6,14.7-3.7
		c10,1,14.7,5.5,14.7,5.5c3,4.8,5.9,9.6,8.9,14.5c0.5,5.7,1,11.4,1.5,17.1c-0.6,5.5-1.2,11.1-1.9,16.6c-2.4,4.8-4.8,9.6-7.3,14.5
		C383.2,570.3,378.3,571.2,373.3,572.1z"/>
	<path class="st3" d="M494.9,494.4c-3.1-0.1-6.2-0.1-9.2-0.2c-3.4,0.3-6.9,0.5-10.3,0.7c-1.1,1-2.2,2.1-3.3,3.1
		c-0.1,0.7-0.2,1.5-0.2,2.2c2.1,2.3,4.3,4.5,6.4,6.8c0.5,6,1.1,12,1.6,18c0.3,5,0.5,10.1,0.8,15.1c0,4.9,0,9.8,0,14.7
		c-3.4-3.7-6.8-7.5-10.1-11.2c-3.1-4.2-6.2-8.4-9.4-12.5c-3.3-4-6.7-8-10-12c-3.4-4-6.7-7.9-10.1-11.9c-4.4-4.8-8.8-9.6-13.1-14.4
		c-0.8,0-1.6,0-2.3,0c-1.4,1.3-2.7,2.7-4.1,4c0.3,4.9,0.6,9.8,0.8,14.7c-0.2,4.9-0.3,9.8-0.5,14.6c0.5,4.9,1,9.8,1.5,14.7
		c-0.3,4.9-0.7,9.8-1,14.6c0.4,4.9,0.7,9.8,1.1,14.7c-1.4,1.8-2.8,3.6-4.2,5.4c-1.1,1.3-2.2,2.5-3.3,3.8c0.5,0.8,0.9,1.5,1.4,2.3
		c1,1.6,2,3.1,3,4.7c3.2-0.4,6.5-0.8,9.8-1.2c3.2,0.2,6.4,0.4,9.7,0.6c0.9-1.1,1.8-2.2,2.7-3.3c0-0.7,0-1.5,0-2.2
		c-0.7-1.5-1.3-3-2-4.5c-1.4-3.9-2.7-7.9-4.1-11.8c-0.5-6.1-1.1-12.1-1.6-18.2c-0.1-6.3-0.1-12.5-0.2-18.8c3.5,4.1,7,8.2,10.4,12.2
		c3,4.1,6.1,8.3,9.1,12.4c3.3,3.9,6.5,7.9,9.8,11.8c3.4,3.8,6.8,7.5,10.3,11.3c3.5,3.7,7,7.4,10.5,11c0.7,0.8,1.5,1.7,2.2,2.5
		c0.8-0.5,1.5-0.9,2.3-1.4c1.2-1.1,2.4-2.3,3.6-3.4c-0.2-4.9-0.4-9.8-0.5-14.7c-0.2-4.9-0.5-9.8-0.7-14.7c0.2-4.9,0.4-9.8,0.6-14.7
		c0-4.9-0.1-9.8-0.1-14.8c-0.4-4.9-0.8-9.8-1.2-14.8c2.3-3.2,4.6-6.3,6.8-9.5c0.3-0.7,0.7-1.5,1-2.2
		C497.6,496.9,496.2,495.7,494.9,494.4z"/>
	<path class="st3" d="M570.7,566.5c-3.7,2.7-7.4,5.4-11.1,8.1c-4.3,0.9-8.7,1.7-13,2.5c-5-1.8-10.1-3.7-15.1-5.5
		c-3.3-4.6-6.7-9.2-10-13.8c0,0-3-7-3.1-16.9c-0.1-9.9,2-17.6,2-17.6c3.1-4.8,6.3-9.6,9.4-14.3c5.3-1.4,10.5-2.8,15.8-4.3
		c4.3,1,8.6,1.9,12.9,2.8c3.3,3.1,6.6,6.2,9.9,9.3c0.6,0.1,1.3,0.1,1.9,0.2c1.6-3.8,3.2-7.6,4.7-11.4c-2.3-3.3-4.5-6.6-6.8-9.9
		c-3.8-0.5-7.6-1-11.5-1.4c-3.8-0.8-7.6-1.6-11.3-2.4c-4.6,1.2-9.2,2.3-13.9,3.4c-4.3,1.9-8.7,3.8-13,5.7c-3.5,3.5-6.9,7-10.4,10.4
		c-2.3,4.6-4.5,9.2-6.8,13.7c-0.5,5.2-1.1,10.5-1.6,15.7c0.9,5.2,1.9,10.3,2.8,15.5c2.1,4.8,4.1,9.5,6.2,14.3
		c3.7,3.4,7.4,6.7,11,10.1c4.3,2.4,8.5,4.7,12.8,7.1c4.8,0.6,9.6,1.2,14.3,1.8c4-0.4,8-0.9,12-1.3c3.9-1.1,7.8-2.2,11.7-3.3
		c2-5.1,3.9-10.2,5.9-15.3C574.5,568.7,572.6,567.6,570.7,566.5z"/>
	<path class="st3" d="M630.4,565.4c-3.6,2.3-7.2,4.6-10.8,6.9c-6.2,0.4-12.3,0.7-18.5,1c-0.2-4.8-0.4-9.6-0.6-14.5
		c0.2-4.6,0.5-9.2,0.7-13.8c4.8-0.6,9.6-1.1,14.4-1.7c3.1,2.1,6.2,4.2,9.3,6.3c0.6-0.3,1.3-0.6,1.9-0.9c0.8-3.9,1.5-7.9,2.3-11.8
		c-0.9-3.8-1.8-7.5-2.7-11.3c-0.6-0.1-1.3-0.2-1.9-0.3c-3,2.1-6,4.1-9,6.2c-5,0.2-10,0.4-15,0.6c-0.2-2.7-0.3-5.5-0.5-8.2
		c0.2-6,0.5-12,0.7-18c4.4-0.4,8.8-0.9,13.1-1.3c3.7,1.7,7.3,3.5,11,5.2c1,1.2,2.1,2.3,3.1,3.5c0.6,0,1.3,0,1.9,0
		c1.4-1.6,2.8-3.1,4.3-4.7c-0.3-4.9-0.7-9.8-1-14.7c-1.2-1.3-2.4-2.6-3.7-3.9c-0.7-0.1-1.4-0.2-2.1-0.2c-1,0.6-2.1,1.1-3.1,1.7
		c-0.1,0.5-0.1,1-0.2,1.5c-4.7-0.1-9.4-0.2-14.1-0.3c-4.7,0-9.4,0-14.1,0c-4.7,0.4-9.4,0.7-14.1,1.1c-1.3,1.4-2.6,2.9-3.9,4.3
		c0.1,0.7,0.2,1.5,0.3,2.2c1.5,1.6,3,3.2,4.5,4.8c0.7,5.6,1.3,11.1,2,16.7c0.1,5.8,0.1,11.7,0.2,17.5c0.2,5.7,0.3,11.4,0.5,17
		c0.3,5.7,0.6,11.3,0.9,17c-0.1,1.1-0.3,2.2-0.4,3.3c-0.9,0-1.9,0.1-2.8,0.1c0,2.6,0.1,5.2,0.1,7.8c5.7,0,11.5-0.1,17.2-0.2
		c5.7,0.2,11.4,0.4,17.2,0.5c5.4,0.4,10.8,0.7,16.1,1c1.1-5.8,2.2-11.7,3.4-17.5C634.8,567.2,632.6,566.3,630.4,565.4z"/>
	<path class="st3" d="M701.8,566.1c-3.5-4.1-7.1-8.2-10.6-12.3c-3.1-4.5-6.2-9-9.2-13.4c3.6-3.2,7.3-6.3,10.9-9.5
		c1.4-5.1,2.7-10.1,4.1-15.2c-1.4-5.5-2.8-11-4.3-16.5c-4.3-3.1-8.7-6.2-13-9.4c-5.2-0.2-10.4-0.4-15.7-0.6
		c-6.6,0.4-13.2,0.8-19.9,1.2c-1.4,1.4-2.9,2.9-4.3,4.3c0.2,0.7,0.4,1.4,0.7,2.2c1.3,1.2,2.5,2.4,3.8,3.6c0.6,0,1.2,0,1.8,0
		c0.2,1.9,0.5,3.7,0.7,5.6c0,5.2,0,10.3,0,15.5c0.4,5.1,0.8,10.3,1.1,15.4c0.2,5.5,0.4,11,0.6,16.5c-0.1,5.5-0.2,11.1-0.3,16.6
		c-0.5,1.3-0.9,2.6-1.4,3.8c-1,1.3-2.1,2.5-3.1,3.8c-0.4,0.8-0.7,1.5-1.1,2.3c1.4,1.2,2.9,2.4,4.3,3.7c3-0.4,6-0.7,9-1.1
		c3.2-0.1,6.3-0.2,9.5-0.4c1.4-1.3,2.7-2.6,4.1-3.9c-0.3-0.7-0.6-1.4-0.8-2.1c-1.1-1.4-2.3-2.8-3.4-4.2c-0.7-0.9-1.4-1.8-2.1-2.8
		c0.1-7.5,0.2-15.1,0.2-22.6c1.4,1.5,2.7,3,4.1,4.4c3.2,3.8,6.4,7.6,9.6,11.3c3.2,3.8,6.3,7.6,9.5,11.3c-0.2,0.4-0.3,0.8-0.5,1.2
		c-0.1,0.7-0.2,1.5-0.4,2.2c1.3,1.3,2.6,2.5,3.8,3.7c2.8-0.5,5.5-1,8.3-1.6c2.8,0.4,5.5,0.7,8.3,1.1c1-1.7,2.1-3.5,3.1-5.2
		c0.2-0.7,0.3-1.5,0.5-2.2C707,570.6,704.4,568.4,701.8,566.1z M664.5,534.2c-0.6-0.1-1.3-0.1-1.9-0.2c0.3-5.4,0.7-10.7,1-16.1
		c0.1-5.8,0.2-11.6,0.3-17.4c0.2,0.1,0.5,0.2,0.7,0.3c3.6,1.4,7.1,2.8,10.7,4.1c1.4,3.9,2.7,7.8,4.1,11.7c-1.1,4.3-2.2,8.5-3.2,12.8
		C672.2,531,668.3,532.6,664.5,534.2z"/>
	<path class="st3" d="M771.5,483.4c-3.3-0.7-6.6-1.4-10-2.1c-4.3,0.8-8.7,1.5-13,2.3c-4.4,0.2-8.7,0.3-13.1,0.5
		c-4.3,0.7-8.7,1.5-13,2.2c-4.3-0.3-8.7-0.6-13.1-0.9c-1.7,0.1-3.4,0.2-5.1,0.3c-2,3.6-3.9,7.2-5.9,10.9c1.7,4.1,3.3,8.3,5,12.4
		c0.6-0.1,1.3-0.3,1.9-0.4c0,0,3.1-8.4,11-9.2c7.9-0.8,11.4-1.2,11.4-1.2c-0.1,5.5-0.3,11-0.4,16.5c0.4,5.4,0.7,10.9,1.1,16.3
		c0.2,5.5,0.3,10.9,0.5,16.4c-0.1,5.5-0.2,11-0.4,16.5c0.2,0.5,0.3,1,0.5,1.5c-2.2,2.1-4.3,4.2-6.5,6.3c-0.2,0.7-0.3,1.5-0.5,2.2
		c1.2,1,2.4,1.9,3.6,2.9c3.8-0.4,7.6-0.7,11.5-1.1c3.8-0.3,7.6-0.6,11.5-0.9c1.2-1.3,2.4-2.6,3.6-3.9c0.2-0.8,0.5-1.5,0.7-2.3
		c-2.6-1.5-5.2-3-7.8-4.6c-0.3-0.6-0.5-1.2-0.8-1.8c0.4-5.5,0.7-11,1.1-16.5c0-5.5,0-10.9-0.1-16.4c-0.2-5.4-0.3-10.9-0.5-16.3
		c0-5.3-0.1-10.6-0.1-15.9c3.6-0.3,7.1-0.6,10.6-0.9c3.7,2.1,7.5,4.1,11.2,6.1c0.6,0.1,1.3,0.3,1.9,0.4
		C769.3,496.4,770.4,489.9,771.5,483.4z"/>
	<path class="st3" d="M837.4,545c-3.3,2.7-6.6,5.4-9.9,8c-4.1,1.2-8.3,2.3-12.4,3.4c-2.6,0.3-5.2,0.7-7.8,1
		c2.8-3.7,5.5-7.5,8.3-11.2c3.2-3.5,6.5-7,9.7-10.6c2.5-4.1,5-8.2,7.5-12.3c2-4.4,3.9-8.7,5.9-13c0,0,3.6-4.6,3.6-13.9
		c0-9.3-3.9-13.1-3.9-13.1c-3.2-2.9-6.3-5.7-9.5-8.6c-4.3-0.5-8.6-1.1-12.9-1.7c-4.5,1.5-9,3-13.5,4.5c-3.1,3.8-6.2,7.7-9.2,11.5
		c-1.6,4.6-3.2,9.3-4.8,14c-0.4,0.6-0.8,1.2-1.1,1.8c3.5,1.2,7,2.3,10.5,3.5c3.5,0.7,7.1,1.5,10.6,2.2c1.2-1.9,2.4-3.9,3.5-5.8
		c-0.5-0.4-1-0.8-1.5-1.1c-1.5-2.3-3-4.7-4.5-7c0,0-1.2-10.1,8.3-11.4c9.5-1.3,10.7,13.4,10.7,13.4c-0.8,5.1-1.6,10.2-2.4,15.3
		c-2.7,4.5-5.4,9-8.1,13.5c-2.7,4.6-5.3,9.1-8,13.7c-3.6,3.8-7.2,7.6-10.7,11.5c-3,4.3-6,8.7-9,13c-0.2,0.1-0.3,0.2-0.5,0.2
		c0,2.5,0,5,0,7.5c4.3-0.6,8.7-1.3,13-1.9c4.3-0.5,8.6-1,12.9-1.5c4.3-0.7,8.6-1.4,12.9-2.1c4.5-0.4,8.9-0.8,13.4-1.2
		c1.9-6.8,3.9-13.6,5.8-20.4c-2-0.6-4-1.2-6.1-1.8C838,544.6,837.7,544.8,837.4,545z"/>
	<path class="st3" d="M874.5,466.7c-4.6,2-9.2,4.1-13.8,6.1c-2.8,4.6-5.6,9.2-8.4,13.8c-1.4,5.2-2.8,10.3-4.2,15.5
		c-0.8,5.3-1.5,10.7-2.3,16c0.8,5.2,1.5,10.3,2.3,15.5c1.6,4.8,3.2,9.6,4.9,14.4c3.1,3.7,6.3,7.4,9.4,11c4.7,1.1,9.3,2.2,14,3.3
		c4.4-2.9,8.7-5.7,13.1-8.6c2.9-4.5,5.8-8.9,8.7-13.4c1.9-5.1,3.8-10.2,5.7-15.3c0.3-5.3,0.7-10.6,1-15.9c-0.9-5-1.9-10-2.8-15
		c-1.2-4.9-2.5-9.8-3.7-14.7c-3.3-3.5-6.5-7.1-9.8-10.7C883.8,468.1,879.1,467.4,874.5,466.7z M876,549c-7.9,1.2-8.2-8.6-8.2-8.6
		c-1-4.2-2-8.5-3.1-12.7c-0.5-4.5-1.1-9-1.6-13.5c0.4-4.3,0.8-8.7,1.2-13c0.6-4.3,1.2-8.6,1.8-13c2.9-3.2,5.7-6.4,8.6-9.6
		c3.2,2.4,6.3,4.8,9.5,7.1c0.6,4.3,1.3,8.6,1.9,13c0.3,4.4,0.5,8.7,0.8,13.1c0.1,4.4,0.2,8.8,0.2,13.2c-1.1,4.4-2.2,8.8-3.3,13.2
		C883.9,538.3,883.9,547.8,876,549z"/>
	<path class="st3" d="M954.5,525.4c-3.3,2.7-6.6,5.4-9.9,8.1c-4.1,1.4-8.2,2.8-12.3,4.2c-2.8,0.5-5.7,1-8.5,1.6
		c3.1-3.8,6.1-7.6,9.2-11.3c2.9-3.9,5.8-7.7,8.6-11.5c2.8-3.9,5.7-7.8,8.5-11.6c2.3-4.3,4.5-8.5,6.8-12.8c0.7-4.6,1.5-9.2,2.2-13.8
		c-1.3-4.1-2.6-8.2-3.9-12.3c0,0-1.9-4.2-9.2-8c-7.2-3.8-12.8-1.6-12.8-1.6c-4.5,1.8-8.9,3.6-13.4,5.4c-3.5,3.7-6.9,7.3-10.4,11
		c-1.5,4.8-3.1,9.6-4.6,14.4c0.1,0.4,0.1,0.8,0.2,1.1c3.4,1.2,6.7,2.4,10.1,3.6c3.6,0.8,7.1,1.5,10.7,2.3c0.8-2.2,1.7-4.4,2.5-6.7
		c-0.2-0.2-0.4-0.5-0.7-0.7c-1.7-2.2-3.4-4.4-5.1-6.6c3-3.9,6-7.8,9-11.8c3.4,4.3,6.8,8.5,10.2,12.8c-1,4.8-2,9.7-3,14.5
		c-2.2,4.7-4.5,9.4-6.7,14.1c-3.1,4.2-6.3,8.4-9.4,12.7c-2.9,4.4-5.9,8.8-8.8,13.1c-3.2,4.2-6.5,8.4-9.7,12.6c0,0,0.1,0.1,0.1,0.1
		c-0.3,2.6-0.5,5.1-0.8,7.7c4.4-0.7,8.7-1.4,13.1-2.2c4.3-1,8.6-2,12.8-3.1c4.3-0.6,8.6-1.1,12.9-1.7c4.1-1.2,8.2-2.4,12.4-3.7
		c2.4-6.4,4.8-12.8,7.2-19.2c-2.2-0.4-4.3-0.8-6.5-1.3C955.1,525,954.8,525.2,954.5,525.4z"/>
	<path class="st3" d="M1020.9,526.1c-4.1,0.7-8.2,1.4-12.3,2.1c-0.2-4.2-0.3-8.4-0.5-12.6c0.3-1.3,0.6-2.6,0.9-3.9
		c0.6-0.1,1.2-0.3,1.8-0.4c2.7-0.8,5.4-1.5,8-2.3c-0.1-2.2-0.1-4.4-0.2-6.7c-2.6,0.5-5.3,1.1-7.9,1.6c-0.5-0.3-1-0.6-1.5-0.9
		c-0.2-5.2-0.5-10.4-0.7-15.6c-0.4-5.2-0.8-10.3-1.2-15.5c0.3-4.2,0.6-8.4,0.9-12.6c-0.1-4.1-0.2-8.2-0.3-12.4
		c-0.8-1.1-1.5-2.2-2.3-3.4c-1.2,0.2-2.4,0.4-3.5,0.7c-1.3,1.3-2.5,2.7-3.8,4c-2.7,4.5-5.4,9-8,13.5c-2.6,4.5-5.3,9-7.9,13.6
		c-2.6,4.6-5.2,9.1-7.8,13.7c-2.3,4.7-4.6,9.4-7,14.2c-2.5,4.6-5.1,9.2-7.6,13.9c0.3,1.4,0.7,2.8,1,4.2c4.7-1,9.4-2.1,14.1-3.2
		c4.7-0.9,9.4-1.7,14.1-2.6c0.9,0.2,1.8,0.4,2.7,0.6c-0.1,1-0.2,1.9-0.3,2.9c-0.3,4.5-0.6,8.9-0.9,13.4c-3.6,0.8-7.2,1.5-10.8,2.2
		c0.2,2.5,0.3,5.1,0.5,7.6c2.1-0.5,4.1-1,6.2-1.5c0-0.2,0-0.4,0-0.6c3.7-0.4,7.5-0.8,11.2-1.2c0.9-0.3,1.9-0.7,2.8-1
		c0.9-0.1,1.9-0.1,2.8-0.2c3.7-1,7.4-2,11.1-3.1c0-0.1,0-0.2,0-0.3c2-0.5,4.1-1,6.1-1.5C1020.8,530.7,1020.9,528.4,1020.9,526.1z
		 M989,507.7c-5,1-10,2.1-15,3.1c-1-0.8-2.1-1.5-3.1-2.3c2.5-3.7,4.9-7.4,7.4-11.1c2.2-3.8,4.5-7.6,6.7-11.4
		c2.1-3.9,4.1-7.8,6.2-11.7c0.2,0.2,0.4,0.5,0.6,0.7c0.1,5.1,0.1,10.3,0.2,15.4c-0.4,5.2-0.8,10.4-1.2,15.7
		C990.2,506.6,989.6,507.2,989,507.7z"/>
	<path class="st4" d="M14.9,92c-3,0-4.1-2.7-4.9-5.7c-1-3.7,2.3-7.6,6-8.6c60.9-16.5,132.2-16.4,135.3-16.4c0,0,0,0,0,0
		c3.8,0,4.6,3.1,4.6,6.9c0,3.8-0.8,6.9-4.6,6.9c-0.7,0-75.6,0.7-134.7,16.7C16.1,91.9,15.4,92,14.9,92z"/>
	<path class="st4" d="M39.4,237.4c-3.8,0-7.6-0.6-7.6-4.4V58.6c0-3.8,3.1-4.5,6.9-4.5s6.9,0.6,6.9,4.5l1.3,174.5
		C46.9,236.9,43.2,237.4,39.4,237.4z"/>
	<path class="st4" d="M77.6,584c-3.8,0-6.8-0.2-6.9-3.9c-1.7-89.9-0.5-355.4-3.1-357.7c-2.6-2.3-28.9,0-28.9,0
		c-3.8,0-6.9-3.1-6.9-6.9c0-3.8,3.1-6.9,6.9-6.9c0,0,30.5,0.1,36.7-0.9s6.9,3.1,6.9,6.9c0,2.6-2.4,349.3,2.1,365.3
		c1.4,5.1-3,4.1-6.8,4.2C77.7,584,77.7,584,77.6,584z"/>
	<path class="st4" d="M1057.2,572.3c-0.1,0-0.2,0-0.2,0c-3.8-0.1-6.8-1-6.7-4.8l3.6-101.3l-5.8-5.6c-1.7-1.6-2.4-4.1-2-6.4l2.7-13
		l-7.9-2.5c-2.5-0.8-4.3-2.8-4.7-5.4l-3.7-21c-0.4-2.3,0.4-4.7,2.1-6.3c0.2-0.2,31.5-32.9,19.5-160.8l-24.1-53.7
		c-1.6-3.5,0-7.6,3.5-9.1c3.5-1.6,7.6,0,9.1,3.5l24.6,54.8c0.3,0.7,0.5,1.4,0.6,2.2c5.5,57.1,3.4,103.3-6.2,137.2
		c-5.2,18.6-11.4,28.6-14.9,33.1l2.4,13.6l9.9,3.1c3.4,1.1,5.4,4.5,4.7,8l-3.2,15.4l5.3,5.1c1.4,1.4,2.2,3.2,2.1,5.2l-3.7,104.4
		C1064,571.7,1060.9,572.3,1057.2,572.3z"/>
	<path class="st4" d="M1035.3,205.5c-0.2,0-0.5,0-0.7,0c-3.8-0.4-6.5-3.8-6.1-7.6l7.7-73.7c-0.2-53.2-50-71.5-52.1-72.2
		c-3.6-1.3-3.7-5.2-2.5-8.8c1.3-3.6,3.4-5.5,7-4.2c0.6,0.2,61.3,22.2,61.3,85.6c0,0.2,0,0.5,0,0.7l-7.7,74.1
		C1041.8,202.9,1038.8,205.5,1035.3,205.5z M1043,124.5L1043,124.5L1043,124.5z"/>
</g>
</svg>
