<?xml version="1.0" encoding="UTF-8"?>
<svg id="Layer_2" data-name="Layer 2" xmlns="http://www.w3.org/2000/svg" viewBox="0 0 434.44 434.44">
  <g id="Layer_1-2" data-name="Layer 1">
    <rect width="434.44" height="434.44" rx="8.67" ry="8.67" fill="#9c96ff" stroke-width="0"/>
    <g>
      <path d="M23.84,24.37h4.56l5.36,13.56h.08l5.35-13.56h4.58v18.87h-3.53v-12.75h-1.82l3.95-5.6-7.32,18.35h-2.48l-7.32-18.35,3.95,5.6h-1.83v12.75h-3.52v-18.87Z" fill="#fff" stroke-width="0"/>
      <path d="M49.27,42.64c-1.03-.59-1.82-1.43-2.38-2.52-.56-1.09-.84-2.38-.84-3.87h0c0-1.5.28-2.8.84-3.89.56-1.09,1.34-1.94,2.35-2.54s2.19-.9,3.56-.9,2.55.29,3.55.87c1,.58,1.77,1.4,2.31,2.45.54,1.06.82,2.29.82,3.7v1.19h-11.55v-2.42h9.74l-1.82,2.26v-1.48c0-.82-.13-1.51-.38-2.06s-.6-.97-1.05-1.25c-.45-.28-.97-.42-1.56-.42s-1.12.14-1.58.43c-.46.29-.82.71-1.07,1.26-.26.55-.39,1.23-.39,2.03v1.49c0,.77.13,1.43.39,1.97.26.55.63.97,1.11,1.26s1.05.44,1.71.44c.52,0,.98-.08,1.36-.25.38-.17.7-.37.94-.63.24-.25.41-.51.5-.77l.03-.08h3.5l-.04.14c-.11.51-.31,1.03-.62,1.56-.3.52-.72,1-1.24,1.44-.52.44-1.15.78-1.9,1.05-.75.26-1.62.39-2.62.39-1.43,0-2.66-.29-3.69-.88Z" fill="#fff" stroke-width="0"/>
      <path d="M61.54,24.37h3.82v18.87h-3.82v-18.87Z" fill="#fff" stroke-width="0"/>
      <path d="M70.08,42.65c-.85-.58-1.51-1.42-1.97-2.51s-.69-2.39-.69-3.91h0c0-1.54.23-2.84.69-3.93s1.12-1.92,1.97-2.5c.85-.58,1.87-.87,3.03-.87.67,0,1.29.11,1.84.33.56.22,1.05.53,1.47.93.42.41.76.89,1.01,1.46h.08v-7.28h3.82v18.87h-3.82v-2.39h-.08c-.25.56-.59,1.04-1.01,1.44-.42.4-.91.71-1.46.92s-1.17.32-1.84.32c-1.18,0-2.19-.29-3.05-.88ZM76.04,39.86c.47-.34.83-.81,1.09-1.43s.39-1.35.39-2.2h0c0-.85-.13-1.58-.39-2.2-.26-.62-.62-1.1-1.09-1.43-.47-.34-1.01-.5-1.63-.5s-1.19.17-1.65.5c-.46.33-.82.8-1.07,1.42-.25.61-.38,1.35-.38,2.2h0c0,.86.12,1.59.37,2.21.25.62.61,1.1,1.07,1.43.47.34,1.02.5,1.65.5s1.16-.17,1.63-.5Z" fill="#fff" stroke-width="0"/>
      <path d="M87.48,47.86c-.21,0-.36-.02-.48-.04v-2.88c.07,0,.15.02.23.02.08,0,.17,0,.25,0,.63,0,1.08-.12,1.35-.35.27-.23.41-.63.41-1.2v-14.2h3.83v14.31c0,1.42-.42,2.5-1.28,3.24-.85.74-2.1,1.1-3.75,1.1-.17,0-.36,0-.57-.01ZM89.7,26.84c-.4-.4-.59-.87-.59-1.41s.2-1.02.59-1.41c.4-.39.88-.58,1.46-.58s1.06.19,1.45.58c.39.39.59.86.59,1.41s-.2,1.01-.59,1.41c-.39.4-.88.59-1.45.59s-1.06-.2-1.46-.59Z" fill="#fff" stroke-width="0"/>
      <path d="M98.31,42.64c-1.03-.59-1.82-1.43-2.38-2.52-.56-1.09-.84-2.38-.84-3.87h0c0-1.5.28-2.8.84-3.89.56-1.09,1.34-1.94,2.35-2.54s2.19-.9,3.56-.9,2.55.29,3.55.87c1,.58,1.77,1.4,2.31,2.45.54,1.06.82,2.29.82,3.7v1.19h-11.55v-2.42h9.74l-1.82,2.26v-1.48c0-.82-.13-1.51-.38-2.06s-.6-.97-1.05-1.25c-.45-.28-.97-.42-1.56-.42s-1.12.14-1.58.43c-.46.29-.82.71-1.07,1.26-.26.55-.39,1.23-.39,2.03v1.49c0,.77.13,1.43.39,1.97.26.55.63.97,1.11,1.26s1.05.44,1.71.44c.52,0,.98-.08,1.36-.25.38-.17.7-.37.94-.63.24-.25.41-.51.5-.77l.03-.08h3.5l-.04.14c-.11.51-.31,1.03-.62,1.56-.3.52-.72,1-1.24,1.44-.52.44-1.15.78-1.9,1.05-.75.26-1.62.39-2.62.39-1.43,0-2.66-.29-3.69-.88Z" fill="#fff" stroke-width="0"/>
      <path d="M117.49,42.92c-.71-.36-1.26-.86-1.66-1.5s-.59-1.37-.59-2.19v-.03c0-.85.21-1.58.64-2.19.43-.61,1.05-1.08,1.86-1.43s1.8-.56,2.96-.64l5.47-.34v2.38l-4.89.33c-.73.04-1.29.21-1.67.51s-.58.69-.58,1.19v.03c0,.51.2.92.59,1.21.39.29.92.44,1.58.44.57,0,1.07-.11,1.52-.33.45-.22.8-.53,1.06-.92.26-.39.39-.82.39-1.3v-4.26c0-.62-.2-1.11-.59-1.46-.39-.36-.96-.54-1.71-.54s-1.28.15-1.7.44c-.42.29-.68.67-.77,1.12l-.03.12h-3.5v-.16c.09-.86.38-1.63.88-2.3.5-.67,1.2-1.2,2.09-1.58s1.96-.57,3.18-.57,2.26.19,3.15.58c.89.39,1.58.94,2.07,1.64.49.71.74,1.53.74,2.47v9.61h-3.82v-2.08h-.08c-.27.47-.61.88-1.02,1.23-.41.35-.88.61-1.41.8s-1.1.27-1.71.27c-.93,0-1.75-.18-2.46-.54Z" fill="#fff" stroke-width="0"/>
      <path d="M132.15,42.92c-.71-.36-1.26-.86-1.66-1.5s-.59-1.37-.59-2.19v-.03c0-.85.21-1.58.64-2.19.43-.61,1.05-1.08,1.86-1.43s1.8-.56,2.96-.64l5.47-.34v2.38l-4.89.33c-.73.04-1.29.21-1.67.51s-.58.69-.58,1.19v.03c0,.51.2.92.59,1.21.39.29.92.44,1.58.44.57,0,1.07-.11,1.52-.33.45-.22.8-.53,1.06-.92.26-.39.39-.82.39-1.3v-4.26c0-.62-.2-1.11-.59-1.46-.39-.36-.96-.54-1.71-.54s-1.28.15-1.7.44c-.42.29-.68.67-.77,1.12l-.03.12h-3.5v-.16c.09-.86.38-1.63.88-2.3.5-.67,1.2-1.2,2.09-1.58s1.96-.57,3.18-.57,2.26.19,3.15.58c.89.39,1.58.94,2.07,1.64.49.71.74,1.53.74,2.47v9.61h-3.82v-2.08h-.08c-.27.47-.61.88-1.02,1.23-.41.35-.88.61-1.41.8s-1.1.27-1.71.27c-.93,0-1.75-.18-2.46-.54Z" fill="#fff" stroke-width="0"/>
      <path d="M145.1,29.22h3.82v2.3h.08c.37-.8.91-1.43,1.62-1.9.71-.46,1.6-.69,2.65-.69,1.54,0,2.74.46,3.58,1.39.84.93,1.26,2.22,1.26,3.86v9.05h-3.82v-8.25c0-.92-.22-1.63-.65-2.13-.43-.51-1.08-.76-1.93-.76-.57,0-1.06.13-1.48.39-.42.26-.74.62-.97,1.09-.23.46-.35,1-.35,1.61v8.06h-3.82v-14.02Z" fill="#fff" stroke-width="0"/>
      <path d="M164.66,29.22h4.09l2.93,10.64h.08l2.89-10.64h3.99l-4.81,14.02h-4.32l-4.85-14.02Z" fill="#fff" stroke-width="0"/>
      <path d="M182.23,42.66c-1.04-.58-1.84-1.42-2.41-2.51-.57-1.09-.86-2.4-.86-3.92v-.03c0-1.51.29-2.8.87-3.89.58-1.09,1.39-1.92,2.43-2.5,1.04-.58,2.25-.88,3.65-.88s2.63.29,3.67.87c1.04.58,1.85,1.41,2.43,2.5.58,1.09.86,2.39.86,3.9v.03c0,1.53-.29,2.83-.86,3.92s-1.38,1.92-2.41,2.5c-1.04.58-2.26.87-3.67.87s-2.65-.29-3.69-.87ZM187.54,40.03c.45-.34.8-.82,1.05-1.46.25-.64.37-1.42.37-2.33v-.03c0-.9-.13-1.67-.38-2.31-.25-.64-.61-1.13-1.07-1.46-.46-.34-1-.5-1.61-.5s-1.14.17-1.6.51c-.46.34-.81.83-1.07,1.46s-.38,1.4-.38,2.3v.03c0,.92.12,1.69.37,2.33.25.64.6,1.13,1.07,1.46.46.34,1.01.5,1.63.5s1.16-.17,1.61-.5Z" fill="#fff" stroke-width="0"/>
      <path d="M197.57,42.66c-1.04-.58-1.84-1.42-2.41-2.51-.57-1.09-.86-2.4-.86-3.92v-.03c0-1.51.29-2.8.87-3.89.58-1.09,1.39-1.92,2.43-2.5,1.04-.58,2.25-.88,3.65-.88s2.63.29,3.67.87c1.04.58,1.85,1.41,2.43,2.5.57,1.09.86,2.39.86,3.9v.03c0,1.53-.29,2.83-.86,3.92-.57,1.09-1.38,1.92-2.41,2.5-1.04.58-2.26.87-3.67.87s-2.65-.29-3.69-.87ZM202.88,40.03c.45-.34.8-.82,1.05-1.46.25-.64.37-1.42.37-2.33v-.03c0-.9-.13-1.67-.38-2.31-.25-.64-.61-1.13-1.07-1.46-.46-.34-1-.5-1.61-.5s-1.14.17-1.6.51c-.46.34-.81.83-1.07,1.46s-.38,1.4-.38,2.3v.03c0,.92.12,1.69.37,2.33.25.64.6,1.13,1.07,1.46.46.34,1.01.5,1.63.5s1.16-.17,1.61-.5Z" fill="#fff" stroke-width="0"/>
      <path d="M210.17,29.22h3.82v2.45h.08c.21-.86.59-1.53,1.14-2.01.55-.48,1.23-.72,2.05-.72.21,0,.41.01.6.04.19.03.36.06.5.1v3.37c-.16-.07-.36-.12-.6-.16-.24-.04-.51-.06-.79-.06-.63,0-1.16.12-1.61.37-.45.24-.79.6-1.02,1.07-.24.47-.35,1.05-.35,1.73v7.85h-3.82v-14.02Z" fill="#fff" stroke-width="0"/>
      <path d="M227.35,42.89c-.72-.42-1.27-1.03-1.65-1.81s-.56-1.72-.56-2.81v-9.05h3.82v8.25c0,.92.21,1.63.65,2.13.43.51,1.07.76,1.93.76.43,0,.81-.07,1.16-.22.35-.15.64-.36.88-.63.24-.27.43-.6.56-.98.13-.38.2-.8.2-1.25v-8.06h3.82v14.02h-3.82v-2.31h-.09c-.24.53-.55.99-.95,1.39-.4.39-.87.69-1.43.9-.55.21-1.19.31-1.9.31-1.02,0-1.89-.21-2.62-.63Z" fill="#fff" stroke-width="0"/>
      <path d="M240.63,29.22h3.82v2.45h.09c.25-.57.59-1.05,1-1.46s.9-.72,1.45-.94c.55-.22,1.16-.33,1.82-.33,1.19,0,2.21.29,3.06.87.85.58,1.51,1.41,1.97,2.5.46,1.09.69,2.39.69,3.91h0c0,1.53-.23,2.83-.69,3.92-.46,1.09-1.11,1.93-1.96,2.51s-1.86.88-3.03.88c-.66,0-1.28-.11-1.84-.33s-1.06-.53-1.48-.92c-.42-.4-.76-.87-1.02-1.43h-.08v6.97h-3.82v-18.59ZM249.21,39.86c.46-.34.82-.81,1.07-1.43s.37-1.35.37-2.2h0c0-.87-.13-1.6-.38-2.22-.25-.61-.61-1.09-1.07-1.42-.46-.33-1.01-.5-1.63-.5s-1.16.17-1.63.5c-.47.34-.84.81-1.1,1.43-.26.62-.39,1.35-.39,2.2h0c0,.85.13,1.58.4,2.2s.63,1.1,1.1,1.43c.47.34,1.01.5,1.63.5s1.19-.17,1.65-.5Z" fill="#fff" stroke-width="0"/>
      <path d="M258.67,42.65c-.86-.58-1.51-1.42-1.97-2.51-.46-1.09-.69-2.39-.69-3.91h0c0-1.54.23-2.84.69-3.93.46-1.09,1.12-1.92,1.97-2.5.85-.58,1.87-.87,3.03-.87.67,0,1.29.11,1.84.33s1.05.53,1.47.93c.42.41.76.89,1.01,1.46h.08v-7.28h3.82v18.87h-3.82v-2.39h-.08c-.25.56-.59,1.04-1.01,1.44-.42.4-.91.71-1.46.92-.56.21-1.17.32-1.84.32-1.18,0-2.19-.29-3.05-.88ZM264.63,39.86c.47-.34.83-.81,1.09-1.43.26-.62.38-1.35.38-2.2h0c0-.85-.13-1.58-.39-2.2-.26-.62-.62-1.1-1.09-1.43-.46-.34-1.01-.5-1.63-.5s-1.19.17-1.65.5c-.46.33-.82.8-1.07,1.42-.25.61-.38,1.35-.38,2.2h0c0,.86.12,1.59.37,2.21s.61,1.1,1.07,1.43c.47.34,1.02.5,1.65.5s1.16-.17,1.63-.5Z" fill="#fff" stroke-width="0"/>
      <path d="M274.18,42.92c-.71-.36-1.27-.86-1.66-1.5s-.59-1.37-.59-2.19v-.03c0-.85.21-1.58.64-2.19.43-.61,1.05-1.08,1.86-1.43.81-.35,1.8-.56,2.96-.64l5.47-.34v2.38l-4.89.33c-.73.04-1.29.21-1.67.51-.38.3-.58.69-.58,1.19v.03c0,.51.2.92.59,1.21.39.29.92.44,1.58.44.57,0,1.07-.11,1.52-.33.45-.22.8-.53,1.06-.92.26-.39.38-.82.38-1.3v-4.26c0-.62-.2-1.11-.59-1.46s-.96-.54-1.71-.54-1.28.15-1.7.44c-.42.29-.68.67-.77,1.12l-.03.12h-3.5v-.16c.09-.86.38-1.63.88-2.3.5-.67,1.2-1.2,2.09-1.58.89-.38,1.96-.57,3.18-.57s2.26.19,3.15.58c.89.39,1.58.94,2.07,1.64s.74,1.53.74,2.47v9.61h-3.82v-2.08h-.08c-.27.47-.61.88-1.02,1.23-.41.35-.88.61-1.41.8s-1.1.27-1.71.27c-.93,0-1.76-.18-2.46-.54Z" fill="#fff" stroke-width="0"/>
      <path d="M289.25,42.55c-.75-.65-1.12-1.73-1.12-3.23v-7.22h-1.95v-2.88h1.95v-3.43h3.86v3.43h2.56v2.88h-2.56v6.8c0,.65.14,1.11.44,1.37.29.26.73.39,1.3.39.17,0,.33,0,.46-.02.13-.01.25-.03.37-.05v2.8c-.21.03-.47.07-.78.1-.31.03-.67.05-1.07.05-1.55,0-2.7-.33-3.45-.98Z" fill="#fff" stroke-width="0"/>
      <path d="M299.15,42.64c-1.03-.59-1.82-1.43-2.38-2.52-.56-1.09-.84-2.38-.84-3.87h0c0-1.5.28-2.8.84-3.89.56-1.09,1.34-1.94,2.35-2.54,1.01-.6,2.19-.9,3.56-.9s2.55.29,3.55.87c1,.58,1.77,1.4,2.31,2.45.54,1.06.82,2.29.82,3.7v1.19h-11.54v-2.42h9.74l-1.82,2.26v-1.48c0-.82-.13-1.51-.38-2.06-.25-.55-.6-.97-1.05-1.25-.45-.28-.97-.42-1.56-.42s-1.12.14-1.58.43-.82.71-1.07,1.26c-.26.55-.39,1.23-.39,2.03v1.49c0,.77.13,1.43.39,1.97.26.55.62.97,1.11,1.26.48.29,1.05.44,1.71.44.52,0,.98-.08,1.36-.25.38-.17.7-.37.94-.63s.41-.51.5-.77l.03-.08h3.5l-.04.14c-.11.51-.31,1.03-.62,1.56-.3.52-.72,1-1.23,1.44-.52.44-1.15.78-1.9,1.05-.75.26-1.62.39-2.62.39-1.43,0-2.66-.29-3.69-.88Z" fill="#fff" stroke-width="0"/>
      <path d="M313.79,42.97c-.91-.38-1.62-.9-2.12-1.56-.51-.67-.81-1.44-.92-2.32v-.12s3.71,0,3.71,0l.03.12c.12.55.4.98.82,1.28.43.31,1.02.46,1.78.46.49,0,.9-.06,1.24-.18s.6-.29.79-.5c.19-.22.28-.48.28-.78h0c0-.39-.13-.69-.4-.92-.27-.23-.75-.41-1.44-.56l-2.38-.51c-.91-.19-1.67-.47-2.28-.83-.61-.36-1.07-.81-1.37-1.35s-.46-1.15-.46-1.85h0c0-.91.24-1.69.72-2.34s1.17-1.16,2.05-1.52,1.92-.54,3.11-.54,2.29.2,3.16.6c.87.4,1.54.93,2,1.6.46.67.71,1.42.74,2.24v.13h-3.52v-.1c-.07-.5-.31-.91-.71-1.25s-.96-.5-1.67-.5c-.44,0-.81.06-1.14.18s-.57.29-.75.51c-.17.22-.26.48-.26.78h0c0,.25.06.46.18.65s.31.35.59.49.65.26,1.12.37l2.38.51c1.47.31,2.53.76,3.17,1.37.64.61.96,1.43.96,2.46h0c0,.93-.26,1.73-.78,2.41-.52.68-1.25,1.21-2.16,1.59-.92.38-1.98.57-3.19.57-1.29,0-2.39-.19-3.3-.56Z" fill="#fff" stroke-width="0"/>
    </g>
    <path d="M270.25,172.89c-4.5-5.33-9.82-9.98-15.77-13.75-10.98-6.95-23.68-10.63-36.73-10.63-19.52,0-37.79,8.08-51,22.67-11.01,12.15-17.3,27.98-17.69,44.37-.47,20.1,7.61,39.01,22.55,52.59,11.29,10.26,25.79,16.5,41,17.6s31.39-3.09,44.32-12.08c10.36-7.21,18.46-16.99,23.56-28.42.73-1.63-.07-3.55-1.74-4.2l-9.78-3.82c-1.56-.61-3.31.12-4,1.64-8.54,18.7-27.06,30.54-47.88,30.29-27.39-.33-50.1-22.35-51.24-49.72-1.24-29.64,22.52-54.15,51.89-54.15,14.5,0,27.9,5.89,37.53,15.98l-13.51,7.55c-2.11,1.18-2.15,4.2-.07,5.44l19.13,11.4,19.13,11.4c2.08,1.24,4.72-.24,4.75-2.66l.3-22.27.31-22.27c.03-2.42-2.56-3.96-4.67-2.78l-10.4,5.81Z" fill="#fff" stroke-width="0"/>
  </g>
</svg>