<?xml version="1.0" encoding="UTF-8"?>
<svg id="Layer_2" data-name="Layer 2" xmlns="http://www.w3.org/2000/svg" viewBox="0 0 434.44 434.44">
  <g id="Layer_1-2" data-name="Layer 1">
    <g>
      <rect width="434.44" height="434.44" rx="8.67" ry="8.67" fill="#9c96ff" stroke-width="0"/>
      <g>
        <path d="M26.59,41.98c-1.11-.44-1.99-1.07-2.63-1.9s-1-1.82-1.07-2.98v-.21s3.71,0,3.71,0l.03.14c.09.49.31.91.66,1.26.35.35.81.63,1.38.82s1.21.29,1.92.29,1.36-.1,1.89-.29c.53-.2.93-.48,1.22-.84.29-.36.43-.78.43-1.26h0c0-.65-.25-1.15-.75-1.51-.5-.36-1.34-.66-2.5-.9l-1.99-.41c-1.86-.37-3.26-1-4.2-1.89-.95-.89-1.42-2.05-1.42-3.47h0c0-1.16.32-2.17.94-3.02s1.47-1.52,2.55-2,2.32-.72,3.71-.72,2.71.23,3.77.69c1.06.46,1.88,1.1,2.48,1.92.59.82.92,1.79.98,2.9v.24s-3.71,0-3.71,0l-.03-.16c-.06-.5-.25-.92-.56-1.27s-.71-.62-1.21-.81c-.5-.19-1.07-.29-1.73-.29s-1.25.1-1.74.29c-.49.19-.86.46-1.12.8-.26.34-.39.74-.39,1.18h0c0,.61.25,1.1.76,1.46s1.3.65,2.38.87l2,.41c1.32.26,2.4.62,3.24,1.09s1.47,1.04,1.88,1.75c.41.7.61,1.55.61,2.53h0c0,1.23-.3,2.27-.91,3.16-.61.88-1.48,1.57-2.62,2.05s-2.5.73-4.09.73c-1.49,0-2.79-.22-3.9-.66Z" fill="#fff" stroke-width="0"/>
        <path d="M41.89,41.99c-.71-.36-1.26-.86-1.66-1.5s-.59-1.37-.59-2.19v-.03c0-.85.21-1.58.64-2.19.43-.61,1.05-1.08,1.86-1.43s1.8-.56,2.96-.64l5.47-.34v2.38l-4.89.33c-.73.04-1.29.21-1.67.51s-.58.69-.58,1.19v.03c0,.51.2.92.59,1.21.39.29.92.44,1.58.44.57,0,1.07-.11,1.52-.33.45-.22.8-.53,1.06-.92.26-.39.39-.82.39-1.3v-4.26c0-.62-.2-1.11-.59-1.46-.39-.36-.96-.54-1.71-.54s-1.28.15-1.7.44c-.42.29-.68.67-.77,1.12l-.03.12h-3.5v-.16c.09-.86.38-1.63.88-2.3.5-.67,1.2-1.2,2.09-1.58s1.96-.57,3.18-.57,2.26.19,3.15.58c.89.39,1.58.94,2.07,1.64.49.71.74,1.53.74,2.47v9.61h-3.82v-2.08h-.08c-.27.47-.61.88-1.02,1.23-.41.35-.88.61-1.41.8s-1.1.27-1.71.27c-.93,0-1.75-.18-2.46-.54Z" fill="#fff" stroke-width="0"/>
        <path d="M53.61,28.29h4.09l2.93,10.64h.08l2.89-10.64h3.99l-4.81,14.02h-4.32l-4.85-14.02Z" fill="#fff" stroke-width="0"/>
        <path d="M71.13,41.72c-1.03-.59-1.82-1.43-2.38-2.52-.56-1.09-.84-2.38-.84-3.87h0c0-1.5.28-2.8.84-3.89.56-1.09,1.34-1.94,2.35-2.54s2.19-.9,3.56-.9,2.55.29,3.55.87c1,.58,1.77,1.4,2.31,2.45.54,1.06.82,2.29.82,3.7v1.19h-11.55v-2.42h9.74l-1.82,2.26v-1.48c0-.82-.13-1.51-.38-2.06s-.6-.97-1.05-1.25c-.45-.28-.97-.42-1.56-.42s-1.12.14-1.58.43c-.46.29-.82.71-1.07,1.26-.26.55-.39,1.23-.39,2.03v1.49c0,.77.13,1.43.39,1.97.26.55.63.97,1.11,1.26s1.05.44,1.71.44c.52,0,.98-.08,1.36-.25.38-.17.7-.37.94-.63.24-.25.41-.51.5-.77l.03-.08h3.5l-.04.14c-.11.51-.31,1.03-.62,1.56-.3.52-.72,1-1.24,1.44-.52.44-1.15.78-1.9,1.05-.75.26-1.62.39-2.62.39-1.43,0-2.66-.29-3.69-.88Z" fill="#fff" stroke-width="0"/>
        <path d="M90.72,41.62c-.75-.65-1.12-1.73-1.12-3.23v-7.22h-1.95v-2.88h1.95v-3.43h3.86v3.43h2.56v2.88h-2.56v6.8c0,.65.15,1.11.44,1.37.29.26.73.39,1.3.39.17,0,.33,0,.46-.02.13-.01.25-.03.37-.05v2.8c-.21.03-.47.07-.78.1-.31.03-.67.05-1.07.05-1.55,0-2.7-.33-3.45-.98Z" fill="#fff" stroke-width="0"/>
        <path d="M98.22,23.44h3.82v7.27h.08c.37-.87.91-1.54,1.64-2.01.73-.47,1.61-.7,2.66-.7s1.9.22,2.63.67c.73.45,1.3,1.08,1.69,1.9s.59,1.8.59,2.93v8.8h-3.83v-8.02c0-.98-.23-1.74-.69-2.29s-1.13-.83-2-.83c-.56,0-1.04.13-1.46.4s-.74.63-.97,1.1c-.23.47-.35,1-.35,1.62v8.03h-3.82v-18.87Z" fill="#fff" stroke-width="0"/>
        <path d="M116.47,41.72c-1.03-.59-1.82-1.43-2.38-2.52-.56-1.09-.84-2.38-.84-3.87h0c0-1.5.28-2.8.84-3.89.56-1.09,1.34-1.94,2.35-2.54s2.19-.9,3.56-.9,2.55.29,3.55.87c1,.58,1.77,1.4,2.31,2.45.54,1.06.82,2.29.82,3.7v1.19h-11.55v-2.42h9.74l-1.82,2.26v-1.48c0-.82-.13-1.51-.38-2.06s-.6-.97-1.05-1.25c-.45-.28-.97-.42-1.56-.42s-1.12.14-1.58.43c-.46.29-.82.71-1.07,1.26-.26.55-.39,1.23-.39,2.03v1.49c0,.77.13,1.43.39,1.97.26.55.63.97,1.11,1.26s1.05.44,1.71.44c.52,0,.98-.08,1.36-.25.38-.17.7-.37.94-.63.24-.25.41-.51.5-.77l.03-.08h3.5l-.04.14c-.11.51-.31,1.03-.62,1.56-.3.52-.72,1-1.24,1.44-.52.44-1.15.78-1.9,1.05-.75.26-1.62.39-2.62.39-1.43,0-2.66-.29-3.69-.88Z" fill="#fff" stroke-width="0"/>
        <path d="M136.09,41.72c-.85-.58-1.51-1.42-1.97-2.51s-.69-2.39-.69-3.91h0c0-1.54.23-2.84.69-3.93s1.12-1.92,1.97-2.5c.85-.58,1.87-.87,3.03-.87.67,0,1.29.11,1.84.33.56.22,1.05.53,1.47.93.42.41.76.89,1.01,1.46h.08v-7.28h3.82v18.87h-3.82v-2.39h-.08c-.25.56-.59,1.04-1.01,1.44-.42.4-.91.71-1.46.92s-1.17.32-1.84.32c-1.18,0-2.19-.29-3.05-.88ZM142.05,38.93c.47-.34.83-.81,1.09-1.43s.39-1.35.39-2.2h0c0-.85-.13-1.58-.39-2.2-.26-.62-.62-1.1-1.09-1.43-.47-.34-1.01-.5-1.63-.5s-1.19.17-1.65.5c-.46.33-.82.8-1.07,1.42-.25.61-.38,1.35-.38,2.2h0c0,.86.12,1.59.37,2.21.25.62.61,1.1,1.07,1.43.47.34,1.02.5,1.65.5s1.16-.17,1.63-.5Z" fill="#fff" stroke-width="0"/>
        <path d="M151.6,41.99c-.71-.36-1.26-.86-1.66-1.5s-.59-1.37-.59-2.19v-.03c0-.85.21-1.58.64-2.19.43-.61,1.05-1.08,1.86-1.43s1.8-.56,2.96-.64l5.47-.34v2.38l-4.89.33c-.73.04-1.29.21-1.67.51s-.58.69-.58,1.19v.03c0,.51.2.92.59,1.21.39.29.92.44,1.58.44.57,0,1.07-.11,1.52-.33.45-.22.8-.53,1.06-.92.26-.39.39-.82.39-1.3v-4.26c0-.62-.2-1.11-.59-1.46-.39-.36-.96-.54-1.71-.54s-1.28.15-1.7.44c-.42.29-.68.67-.77,1.12l-.03.12h-3.5v-.16c.09-.86.38-1.63.88-2.3.5-.67,1.2-1.2,2.09-1.58s1.96-.57,3.18-.57,2.26.19,3.15.58c.89.39,1.58.94,2.07,1.64.49.71.74,1.53.74,2.47v9.61h-3.82v-2.08h-.08c-.27.47-.61.88-1.02,1.23-.41.35-.88.61-1.41.8s-1.1.27-1.71.27c-.93,0-1.75-.18-2.46-.54Z" fill="#fff" stroke-width="0"/>
        <path d="M166.67,41.62c-.75-.65-1.12-1.73-1.12-3.23v-7.22h-1.95v-2.88h1.95v-3.43h3.86v3.43h2.56v2.88h-2.56v6.8c0,.65.15,1.11.44,1.37.29.26.73.39,1.3.39.17,0,.33,0,.46-.02.13-.01.25-.03.37-.05v2.8c-.21.03-.47.07-.78.1-.31.03-.67.05-1.07.05-1.55,0-2.7-.33-3.45-.98Z" fill="#fff" stroke-width="0"/>
        <path d="M176.57,41.72c-1.03-.59-1.82-1.43-2.38-2.52-.56-1.09-.84-2.38-.84-3.87h0c0-1.5.28-2.8.84-3.89.56-1.09,1.34-1.94,2.35-2.54s2.19-.9,3.56-.9,2.55.29,3.55.87c1,.58,1.77,1.4,2.31,2.45.54,1.06.82,2.29.82,3.7v1.19h-11.55v-2.42h9.74l-1.82,2.26v-1.48c0-.82-.13-1.51-.38-2.06s-.6-.97-1.05-1.25c-.45-.28-.97-.42-1.56-.42s-1.12.14-1.58.43c-.46.29-.82.71-1.07,1.26-.26.55-.39,1.23-.39,2.03v1.49c0,.77.13,1.43.39,1.97.26.55.63.97,1.11,1.26s1.05.44,1.71.44c.52,0,.98-.08,1.36-.25.38-.17.7-.37.94-.63.24-.25.41-.51.5-.77l.03-.08h3.5l-.04.14c-.11.51-.31,1.03-.62,1.56-.3.52-.72,1-1.24,1.44-.52.44-1.15.78-1.9,1.05-.75.26-1.62.39-2.62.39-1.43,0-2.66-.29-3.69-.88Z" fill="#fff" stroke-width="0"/>
      </g>
    </g>
  </g>
  <g id="Layer_2-2" data-name="Layer 2">
    <g>
      <path d="M268.56,139.72h-102.69c-14.45,0-26.16,11.71-26.16,26.16v102.69c0,14.45,11.71,26.16,26.16,26.16h102.69c14.45,0,26.16-11.71,26.16-26.16v-102.69c0-14.45-11.71-26.16-26.16-26.16ZM165.88,153.72h102.69c6.7,0,12.16,5.45,12.16,12.16v11.2h-127v-11.2c0-6.7,5.45-12.16,12.16-12.16ZM268.56,280.72h-102.69c-6.7,0-12.16-5.45-12.16-12.16v-77.48h127v77.48c0,6.7-5.45,12.16-12.16,12.16Z" fill="#fff" stroke-width="0"/>
      <rect x="173.06" y="209.72" width="11.11" height="11.11" fill="#fff" stroke-width="0"/>
      <rect x="173.06" y="227.66" width="11.11" height="11.11" fill="#fff" stroke-width="0"/>
      <rect x="173.06" y="245.61" width="11.11" height="11.11" fill="#fff" stroke-width="0"/>
      <rect x="191.86" y="209.72" width="11.11" height="11.11" fill="#fff" stroke-width="0"/>
      <rect x="191.86" y="227.66" width="11.11" height="11.11" fill="#fff" stroke-width="0"/>
      <rect x="191.86" y="245.61" width="11.11" height="11.11" fill="#fff" stroke-width="0"/>
      <rect x="210.67" y="209.72" width="11.11" height="11.11" fill="#fff" stroke-width="0"/>
      <rect x="210.67" y="227.66" width="11.11" height="11.11" fill="#fff" stroke-width="0"/>
      <rect x="210.67" y="245.61" width="11.11" height="11.11" fill="#fff" stroke-width="0"/>
      <rect x="229.46" y="209.72" width="11.11" height="11.11" fill="#fff" stroke-width="0"/>
      <rect x="229.46" y="227.66" width="11.11" height="11.11" fill="#fff" stroke-width="0"/>
      <rect x="229.46" y="245.61" width="11.11" height="11.11" fill="#fff" stroke-width="0"/>
      <rect x="248.26" y="209.72" width="11.11" height="11.11" fill="#fff" stroke-width="0"/>
      <rect x="248.26" y="227.66" width="11.11" height="11.11" fill="#fff" stroke-width="0"/>
      <polygon points="258.17 244.4 253.82 248.75 249.47 244.4 247.06 246.82 251.4 251.17 247.06 255.51 249.47 257.93 253.82 253.58 258.17 257.93 260.58 255.51 256.24 251.17 260.58 246.82 258.17 244.4" fill="#fff" stroke-width="0"/>
    </g>
  </g>
</svg>