<?xml version="1.0" encoding="UTF-8"?>
<svg id="Layer_2" data-name="Layer 2" xmlns="http://www.w3.org/2000/svg" xmlns:xlink="http://www.w3.org/1999/xlink" viewBox="0 0 896.06 282">
  <defs>
    <clipPath id="clippath">
      <rect width="896.06" height="282" fill="none" stroke-width="0"/>
    </clipPath>
  </defs>
  <g id="Layer_2-2" data-name="Layer 2">
    <g clip-path="url(#clippath)">
      <text transform="translate(232.89 256.14)" fill="#231f20" font-family="Helvetica-Light, Helvetica" font-size="53.89" font-weight="300"><tspan x="0" y="0">by JCDecaux X Crafture</tspan></text>
      <path d="M123.6,81.08c9.32-48-92.09-25.91-71.46,29.08,8.85,25.22,54.72,52.93,60.3,84.51,5.55,31.05-32.29,58.98-59.69,61.3-42.27,3.12-74.85-38.79-33.99-82.19,2.13-2.25,5.15.89,3.15,2.6-34.65,36.5-8.53,73.39,23.27,71.14,23.94-1.57,49.98-27.32,45.21-51.93-5.38-31.07-49.53-56.78-59.5-82.98C7.01,48.18,139.17,24.07,127.53,82.05c-.36,2.65-4.24,2.38-3.93-.97" fill="#000" stroke-width="0"/>
      <path d="M126.23,155.78c6.82-.44,19.73-29.42,23.98-40.53.61-2.03,3.19-.71,2.43.96-4.39,10.87-15.49,42.84-28.35,44.06-20.9,1.99-18.81-36.36-14.87-48.31,2.2-8.23,16.38-8.41,14.38,2.92-2.33,13.84-4.92,40.65,2.43,40.91" fill="#000" stroke-width="0"/>
      <path d="M179.92,93.77c-17.23,1-22.28,41.66-11.63,40.96,9.91-.65,28.26-41.68,11.63-40.96M171.99,212.15c14.29,3.42,17.47-63.87,17.49-73.08-23.91,16.87-30.88,69.98-17.49,73.08M189.72,135.19c.4-10.98.46-21.44.42-29.65-4.46,15.47-13.39,34.85-26.16,35.69-20.32,1.33-21.35-50.5,12.6-50.73,5.85-.01,11.45,1.86,12.93,7.36l.93-2.92c-.57-10.54,7.71-9.59,11.57-1.88,3.17,6.51,4.87,19.23,4.96,33.9,6.59-3.79,12.42-8.04,15.1-16.42.61-2.03,3.31-.71,2.8.94-3.46,9.94-10.39,14.37-17.97,18.35-.08,36.73-9.61,85.01-29.82,86.34-27.26,1.79-13.51-65.58,12.62-80.98" fill="#000" stroke-width="0"/>
      <path d="M263.5,83.56c24.02-1.95,5.22,62.51,15.01,61.87,7.11.28,23.01-34.36,25.37-40.24.74-1.92,3.21-.34,2.45,1.33-4.78,10.52-18.75,44.16-31.61,45.5-24.99,2.38-6.33-64.18-15.24-63.47-7.98,1.64-20.28,39.91-22.94,48.68.21,6.95-17.08,14.69-14.38-31.42.45-10.23,15.49-10.48,15.02-.61-.64,7.39-.87,15.24-.89,22.59,5.13-16.64,14.83-43.41,27.22-44.22" fill="#000" stroke-width="0"/>
      <path d="M331.81,94.77c1.32-2.7,3.64-11.07-1.55-10.35-8.06.53-14.25,17.99-14.75,25.61,6.6-3.67,13.36-8.84,16.3-15.26M352.82,101.97c1-1.81,3.6-.11,2.83,1.43-7.19,11.67-20.63,32.71-35.66,33.2-25.96.83-21.07-55.62,6.48-56.81,10.05-.53,11.49,8.21,7.77,16.05-3.61,7.58-11.3,13.68-19.12,17.68-.11,5.85,1.79,17.8,9.94,16.89,9.53-.75,23.27-20.82,27.75-28.45" fill="#000" stroke-width="0"/>
      <path d="M426.58,4.55c-10.21,1.79-16.54,64.68-17.57,73.71,23.97-16.01,32.34-74.31,17.57-73.71M382.27,80.51c-17.11,1-22.16,41.65-11.38,40.94,9.66-.63,28.38-41.68,11.38-40.94M417.15,135.97c8.2-.29,22.35-33.08,24.77-39.83.61-2.03,3.44-.72,2.8.94-4.84,11.64-16.36,42.77-30.48,43.81-14.23,1.31-21.16-20.89-21.46-48.12-4.84,15.38-13.43,34.36-26.07,35.19-20.32,1.33-21.72-50.35,12.23-50.71,6.22-.03,11.45,1.86,12.93,7.36l1.3-2.94c1.02-37.66,12.45-79.72,29.87-81.61,26.12-2.09,12.91,65.98-14.3,81.83-.54,8.87-2.53,54.43,8.4,54.09" fill="#000" stroke-width="0"/>
      <path d="M119.51,75.68c13.84.2,6.57,18.73-3.16,19.19-8.87-.34-8.49-19.89,3.16-19.19" fill="#000" stroke-width="0"/>
    </g>
  </g>
</svg>