<?xml version="1.0" encoding="UTF-8"?>
<svg id="Layer_2" data-name="Layer 2" xmlns="http://www.w3.org/2000/svg" viewBox="0 0 263 263">
  <g id="Layer_1-2" data-name="Layer 1">
    <rect width="263" height="263" rx="15.02" ry="15.02" fill="#fff" stroke-width="0"/>
    <g>
      <path d="M87.86,47.26v-1.98h7.09v1.74l-2.65,2.54c1.44.24,2.82.99,2.82,2.96s-1.44,3.45-3.78,3.45c-1.89,0-3.19-.75-4.09-1.81l1.59-1.52c.72.81,1.47,1.26,2.53,1.26.87,0,1.49-.49,1.49-1.29,0-.87-.74-1.35-2.06-1.35h-.96l-.36-1.47,2.5-2.52h-4.12Z" fill="#374d68" stroke-width="0"/>
      <path d="M104.23,48.04c-.69-.53-1.24-.84-2.14-.84-1.3,0-1.96,1.05-2.12,2.43.53-.35,1.14-.68,2.18-.68,2.08,0,3.69,1.16,3.69,3.36s-1.73,3.64-4,3.64c-1.37,0-2.29-.39-3.03-1.12-.76-.77-1.24-1.89-1.24-3.99,0-3.25,1.47-5.74,4.6-5.74,1.42,0,2.35.42,3.28,1.15l-1.22,1.79ZM101.71,50.88c-1.14,0-1.8.63-1.8,1.53s.69,1.57,1.83,1.57,1.8-.64,1.8-1.56-.69-1.55-1.83-1.55Z" fill="#374d68" stroke-width="0"/>
      <path d="M112.88,55.96c-2.81,0-4.65-2.36-4.65-5.41s1.87-5.45,4.68-5.45,4.65,2.36,4.65,5.41-1.88,5.45-4.68,5.45ZM112.88,47.19c-1.4,0-2.28,1.4-2.28,3.33s.92,3.36,2.31,3.36,2.28-1.41,2.28-3.33-.92-3.36-2.31-3.36Z" fill="#374d68" stroke-width="0"/>
      <path d="M122.03,49.81c-1.32,0-2.29-1-2.29-2.29s1-2.31,2.32-2.31,2.29,1,2.29,2.29-1,2.31-2.32,2.31ZM119.89,51.63v-.99h4.32v.99h-4.32ZM122.03,46.29c-.66,0-1.06.55-1.06,1.21s.44,1.23,1.09,1.23,1.07-.55,1.07-1.21-.44-1.23-1.1-1.23Z" fill="#374d68" stroke-width="0"/>
      <path d="M137.62,55.86h-2.04l-4.24-10.57h2.55l2.74,7.39,2.74-7.39h2.49l-4.25,10.57Z" fill="#374d68" stroke-width="0"/>
      <path d="M144.34,55.78v-10.5h2.31v10.5h-2.31Z" fill="#374d68" stroke-width="0"/>
      <path d="M150.02,55.78v-10.5h7.92v2.05h-5.62v2.13h4.95v2.05h-4.95v2.21h5.7v2.05h-8Z" fill="#374d68" stroke-width="0"/>
      <path d="M172.36,55.86h-2.01l-2.37-6.87-2.37,6.87h-2.01l-3.58-10.57h2.47l2.18,7.11,2.35-7.14h1.98l2.36,7.14,2.17-7.11h2.42l-3.58,10.57Z" fill="#374d68" stroke-width="0"/>
    </g>
    <g>
      <path d="M166.31,196.88c0,2.51-3.45,4.33-10.87,5.72-6.4,1.2-14.91,1.86-23.94,1.86s-17.54-.66-23.94-1.86c-7.42-1.39-10.87-3.21-10.87-5.72s3.45-4.32,10.87-5.71c3.89-.73,8.57-1.26,13.67-1.57l.24,1.4.34,2.02c.42,2.52,2.58,4.35,5.13,4.35h9.11c2.55,0,4.71-1.83,5.14-4.34l.34-2.03.24-1.39c5.1.3,9.77.83,13.67,1.56,7.42,1.39,10.87,3.21,10.87,5.71Z" fill="#374d68" stroke-width="0"/>
      <path d="M153.3,126.56l-2.31,24.81c0,4.32-7.02,6.98-7.02,6.98l-4.39,26.14-.33,1.99-.43,2.56-.24,1.46-.02.13-.33,1.89c-.18,1.07-1.1,1.85-2.18,1.85h-9.11c-1.07,0-1.99-.78-2.17-1.85l-.33-1.93-.02-.09-.24-1.46-.43-2.56-.34-1.99-4.39-26.14s-7.01-2.66-7.01-6.98l-2.31-24.81c-.2-2.2.77-4.3,2.36-5.08l7.34-3.58c-.08-.09-.16-.18-.23-.28-.23-.28-.45-.57-.65-.86-1.85-2.66-2.9-5.91-2.8-9.41.24-8.15,6.84-14.83,14.98-15.16.21,0,.43-.01.65-.01,8.63,0,15.63,7,15.63,15.64,0,3.29-1.02,6.35-2.76,8.87-.14.2-.28.4-.43.59-.13.17-.26.35-.41.51l7.55,3.69c1.59.78,2.57,2.88,2.37,5.08Z" fill="#374d68" stroke-width="0"/>
    </g>
    <rect x="119" y="50.46" width="8" height="3" fill="#fff" stroke-width="0"/>
  </g>
</svg>