<?xml version="1.0" encoding="UTF-8"?>
<svg id="Layer_2" data-name="Layer 2" xmlns="http://www.w3.org/2000/svg" viewBox="0 0 263 263">
  <g id="Layer_1-2" data-name="Layer 1">
    <rect width="263" height="263" rx="15.02" ry="15.02" fill="#fff" stroke-width="0"/>
    <g>
      <path d="M112.71,54.52l-.96-2.36h-4.44l-.96,2.36h-2.35l4.5-10.57h2.13l4.5,10.57h-2.41ZM109.52,46.72l-1.4,3.41h2.79l-1.4-3.41Z" fill="#374d68" stroke-width="0"/>
      <path d="M123.86,54.52l-2.25-3.36h-1.81v3.36h-2.31v-10.5h4.8c2.47,0,3.96,1.3,3.96,3.46v.03c0,1.7-.91,2.76-2.25,3.26l2.56,3.75h-2.7ZM123.91,47.6c0-.99-.69-1.5-1.81-1.5h-2.29v3.02h2.34c1.12,0,1.77-.6,1.77-1.48v-.03Z" fill="#374d68" stroke-width="0"/>
      <path d="M135.98,42.55l-6.64,13.89h-1.93l6.64-13.89h1.93Z" fill="#374d68" stroke-width="0"/>
      <path d="M143.17,54.59h-2.04l-4.25-10.57h2.55l2.75,7.39,2.75-7.39h2.49l-4.24,10.57Z" fill="#374d68" stroke-width="0"/>
      <path d="M156.16,54.52l-2.25-3.36h-1.81v3.36h-2.31v-10.5h4.8c2.47,0,3.96,1.3,3.96,3.46v.03c0,1.7-.91,2.76-2.25,3.26l2.56,3.75h-2.7ZM156.2,47.6c0-.99-.69-1.5-1.81-1.5h-2.29v3.02h2.34c1.12,0,1.77-.6,1.77-1.48v-.03Z" fill="#374d68" stroke-width="0"/>
    </g>
    <g>
      <path d="M105.96,125.48c.16,1.2-.29,2.19-1.26,2.89-1.03.74-2.18.84-3.31.26-1.6-.83-3.17-1.71-4.75-2.57-.29-.16-.6-.3-1.03-.51-.03.47-.06.8-.06,1.13,0,2.31.01,4.61-.01,6.92,0,1.72-1.16,3.07-2.72,3.23-1.79.19-3.18-.85-3.54-2.67-.07-.4-.1-.82-.1-1.22-.01-4.14.02-8.28-.02-12.42,0-1.55.57-2.63,1.97-3.37,3.54-1.87,7.04-3.83,10.58-5.71,2.24-1.2,4.55-.11,4.92,2.25.2,1.3-.45,2.54-1.78,3.27-1.84,1.03-3.7,2.03-5.77,3.15,1.74.95,3.31,1.82,4.88,2.67,1.1.59,1.83,1.45,2,2.7Z" fill="#374d68" stroke-width="0"/>
      <path d="M173.26,133.53c-.01,1.99-1.37,3.33-3.25,3.32-1.77-.02-3.09-1.43-3.11-3.37-.02-2.24,0-4.49,0-6.73v-1.27c-1.91,1.03-3.57,2-5.29,2.84-.71.35-1.55.63-2.32.6-1.41-.04-2.54-1.15-2.79-2.43-.26-1.36.39-2.78,1.69-3.53,1.39-.8,2.82-1.54,4.23-2.32.27-.14.53-.31.93-.54-1.94-1.06-3.73-2.03-5.52-3.01-1.27-.68-2.04-1.7-2.01-3.18.06-2.37,2.58-3.73,4.79-2.56,3.26,1.74,6.49,3.52,9.73,5.28.45.24.89.49,1.33.73,1.07.59,1.59,1.52,1.6,2.71.01,4.49.02,8.98-.01,13.46Z" fill="#374d68" stroke-width="0"/>
      <path d="M144.84,135.82c-.1,1.24-.8,2.09-1.88,2.67-2.58,1.39-5.15,2.82-7.75,4.18-.61.33-.82.71-.81,1.4.04,3.07.03,6.13,0,9.2,0,1.42-.91,2.63-2.17,3.04-1.26.41-2.75.04-3.47-1.05-.4-.6-.66-1.38-.71-2.1-.1-1.54-.03-3.1-.03-4.65s-.02-3.09,0-4.64c.02-.55-.16-.86-.65-1.11-2.7-1.44-5.39-2.9-8.07-4.39-1.33-.73-1.95-2.04-1.7-3.41.24-1.28,1.25-2.4,2.62-2.52.76-.07,1.64.14,2.33.49,2.67,1.37,5.3,2.82,7.92,4.28.54.3.95.3,1.48,0,2.7-1.5,5.42-2.97,8.15-4.44,1.12-.61,2.25-.58,3.32.13,1.02.69,1.51,1.69,1.4,2.92Z" fill="#374d68" stroke-width="0"/>
      <path d="M143.02,183.68c-3.32,1.83-6.65,3.62-9.98,5.43-1.24.67-2.45.65-3.69-.03-3.29-1.81-6.6-3.59-9.89-5.39-1.73-.94-2.35-2.69-1.55-4.31.78-1.59,2.64-2.21,4.38-1.36,1.65.8,3.23,1.72,4.85,2.59.24.12.49.23.89.42v-6.43c.03-1.93,1.32-3.34,3.11-3.38,1.76-.04,3.2,1.35,3.26,3.25.05,1.95,0,3.91.02,5.87,0,.18.03.37.06.67.34-.17.62-.29.88-.43,1.56-.84,3.1-1.71,4.67-2.51,1.74-.88,3.61-.35,4.44,1.19.88,1.62.3,3.45-1.45,4.42Z" fill="#374d68" stroke-width="0"/>
      <path d="M146.35,105.44c-.03,2.53-2.57,3.97-4.75,2.82-2.94-1.55-5.88-3.08-8.73-4.77-1.21-.72-2.11-.7-3.32.02-2.82,1.67-5.74,3.18-8.64,4.72-2,1.06-4.18.13-4.73-1.98-.32-1.26.24-2.76,1.53-3.48,4.03-2.25,8.08-4.44,12.15-6.61.93-.5,1.97-.43,2.92.08,3.94,2.13,7.88,4.26,11.81,6.42,1.14.63,1.67,1.68,1.76,2.78Z" fill="#374d68" stroke-width="0"/>
      <path d="M105.41,173.89c-1.11.85-2.33.91-3.55.25-3.17-1.71-6.26-3.59-9.51-5.11-2.44-1.14-3.37-2.73-3.23-5.41.2-3.85.04-7.71.06-11.57.01-1.98,1.27-3.37,3.04-3.43,1.82-.06,3.26,1.28,3.31,3.16.05,1.83,0,3.67,0,5.5h.01c0,1.71.03,3.42-.02,5.12-.02.76.2,1.18.9,1.55,2.74,1.43,5.44,2.94,8.16,4.41.97.52,1.68,1.25,1.93,2.33.3,1.28-.04,2.4-1.11,3.2Z" fill="#374d68" stroke-width="0"/>
      <path d="M173.28,165.12c0,1.44-.58,2.46-1.86,3.15-3.53,1.89-7.04,3.82-10.57,5.72-1.88,1.02-3.76.58-4.67-1.08-.88-1.6-.18-3.52,1.66-4.53,2.77-1.52,5.54-3.04,8.32-4.51.56-.3.76-.64.75-1.26-.03-3.57-.04-7.14,0-10.71.03-2.54,2.51-4.07,4.65-2.92,1.2.65,1.7,1.73,1.71,3.06.01,2.21,0,4.42,0,6.63s-.02,4.3.01,6.45Z" fill="#374d68" stroke-width="0"/>
    </g>
  </g>
</svg>