<?xml version="1.0" encoding="UTF-8"?>
<svg id="Layer_2" data-name="Layer 2" xmlns="http://www.w3.org/2000/svg" viewBox="0 0 263 263">
  <g id="Layer_1-2" data-name="Layer 1">
    <rect width="263" height="263" rx="15.02" ry="15.02" fill="#fff" stroke-width="0"/>
    <g>
      <path d="M97.58,55.96c-3.09,0-5.38-2.38-5.38-5.4v-.03c0-2.98,2.25-5.43,5.48-5.43,1.98,0,3.16.66,4.14,1.62l-1.47,1.7c-.81-.73-1.64-1.19-2.69-1.19-1.77,0-3.04,1.47-3.04,3.27v.03c0,1.8,1.25,3.3,3.04,3.3,1.2,0,1.94-.48,2.76-1.23l1.47,1.48c-1.08,1.15-2.28,1.88-4.31,1.88Z" fill="#374d68" stroke-width="0"/>
      <path d="M109.28,55.96c-3.24,0-5.56-2.42-5.56-5.4v-.03c0-2.98,2.35-5.43,5.59-5.43s5.56,2.41,5.56,5.4v.03c0,2.98-2.35,5.43-5.59,5.43ZM112.46,50.53c0-1.8-1.32-3.3-3.18-3.3s-3.15,1.47-3.15,3.27v.03c0,1.8,1.32,3.3,3.18,3.3s3.15-1.47,3.15-3.27v-.03Z" fill="#374d68" stroke-width="0"/>
      <path d="M125.04,55.78l-5.08-6.68v6.68h-2.28v-10.5h2.13l4.92,6.46v-6.46h2.28v10.5h-1.96Z" fill="#374d68" stroke-width="0"/>
      <path d="M135.03,47.41v8.37h-2.31v-8.37h-3.19v-2.13h8.7v2.13h-3.19Z" fill="#374d68" stroke-width="0"/>
      <path d="M147.21,55.78l-.96-2.36h-4.44l-.96,2.36h-2.35l4.5-10.57h2.13l4.5,10.57h-2.42ZM144.03,47.98l-1.4,3.41h2.79l-1.39-3.41Z" fill="#374d68" stroke-width="0"/>
      <path d="M156.24,55.96c-3.09,0-5.38-2.38-5.38-5.4v-.03c0-2.98,2.25-5.43,5.47-5.43,1.98,0,3.17.66,4.14,1.62l-1.47,1.7c-.81-.73-1.63-1.19-2.69-1.19-1.77,0-3.04,1.47-3.04,3.27v.03c0,1.8,1.24,3.3,3.04,3.3,1.2,0,1.94-.48,2.76-1.23l1.47,1.48c-1.08,1.15-2.28,1.88-4.3,1.88Z" fill="#374d68" stroke-width="0"/>
      <path d="M167.9,47.41v8.37h-2.31v-8.37h-3.19v-2.13h8.7v2.13h-3.2Z" fill="#374d68" stroke-width="0"/>
    </g>
    <path d="M163.35,175.38c.81-.46,1.48-.85,2.16-1.23,1.68-.95,2.51-2.4,2.52-4.32,0-3.08-.01-6.16,0-9.24.01-2.1-.86-3.64-2.7-4.69-8.83-5-17.64-10.03-26.47-15.03-3.21-1.82-4.78-4.55-4.78-8.21,0-11.57,0-23.13,0-34.7,0-2.55-2.07-4.96-4.67-5.4v.85c0,13.98,0,27.95,0,41.93,0,3.67,1.56,6.4,4.76,8.21,8.53,4.83,17.05,9.68,25.56,14.53,2.42,1.38,3.61,3.5,3.63,6.26.02,3.41,0,6.81,0,10.22v.83ZM100.1,124.22c-.57.32-1,.57-1.43.81-2.19,1.25-3.28,3.14-3.28,5.66,0,8.07,0,16.15,0,24.22,0,3.57,1.53,6.25,4.63,8.02,8.57,4.9,17.15,9.78,25.71,14.69,2.43,1.39,3.66,3.5,3.66,6.31,0,3.36,0,6.73,0,10.09,0,.22,0,.44,0,.77.81-.46,1.48-.86,2.16-1.23,1.69-.92,2.49-2.36,2.49-4.25,0-3.13.01-6.25,0-9.38,0-2.01-.87-3.52-2.64-4.53-8.92-5.06-17.84-10.12-26.75-15.21-3-1.71-4.54-4.34-4.55-7.8-.02-9.07,0-18.14,0-27.22,0-.28,0-.55,0-.95ZM113.7,116.46c-.53.3-.96.54-1.39.78-2.18,1.25-3.29,3.12-3.28,5.65,0,8.09,0,16.19,0,24.28,0,3.58,1.58,6.23,4.68,7.99,8.48,4.82,16.97,9.63,25.44,14.46,2.51,1.43,3.78,3.62,3.79,6.52.01,3.36,0,6.73,0,10.09,0,.23,0,.45,0,.88,1.18-.75,2.27-1.33,3.24-2.07.95-.73,1.43-1.8,1.44-3.02.02-3.41.04-6.81,0-10.22-.02-1.9-.98-3.26-2.62-4.19-8.81-5-17.6-10.02-26.41-15-3.3-1.86-4.91-4.61-4.9-8.4.02-8.94,0-17.88,0-26.82v-.93ZM156.54,179.27c.81-.46,1.48-.85,2.16-1.22,1.71-.92,2.54-2.37,2.54-4.29.01-3.12.02-6.25,0-9.37-.01-2.03-.88-3.56-2.69-4.57-2.46-1.37-4.9-2.78-7.35-4.17-6.46-3.67-12.94-7.33-19.39-11.03-2.97-1.7-4.5-4.32-4.51-7.75-.02-9.18,0-18.36,0-27.53v-.79c-.71.46-1.35.86-1.97,1.29-1.79,1.23-2.73,2.94-2.73,5.11-.01,8.16,0,16.32,0,24.48,0,3.55,1.56,6.2,4.63,7.95,8.48,4.83,16.95,9.65,25.45,14.46,2.61,1.48,3.87,3.69,3.87,6.66,0,2.91,0,5.81,0,8.72,0,.65,0,1.3,0,2.07ZM106.92,120.32c-.52.3-.93.53-1.35.76-2.27,1.27-3.37,3.2-3.37,5.8.02,8.09,0,16.19.01,24.28,0,3.44,1.52,6.06,4.5,7.76,8.6,4.92,17.23,9.79,25.83,14.7,2.36,1.35,3.56,3.43,3.58,6.15.02,3.45,0,6.9,0,10.35,0,.23,0,.45,0,.8.82-.47,1.53-.89,2.24-1.28,1.63-.9,2.45-2.28,2.46-4.13.01-3.12.01-6.25,0-9.37,0-2.11-.93-3.68-2.79-4.73-8.89-5.03-17.77-10.07-26.63-15.14-2.95-1.69-4.49-4.27-4.49-7.69-.01-9.11,0-18.23,0-27.34v-.91ZM149.77,183.13c.88-.5,1.64-.91,2.38-1.35,1.47-.89,2.25-2.18,2.25-3.92,0-3.28,0-6.55,0-9.83,0-1.85-.82-3.27-2.42-4.18-8.87-5.06-17.75-10.11-26.64-15.14-3.24-1.83-4.87-4.55-4.86-8.28.02-9.01,0-18.01,0-27.02v-.83c-.5.28-.85.49-1.21.69-2.36,1.28-3.46,3.28-3.45,5.96.02,8.01,0,16.02,0,24.03,0,3.54,1.53,6.21,4.61,7.97,8.55,4.87,17.12,9.73,25.67,14.6,2.44,1.39,3.64,3.52,3.66,6.31.02,2.78,0,5.56,0,8.33,0,.84,0,1.69,0,2.68ZM136.26,96.24c-.02.4-.04.61-.04.82,0,11.63-.02,23.26.01,34.89,0,3.25,1.52,5.73,4.27,7.43,1.07.66,2.18,1.25,3.27,1.87,8.07,4.59,16.15,9.19,24.25,13.79,0-1.49-.02-3.04.01-4.59.01-.54-.15-.84-.63-1.12-7.3-4.13-14.6-8.27-21.88-12.44-.85-.49-1.66-1.12-2.34-1.83-1.66-1.73-2.31-3.87-2.31-6.24,0-9.05,0-18.1,0-27.14,0-1.29-.35-2.46-1.33-3.26-.97-.8-2.11-1.4-3.29-2.17ZM143.05,100.18c-.01.3-.03.48-.03.65,0,9.11-.03,18.22.02,27.33.02,3.25,1.55,5.76,4.35,7.37,6.67,3.84,13.37,7.61,20.07,11.41.16.09.33.15.56.26,0-1.64-.02-3.18.01-4.72,0-.46-.16-.69-.54-.91-5.04-2.85-10.07-5.71-15.1-8.57-3.1-1.76-4.66-4.43-4.66-8,0-6.51,0-13.02,0-19.52,0-1.48-.58-2.72-1.79-3.58-.88-.62-1.85-1.11-2.89-1.73ZM168.02,139.43c0-1.59-.03-3.04.01-4.5.02-.54-.14-.84-.63-1.12-2.82-1.57-5.64-3.15-8.43-4.78-2.93-1.72-4.45-4.3-4.47-7.71-.02-3.82-.05-7.64,0-11.45.05-3.27-1.79-4.39-4.67-5.66v.73c0,6.29,0,12.58,0,18.88,0,3.54,1.54,6.2,4.62,7.96,4.29,2.45,8.59,4.89,12.89,7.33.18.1.37.19.66.33ZM168.02,131.73c0-1.67-.02-3.24.01-4.82,0-.49-.1-.8-.57-1.02-.59-.27-1.14-.62-1.69-.96-2.57-1.59-4.04-3.88-4.24-6.91-.1-1.58.02-3.17-.1-4.74-.06-.81-.3-1.68-.7-2.38-.89-1.56-2.64-1.97-4.11-2.98,0,4.15,0,8.12,0,12.09,0,3.51,1.55,6.15,4.59,7.9,2.05,1.18,4.1,2.34,6.16,3.5.18.1.37.19.65.33ZM168.02,123.77v-.73c0-1.73-.04-3.47,0-5.2.09-3.32-1.64-4.57-4.42-5.79,0,1.43,0,2.83,0,4.24,0,1.7.47,3.25,1.39,4.67.75,1.16,1.7,2.1,3.03,2.82Z" fill="#374d68" stroke-width="0"/>
  </g>
</svg>