<?xml version="1.0" encoding="UTF-8"?>
<svg id="Layer_2" data-name="Layer 2" xmlns="http://www.w3.org/2000/svg" viewBox="0 0 263 263">
  <g id="Layer_1-2" data-name="Layer 1">
    <rect width="263" height="263" rx="15.02" ry="15.02" fill="#fff" stroke-width="0"/>
    <g>
      <path d="M77.65,50.6c-3.27,0-5.52-2.29-5.52-5.4v-.03c0-2.98,2.33-5.43,5.5-5.43,1.89,0,3.03.51,4.12,1.44l-1.46,1.75c-.81-.67-1.53-1.07-2.74-1.07-1.68,0-3.02,1.49-3.02,3.27v.03c0,1.92,1.32,3.33,3.18,3.33.84,0,1.59-.21,2.18-.63v-1.5h-2.32v-2h4.56v4.56c-1.08.92-2.56,1.67-4.48,1.67Z" fill="#374d68" stroke-width="0"/>
      <path d="M89.49,50.59c-2.82,0-4.54-1.58-4.54-4.67v-6h2.31v5.94c0,1.71.85,2.59,2.26,2.59s2.27-.86,2.27-2.52v-6.02h2.31v5.92c0,3.18-1.79,4.74-4.6,4.74Z" fill="#374d68" stroke-width="0"/>
      <path d="M97.2,50.42v-10.5h7.92v2.06h-5.62v2.13h4.95v2.05h-4.95v2.21h5.7v2.05h-7.99Z" fill="#374d68" stroke-width="0"/>
      <path d="M111.73,50.57c-1.59,0-3.19-.56-4.45-1.68l1.36-1.63c.94.78,1.94,1.28,3.13,1.28.94,0,1.52-.38,1.52-.99v-.03c0-.58-.36-.88-2.12-1.33-2.11-.54-3.48-1.12-3.48-3.21v-.03c0-1.91,1.53-3.17,3.67-3.17,1.53,0,2.83.48,3.9,1.33l-1.2,1.74c-.93-.65-1.85-1.04-2.73-1.04s-1.35.4-1.35.92v.03c0,.69.45.92,2.26,1.38,2.13.56,3.33,1.32,3.33,3.15v.03c0,2.08-1.59,3.25-3.85,3.25Z" fill="#374d68" stroke-width="0"/>
      <path d="M122.88,42.05v8.37h-2.31v-8.37h-3.19v-2.13h8.7v2.13h-3.19Z" fill="#374d68" stroke-width="0"/>
      <path d="M133.35,42.05v8.37h-2.31v-8.37h-3.2v-2.13h8.7v2.13h-3.2Z" fill="#374d68" stroke-width="0"/>
      <path d="M139.17,50.42v-10.5h2.31v10.5h-2.31Z" fill="#374d68" stroke-width="0"/>
      <path d="M149.77,50.6c-3.09,0-5.38-2.38-5.38-5.4v-.03c0-2.98,2.25-5.43,5.48-5.43,1.98,0,3.16.66,4.14,1.62l-1.47,1.7c-.81-.74-1.64-1.19-2.69-1.19-1.77,0-3.04,1.47-3.04,3.27v.03c0,1.8,1.25,3.3,3.04,3.3,1.2,0,1.94-.48,2.76-1.23l1.47,1.48c-1.08,1.16-2.28,1.88-4.31,1.88Z" fill="#374d68" stroke-width="0"/>
      <path d="M163.45,50.42l-3.25-4.47-1.22,1.26v3.21h-2.31v-10.5h2.31v4.59l4.26-4.59h2.79l-4.27,4.46,4.47,6.04h-2.77Z" fill="#374d68" stroke-width="0"/>
      <path d="M168.37,50.42v-10.5h7.92v2.06h-5.62v2.13h4.95v2.05h-4.95v2.21h5.7v2.05h-7.99Z" fill="#374d68" stroke-width="0"/>
      <path d="M183.93,42.05v8.37h-2.31v-8.37h-3.19v-2.13h8.7v2.13h-3.19Z" fill="#374d68" stroke-width="0"/>
    </g>
    <g>
      <rect x="77.1" y="98.57" width="56.07" height="81.53" rx="5.09" ry="5.09" transform="translate(-28.29 26.8) rotate(-12.82)" fill="#374d68" stroke-width="0"/>
      <path d="M102.72,124.76l4.39,7.46c.29.5.87.75,1.44.62l8.32-1.89c.81-.18,1.39.77.85,1.4l-5.63,6.56c-.37.43-.42,1.05-.14,1.53l4.42,7.51c.42.72-.32,1.56-1.09,1.23l-7.82-3.44c-.53-.23-1.16-.09-1.54.35l-5.57,6.49c-.55.64-1.58.2-1.51-.63l.74-8.69c.05-.56-.27-1.1-.79-1.32l-7.91-3.48c-.76-.33-.65-1.45.16-1.63l8.32-1.89c.56-.13.98-.61,1.03-1.18l.73-8.63c.07-.84,1.18-1.09,1.6-.36Z" fill="#fff" stroke-width="0"/>
    </g>
    <g>
      <g>
        <path d="M170.76,198.71c-.35,0-.7-.03-1.05-.08l-45.32-7.28c-1.74-.28-3.26-1.22-4.29-2.64s-1.44-3.17-1.17-4.9l11.32-70.46c.52-3.21,3.25-5.54,6.5-5.54.35,0,.7.03,1.05.08l45.32,7.28c1.74.28,3.26,1.22,4.29,2.64,1.03,1.43,1.45,3.17,1.17,4.9l-11.32,70.46c-.52,3.21-3.25,5.54-6.5,5.54Z" fill="#374d68" stroke-width="0"/>
        <path d="M136.74,109.3c.27,0,.54.02.81.07l45.32,7.28c2.77.45,4.66,3.05,4.21,5.83l-11.32,70.46c-.4,2.5-2.56,4.28-5.02,4.28-.27,0-.54-.02-.81-.07l-45.32-7.28c-2.77-.45-4.66-3.05-4.21-5.83l11.32-70.46c.4-2.5,2.56-4.28,5.02-4.28M136.74,106.3h0c-3.99,0-7.34,2.86-7.98,6.8l-11.32,70.46c-.71,4.4,2.3,8.56,6.7,9.27l45.32,7.28c.43.07.86.1,1.29.1,3.99,0,7.34-2.86,7.98-6.8l11.32-70.46c.34-2.13-.17-4.27-1.43-6.02-1.27-1.75-3.14-2.9-5.27-3.25l-45.32-7.28c-.43-.07-.86-.1-1.29-.1h0Z" fill="#fff" stroke-width="0"/>
      </g>
      <path d="M156.95,138.83l1.29,8.56c.09.57.53,1.02,1.1,1.11l8.43,1.35c.82.13,1,1.23.26,1.62l-7.67,3.98c-.5.26-.78.81-.7,1.37l1.29,8.62c.12.83-.89,1.33-1.47.73l-5.97-6.11c-.41-.42-1.04-.52-1.56-.25l-7.59,3.94c-.74.39-1.54-.41-1.17-1.15l3.93-7.78c.26-.51.16-1.12-.23-1.52l-6.04-6.18c-.58-.59-.07-1.59.75-1.45l8.43,1.35c.57.09,1.13-.2,1.39-.71l3.9-7.73c.38-.75,1.5-.57,1.62.26Z" fill="#fff" stroke-width="0"/>
    </g>
  </g>
</svg>