<?xml version="1.0" encoding="UTF-8"?>
<svg id="Layer_2" data-name="Layer 2" xmlns="http://www.w3.org/2000/svg" viewBox="0 0 263 263">
  <g id="Layer_1-2" data-name="Layer 1">
    <rect width="263" height="263" rx="15.02" ry="15.02" fill="#fff" stroke-width="0"/>
    <g>
      <path d="M79.62,50.77v-10.5h2.31v10.5h-2.31Z" fill="#374d68" stroke-width="0"/>
      <path d="M92.67,50.77l-5.08-6.67v6.67h-2.28v-10.5h2.13l4.92,6.46v-6.46h2.28v10.5h-1.96Z" fill="#374d68" stroke-width="0"/>
      <path d="M101.64,50.92c-1.59,0-3.19-.56-4.45-1.68l1.36-1.63c.94.78,1.94,1.28,3.13,1.28.94,0,1.52-.38,1.52-.99v-.03c0-.58-.36-.88-2.12-1.33-2.11-.54-3.48-1.12-3.48-3.21v-.03c0-1.91,1.53-3.17,3.67-3.17,1.53,0,2.83.48,3.9,1.33l-1.2,1.74c-.93-.65-1.85-1.04-2.73-1.04s-1.35.4-1.35.92v.03c0,.69.45.92,2.26,1.38,2.13.56,3.33,1.32,3.33,3.15v.03c0,2.08-1.59,3.25-3.85,3.25Z" fill="#374d68" stroke-width="0"/>
      <path d="M112.79,42.4v8.37h-2.31v-8.37h-3.19v-2.13h8.7v2.13h-3.19Z" fill="#374d68" stroke-width="0"/>
      <path d="M124.97,50.77l-.96-2.35h-4.44l-.96,2.35h-2.35l4.5-10.57h2.13l4.5,10.57h-2.42ZM121.79,42.97l-1.4,3.41h2.79l-1.4-3.41Z" fill="#374d68" stroke-width="0"/>
      <path d="M134.13,50.95c-3.27,0-5.52-2.29-5.52-5.4v-.03c0-2.98,2.32-5.43,5.5-5.43,1.89,0,3.03.51,4.12,1.44l-1.45,1.75c-.81-.68-1.53-1.07-2.75-1.07-1.68,0-3.01,1.49-3.01,3.27v.03c0,1.92,1.32,3.33,3.18,3.33.84,0,1.59-.21,2.17-.63v-1.5h-2.33v-2h4.56v4.56c-1.08.92-2.56,1.67-4.48,1.67Z" fill="#374d68" stroke-width="0"/>
      <path d="M147.96,50.77l-2.25-3.36h-1.81v3.36h-2.31v-10.5h4.8c2.48,0,3.96,1.31,3.96,3.46v.03c0,1.7-.92,2.76-2.25,3.25l2.56,3.75h-2.7ZM148.01,43.85c0-.99-.69-1.5-1.81-1.5h-2.29v3.02h2.34c1.12,0,1.77-.6,1.77-1.49v-.03Z" fill="#374d68" stroke-width="0"/>
      <path d="M161,50.77l-.96-2.35h-4.44l-.96,2.35h-2.35l4.5-10.57h2.13l4.5,10.57h-2.41ZM157.82,42.97l-1.4,3.41h2.79l-1.4-3.41Z" fill="#374d68" stroke-width="0"/>
      <path d="M173.99,50.77v-6.85l-2.95,4.48h-.06l-2.92-4.44v6.81h-2.26v-10.5h2.49l2.76,4.44,2.76-4.44h2.49v10.5h-2.29Z" fill="#374d68" stroke-width="0"/>
    </g>
    <g id="Logo">
      <g>
        <path d="M176.51,125.37c-.22-4.96-1.01-8.35-2.16-11.31-1.2-3.07-2.79-5.66-5.38-8.25-2.59-2.6-5.19-4.19-8.25-5.38-2.97-1.15-6.36-1.94-11.32-2.17-4.97-.22-6.55-.28-19.21-.28s-14.24.06-19.22.28c-4.96.23-8.34,1.02-11.31,2.17-3.06,1.19-5.66,2.78-8.25,5.38-2.59,2.59-4.19,5.18-5.38,8.25-1.15,2.96-1.94,6.35-2.16,11.31-.23,4.97-.28,6.56-.28,19.22s.05,14.24.28,19.21c.22,4.96,1.01,8.35,2.16,11.31,1.19,3.07,2.79,5.67,5.38,8.26,2.59,2.59,5.19,4.18,8.25,5.37,2.97,1.15,6.35,1.94,11.31,2.17,4.98.23,6.56.28,19.22.28s14.24-.05,19.21-.28c4.96-.23,8.35-1.02,11.32-2.17,3.06-1.19,5.66-2.78,8.25-5.37,2.59-2.59,4.18-5.19,5.38-8.26,1.15-2.96,1.94-6.35,2.16-11.31.23-4.97.28-6.56.28-19.21s-.05-14.25-.28-19.22ZM168.12,163.42c-.21,4.54-.96,7.01-1.6,8.65-.85,2.18-1.86,3.73-3.49,5.36s-3.18,2.64-5.36,3.48c-1.64.64-4.11,1.4-8.65,1.61-4.91.22-6.39.27-18.83.27s-13.92-.05-18.83-.27c-4.55-.21-7.01-.97-8.66-1.61-2.17-.84-3.72-1.85-5.36-3.48-1.63-1.63-2.64-3.18-3.48-5.36-.64-1.64-1.4-4.11-1.6-8.65-.23-4.92-.28-6.39-.28-18.84s.05-13.91.28-18.83c.2-4.54.96-7.01,1.6-8.65.84-2.18,1.85-3.73,3.48-5.36,1.63-1.63,3.19-2.64,5.36-3.48,1.65-.64,4.11-1.4,8.66-1.61,4.91-.22,6.38-.27,18.83-.27s13.92.05,18.83.27c4.54.21,7.01.97,8.65,1.61,2.18.84,3.73,1.85,5.36,3.48,1.63,1.63,2.64,3.18,3.49,5.36.64,1.64,1.39,4.11,1.6,8.65.23,4.92.27,6.39.27,18.83s-.04,13.92-.27,18.84Z" fill="#374d68" stroke-width="0"/>
        <path d="M130.19,120.65c-13.22,0-23.93,10.72-23.93,23.93s10.71,23.93,23.93,23.93,23.93-10.71,23.93-23.93-10.72-23.93-23.93-23.93ZM130.19,160.12c-8.58,0-15.53-6.96-15.53-15.53s6.95-15.54,15.53-15.54,15.53,6.96,15.53,15.54-6.95,15.53-15.53,15.53Z" fill="#374d68" stroke-width="0"/>
        <circle cx="155.07" cy="119.71" r="5.59" fill="#374d68" stroke-width="0"/>
      </g>
    </g>
  </g>
</svg>