<?xml version="1.0" encoding="UTF-8"?>
<svg id="Layer_2" data-name="Layer 2" xmlns="http://www.w3.org/2000/svg" viewBox="0 0 178.44 198.1">
  <defs>
    <style>
      .cls-1 {
        fill: #374d68;
        stroke-width: 0px;
      }
    </style>
  </defs>
  <g id="Layer_1-2" data-name="Layer 1">
    <g>
      <g>
        <path class="cls-1" d="M144.51,37.93v9.84l-5.72-3.25c-.61-.35-.98-.99-.98-1.69v-13.07l3.31,1.89c2.17,1.34,3.46,3.73,3.4,6.28Z"/>
        <path class="cls-1" d="M144.51,53.48v6.44l-16-9.1c-.82-.47-1.33-1.34-1.33-2.29v-24.84l4.01,2.29c2.08,1.19,3.37,3.4,3.37,5.8v12.23c0,1.14.61,2.19,1.6,2.76l6.65,3.78c1.05.6,1.7,1.72,1.7,2.93Z"/>
        <path class="cls-1" d="M144.52,65.34v6.32l-26.62-15.13c-.63-.36-1.03-1.03-1.03-1.76V17.79l4.39,2.51c1.65.94,2.66,2.69,2.66,4.59v25.68c0,.84.45,1.62,1.18,2.04l17.94,10.2c.91.52,1.47,1.48,1.47,2.52Z"/>
        <path class="cls-1" d="M144.52,77.05v6.49l-36.98-21.02c-.67-.38-1.09-1.1-1.09-1.87V11.84l4.27,2.44c1.79,1.02,2.89,2.92,2.89,4.98v37.35c0,.75.4,1.44,1.06,1.81l28.41,16.15c.89.51,1.44,1.45,1.44,2.47Z"/>
        <path class="cls-1" d="M144.52,89.14v6.2c-.83-.47-1.08-.62-1.73-.99l-45.31-25.76c-.86-.49-1.39-1.4-1.39-2.39V5.91s4.57,2.61,4.57,2.61c1.58.9,2.55,2.58,2.55,4.39v49.58c0,.8.43,1.54,1.13,1.93l38.57,21.92c1,.57,1.62,1.64,1.62,2.79Z"/>
        <path class="cls-1" d="M144.52,103.42v14.62c.05,2.5-1.22,4.85-3.34,6.19l-3.76,2.15v-17.01c.03-3.68-1.86-7.11-4.98-9.06l-45.56-25.9c-.71-.41-1.15-1.16-1.15-1.98V0l4.4,2.51c1.68.96,2.71,2.74,2.71,4.67v61.53c0,.62.33,1.19.87,1.49l47.41,26.95c2.14,1.36,3.42,3.74,3.39,6.27h0Z"/>
        <path class="cls-1" d="M134.17,109.37v15.54c0,2.06-1.1,3.96-2.89,4.98l-4.25,2.43v-17.02c.02-3.68-1.86-7.1-4.97-9.05l-45.5-25.87c-.76-.43-1.22-1.23-1.22-2.1v-45.23c0-2.57,1.4-4.71,3.63-5.98l1.77-1.01c.64-.41.93-.52,1.75-.98v49.33c0,.77.41,1.48,1.09,1.87l47.21,26.84c2.14,1.36,3.42,3.74,3.39,6.27Z"/>
        <path class="cls-1" d="M123.78,115.3v15.78c0,1.92-1.03,3.69-2.7,4.64l-4.36,2.49v-17c.03-3.68-1.86-7.11-4.98-9.06l-45.31-25.76c-.87-.49-1.41-1.42-1.41-2.42v-44.95c0-2.63,1.41-4.87,3.69-6.17l3.37-1.9v49.21c0,.87.47,1.68,1.23,2.11l47.07,26.76c2.15,1.36,3.43,3.73,3.4,6.27Z"/>
        <path class="cls-1" d="M113.48,121.21v15.7c0,1.95-1.04,3.75-2.74,4.72l-4.38,2.51v-16.84c-.03-3.71-1.89-7.16-4.98-9.22l-45.34-25.78c-.85-.48-1.38-1.39-1.38-2.37v-45.07c0-2.58,1.45-4.88,3.68-6.16l3.43-1.95v49.15c0,.96.52,1.85,1.35,2.33l46.95,26.69c2.14,1.36,3.42,3.74,3.4,6.27Z"/>
        <path class="cls-1" d="M103.11,127.3v15.53c0,1.95-1.05,3.75-2.74,4.72l-4.37,2.5v-16.99c.03-3.68-1.86-7.11-4.98-9.06h0s-44.94-25.55-44.94-25.55c-1.1-.62-1.77-1.79-1.77-3.05v-44.74c0-2.5,1.34-4.81,3.51-6.05l3.61-2.06v49.5c0,.84.45,1.62,1.18,2.03l47.06,26.75c2.15,1.45,3.45,3.87,3.45,6.47Z"/>
        <path class="cls-1" d="M92.75,133.06v15.71c0,1.94-1.04,3.73-2.72,4.69l-4.3,2.46v-16.79c0-3.69-1.93-7.12-5.07-9.06h0l-44.02-25.14c-1.69-.96-2.73-2.76-2.73-4.7v-43.94c0-2.31,1.24-4.45,3.25-5.6l3.89-2.22v49.04c0,1.12.6,2.16,1.58,2.72l46.72,26.56c2.14,1.37,3.42,3.74,3.4,6.28Z"/>
      </g>
      <g>
        <path class="cls-1" d="M0,187.3v-.06c0-5.97,4.5-10.86,10.95-10.86,3.96,0,6.33,1.32,8.28,3.24l-2.94,3.39c-1.62-1.47-3.27-2.37-5.37-2.37-3.54,0-6.09,2.94-6.09,6.54v.06c0,3.6,2.49,6.6,6.09,6.6,2.4,0,3.87-.96,5.52-2.46l2.94,2.97c-2.16,2.31-4.56,3.75-8.61,3.75-6.18,0-10.77-4.77-10.77-10.8Z"/>
        <path class="cls-1" d="M24.57,176.74h9.6c2.67,0,4.74.75,6.12,2.13,1.17,1.17,1.8,2.82,1.8,4.8v.06c0,3.39-1.83,5.52-4.5,6.51l5.13,7.5h-5.4l-4.5-6.72h-3.63v6.72h-4.62v-21ZM33.87,186.94c2.25,0,3.54-1.2,3.54-2.97v-.06c0-1.98-1.38-3-3.63-3h-4.59v6.03h4.68Z"/>
        <path class="cls-1" d="M54.96,176.59h4.26l9,21.15h-4.83l-1.92-4.71h-8.88l-1.92,4.71h-4.71l9-21.15ZM59.82,188.95l-2.79-6.81-2.79,6.81h5.58Z"/>
        <path class="cls-1" d="M72.96,176.74h15.99v4.2h-11.37v4.47h10.02v4.2h-10.02v8.13h-4.62v-21Z"/>
        <path class="cls-1" d="M99.03,181h-6.39v-4.26h17.4v4.26h-6.39v16.74h-4.62v-16.74Z"/>
        <path class="cls-1" d="M114.75,188.74v-12h4.62v11.88c0,3.42,1.71,5.19,4.53,5.19s4.53-1.71,4.53-5.04v-12.03h4.62v11.85c0,6.36-3.57,9.48-9.21,9.48s-9.09-3.15-9.09-9.33Z"/>
        <path class="cls-1" d="M139.26,176.74h9.6c2.67,0,4.74.75,6.12,2.13,1.17,1.17,1.8,2.82,1.8,4.8v.06c0,3.39-1.83,5.52-4.5,6.51l5.13,7.5h-5.4l-4.5-6.72h-3.63v6.72h-4.62v-21ZM148.56,186.94c2.25,0,3.54-1.2,3.54-2.97v-.06c0-1.98-1.38-3-3.63-3h-4.59v6.03h4.68Z"/>
        <path class="cls-1" d="M162.45,176.74h15.84v4.11h-11.25v4.26h9.9v4.11h-9.9v4.41h11.4v4.11h-15.99v-21Z"/>
      </g>
    </g>
  </g>
</svg>