<?xml version="1.0" encoding="UTF-8"?>
<svg id="Layer_2" data-name="Layer 2" xmlns="http://www.w3.org/2000/svg" viewBox="0 0 263 263">
  <g id="Layer_1-2" data-name="Layer 1">
    <rect width="263" height="263" rx="15.02" ry="15.02" fill="#fff" stroke-width="0"/>
    <g>
      <path d="M79.95,51.55h-1.75v3.15h-2.31v-10.5h4.29c2.5,0,4.02,1.49,4.02,3.63v.03c0,2.43-1.89,3.69-4.25,3.69ZM81.85,47.88c0-1.03-.72-1.59-1.88-1.59h-1.79v3.21h1.83c1.15,0,1.83-.69,1.83-1.59v-.03Z" fill="#374d68" stroke-width="0"/>
      <path d="M93.03,54.7l-2.25-3.36h-1.82v3.36h-2.31v-10.5h4.8c2.47,0,3.96,1.31,3.96,3.46v.03c0,1.7-.92,2.76-2.25,3.25l2.57,3.75h-2.7ZM93.07,47.79c0-.99-.69-1.5-1.82-1.5h-2.29v3.02h2.34c1.12,0,1.77-.6,1.77-1.49v-.03Z" fill="#374d68" stroke-width="0"/>
      <path d="M103.35,54.88c-3.24,0-5.56-2.42-5.56-5.4v-.03c0-2.98,2.36-5.43,5.59-5.43s5.57,2.42,5.57,5.4v.03c0,2.99-2.36,5.43-5.6,5.43ZM106.53,49.45c0-1.8-1.32-3.3-3.18-3.3s-3.15,1.47-3.15,3.27v.03c0,1.8,1.32,3.3,3.18,3.3s3.15-1.47,3.15-3.27v-.03Z" fill="#374d68" stroke-width="0"/>
      <path d="M115.84,54.7h-4.09v-10.5h4.09c3.3,0,5.58,2.27,5.58,5.22v.03c0,2.96-2.28,5.25-5.58,5.25ZM119.01,49.45c0-1.86-1.28-3.17-3.17-3.17h-1.78v6.33h1.78c1.89,0,3.17-1.28,3.17-3.13v-.03Z" fill="#374d68" stroke-width="0"/>
      <path d="M128.61,54.87c-2.82,0-4.54-1.58-4.54-4.67v-6h2.31v5.94c0,1.71.86,2.59,2.26,2.59s2.26-.86,2.26-2.52v-6.02h2.31v5.92c0,3.18-1.79,4.74-4.61,4.74Z" fill="#374d68" stroke-width="0"/>
      <path d="M141.24,54.88c-3.09,0-5.38-2.38-5.38-5.4v-.03c0-2.98,2.25-5.43,5.47-5.43,1.98,0,3.16.66,4.14,1.62l-1.47,1.7c-.81-.74-1.63-1.19-2.69-1.19-1.77,0-3.04,1.47-3.04,3.27v.03c0,1.8,1.25,3.3,3.04,3.3,1.2,0,1.94-.48,2.76-1.23l1.47,1.48c-1.08,1.16-2.28,1.88-4.3,1.88Z" fill="#374d68" stroke-width="0"/>
      <path d="M152.89,46.33v8.37h-2.31v-8.37h-3.2v-2.13h8.7v2.13h-3.2Z" fill="#374d68" stroke-width="0"/>
      <path d="M158.71,54.7v-10.5h2.31v10.5h-2.31Z" fill="#374d68" stroke-width="0"/>
      <path d="M169.5,54.88c-3.24,0-5.57-2.42-5.57-5.4v-.03c0-2.98,2.36-5.43,5.59-5.43s5.57,2.42,5.57,5.4v.03c0,2.99-2.36,5.43-5.59,5.43ZM172.68,49.45c0-1.8-1.32-3.3-3.18-3.3s-3.15,1.47-3.15,3.27v.03c0,1.8,1.32,3.3,3.18,3.3s3.15-1.47,3.15-3.27v-.03Z" fill="#374d68" stroke-width="0"/>
      <path d="M185.26,54.7l-5.08-6.67v6.67h-2.28v-10.5h2.13l4.92,6.46v-6.46h2.28v10.5h-1.96Z" fill="#374d68" stroke-width="0"/>
      <path d="M91.74,72.88c-3.24,0-5.57-2.42-5.57-5.4v-.03c0-2.98,2.35-5.43,5.59-5.43s5.56,2.42,5.56,5.4v.03c0,2.99-2.35,5.43-5.59,5.43ZM94.92,67.45c0-1.8-1.32-3.3-3.18-3.3s-3.15,1.47-3.15,3.27v.03c0,1.8,1.32,3.3,3.18,3.3s3.15-1.47,3.15-3.27v-.03Z" fill="#374d68" stroke-width="0"/>
      <path d="M104.85,72.78h-2.04l-4.25-10.58h2.55l2.75,7.4,2.75-7.4h2.49l-4.24,10.58Z" fill="#374d68" stroke-width="0"/>
      <path d="M111.47,72.7v-10.5h7.92v2.06h-5.62v2.13h4.95v2.05h-4.95v2.21h5.7v2.05h-7.99Z" fill="#374d68" stroke-width="0"/>
      <path d="M128.64,72.7l-2.25-3.36h-1.82v3.36h-2.31v-10.5h4.8c2.47,0,3.96,1.31,3.96,3.46v.03c0,1.7-.92,2.76-2.25,3.25l2.56,3.75h-2.7ZM128.69,65.79c0-.99-.69-1.5-1.82-1.5h-2.29v3.02h2.34c1.12,0,1.77-.6,1.77-1.49v-.03Z" fill="#374d68" stroke-width="0"/>
      <path d="M138.95,72.78h-2.04l-4.24-10.58h2.55l2.75,7.4,2.74-7.4h2.49l-4.25,10.58Z" fill="#374d68" stroke-width="0"/>
      <path d="M145.67,72.7v-10.5h2.31v10.5h-2.31Z" fill="#374d68" stroke-width="0"/>
      <path d="M151.35,72.7v-10.5h7.92v2.06h-5.62v2.13h4.95v2.05h-4.95v2.21h5.7v2.05h-8Z" fill="#374d68" stroke-width="0"/>
      <path d="M173.69,72.78h-2.01l-2.37-6.87-2.37,6.87h-2.01l-3.58-10.58h2.47l2.18,7.11,2.35-7.14h1.98l2.36,7.14,2.17-7.11h2.42l-3.58,10.58Z" fill="#374d68" stroke-width="0"/>
    </g>
    <g>
      <rect x="102.41" y="108.11" width="58.29" height="34.09" rx="2.97" ry="2.97" fill="#374d68" stroke-width="0"/>
      <rect x="90.31" y="154.3" width="82.48" height="8.8" rx="2.15" ry="2.15" fill="#374d68" stroke-width="0"/>
      <rect x="130.45" y="128.46" width="56.09" height="4.4" rx="1.89" ry="1.89" transform="translate(289.16 -27.84) rotate(90)" fill="#374d68" stroke-width="0"/>
      <path d="M161.36,197.37c-.43.62-1.12.95-1.83.95-.42,0-.85-.13-1.23-.38l-25.2-17.3-24.65,18.07c-.98.72-2.36.51-3.07-.47-.29-.4-.43-.85-.43-1.3,0-.67.31-1.35.9-1.78l23.4-17.17-23.93-16.42c-1-.69-1.26-2.06-.57-3.06.43-.62,1.12-.95,1.81-.95.43,0,.86.13,1.24.38l25.2,17.3,24.64-18.07c.99-.72,2.36-.51,3.08.47.28.4.42.85.42,1.3,0,.67-.31,1.35-.9,1.78l-23.4,17.17,23.94,16.42c1,.69,1.26,2.06.57,3.06Z" fill="#374d68" stroke-width="0"/>
      <rect x="76.57" y="128.46" width="56.09" height="4.4" rx="1.89" ry="1.89" transform="translate(235.27 26.05) rotate(90)" fill="#374d68" stroke-width="0"/>
      <rect x="168.4" y="136.71" width="4.4" height="25.29" rx="1.89" ry="1.89" fill="#374d68" stroke-width="0"/>
      <rect x="163.45" y="125.16" width="4.4" height="25.29" rx="1.89" ry="1.89" transform="translate(303.45 -27.84) rotate(90)" fill="#374d68" stroke-width="0"/>
      <rect x="90.31" y="136.71" width="4.4" height="25.29" rx="1.89" ry="1.89" transform="translate(185.03 298.71) rotate(180)" fill="#374d68" stroke-width="0"/>
      <rect x="95.26" y="125.16" width="4.4" height="25.29" rx="1.89" ry="1.89" transform="translate(235.27 40.34) rotate(90)" fill="#374d68" stroke-width="0"/>
    </g>
  </g>
</svg>