<?xml version="1.0" encoding="UTF-8"?>
<svg id="Layer_2" data-name="Layer 2" xmlns="http://www.w3.org/2000/svg" viewBox="0 0 263 263">
  <g id="Layer_1-2" data-name="Layer 1">
    <rect width="263" height="263" rx="15.02" ry="15.02" fill="#fff" stroke-width="0"/>
    <g>
      <path d="M120.03,55.78l-2.25-3.36h-1.81v3.36h-2.31v-10.5h4.8c2.47,0,3.96,1.3,3.96,3.46v.03c0,1.7-.91,2.76-2.25,3.26l2.56,3.75h-2.7ZM120.07,48.87c0-.99-.69-1.5-1.81-1.5h-2.29v3.02h2.34c1.12,0,1.77-.6,1.77-1.48v-.03Z" fill="#374d68" stroke-width="0"/>
      <path d="M125.25,55.78v-10.5h7.92v2.05h-5.62v2.13h4.95v2.05h-4.95v2.21h5.7v2.05h-7.99Z" fill="#374d68" stroke-width="0"/>
      <path d="M136.05,55.78v-10.5h7.92v2.05h-5.62v2.13h4.95v2.05h-4.95v2.21h5.7v2.05h-8Z" fill="#374d68" stroke-width="0"/>
      <path d="M146.85,55.78v-10.5h2.31v8.4h5.23v2.1h-7.54Z" fill="#374d68" stroke-width="0"/>
    </g>
    <g>
      <g>
        <path d="M166.05,115.05c0,11.38-9.22,20.59-20.58,20.59s-20.58-9.22-20.58-20.59,9.22-20.58,20.58-20.58,20.58,9.22,20.58,20.58Z" fill="#374d68" stroke-width="0"/>
        <path d="M122,120.8c0,8.2-6.64,14.85-14.84,14.85s-14.85-6.65-14.85-14.85,6.65-14.84,14.85-14.84,14.84,6.64,14.84,14.84Z" fill="#374d68" stroke-width="0"/>
      </g>
      <path d="M172.23,151.28l-13.84,4.9v-8.78c0-4.07-3.3-7.35-7.35-7.35h-43.68c-4.07,0-7.35,3.29-7.35,7.35v34.7c0,4.06,3.29,7.35,7.35,7.35h43.68c4.06,0,7.35-3.3,7.35-7.35v-8.78l13.84,4.9c1.77.61,3.5-1.08,3.5-3.41v-20.12c0-2.33-1.73-4.04-3.5-3.41ZM145.02,161.31l-7.09,5.15c-.57.41-.8,1.15-.59,1.82l2.71,8.32c.24.75-.35,1.39-1.02,1.39-.2,0-.42-.06-.61-.2l-7.09-5.15c-.28-.2-.62-.31-.95-.31s-.67.11-.95.31l-7.09,5.15c-.2.14-.42.2-.62.2-.66,0-1.25-.64-1.01-1.39l2.7-8.32c.22-.67-.01-1.41-.59-1.82l-7.08-5.15c-.83-.6-.41-1.92.62-1.92h8.75c.71,0,1.34-.45,1.55-1.11l2.71-8.33c.15-.49.58-.74,1.01-.74s.85.25,1.01.74l2.7,8.33c.22.66.85,1.11,1.55,1.11h8.76c1.03,0,1.45,1.32.62,1.92Z" fill="#374d68" stroke-width="0"/>
    </g>
  </g>
</svg>