<?xml version="1.0" encoding="UTF-8"?>
<svg id="Layer_2" data-name="Layer 2" xmlns="http://www.w3.org/2000/svg" xmlns:xlink="http://www.w3.org/1999/xlink" viewBox="0 0 263 263">
  <defs>
    <clipPath id="clippath">
      <path d="M213.72,181.91v-63.35c0-3.55-2.88-6.43-6.43-6.43l-28.82,3c-3.55,0-6.43,2.88-6.43,6.43v57.35c0,3.55,2.88,6.43,6.43,6.43l28.82,3c3.55,0,6.43-2.88,6.43-6.43Z" fill="#374d68" stroke-width="0"/>
    </clipPath>
    <clipPath id="clippath-1">
      <path d="M83.06,185.34l-28.82,3c-3.55,0-6.43-2.88-6.43-6.43v-63.35c0-3.55,2.88-6.43,6.43-6.43l28.82,3c3.55,0,6.43,2.88,6.43,6.43v57.35c0,3.55-2.88,6.43-6.43,6.43Z" fill="#374d68" stroke-width="0"/>
    </clipPath>
    <clipPath id="clippath-2">
      <rect x="87.98" y="126.84" width="85.59" height="46.8" rx="7.22" ry="7.22" transform="translate(281.01 19.47) rotate(90)" fill="#374d68" stroke-width="0"/>
    </clipPath>
  </defs>
  <g id="Layer_1-2" data-name="Layer 1">
    <rect width="263" height="263" rx="15.02" ry="15.02" fill="#fff" stroke-width="0"/>
    <g>
      <path d="M70.45,54.85c-1.59,0-3.2-.56-4.46-1.68l1.37-1.63c.94.78,1.93,1.28,3.13,1.28.94,0,1.51-.38,1.51-.99v-.03c0-.58-.36-.88-2.11-1.33-2.11-.54-3.48-1.12-3.48-3.21v-.03c0-1.91,1.53-3.17,3.67-3.17,1.53,0,2.83.48,3.9,1.33l-1.2,1.74c-.93-.65-1.85-1.04-2.73-1.04s-1.35.4-1.35.92v.03c0,.69.45.92,2.26,1.38,2.13.56,3.33,1.32,3.33,3.15v.03c0,2.08-1.59,3.25-3.85,3.25Z" fill="#374d68" stroke-width="0"/>
      <path d="M81.59,46.33v8.37h-2.31v-8.37h-3.2v-2.13h8.7v2.13h-3.2Z" fill="#374d68" stroke-width="0"/>
      <path d="M91.96,54.88c-3.24,0-5.56-2.42-5.56-5.4v-.03c0-2.98,2.35-5.43,5.59-5.43s5.56,2.42,5.56,5.4v.03c0,2.99-2.35,5.43-5.59,5.43ZM95.14,49.45c0-1.8-1.32-3.3-3.18-3.3s-3.15,1.47-3.15,3.27v.03c0,1.8,1.32,3.3,3.18,3.3s3.15-1.47,3.15-3.27v-.03Z" fill="#374d68" stroke-width="0"/>
      <path d="M106.73,54.7l-2.25-3.36h-1.81v3.36h-2.31v-10.5h4.8c2.48,0,3.96,1.31,3.96,3.46v.03c0,1.7-.91,2.76-2.25,3.25l2.56,3.75h-2.7ZM106.78,47.79c0-.99-.69-1.5-1.81-1.5h-2.29v3.02h2.34c1.12,0,1.77-.6,1.77-1.49v-.03Z" fill="#374d68" stroke-width="0"/>
      <path d="M112.06,54.7v-10.5h2.31v10.5h-2.31Z" fill="#374d68" stroke-width="0"/>
      <path d="M117.74,54.7v-10.5h7.92v2.06h-5.62v2.13h4.95v2.05h-4.95v2.21h5.7v2.05h-7.99Z" fill="#374d68" stroke-width="0"/>
      <path d="M132.28,54.85c-1.59,0-3.19-.56-4.45-1.68l1.36-1.63c.94.78,1.94,1.28,3.13,1.28.94,0,1.52-.38,1.52-.99v-.03c0-.58-.36-.88-2.12-1.33-2.11-.54-3.48-1.12-3.48-3.21v-.03c0-1.91,1.53-3.17,3.67-3.17,1.53,0,2.83.48,3.9,1.33l-1.2,1.74c-.93-.65-1.85-1.04-2.73-1.04s-1.35.4-1.35.92v.03c0,.69.45.92,2.26,1.38,2.13.56,3.33,1.32,3.33,3.15v.03c0,2.08-1.59,3.25-3.85,3.25Z" fill="#374d68" stroke-width="0"/>
      <path d="M155.68,54.78h-2.01l-2.37-6.87-2.37,6.87h-2.01l-3.58-10.58h2.47l2.17,7.11,2.35-7.14h1.98l2.35,7.14,2.17-7.11h2.42l-3.58,10.58Z" fill="#374d68" stroke-width="0"/>
      <path d="M168.19,54.7l-.96-2.35h-4.44l-.96,2.35h-2.35l4.5-10.57h2.13l4.5,10.57h-2.42ZM165.01,46.9l-1.4,3.41h2.79l-1.39-3.41Z" fill="#374d68" stroke-width="0"/>
      <path d="M172.97,54.7v-10.5h2.31v8.4h5.24v2.1h-7.54Z" fill="#374d68" stroke-width="0"/>
      <path d="M183.01,54.7v-10.5h2.31v8.4h5.23v2.1h-7.54Z" fill="#374d68" stroke-width="0"/>
    </g>
    <g>
      <g>
        <path d="M213.72,181.91v-63.35c0-3.55-2.88-6.43-6.43-6.43l-28.82,3c-3.55,0-6.43,2.88-6.43,6.43v57.35c0,3.55,2.88,6.43,6.43,6.43l28.82,3c3.55,0,6.43-2.88,6.43-6.43Z" fill="#374d68"/>
        <g clip-path="url(#clippath)">
          <polygon points="213.72 112.18 209.93 112.14 213.72 112.14 213.72 112.18" fill="#374d68" stroke-width="0"/>
          <polygon points="213.72 113.91 172.05 113.47 172.05 112.14 209.93 112.14 213.72 112.18 213.72 113.91" fill="#374d68" stroke-width="0"/>
          <polygon points="213.72 115.64 172.05 115.2 172.05 113.47 213.72 113.91 213.72 115.64" fill="#374d68" stroke-width="0"/>
          <polygon points="213.72 117.37 172.05 116.93 172.05 115.2 213.72 115.64 213.72 117.37" fill="#374d68" stroke-width="0"/>
          <polygon points="213.72 119.1 172.05 118.66 172.05 116.93 213.72 117.37 213.72 119.1" fill="#374d68" stroke-width="0"/>
          <polygon points="213.72 120.83 172.05 120.39 172.05 118.66 213.72 119.1 213.72 120.83" fill="#374d68" stroke-width="0"/>
          <polygon points="213.72 122.56 172.05 122.12 172.05 120.39 213.72 120.83 213.72 122.56" fill="#374d68" stroke-width="0"/>
          <polygon points="213.72 124.29 172.05 123.86 172.05 122.12 213.72 122.56 213.72 124.29" fill="#374d68" stroke-width="0"/>
          <polygon points="213.72 126.02 172.05 125.59 172.05 123.86 213.72 124.29 213.72 126.02" fill="#374d68" stroke-width="0"/>
          <polygon points="213.72 127.75 172.05 127.32 172.05 125.59 213.72 126.02 213.72 127.75" fill="#374d68" stroke-width="0"/>
          <polygon points="213.72 129.49 172.05 129.05 172.05 127.32 213.72 127.75 213.72 129.49" fill="#374d68" stroke-width="0"/>
          <polygon points="213.72 131.22 172.05 130.78 172.05 129.05 213.72 129.49 213.72 131.22" fill="#374d68" stroke-width="0"/>
          <polygon points="213.72 132.95 172.05 132.51 172.05 130.78 213.72 131.22 213.72 132.95" fill="#374d68" stroke-width="0"/>
          <polygon points="213.72 134.68 172.05 134.24 172.05 132.51 213.72 132.95 213.72 134.68" fill="#374d68" stroke-width="0"/>
          <polygon points="213.72 136.41 172.05 135.97 172.05 134.24 213.72 134.68 213.72 136.41" fill="#374d68" stroke-width="0"/>
          <polygon points="213.72 138.14 172.05 137.7 172.05 135.97 213.72 136.41 213.72 138.14" fill="#374d68" stroke-width="0"/>
          <polygon points="213.72 139.87 172.05 139.43 172.05 137.7 213.72 138.14 213.72 139.87" fill="#374d68" stroke-width="0"/>
          <polygon points="213.72 141.6 172.05 141.16 172.05 139.43 213.72 139.87 213.72 141.6" fill="#374d68" stroke-width="0"/>
          <polygon points="213.72 143.33 172.05 142.89 172.05 141.16 213.72 141.6 213.72 143.33" fill="#374d68" stroke-width="0"/>
          <polygon points="213.72 145.06 172.05 144.63 172.05 142.89 213.72 143.33 213.72 145.06" fill="#374d68" stroke-width="0"/>
          <polygon points="213.72 146.79 172.05 146.36 172.05 144.63 213.72 145.06 213.72 146.79" fill="#374d68" stroke-width="0"/>
          <polygon points="213.72 148.53 172.05 148.09 172.05 146.36 213.72 146.79 213.72 148.53" fill="#374d68" stroke-width="0"/>
          <polygon points="213.72 150.26 172.05 149.82 172.05 148.09 213.72 148.53 213.72 150.26" fill="#374d68" stroke-width="0"/>
          <polygon points="213.72 151.99 172.05 151.55 172.05 149.82 213.72 150.26 213.72 151.99" fill="#374d68" stroke-width="0"/>
          <polygon points="213.72 153.72 172.05 153.28 172.05 151.55 213.72 151.99 213.72 153.72" fill="#374d68" stroke-width="0"/>
          <polygon points="213.72 155.45 172.05 155.01 172.05 153.28 213.72 153.72 213.72 155.45" fill="#374d68" stroke-width="0"/>
          <polygon points="213.72 157.18 172.05 156.74 172.05 155.01 213.72 155.45 213.72 157.18" fill="#374d68" stroke-width="0"/>
          <polygon points="213.72 158.91 172.05 158.47 172.05 156.74 213.72 157.18 213.72 158.91" fill="#374d68" stroke-width="0"/>
          <polygon points="213.72 160.64 172.05 160.2 172.05 158.47 213.72 158.91 213.72 160.64" fill="#374d68" stroke-width="0"/>
          <polygon points="213.72 162.37 172.05 161.93 172.05 160.2 213.72 160.64 213.72 162.37" fill="#374d68" stroke-width="0"/>
          <polygon points="213.72 164.1 172.05 163.67 172.05 161.93 213.72 162.37 213.72 164.1" fill="#374d68" stroke-width="0"/>
          <polygon points="213.72 165.83 172.05 165.4 172.05 163.67 213.72 164.1 213.72 165.83" fill="#374d68" stroke-width="0"/>
          <polygon points="213.72 167.56 172.05 167.13 172.05 165.4 213.72 165.83 213.72 167.56" fill="#374d68" stroke-width="0"/>
          <polygon points="213.72 169.3 172.05 168.86 172.05 167.13 213.72 167.56 213.72 169.3" fill="#374d68" stroke-width="0"/>
          <polygon points="213.72 171.03 172.05 170.59 172.05 168.86 213.72 169.3 213.72 171.03" fill="#374d68" stroke-width="0"/>
          <polygon points="213.72 172.76 172.05 172.32 172.05 170.59 213.72 171.03 213.72 172.76" fill="#374d68" stroke-width="0"/>
          <polygon points="213.72 174.49 172.05 174.05 172.05 172.32 213.72 172.76 213.72 174.49" fill="#374d68" stroke-width="0"/>
          <polygon points="213.72 176.22 172.05 175.78 172.05 174.05 213.72 174.49 213.72 176.22" fill="#374d68" stroke-width="0"/>
          <polygon points="213.72 177.95 172.05 177.51 172.05 175.78 213.72 176.22 213.72 177.95" fill="#374d68" stroke-width="0"/>
          <polygon points="213.72 179.68 172.05 179.24 172.05 177.51 213.72 177.95 213.72 179.68" fill="#374d68" stroke-width="0"/>
          <polygon points="213.72 181.41 172.05 180.97 172.05 179.24 213.72 179.68 213.72 181.41" fill="#374d68" stroke-width="0"/>
          <polygon points="213.72 183.14 172.05 182.71 172.05 180.97 213.72 181.41 213.72 183.14" fill="#374d68" stroke-width="0"/>
          <polygon points="213.72 184.87 172.05 184.44 172.05 182.71 213.72 183.14 213.72 184.87" fill="#374d68" stroke-width="0"/>
          <polygon points="213.72 186.6 172.05 186.17 172.05 184.44 213.72 184.87 213.72 186.6" fill="#374d68" stroke-width="0"/>
          <polygon points="213.72 188.34 172.05 187.9 172.05 186.17 213.72 186.6 213.72 188.34" fill="#374d68" stroke-width="0"/>
          <polygon points="172.05 187.9 213.72 188.34 213.72 188.34 172.05 188.34 172.05 187.9" fill="#374d68" stroke-width="0"/>
        </g>
      </g>
      <g>
        <path d="M83.06,185.34l-28.82,3c-3.55,0-6.43-2.88-6.43-6.43v-63.35c0-3.55,2.88-6.43,6.43-6.43l28.82,3c3.55,0,6.43,2.88,6.43,6.43v57.35c0,3.55-2.88,6.43-6.43,6.43Z" fill="#374d68"/>
        <g clip-path="url(#clippath-1)">
          <polygon points="89.49 112.48 56.85 112.14 89.49 112.14 89.49 112.48" fill="#374d68" stroke-width="0"/>
          <polygon points="89.49 114.21 47.82 113.77 47.82 112.14 56.85 112.14 89.49 112.48 89.49 114.21" fill="#374d68" stroke-width="0"/>
          <polygon points="89.49 115.94 47.82 115.5 47.82 113.77 89.49 114.21 89.49 115.94" fill="#374d68" stroke-width="0"/>
          <polygon points="89.49 117.67 47.82 117.23 47.82 115.5 89.49 115.94 89.49 117.67" fill="#374d68" stroke-width="0"/>
          <polygon points="89.49 119.4 47.82 118.97 47.82 117.23 89.49 117.67 89.49 119.4" fill="#374d68" stroke-width="0"/>
          <polygon points="89.49 121.13 47.82 120.7 47.82 118.97 89.49 119.4 89.49 121.13" fill="#374d68" stroke-width="0"/>
          <polygon points="89.49 122.86 47.82 122.43 47.82 120.7 89.49 121.13 89.49 122.86" fill="#374d68" stroke-width="0"/>
          <polygon points="89.49 124.6 47.82 124.16 47.82 122.43 89.49 122.86 89.49 124.6" fill="#374d68" stroke-width="0"/>
          <polygon points="89.49 126.33 47.82 125.89 47.82 124.16 89.49 124.6 89.49 126.33" fill="#374d68" stroke-width="0"/>
          <polygon points="89.49 128.06 47.82 127.62 47.82 125.89 89.49 126.33 89.49 128.06" fill="#374d68" stroke-width="0"/>
          <polygon points="89.49 129.79 47.82 129.35 47.82 127.62 89.49 128.06 89.49 129.79" fill="#374d68" stroke-width="0"/>
          <polygon points="89.49 131.52 47.82 131.08 47.82 129.35 89.49 129.79 89.49 131.52" fill="#374d68" stroke-width="0"/>
          <polygon points="89.49 133.25 47.82 132.81 47.82 131.08 89.49 131.52 89.49 133.25" fill="#374d68" stroke-width="0"/>
          <polygon points="89.49 134.98 47.82 134.54 47.82 132.81 89.49 133.25 89.49 134.98" fill="#374d68" stroke-width="0"/>
          <polygon points="89.49 136.71 47.82 136.27 47.82 134.54 89.49 134.98 89.49 136.71" fill="#374d68" stroke-width="0"/>
          <polygon points="89.49 138.44 47.82 138.01 47.82 136.27 89.49 136.71 89.49 138.44" fill="#374d68" stroke-width="0"/>
          <polygon points="89.49 140.17 47.82 139.74 47.82 138.01 89.49 138.44 89.49 140.17" fill="#374d68" stroke-width="0"/>
          <polygon points="89.49 141.9 47.82 141.47 47.82 139.74 89.49 140.17 89.49 141.9" fill="#374d68" stroke-width="0"/>
          <polygon points="89.49 143.64 47.82 143.2 47.82 141.47 89.49 141.9 89.49 143.64" fill="#374d68" stroke-width="0"/>
          <polygon points="89.49 145.37 47.82 144.93 47.82 143.2 89.49 143.64 89.49 145.37" fill="#374d68" stroke-width="0"/>
          <polygon points="89.49 147.1 47.82 146.66 47.82 144.93 89.49 145.37 89.49 147.1" fill="#374d68" stroke-width="0"/>
          <polygon points="89.49 148.83 47.82 148.39 47.82 146.66 89.49 147.1 89.49 148.83" fill="#374d68" stroke-width="0"/>
          <polygon points="89.49 150.56 47.82 150.12 47.82 148.39 89.49 148.83 89.49 150.56" fill="#374d68" stroke-width="0"/>
          <polygon points="89.49 152.29 47.82 151.85 47.82 150.12 89.49 150.56 89.49 152.29" fill="#374d68" stroke-width="0"/>
          <polygon points="89.49 154.02 47.82 153.58 47.82 151.85 89.49 152.29 89.49 154.02" fill="#374d68" stroke-width="0"/>
          <polygon points="89.49 155.75 47.82 155.31 47.82 153.58 89.49 154.02 89.49 155.75" fill="#374d68" stroke-width="0"/>
          <polygon points="89.49 157.48 47.82 157.05 47.82 155.31 89.49 155.75 89.49 157.48" fill="#374d68" stroke-width="0"/>
          <polygon points="89.49 159.21 47.82 158.78 47.82 157.05 89.49 157.48 89.49 159.21" fill="#374d68" stroke-width="0"/>
          <polygon points="89.49 160.94 47.82 160.51 47.82 158.78 89.49 159.21 89.49 160.94" fill="#374d68" stroke-width="0"/>
          <polygon points="89.49 162.68 47.82 162.24 47.82 160.51 89.49 160.94 89.49 162.68" fill="#374d68" stroke-width="0"/>
          <polygon points="89.49 164.41 47.82 163.97 47.82 162.24 89.49 162.68 89.49 164.41" fill="#374d68" stroke-width="0"/>
          <polygon points="89.49 166.14 47.82 165.7 47.82 163.97 89.49 164.41 89.49 166.14" fill="#374d68" stroke-width="0"/>
          <polygon points="89.49 167.87 47.82 167.43 47.82 165.7 89.49 166.14 89.49 167.87" fill="#374d68" stroke-width="0"/>
          <polygon points="89.49 169.6 47.82 169.16 47.82 167.43 89.49 167.87 89.49 169.6" fill="#374d68" stroke-width="0"/>
          <polygon points="89.49 171.33 47.82 170.89 47.82 169.16 89.49 169.6 89.49 171.33" fill="#374d68" stroke-width="0"/>
          <polygon points="89.49 173.06 47.82 172.62 47.82 170.89 89.49 171.33 89.49 173.06" fill="#374d68" stroke-width="0"/>
          <polygon points="89.49 174.79 47.82 174.35 47.82 172.62 89.49 173.06 89.49 174.79" fill="#374d68" stroke-width="0"/>
          <polygon points="89.49 176.52 47.82 176.08 47.82 174.35 89.49 174.79 89.49 176.52" fill="#374d68" stroke-width="0"/>
          <polygon points="89.49 178.25 47.82 177.82 47.82 176.08 89.49 176.52 89.49 178.25" fill="#374d68" stroke-width="0"/>
          <polygon points="89.49 179.98 47.82 179.55 47.82 177.82 89.49 178.25 89.49 179.98" fill="#374d68" stroke-width="0"/>
          <polygon points="89.49 181.72 47.82 181.28 47.82 179.55 89.49 179.98 89.49 181.72" fill="#374d68" stroke-width="0"/>
          <polygon points="89.49 183.45 47.82 183.01 47.82 181.28 89.49 181.72 89.49 183.45" fill="#374d68" stroke-width="0"/>
          <polygon points="89.49 185.18 47.82 184.74 47.82 183.01 89.49 183.45 89.49 185.18" fill="#374d68" stroke-width="0"/>
          <polygon points="89.49 186.91 47.82 186.47 47.82 184.74 89.49 185.18 89.49 186.91" fill="#374d68" stroke-width="0"/>
          <polygon points="60.83 188.34 47.82 188.2 47.82 186.47 89.49 186.91 89.49 188.34 60.83 188.34" fill="#374d68" stroke-width="0"/>
          <polygon points="47.82 188.2 60.83 188.34 47.82 188.34 47.82 188.2" fill="#374d68" stroke-width="0"/>
        </g>
      </g>
      <g>
        <rect x="87.98" y="126.84" width="85.59" height="46.8" rx="7.22" ry="7.22" transform="translate(281.01 19.47) rotate(90)" fill="#374d68"/>
        <g clip-path="url(#clippath-2)">
          <polygon points="154.17 107.49 149.93 107.44 154.17 107.44 154.17 107.49" fill="#374d68" stroke-width="0"/>
          <polygon points="154.17 109.44 107.37 108.95 107.37 107.44 149.93 107.44 154.17 107.49 154.17 109.44" fill="#374d68" stroke-width="0"/>
          <polygon points="154.17 111.39 107.37 110.9 107.37 108.95 154.17 109.44 154.17 111.39" fill="#374d68" stroke-width="0"/>
          <polygon points="154.17 113.34 107.37 112.85 107.37 110.9 154.17 111.39 154.17 113.34" fill="#374d68" stroke-width="0"/>
          <polygon points="154.17 115.29 107.37 114.8 107.37 112.85 154.17 113.34 154.17 115.29" fill="#374d68" stroke-width="0"/>
          <polygon points="154.17 117.25 107.37 116.76 107.37 114.8 154.17 115.29 154.17 117.25" fill="#374d68" stroke-width="0"/>
          <polygon points="154.17 119.2 107.37 118.71 107.37 116.76 154.17 117.25 154.17 119.2" fill="#374d68" stroke-width="0"/>
          <polygon points="154.17 121.15 107.37 120.66 107.37 118.71 154.17 119.2 154.17 121.15" fill="#374d68" stroke-width="0"/>
          <polygon points="154.17 123.1 107.37 122.61 107.37 120.66 154.17 121.15 154.17 123.1" fill="#374d68" stroke-width="0"/>
          <polygon points="154.17 125.05 107.37 124.56 107.37 122.61 154.17 123.1 154.17 125.05" fill="#374d68" stroke-width="0"/>
          <polygon points="154.17 127.01 107.37 126.51 107.37 124.56 154.17 125.05 154.17 127.01" fill="#374d68" stroke-width="0"/>
          <polygon points="154.17 128.96 107.37 128.47 107.37 126.51 154.17 127.01 154.17 128.96" fill="#374d68" stroke-width="0"/>
          <polygon points="154.17 130.91 107.37 130.42 107.37 128.47 154.17 128.96 154.17 130.91" fill="#374d68" stroke-width="0"/>
          <polygon points="154.17 132.86 107.37 132.37 107.37 130.42 154.17 130.91 154.17 132.86" fill="#374d68" stroke-width="0"/>
          <polygon points="154.17 134.81 107.37 134.32 107.37 132.37 154.17 132.86 154.17 134.81" fill="#374d68" stroke-width="0"/>
          <polygon points="154.17 136.77 107.37 136.27 107.37 134.32 154.17 134.81 154.17 136.77" fill="#374d68" stroke-width="0"/>
          <polygon points="154.17 138.72 107.37 138.23 107.37 136.27 154.17 136.77 154.17 138.72" fill="#374d68" stroke-width="0"/>
          <polygon points="154.17 140.67 107.37 140.18 107.37 138.23 154.17 138.72 154.17 140.67" fill="#374d68" stroke-width="0"/>
          <polygon points="154.17 142.62 107.37 142.13 107.37 140.18 154.17 140.67 154.17 142.62" fill="#374d68" stroke-width="0"/>
          <polygon points="154.17 144.57 107.37 144.08 107.37 142.13 154.17 142.62 154.17 144.57" fill="#374d68" stroke-width="0"/>
          <polygon points="154.17 146.52 107.37 146.03 107.37 144.08 154.17 144.57 154.17 146.52" fill="#374d68" stroke-width="0"/>
          <polygon points="154.17 148.48 107.37 147.98 107.37 146.03 154.17 146.52 154.17 148.48" fill="#374d68" stroke-width="0"/>
          <polygon points="154.17 150.43 107.37 149.94 107.37 147.98 154.17 148.48 154.17 150.43" fill="#374d68" stroke-width="0"/>
          <polygon points="154.17 152.38 107.37 151.89 107.37 149.94 154.17 150.43 154.17 152.38" fill="#374d68" stroke-width="0"/>
          <polygon points="154.17 154.33 107.37 153.84 107.37 151.89 154.17 152.38 154.17 154.33" fill="#374d68" stroke-width="0"/>
          <polygon points="154.17 156.28 107.37 155.79 107.37 153.84 154.17 154.33 154.17 156.28" fill="#374d68" stroke-width="0"/>
          <polygon points="154.17 158.24 107.37 157.74 107.37 155.79 154.17 156.28 154.17 158.24" fill="#374d68" stroke-width="0"/>
          <polygon points="154.17 160.19 107.37 159.7 107.37 157.74 154.17 158.24 154.17 160.19" fill="#374d68" stroke-width="0"/>
          <polygon points="154.17 162.14 107.37 161.65 107.37 159.7 154.17 160.19 154.17 162.14" fill="#374d68" stroke-width="0"/>
          <polygon points="154.17 164.09 107.37 163.6 107.37 161.65 154.17 162.14 154.17 164.09" fill="#374d68" stroke-width="0"/>
          <polygon points="154.17 166.04 107.37 165.55 107.37 163.6 154.17 164.09 154.17 166.04" fill="#374d68" stroke-width="0"/>
          <polygon points="154.17 168 107.37 167.5 107.37 165.55 154.17 166.04 154.17 168" fill="#374d68" stroke-width="0"/>
          <polygon points="154.17 169.95 107.37 169.46 107.37 167.5 154.17 168 154.17 169.95" fill="#374d68" stroke-width="0"/>
          <polygon points="154.17 171.9 107.37 171.41 107.37 169.46 154.17 169.95 154.17 171.9" fill="#374d68" stroke-width="0"/>
          <polygon points="154.17 173.85 107.37 173.36 107.37 171.41 154.17 171.9 154.17 173.85" fill="#374d68" stroke-width="0"/>
          <polygon points="154.17 175.8 107.37 175.31 107.37 173.36 154.17 173.85 154.17 175.8" fill="#374d68" stroke-width="0"/>
          <polygon points="154.17 177.75 107.37 177.26 107.37 175.31 154.17 175.8 154.17 177.75" fill="#374d68" stroke-width="0"/>
          <polygon points="154.17 179.71 107.37 179.21 107.37 177.26 154.17 177.75 154.17 179.71" fill="#374d68" stroke-width="0"/>
          <polygon points="154.17 181.66 107.37 181.17 107.37 179.21 154.17 179.71 154.17 181.66" fill="#374d68" stroke-width="0"/>
          <polygon points="154.17 183.61 107.37 183.12 107.37 181.17 154.17 181.66 154.17 183.61" fill="#374d68" stroke-width="0"/>
          <polygon points="154.17 185.56 107.37 185.07 107.37 183.12 154.17 183.61 154.17 185.56" fill="#374d68" stroke-width="0"/>
          <polygon points="154.17 187.51 107.37 187.02 107.37 185.07 154.17 185.56 154.17 187.51" fill="#374d68" stroke-width="0"/>
          <polygon points="154.17 189.47 107.37 188.97 107.37 187.02 154.17 187.51 154.17 189.47" fill="#374d68" stroke-width="0"/>
          <polygon points="154.17 191.42 107.37 190.93 107.37 188.97 154.17 189.47 154.17 191.42" fill="#374d68" stroke-width="0"/>
          <polygon points="122.02 193.03 107.37 192.88 107.37 190.93 154.17 191.42 154.17 193.03 122.02 193.03" fill="#374d68" stroke-width="0"/>
          <polygon points="107.37 192.88 122.02 193.03 107.37 193.03 107.37 192.88" fill="#374d68" stroke-width="0"/>
        </g>
      </g>
    </g>
  </g>
</svg>